%TF.GenerationSoftware,KiCad,Pcbnew,(5.1.9)-1*%
%TF.CreationDate,2021-05-13T01:41:10+02:00*%
%TF.ProjectId,CzujnikOdb,437a756a-6e69-46b4-9f64-622e6b696361,rev?*%
%TF.SameCoordinates,Original*%
%TF.FileFunction,Soldermask,Bot*%
%TF.FilePolarity,Negative*%
%FSLAX46Y46*%
G04 Gerber Fmt 4.6, Leading zero omitted, Abs format (unit mm)*
G04 Created by KiCad (PCBNEW (5.1.9)-1) date 2021-05-13 01:41:10*
%MOMM*%
%LPD*%
G01*
G04 APERTURE LIST*
%ADD10R,1.300000X0.600000*%
%ADD11R,1.700000X1.700000*%
%ADD12O,1.700000X1.700000*%
G04 APERTURE END LIST*
D10*
%TO.C,U8*%
X170435000Y-108345000D03*
X166505000Y-108345000D03*
X170435000Y-106545000D03*
X166505000Y-106545000D03*
%TD*%
%TO.C,U7*%
X158965000Y-105395000D03*
X155035000Y-105395000D03*
X158965000Y-103595000D03*
X155035000Y-103595000D03*
%TD*%
%TO.C,U6*%
X145965000Y-102395000D03*
X142035000Y-102395000D03*
X145965000Y-100595000D03*
X142035000Y-100595000D03*
%TD*%
%TO.C,U5*%
X132965000Y-99395000D03*
X129035000Y-99395000D03*
X132965000Y-97595000D03*
X129035000Y-97595000D03*
%TD*%
%TO.C,U4*%
X119965000Y-99395000D03*
X116035000Y-99395000D03*
X119965000Y-97595000D03*
X116035000Y-97595000D03*
%TD*%
%TO.C,U3*%
X106965000Y-102395000D03*
X103035000Y-102395000D03*
X106965000Y-100595000D03*
X103035000Y-100595000D03*
%TD*%
%TO.C,U2*%
X93965000Y-105395000D03*
X90035000Y-105395000D03*
X93965000Y-103595000D03*
X90035000Y-103595000D03*
%TD*%
%TO.C,U1*%
X80965000Y-108395000D03*
X77035000Y-108395000D03*
X80965000Y-106595000D03*
X77035000Y-106595000D03*
%TD*%
D11*
%TO.C,J1*%
X117120000Y-126190000D03*
D12*
X117120000Y-123650000D03*
X119660000Y-126190000D03*
X119660000Y-123650000D03*
X122200000Y-126190000D03*
X122200000Y-123650000D03*
X124740000Y-126190000D03*
X124740000Y-123650000D03*
X127280000Y-126190000D03*
X127280000Y-123650000D03*
X129820000Y-126190000D03*
X129820000Y-123650000D03*
%TD*%
%TO.C,R11*%
G36*
G01*
X134070001Y-102740000D02*
X133169999Y-102740000D01*
G75*
G02*
X132920000Y-102490001I0J249999D01*
G01*
X132920000Y-101789999D01*
G75*
G02*
X133169999Y-101540000I249999J0D01*
G01*
X134070001Y-101540000D01*
G75*
G02*
X134320000Y-101789999I0J-249999D01*
G01*
X134320000Y-102490001D01*
G75*
G02*
X134070001Y-102740000I-249999J0D01*
G01*
G37*
G36*
G01*
X134070001Y-104740000D02*
X133169999Y-104740000D01*
G75*
G02*
X132920000Y-104490001I0J249999D01*
G01*
X132920000Y-103789999D01*
G75*
G02*
X133169999Y-103540000I249999J0D01*
G01*
X134070001Y-103540000D01*
G75*
G02*
X134320000Y-103789999I0J-249999D01*
G01*
X134320000Y-104490001D01*
G75*
G02*
X134070001Y-104740000I-249999J0D01*
G01*
G37*
%TD*%
%TO.C,R9*%
G36*
G01*
X131330001Y-104730000D02*
X130429999Y-104730000D01*
G75*
G02*
X130180000Y-104480001I0J249999D01*
G01*
X130180000Y-103779999D01*
G75*
G02*
X130429999Y-103530000I249999J0D01*
G01*
X131330001Y-103530000D01*
G75*
G02*
X131580000Y-103779999I0J-249999D01*
G01*
X131580000Y-104480001D01*
G75*
G02*
X131330001Y-104730000I-249999J0D01*
G01*
G37*
G36*
G01*
X131330001Y-102730000D02*
X130429999Y-102730000D01*
G75*
G02*
X130180000Y-102480001I0J249999D01*
G01*
X130180000Y-101779999D01*
G75*
G02*
X130429999Y-101530000I249999J0D01*
G01*
X131330001Y-101530000D01*
G75*
G02*
X131580000Y-101779999I0J-249999D01*
G01*
X131580000Y-102480001D01*
G75*
G02*
X131330001Y-102730000I-249999J0D01*
G01*
G37*
%TD*%
%TO.C,R8*%
G36*
G01*
X121070001Y-102690000D02*
X120169999Y-102690000D01*
G75*
G02*
X119920000Y-102440001I0J249999D01*
G01*
X119920000Y-101739999D01*
G75*
G02*
X120169999Y-101490000I249999J0D01*
G01*
X121070001Y-101490000D01*
G75*
G02*
X121320000Y-101739999I0J-249999D01*
G01*
X121320000Y-102440001D01*
G75*
G02*
X121070001Y-102690000I-249999J0D01*
G01*
G37*
G36*
G01*
X121070001Y-104690000D02*
X120169999Y-104690000D01*
G75*
G02*
X119920000Y-104440001I0J249999D01*
G01*
X119920000Y-103739999D01*
G75*
G02*
X120169999Y-103490000I249999J0D01*
G01*
X121070001Y-103490000D01*
G75*
G02*
X121320000Y-103739999I0J-249999D01*
G01*
X121320000Y-104440001D01*
G75*
G02*
X121070001Y-104690000I-249999J0D01*
G01*
G37*
%TD*%
%TO.C,R6*%
G36*
G01*
X118780001Y-104710000D02*
X117879999Y-104710000D01*
G75*
G02*
X117630000Y-104460001I0J249999D01*
G01*
X117630000Y-103759999D01*
G75*
G02*
X117879999Y-103510000I249999J0D01*
G01*
X118780001Y-103510000D01*
G75*
G02*
X119030000Y-103759999I0J-249999D01*
G01*
X119030000Y-104460001D01*
G75*
G02*
X118780001Y-104710000I-249999J0D01*
G01*
G37*
G36*
G01*
X118780001Y-102710000D02*
X117879999Y-102710000D01*
G75*
G02*
X117630000Y-102460001I0J249999D01*
G01*
X117630000Y-101759999D01*
G75*
G02*
X117879999Y-101510000I249999J0D01*
G01*
X118780001Y-101510000D01*
G75*
G02*
X119030000Y-101759999I0J-249999D01*
G01*
X119030000Y-102460001D01*
G75*
G02*
X118780001Y-102710000I-249999J0D01*
G01*
G37*
%TD*%
%TO.C,R1*%
G36*
G01*
X80200001Y-114100000D02*
X79299999Y-114100000D01*
G75*
G02*
X79050000Y-113850001I0J249999D01*
G01*
X79050000Y-113149999D01*
G75*
G02*
X79299999Y-112900000I249999J0D01*
G01*
X80200001Y-112900000D01*
G75*
G02*
X80450000Y-113149999I0J-249999D01*
G01*
X80450000Y-113850001D01*
G75*
G02*
X80200001Y-114100000I-249999J0D01*
G01*
G37*
G36*
G01*
X80200001Y-112100000D02*
X79299999Y-112100000D01*
G75*
G02*
X79050000Y-111850001I0J249999D01*
G01*
X79050000Y-111149999D01*
G75*
G02*
X79299999Y-110900000I249999J0D01*
G01*
X80200001Y-110900000D01*
G75*
G02*
X80450000Y-111149999I0J-249999D01*
G01*
X80450000Y-111850001D01*
G75*
G02*
X80200001Y-112100000I-249999J0D01*
G01*
G37*
%TD*%
%TO.C,R2*%
G36*
G01*
X92790001Y-108790000D02*
X91889999Y-108790000D01*
G75*
G02*
X91640000Y-108540001I0J249999D01*
G01*
X91640000Y-107839999D01*
G75*
G02*
X91889999Y-107590000I249999J0D01*
G01*
X92790001Y-107590000D01*
G75*
G02*
X93040000Y-107839999I0J-249999D01*
G01*
X93040000Y-108540001D01*
G75*
G02*
X92790001Y-108790000I-249999J0D01*
G01*
G37*
G36*
G01*
X92790001Y-110790000D02*
X91889999Y-110790000D01*
G75*
G02*
X91640000Y-110540001I0J249999D01*
G01*
X91640000Y-109839999D01*
G75*
G02*
X91889999Y-109590000I249999J0D01*
G01*
X92790001Y-109590000D01*
G75*
G02*
X93040000Y-109839999I0J-249999D01*
G01*
X93040000Y-110540001D01*
G75*
G02*
X92790001Y-110790000I-249999J0D01*
G01*
G37*
%TD*%
%TO.C,R3*%
G36*
G01*
X82750001Y-112100000D02*
X81849999Y-112100000D01*
G75*
G02*
X81600000Y-111850001I0J249999D01*
G01*
X81600000Y-111149999D01*
G75*
G02*
X81849999Y-110900000I249999J0D01*
G01*
X82750001Y-110900000D01*
G75*
G02*
X83000000Y-111149999I0J-249999D01*
G01*
X83000000Y-111850001D01*
G75*
G02*
X82750001Y-112100000I-249999J0D01*
G01*
G37*
G36*
G01*
X82750001Y-114100000D02*
X81849999Y-114100000D01*
G75*
G02*
X81600000Y-113850001I0J249999D01*
G01*
X81600000Y-113149999D01*
G75*
G02*
X81849999Y-112900000I249999J0D01*
G01*
X82750001Y-112900000D01*
G75*
G02*
X83000000Y-113149999I0J-249999D01*
G01*
X83000000Y-113850001D01*
G75*
G02*
X82750001Y-114100000I-249999J0D01*
G01*
G37*
%TD*%
%TO.C,R4*%
G36*
G01*
X95330001Y-110820000D02*
X94429999Y-110820000D01*
G75*
G02*
X94180000Y-110570001I0J249999D01*
G01*
X94180000Y-109869999D01*
G75*
G02*
X94429999Y-109620000I249999J0D01*
G01*
X95330001Y-109620000D01*
G75*
G02*
X95580000Y-109869999I0J-249999D01*
G01*
X95580000Y-110570001D01*
G75*
G02*
X95330001Y-110820000I-249999J0D01*
G01*
G37*
G36*
G01*
X95330001Y-108820000D02*
X94429999Y-108820000D01*
G75*
G02*
X94180000Y-108570001I0J249999D01*
G01*
X94180000Y-107869999D01*
G75*
G02*
X94429999Y-107620000I249999J0D01*
G01*
X95330001Y-107620000D01*
G75*
G02*
X95580000Y-107869999I0J-249999D01*
G01*
X95580000Y-108570001D01*
G75*
G02*
X95330001Y-108820000I-249999J0D01*
G01*
G37*
%TD*%
%TO.C,R5*%
G36*
G01*
X105590001Y-105590000D02*
X104689999Y-105590000D01*
G75*
G02*
X104440000Y-105340001I0J249999D01*
G01*
X104440000Y-104639999D01*
G75*
G02*
X104689999Y-104390000I249999J0D01*
G01*
X105590001Y-104390000D01*
G75*
G02*
X105840000Y-104639999I0J-249999D01*
G01*
X105840000Y-105340001D01*
G75*
G02*
X105590001Y-105590000I-249999J0D01*
G01*
G37*
G36*
G01*
X105590001Y-107590000D02*
X104689999Y-107590000D01*
G75*
G02*
X104440000Y-107340001I0J249999D01*
G01*
X104440000Y-106639999D01*
G75*
G02*
X104689999Y-106390000I249999J0D01*
G01*
X105590001Y-106390000D01*
G75*
G02*
X105840000Y-106639999I0J-249999D01*
G01*
X105840000Y-107340001D01*
G75*
G02*
X105590001Y-107590000I-249999J0D01*
G01*
G37*
%TD*%
%TO.C,R7*%
G36*
G01*
X107840001Y-107570000D02*
X106939999Y-107570000D01*
G75*
G02*
X106690000Y-107320001I0J249999D01*
G01*
X106690000Y-106619999D01*
G75*
G02*
X106939999Y-106370000I249999J0D01*
G01*
X107840001Y-106370000D01*
G75*
G02*
X108090000Y-106619999I0J-249999D01*
G01*
X108090000Y-107320001D01*
G75*
G02*
X107840001Y-107570000I-249999J0D01*
G01*
G37*
G36*
G01*
X107840001Y-105570000D02*
X106939999Y-105570000D01*
G75*
G02*
X106690000Y-105320001I0J249999D01*
G01*
X106690000Y-104619999D01*
G75*
G02*
X106939999Y-104370000I249999J0D01*
G01*
X107840001Y-104370000D01*
G75*
G02*
X108090000Y-104619999I0J-249999D01*
G01*
X108090000Y-105320001D01*
G75*
G02*
X107840001Y-105570000I-249999J0D01*
G01*
G37*
%TD*%
%TO.C,R10*%
G36*
G01*
X144610001Y-105310000D02*
X143709999Y-105310000D01*
G75*
G02*
X143460000Y-105060001I0J249999D01*
G01*
X143460000Y-104359999D01*
G75*
G02*
X143709999Y-104110000I249999J0D01*
G01*
X144610001Y-104110000D01*
G75*
G02*
X144860000Y-104359999I0J-249999D01*
G01*
X144860000Y-105060001D01*
G75*
G02*
X144610001Y-105310000I-249999J0D01*
G01*
G37*
G36*
G01*
X144610001Y-107310000D02*
X143709999Y-107310000D01*
G75*
G02*
X143460000Y-107060001I0J249999D01*
G01*
X143460000Y-106359999D01*
G75*
G02*
X143709999Y-106110000I249999J0D01*
G01*
X144610001Y-106110000D01*
G75*
G02*
X144860000Y-106359999I0J-249999D01*
G01*
X144860000Y-107060001D01*
G75*
G02*
X144610001Y-107310000I-249999J0D01*
G01*
G37*
%TD*%
%TO.C,R12*%
G36*
G01*
X146950001Y-107310000D02*
X146049999Y-107310000D01*
G75*
G02*
X145800000Y-107060001I0J249999D01*
G01*
X145800000Y-106359999D01*
G75*
G02*
X146049999Y-106110000I249999J0D01*
G01*
X146950001Y-106110000D01*
G75*
G02*
X147200000Y-106359999I0J-249999D01*
G01*
X147200000Y-107060001D01*
G75*
G02*
X146950001Y-107310000I-249999J0D01*
G01*
G37*
G36*
G01*
X146950001Y-105310000D02*
X146049999Y-105310000D01*
G75*
G02*
X145800000Y-105060001I0J249999D01*
G01*
X145800000Y-104359999D01*
G75*
G02*
X146049999Y-104110000I249999J0D01*
G01*
X146950001Y-104110000D01*
G75*
G02*
X147200000Y-104359999I0J-249999D01*
G01*
X147200000Y-105060001D01*
G75*
G02*
X146950001Y-105310000I-249999J0D01*
G01*
G37*
%TD*%
%TO.C,R13*%
G36*
G01*
X157370001Y-110210000D02*
X156469999Y-110210000D01*
G75*
G02*
X156220000Y-109960001I0J249999D01*
G01*
X156220000Y-109259999D01*
G75*
G02*
X156469999Y-109010000I249999J0D01*
G01*
X157370001Y-109010000D01*
G75*
G02*
X157620000Y-109259999I0J-249999D01*
G01*
X157620000Y-109960001D01*
G75*
G02*
X157370001Y-110210000I-249999J0D01*
G01*
G37*
G36*
G01*
X157370001Y-108210000D02*
X156469999Y-108210000D01*
G75*
G02*
X156220000Y-107960001I0J249999D01*
G01*
X156220000Y-107259999D01*
G75*
G02*
X156469999Y-107010000I249999J0D01*
G01*
X157370001Y-107010000D01*
G75*
G02*
X157620000Y-107259999I0J-249999D01*
G01*
X157620000Y-107960001D01*
G75*
G02*
X157370001Y-108210000I-249999J0D01*
G01*
G37*
%TD*%
%TO.C,R14*%
G36*
G01*
X169170001Y-111290000D02*
X168269999Y-111290000D01*
G75*
G02*
X168020000Y-111040001I0J249999D01*
G01*
X168020000Y-110339999D01*
G75*
G02*
X168269999Y-110090000I249999J0D01*
G01*
X169170001Y-110090000D01*
G75*
G02*
X169420000Y-110339999I0J-249999D01*
G01*
X169420000Y-111040001D01*
G75*
G02*
X169170001Y-111290000I-249999J0D01*
G01*
G37*
G36*
G01*
X169170001Y-113290000D02*
X168269999Y-113290000D01*
G75*
G02*
X168020000Y-113040001I0J249999D01*
G01*
X168020000Y-112339999D01*
G75*
G02*
X168269999Y-112090000I249999J0D01*
G01*
X169170001Y-112090000D01*
G75*
G02*
X169420000Y-112339999I0J-249999D01*
G01*
X169420000Y-113040001D01*
G75*
G02*
X169170001Y-113290000I-249999J0D01*
G01*
G37*
%TD*%
%TO.C,R15*%
G36*
G01*
X159780001Y-108270000D02*
X158879999Y-108270000D01*
G75*
G02*
X158630000Y-108020001I0J249999D01*
G01*
X158630000Y-107319999D01*
G75*
G02*
X158879999Y-107070000I249999J0D01*
G01*
X159780001Y-107070000D01*
G75*
G02*
X160030000Y-107319999I0J-249999D01*
G01*
X160030000Y-108020001D01*
G75*
G02*
X159780001Y-108270000I-249999J0D01*
G01*
G37*
G36*
G01*
X159780001Y-110270000D02*
X158879999Y-110270000D01*
G75*
G02*
X158630000Y-110020001I0J249999D01*
G01*
X158630000Y-109319999D01*
G75*
G02*
X158879999Y-109070000I249999J0D01*
G01*
X159780001Y-109070000D01*
G75*
G02*
X160030000Y-109319999I0J-249999D01*
G01*
X160030000Y-110020001D01*
G75*
G02*
X159780001Y-110270000I-249999J0D01*
G01*
G37*
%TD*%
%TO.C,R16*%
G36*
G01*
X171630001Y-113280000D02*
X170729999Y-113280000D01*
G75*
G02*
X170480000Y-113030001I0J249999D01*
G01*
X170480000Y-112329999D01*
G75*
G02*
X170729999Y-112080000I249999J0D01*
G01*
X171630001Y-112080000D01*
G75*
G02*
X171880000Y-112329999I0J-249999D01*
G01*
X171880000Y-113030001D01*
G75*
G02*
X171630001Y-113280000I-249999J0D01*
G01*
G37*
G36*
G01*
X171630001Y-111280000D02*
X170729999Y-111280000D01*
G75*
G02*
X170480000Y-111030001I0J249999D01*
G01*
X170480000Y-110329999D01*
G75*
G02*
X170729999Y-110080000I249999J0D01*
G01*
X171630001Y-110080000D01*
G75*
G02*
X171880000Y-110329999I0J-249999D01*
G01*
X171880000Y-111030001D01*
G75*
G02*
X171630001Y-111280000I-249999J0D01*
G01*
G37*
%TD*%
M02*
