M48
; DRILL file {KiCad (5.1.9)-1} date 05/13/21 01:41:12
; FORMAT={-:-/ absolute / inch / decimal}
; #@! TF.CreationDate,2021-05-13T01:41:12+02:00
; #@! TF.GenerationSoftware,Kicad,Pcbnew,(5.1.9)-1
; #@! TF.FileFunction,Plated,1,2,PTH
FMAT,2
INCH
T1C0.0157
T2C0.0394
%
G90
G05
T1
X3.3291Y-4.3953
X3.9909Y-4.2614
X4.3472Y-4.1327
X4.8331Y-4.0535
X5.3335Y-4.0724
X5.8748Y-4.1634
X6.374Y-4.2752
X6.8075Y-4.4083
T2
X4.611Y-4.8681
X4.611Y-4.9681
X4.711Y-4.8681
X4.711Y-4.9681
X4.811Y-4.8681
X4.811Y-4.9681
X4.911Y-4.8681
X4.911Y-4.9681
X5.011Y-4.8681
X5.011Y-4.9681
X5.111Y-4.8681
X5.111Y-4.9681
T0
M30
