%TF.GenerationSoftware,KiCad,Pcbnew,(5.1.9)-1*%
%TF.CreationDate,2021-05-13T01:41:10+02:00*%
%TF.ProjectId,CzujnikOdb,437a756a-6e69-46b4-9f64-622e6b696361,rev?*%
%TF.SameCoordinates,Original*%
%TF.FileFunction,Copper,L2,Bot*%
%TF.FilePolarity,Positive*%
%FSLAX46Y46*%
G04 Gerber Fmt 4.6, Leading zero omitted, Abs format (unit mm)*
G04 Created by KiCad (PCBNEW (5.1.9)-1) date 2021-05-13 01:41:10*
%MOMM*%
%LPD*%
G01*
G04 APERTURE LIST*
%TA.AperFunction,SMDPad,CuDef*%
%ADD10R,1.300000X0.600000*%
%TD*%
%TA.AperFunction,ComponentPad*%
%ADD11R,1.700000X1.700000*%
%TD*%
%TA.AperFunction,ComponentPad*%
%ADD12O,1.700000X1.700000*%
%TD*%
%TA.AperFunction,ViaPad*%
%ADD13C,0.800000*%
%TD*%
%TA.AperFunction,Conductor*%
%ADD14C,0.500000*%
%TD*%
%TA.AperFunction,Conductor*%
%ADD15C,1.000000*%
%TD*%
%TA.AperFunction,Conductor*%
%ADD16C,0.750000*%
%TD*%
%TA.AperFunction,Conductor*%
%ADD17C,0.254000*%
%TD*%
%TA.AperFunction,Conductor*%
%ADD18C,0.100000*%
%TD*%
G04 APERTURE END LIST*
D10*
%TO.P,U8,4*%
%TO.N,Out8*%
X170435000Y-108345000D03*
%TO.P,U8,3*%
%TO.N,GND*%
X166505000Y-108345000D03*
%TO.P,U8,2*%
X170435000Y-106545000D03*
%TO.P,U8,1*%
%TO.N,Net-(R14-Pad2)*%
X166505000Y-106545000D03*
%TD*%
%TO.P,U7,4*%
%TO.N,Out7*%
X158965000Y-105395000D03*
%TO.P,U7,3*%
%TO.N,GND*%
X155035000Y-105395000D03*
%TO.P,U7,2*%
X158965000Y-103595000D03*
%TO.P,U7,1*%
%TO.N,Net-(R13-Pad2)*%
X155035000Y-103595000D03*
%TD*%
%TO.P,U6,4*%
%TO.N,Out6*%
X145965000Y-102395000D03*
%TO.P,U6,3*%
%TO.N,GND*%
X142035000Y-102395000D03*
%TO.P,U6,2*%
X145965000Y-100595000D03*
%TO.P,U6,1*%
%TO.N,Net-(R10-Pad2)*%
X142035000Y-100595000D03*
%TD*%
%TO.P,U5,4*%
%TO.N,Out5*%
X132965000Y-99395000D03*
%TO.P,U5,3*%
%TO.N,GND*%
X129035000Y-99395000D03*
%TO.P,U5,2*%
X132965000Y-97595000D03*
%TO.P,U5,1*%
%TO.N,Net-(R9-Pad2)*%
X129035000Y-97595000D03*
%TD*%
%TO.P,U4,4*%
%TO.N,Out4*%
X119965000Y-99395000D03*
%TO.P,U4,3*%
%TO.N,GND*%
X116035000Y-99395000D03*
%TO.P,U4,2*%
X119965000Y-97595000D03*
%TO.P,U4,1*%
%TO.N,Net-(R6-Pad2)*%
X116035000Y-97595000D03*
%TD*%
%TO.P,U3,4*%
%TO.N,Out3*%
X106965000Y-102395000D03*
%TO.P,U3,3*%
%TO.N,GND*%
X103035000Y-102395000D03*
%TO.P,U3,2*%
X106965000Y-100595000D03*
%TO.P,U3,1*%
%TO.N,Net-(R5-Pad2)*%
X103035000Y-100595000D03*
%TD*%
%TO.P,U2,4*%
%TO.N,Out2*%
X93965000Y-105395000D03*
%TO.P,U2,3*%
%TO.N,GND*%
X90035000Y-105395000D03*
%TO.P,U2,2*%
X93965000Y-103595000D03*
%TO.P,U2,1*%
%TO.N,Net-(R2-Pad2)*%
X90035000Y-103595000D03*
%TD*%
%TO.P,U1,4*%
%TO.N,Out1*%
X80965000Y-108395000D03*
%TO.P,U1,3*%
%TO.N,GND*%
X77035000Y-108395000D03*
%TO.P,U1,2*%
X80965000Y-106595000D03*
%TO.P,U1,1*%
%TO.N,Net-(R1-Pad2)*%
X77035000Y-106595000D03*
%TD*%
D11*
%TO.P,J1,1*%
%TO.N,Out4*%
X117120000Y-126190000D03*
D12*
%TO.P,J1,2*%
%TO.N,Out5*%
X117120000Y-123650000D03*
%TO.P,J1,3*%
%TO.N,Out3*%
X119660000Y-126190000D03*
%TO.P,J1,4*%
%TO.N,Out6*%
X119660000Y-123650000D03*
%TO.P,J1,5*%
%TO.N,Out2*%
X122200000Y-126190000D03*
%TO.P,J1,6*%
%TO.N,Out7*%
X122200000Y-123650000D03*
%TO.P,J1,7*%
%TO.N,Out1*%
X124740000Y-126190000D03*
%TO.P,J1,8*%
%TO.N,Out8*%
X124740000Y-123650000D03*
%TO.P,J1,9*%
%TO.N,+3V3*%
X127280000Y-126190000D03*
%TO.P,J1,10*%
%TO.N,GND*%
X127280000Y-123650000D03*
%TO.P,J1,11*%
%TO.N,+3V3*%
X129820000Y-126190000D03*
%TO.P,J1,12*%
%TO.N,GND*%
X129820000Y-123650000D03*
%TD*%
%TO.P,R11,2*%
%TO.N,Out5*%
%TA.AperFunction,SMDPad,CuDef*%
G36*
G01*
X134070001Y-102740000D02*
X133169999Y-102740000D01*
G75*
G02*
X132920000Y-102490001I0J249999D01*
G01*
X132920000Y-101789999D01*
G75*
G02*
X133169999Y-101540000I249999J0D01*
G01*
X134070001Y-101540000D01*
G75*
G02*
X134320000Y-101789999I0J-249999D01*
G01*
X134320000Y-102490001D01*
G75*
G02*
X134070001Y-102740000I-249999J0D01*
G01*
G37*
%TD.AperFunction*%
%TO.P,R11,1*%
%TO.N,+3V3*%
%TA.AperFunction,SMDPad,CuDef*%
G36*
G01*
X134070001Y-104740000D02*
X133169999Y-104740000D01*
G75*
G02*
X132920000Y-104490001I0J249999D01*
G01*
X132920000Y-103789999D01*
G75*
G02*
X133169999Y-103540000I249999J0D01*
G01*
X134070001Y-103540000D01*
G75*
G02*
X134320000Y-103789999I0J-249999D01*
G01*
X134320000Y-104490001D01*
G75*
G02*
X134070001Y-104740000I-249999J0D01*
G01*
G37*
%TD.AperFunction*%
%TD*%
%TO.P,R9,1*%
%TO.N,+3V3*%
%TA.AperFunction,SMDPad,CuDef*%
G36*
G01*
X131330001Y-104730000D02*
X130429999Y-104730000D01*
G75*
G02*
X130180000Y-104480001I0J249999D01*
G01*
X130180000Y-103779999D01*
G75*
G02*
X130429999Y-103530000I249999J0D01*
G01*
X131330001Y-103530000D01*
G75*
G02*
X131580000Y-103779999I0J-249999D01*
G01*
X131580000Y-104480001D01*
G75*
G02*
X131330001Y-104730000I-249999J0D01*
G01*
G37*
%TD.AperFunction*%
%TO.P,R9,2*%
%TO.N,Net-(R9-Pad2)*%
%TA.AperFunction,SMDPad,CuDef*%
G36*
G01*
X131330001Y-102730000D02*
X130429999Y-102730000D01*
G75*
G02*
X130180000Y-102480001I0J249999D01*
G01*
X130180000Y-101779999D01*
G75*
G02*
X130429999Y-101530000I249999J0D01*
G01*
X131330001Y-101530000D01*
G75*
G02*
X131580000Y-101779999I0J-249999D01*
G01*
X131580000Y-102480001D01*
G75*
G02*
X131330001Y-102730000I-249999J0D01*
G01*
G37*
%TD.AperFunction*%
%TD*%
%TO.P,R8,2*%
%TO.N,Out4*%
%TA.AperFunction,SMDPad,CuDef*%
G36*
G01*
X121070001Y-102690000D02*
X120169999Y-102690000D01*
G75*
G02*
X119920000Y-102440001I0J249999D01*
G01*
X119920000Y-101739999D01*
G75*
G02*
X120169999Y-101490000I249999J0D01*
G01*
X121070001Y-101490000D01*
G75*
G02*
X121320000Y-101739999I0J-249999D01*
G01*
X121320000Y-102440001D01*
G75*
G02*
X121070001Y-102690000I-249999J0D01*
G01*
G37*
%TD.AperFunction*%
%TO.P,R8,1*%
%TO.N,+3V3*%
%TA.AperFunction,SMDPad,CuDef*%
G36*
G01*
X121070001Y-104690000D02*
X120169999Y-104690000D01*
G75*
G02*
X119920000Y-104440001I0J249999D01*
G01*
X119920000Y-103739999D01*
G75*
G02*
X120169999Y-103490000I249999J0D01*
G01*
X121070001Y-103490000D01*
G75*
G02*
X121320000Y-103739999I0J-249999D01*
G01*
X121320000Y-104440001D01*
G75*
G02*
X121070001Y-104690000I-249999J0D01*
G01*
G37*
%TD.AperFunction*%
%TD*%
%TO.P,R6,1*%
%TO.N,+3V3*%
%TA.AperFunction,SMDPad,CuDef*%
G36*
G01*
X118780001Y-104710000D02*
X117879999Y-104710000D01*
G75*
G02*
X117630000Y-104460001I0J249999D01*
G01*
X117630000Y-103759999D01*
G75*
G02*
X117879999Y-103510000I249999J0D01*
G01*
X118780001Y-103510000D01*
G75*
G02*
X119030000Y-103759999I0J-249999D01*
G01*
X119030000Y-104460001D01*
G75*
G02*
X118780001Y-104710000I-249999J0D01*
G01*
G37*
%TD.AperFunction*%
%TO.P,R6,2*%
%TO.N,Net-(R6-Pad2)*%
%TA.AperFunction,SMDPad,CuDef*%
G36*
G01*
X118780001Y-102710000D02*
X117879999Y-102710000D01*
G75*
G02*
X117630000Y-102460001I0J249999D01*
G01*
X117630000Y-101759999D01*
G75*
G02*
X117879999Y-101510000I249999J0D01*
G01*
X118780001Y-101510000D01*
G75*
G02*
X119030000Y-101759999I0J-249999D01*
G01*
X119030000Y-102460001D01*
G75*
G02*
X118780001Y-102710000I-249999J0D01*
G01*
G37*
%TD.AperFunction*%
%TD*%
%TO.P,R1,1*%
%TO.N,+3V3*%
%TA.AperFunction,SMDPad,CuDef*%
G36*
G01*
X80200001Y-114100000D02*
X79299999Y-114100000D01*
G75*
G02*
X79050000Y-113850001I0J249999D01*
G01*
X79050000Y-113149999D01*
G75*
G02*
X79299999Y-112900000I249999J0D01*
G01*
X80200001Y-112900000D01*
G75*
G02*
X80450000Y-113149999I0J-249999D01*
G01*
X80450000Y-113850001D01*
G75*
G02*
X80200001Y-114100000I-249999J0D01*
G01*
G37*
%TD.AperFunction*%
%TO.P,R1,2*%
%TO.N,Net-(R1-Pad2)*%
%TA.AperFunction,SMDPad,CuDef*%
G36*
G01*
X80200001Y-112100000D02*
X79299999Y-112100000D01*
G75*
G02*
X79050000Y-111850001I0J249999D01*
G01*
X79050000Y-111149999D01*
G75*
G02*
X79299999Y-110900000I249999J0D01*
G01*
X80200001Y-110900000D01*
G75*
G02*
X80450000Y-111149999I0J-249999D01*
G01*
X80450000Y-111850001D01*
G75*
G02*
X80200001Y-112100000I-249999J0D01*
G01*
G37*
%TD.AperFunction*%
%TD*%
%TO.P,R2,2*%
%TO.N,Net-(R2-Pad2)*%
%TA.AperFunction,SMDPad,CuDef*%
G36*
G01*
X92790001Y-108790000D02*
X91889999Y-108790000D01*
G75*
G02*
X91640000Y-108540001I0J249999D01*
G01*
X91640000Y-107839999D01*
G75*
G02*
X91889999Y-107590000I249999J0D01*
G01*
X92790001Y-107590000D01*
G75*
G02*
X93040000Y-107839999I0J-249999D01*
G01*
X93040000Y-108540001D01*
G75*
G02*
X92790001Y-108790000I-249999J0D01*
G01*
G37*
%TD.AperFunction*%
%TO.P,R2,1*%
%TO.N,+3V3*%
%TA.AperFunction,SMDPad,CuDef*%
G36*
G01*
X92790001Y-110790000D02*
X91889999Y-110790000D01*
G75*
G02*
X91640000Y-110540001I0J249999D01*
G01*
X91640000Y-109839999D01*
G75*
G02*
X91889999Y-109590000I249999J0D01*
G01*
X92790001Y-109590000D01*
G75*
G02*
X93040000Y-109839999I0J-249999D01*
G01*
X93040000Y-110540001D01*
G75*
G02*
X92790001Y-110790000I-249999J0D01*
G01*
G37*
%TD.AperFunction*%
%TD*%
%TO.P,R3,2*%
%TO.N,Out1*%
%TA.AperFunction,SMDPad,CuDef*%
G36*
G01*
X82750001Y-112100000D02*
X81849999Y-112100000D01*
G75*
G02*
X81600000Y-111850001I0J249999D01*
G01*
X81600000Y-111149999D01*
G75*
G02*
X81849999Y-110900000I249999J0D01*
G01*
X82750001Y-110900000D01*
G75*
G02*
X83000000Y-111149999I0J-249999D01*
G01*
X83000000Y-111850001D01*
G75*
G02*
X82750001Y-112100000I-249999J0D01*
G01*
G37*
%TD.AperFunction*%
%TO.P,R3,1*%
%TO.N,+3V3*%
%TA.AperFunction,SMDPad,CuDef*%
G36*
G01*
X82750001Y-114100000D02*
X81849999Y-114100000D01*
G75*
G02*
X81600000Y-113850001I0J249999D01*
G01*
X81600000Y-113149999D01*
G75*
G02*
X81849999Y-112900000I249999J0D01*
G01*
X82750001Y-112900000D01*
G75*
G02*
X83000000Y-113149999I0J-249999D01*
G01*
X83000000Y-113850001D01*
G75*
G02*
X82750001Y-114100000I-249999J0D01*
G01*
G37*
%TD.AperFunction*%
%TD*%
%TO.P,R4,1*%
%TO.N,+3V3*%
%TA.AperFunction,SMDPad,CuDef*%
G36*
G01*
X95330001Y-110820000D02*
X94429999Y-110820000D01*
G75*
G02*
X94180000Y-110570001I0J249999D01*
G01*
X94180000Y-109869999D01*
G75*
G02*
X94429999Y-109620000I249999J0D01*
G01*
X95330001Y-109620000D01*
G75*
G02*
X95580000Y-109869999I0J-249999D01*
G01*
X95580000Y-110570001D01*
G75*
G02*
X95330001Y-110820000I-249999J0D01*
G01*
G37*
%TD.AperFunction*%
%TO.P,R4,2*%
%TO.N,Out2*%
%TA.AperFunction,SMDPad,CuDef*%
G36*
G01*
X95330001Y-108820000D02*
X94429999Y-108820000D01*
G75*
G02*
X94180000Y-108570001I0J249999D01*
G01*
X94180000Y-107869999D01*
G75*
G02*
X94429999Y-107620000I249999J0D01*
G01*
X95330001Y-107620000D01*
G75*
G02*
X95580000Y-107869999I0J-249999D01*
G01*
X95580000Y-108570001D01*
G75*
G02*
X95330001Y-108820000I-249999J0D01*
G01*
G37*
%TD.AperFunction*%
%TD*%
%TO.P,R5,2*%
%TO.N,Net-(R5-Pad2)*%
%TA.AperFunction,SMDPad,CuDef*%
G36*
G01*
X105590001Y-105590000D02*
X104689999Y-105590000D01*
G75*
G02*
X104440000Y-105340001I0J249999D01*
G01*
X104440000Y-104639999D01*
G75*
G02*
X104689999Y-104390000I249999J0D01*
G01*
X105590001Y-104390000D01*
G75*
G02*
X105840000Y-104639999I0J-249999D01*
G01*
X105840000Y-105340001D01*
G75*
G02*
X105590001Y-105590000I-249999J0D01*
G01*
G37*
%TD.AperFunction*%
%TO.P,R5,1*%
%TO.N,+3V3*%
%TA.AperFunction,SMDPad,CuDef*%
G36*
G01*
X105590001Y-107590000D02*
X104689999Y-107590000D01*
G75*
G02*
X104440000Y-107340001I0J249999D01*
G01*
X104440000Y-106639999D01*
G75*
G02*
X104689999Y-106390000I249999J0D01*
G01*
X105590001Y-106390000D01*
G75*
G02*
X105840000Y-106639999I0J-249999D01*
G01*
X105840000Y-107340001D01*
G75*
G02*
X105590001Y-107590000I-249999J0D01*
G01*
G37*
%TD.AperFunction*%
%TD*%
%TO.P,R7,1*%
%TO.N,+3V3*%
%TA.AperFunction,SMDPad,CuDef*%
G36*
G01*
X107840001Y-107570000D02*
X106939999Y-107570000D01*
G75*
G02*
X106690000Y-107320001I0J249999D01*
G01*
X106690000Y-106619999D01*
G75*
G02*
X106939999Y-106370000I249999J0D01*
G01*
X107840001Y-106370000D01*
G75*
G02*
X108090000Y-106619999I0J-249999D01*
G01*
X108090000Y-107320001D01*
G75*
G02*
X107840001Y-107570000I-249999J0D01*
G01*
G37*
%TD.AperFunction*%
%TO.P,R7,2*%
%TO.N,Out3*%
%TA.AperFunction,SMDPad,CuDef*%
G36*
G01*
X107840001Y-105570000D02*
X106939999Y-105570000D01*
G75*
G02*
X106690000Y-105320001I0J249999D01*
G01*
X106690000Y-104619999D01*
G75*
G02*
X106939999Y-104370000I249999J0D01*
G01*
X107840001Y-104370000D01*
G75*
G02*
X108090000Y-104619999I0J-249999D01*
G01*
X108090000Y-105320001D01*
G75*
G02*
X107840001Y-105570000I-249999J0D01*
G01*
G37*
%TD.AperFunction*%
%TD*%
%TO.P,R10,2*%
%TO.N,Net-(R10-Pad2)*%
%TA.AperFunction,SMDPad,CuDef*%
G36*
G01*
X144610001Y-105310000D02*
X143709999Y-105310000D01*
G75*
G02*
X143460000Y-105060001I0J249999D01*
G01*
X143460000Y-104359999D01*
G75*
G02*
X143709999Y-104110000I249999J0D01*
G01*
X144610001Y-104110000D01*
G75*
G02*
X144860000Y-104359999I0J-249999D01*
G01*
X144860000Y-105060001D01*
G75*
G02*
X144610001Y-105310000I-249999J0D01*
G01*
G37*
%TD.AperFunction*%
%TO.P,R10,1*%
%TO.N,+3V3*%
%TA.AperFunction,SMDPad,CuDef*%
G36*
G01*
X144610001Y-107310000D02*
X143709999Y-107310000D01*
G75*
G02*
X143460000Y-107060001I0J249999D01*
G01*
X143460000Y-106359999D01*
G75*
G02*
X143709999Y-106110000I249999J0D01*
G01*
X144610001Y-106110000D01*
G75*
G02*
X144860000Y-106359999I0J-249999D01*
G01*
X144860000Y-107060001D01*
G75*
G02*
X144610001Y-107310000I-249999J0D01*
G01*
G37*
%TD.AperFunction*%
%TD*%
%TO.P,R12,1*%
%TO.N,+3V3*%
%TA.AperFunction,SMDPad,CuDef*%
G36*
G01*
X146950001Y-107310000D02*
X146049999Y-107310000D01*
G75*
G02*
X145800000Y-107060001I0J249999D01*
G01*
X145800000Y-106359999D01*
G75*
G02*
X146049999Y-106110000I249999J0D01*
G01*
X146950001Y-106110000D01*
G75*
G02*
X147200000Y-106359999I0J-249999D01*
G01*
X147200000Y-107060001D01*
G75*
G02*
X146950001Y-107310000I-249999J0D01*
G01*
G37*
%TD.AperFunction*%
%TO.P,R12,2*%
%TO.N,Out6*%
%TA.AperFunction,SMDPad,CuDef*%
G36*
G01*
X146950001Y-105310000D02*
X146049999Y-105310000D01*
G75*
G02*
X145800000Y-105060001I0J249999D01*
G01*
X145800000Y-104359999D01*
G75*
G02*
X146049999Y-104110000I249999J0D01*
G01*
X146950001Y-104110000D01*
G75*
G02*
X147200000Y-104359999I0J-249999D01*
G01*
X147200000Y-105060001D01*
G75*
G02*
X146950001Y-105310000I-249999J0D01*
G01*
G37*
%TD.AperFunction*%
%TD*%
%TO.P,R13,1*%
%TO.N,+3V3*%
%TA.AperFunction,SMDPad,CuDef*%
G36*
G01*
X157370001Y-110210000D02*
X156469999Y-110210000D01*
G75*
G02*
X156220000Y-109960001I0J249999D01*
G01*
X156220000Y-109259999D01*
G75*
G02*
X156469999Y-109010000I249999J0D01*
G01*
X157370001Y-109010000D01*
G75*
G02*
X157620000Y-109259999I0J-249999D01*
G01*
X157620000Y-109960001D01*
G75*
G02*
X157370001Y-110210000I-249999J0D01*
G01*
G37*
%TD.AperFunction*%
%TO.P,R13,2*%
%TO.N,Net-(R13-Pad2)*%
%TA.AperFunction,SMDPad,CuDef*%
G36*
G01*
X157370001Y-108210000D02*
X156469999Y-108210000D01*
G75*
G02*
X156220000Y-107960001I0J249999D01*
G01*
X156220000Y-107259999D01*
G75*
G02*
X156469999Y-107010000I249999J0D01*
G01*
X157370001Y-107010000D01*
G75*
G02*
X157620000Y-107259999I0J-249999D01*
G01*
X157620000Y-107960001D01*
G75*
G02*
X157370001Y-108210000I-249999J0D01*
G01*
G37*
%TD.AperFunction*%
%TD*%
%TO.P,R14,2*%
%TO.N,Net-(R14-Pad2)*%
%TA.AperFunction,SMDPad,CuDef*%
G36*
G01*
X169170001Y-111290000D02*
X168269999Y-111290000D01*
G75*
G02*
X168020000Y-111040001I0J249999D01*
G01*
X168020000Y-110339999D01*
G75*
G02*
X168269999Y-110090000I249999J0D01*
G01*
X169170001Y-110090000D01*
G75*
G02*
X169420000Y-110339999I0J-249999D01*
G01*
X169420000Y-111040001D01*
G75*
G02*
X169170001Y-111290000I-249999J0D01*
G01*
G37*
%TD.AperFunction*%
%TO.P,R14,1*%
%TO.N,+3V3*%
%TA.AperFunction,SMDPad,CuDef*%
G36*
G01*
X169170001Y-113290000D02*
X168269999Y-113290000D01*
G75*
G02*
X168020000Y-113040001I0J249999D01*
G01*
X168020000Y-112339999D01*
G75*
G02*
X168269999Y-112090000I249999J0D01*
G01*
X169170001Y-112090000D01*
G75*
G02*
X169420000Y-112339999I0J-249999D01*
G01*
X169420000Y-113040001D01*
G75*
G02*
X169170001Y-113290000I-249999J0D01*
G01*
G37*
%TD.AperFunction*%
%TD*%
%TO.P,R15,2*%
%TO.N,Out7*%
%TA.AperFunction,SMDPad,CuDef*%
G36*
G01*
X159780001Y-108270000D02*
X158879999Y-108270000D01*
G75*
G02*
X158630000Y-108020001I0J249999D01*
G01*
X158630000Y-107319999D01*
G75*
G02*
X158879999Y-107070000I249999J0D01*
G01*
X159780001Y-107070000D01*
G75*
G02*
X160030000Y-107319999I0J-249999D01*
G01*
X160030000Y-108020001D01*
G75*
G02*
X159780001Y-108270000I-249999J0D01*
G01*
G37*
%TD.AperFunction*%
%TO.P,R15,1*%
%TO.N,+3V3*%
%TA.AperFunction,SMDPad,CuDef*%
G36*
G01*
X159780001Y-110270000D02*
X158879999Y-110270000D01*
G75*
G02*
X158630000Y-110020001I0J249999D01*
G01*
X158630000Y-109319999D01*
G75*
G02*
X158879999Y-109070000I249999J0D01*
G01*
X159780001Y-109070000D01*
G75*
G02*
X160030000Y-109319999I0J-249999D01*
G01*
X160030000Y-110020001D01*
G75*
G02*
X159780001Y-110270000I-249999J0D01*
G01*
G37*
%TD.AperFunction*%
%TD*%
%TO.P,R16,1*%
%TO.N,+3V3*%
%TA.AperFunction,SMDPad,CuDef*%
G36*
G01*
X171630001Y-113280000D02*
X170729999Y-113280000D01*
G75*
G02*
X170480000Y-113030001I0J249999D01*
G01*
X170480000Y-112329999D01*
G75*
G02*
X170729999Y-112080000I249999J0D01*
G01*
X171630001Y-112080000D01*
G75*
G02*
X171880000Y-112329999I0J-249999D01*
G01*
X171880000Y-113030001D01*
G75*
G02*
X171630001Y-113280000I-249999J0D01*
G01*
G37*
%TD.AperFunction*%
%TO.P,R16,2*%
%TO.N,Out8*%
%TA.AperFunction,SMDPad,CuDef*%
G36*
G01*
X171630001Y-111280000D02*
X170729999Y-111280000D01*
G75*
G02*
X170480000Y-111030001I0J249999D01*
G01*
X170480000Y-110329999D01*
G75*
G02*
X170729999Y-110080000I249999J0D01*
G01*
X171630001Y-110080000D01*
G75*
G02*
X171880000Y-110329999I0J-249999D01*
G01*
X171880000Y-111030001D01*
G75*
G02*
X171630001Y-111280000I-249999J0D01*
G01*
G37*
%TD.AperFunction*%
%TD*%
D13*
%TO.N,Out1*%
X84560000Y-111640000D03*
%TO.N,Out2*%
X101370000Y-108240000D03*
%TO.N,Out3*%
X110420000Y-104970000D03*
%TO.N,Out4*%
X122760000Y-102960000D03*
%TO.N,Out5*%
X135470000Y-103440000D03*
%TO.N,Out6*%
X149220000Y-105750000D03*
%TO.N,Out7*%
X161900000Y-108590000D03*
%TO.N,Out8*%
X172910000Y-111970000D03*
%TD*%
D14*
%TO.N,Out1*%
X82300000Y-109730000D02*
X80965000Y-108395000D01*
X82300000Y-111500000D02*
X82300000Y-109730000D01*
X82440000Y-111640000D02*
X82300000Y-111500000D01*
X84560000Y-111640000D02*
X82440000Y-111640000D01*
%TO.N,Out2*%
X94880000Y-106310000D02*
X93965000Y-105395000D01*
X94880000Y-108220000D02*
X94880000Y-106310000D01*
X94900000Y-108240000D02*
X94880000Y-108220000D01*
X101370000Y-108240000D02*
X94900000Y-108240000D01*
%TO.N,Out3*%
X107390000Y-102820000D02*
X106965000Y-102395000D01*
X107390000Y-104970000D02*
X107390000Y-102820000D01*
X110420000Y-104970000D02*
X107390000Y-104970000D01*
%TO.N,Out4*%
X120620000Y-100050000D02*
X119965000Y-99395000D01*
X120620000Y-102090000D02*
X120620000Y-100050000D01*
X121890000Y-102090000D02*
X122760000Y-102960000D01*
X120620000Y-102090000D02*
X121890000Y-102090000D01*
%TO.N,Out5*%
X133620000Y-100050000D02*
X132965000Y-99395000D01*
X133620000Y-102140000D02*
X133620000Y-100050000D01*
X134920000Y-103440000D02*
X133620000Y-102140000D01*
X135470000Y-103440000D02*
X134920000Y-103440000D01*
%TO.N,Out6*%
X146500000Y-102930000D02*
X145965000Y-102395000D01*
X146500000Y-104710000D02*
X146500000Y-102930000D01*
X147540000Y-105750000D02*
X146500000Y-104710000D01*
X149220000Y-105750000D02*
X147540000Y-105750000D01*
%TO.N,Out7*%
X159330000Y-105760000D02*
X158965000Y-105395000D01*
X159330000Y-107670000D02*
X159330000Y-105760000D01*
X160250000Y-108590000D02*
X159330000Y-107670000D01*
X161900000Y-108590000D02*
X160250000Y-108590000D01*
%TO.N,Out8*%
X170435000Y-109935000D02*
X171180000Y-110680000D01*
X170435000Y-108345000D02*
X170435000Y-109935000D01*
X172470000Y-111970000D02*
X171180000Y-110680000D01*
X172910000Y-111970000D02*
X172470000Y-111970000D01*
D15*
%TO.N,+3V3*%
X127280000Y-126190000D02*
X129820000Y-126190000D01*
D16*
X159270000Y-109610000D02*
X159330000Y-109670000D01*
X156920000Y-109610000D02*
X159270000Y-109610000D01*
X144160000Y-106710000D02*
X146500000Y-106710000D01*
X130890000Y-104140000D02*
X130880000Y-104130000D01*
X133620000Y-104140000D02*
X130890000Y-104140000D01*
X120600000Y-104110000D02*
X120620000Y-104090000D01*
X118330000Y-104110000D02*
X120600000Y-104110000D01*
X107370000Y-106990000D02*
X107390000Y-106970000D01*
X105140000Y-106990000D02*
X107370000Y-106990000D01*
X94850000Y-110190000D02*
X94880000Y-110220000D01*
X92340000Y-110190000D02*
X94850000Y-110190000D01*
X79750000Y-113500000D02*
X82300000Y-113500000D01*
X143830000Y-109610000D02*
X149160000Y-109610000D01*
X152290000Y-112740000D02*
X149160000Y-109610000D01*
X146500000Y-106710000D02*
X146500000Y-106940000D01*
X146500000Y-106940000D02*
X143830000Y-109610000D01*
X149160000Y-109610000D02*
X156920000Y-109610000D01*
X131245001Y-122194999D02*
X143830000Y-109610000D01*
X129820000Y-126190000D02*
X131245001Y-124764999D01*
X131245001Y-124764999D02*
X131245001Y-122194999D01*
X139090000Y-109610000D02*
X133620000Y-104140000D01*
X143830000Y-109610000D02*
X139090000Y-109610000D01*
X126140000Y-109610000D02*
X120620000Y-104090000D01*
X139090000Y-109610000D02*
X126140000Y-109610000D01*
X126140000Y-109610000D02*
X110030000Y-109610000D01*
X110030000Y-109610000D02*
X107390000Y-106970000D01*
X109420000Y-110220000D02*
X110030000Y-109610000D01*
X94880000Y-110220000D02*
X100870000Y-110220000D01*
X100870000Y-110220000D02*
X109420000Y-110220000D01*
X82300000Y-113500000D02*
X97590000Y-113500000D01*
X97590000Y-113500000D02*
X100870000Y-110220000D01*
X168670000Y-112740000D02*
X168720000Y-112690000D01*
X152290000Y-112740000D02*
X168670000Y-112740000D01*
X171170000Y-112690000D02*
X171180000Y-112680000D01*
X168720000Y-112690000D02*
X171170000Y-112690000D01*
D14*
%TO.N,GND*%
X145539998Y-100700000D02*
X145800000Y-100700000D01*
D15*
X127280000Y-123650000D02*
X129820000Y-123650000D01*
D14*
%TO.N,Net-(R1-Pad2)*%
X77339998Y-106700000D02*
X77200000Y-106700000D01*
X77035000Y-106634998D02*
X77035000Y-106595000D01*
X79750000Y-109349998D02*
X77035000Y-106634998D01*
X79750000Y-111500000D02*
X79750000Y-109349998D01*
%TO.N,Net-(R2-Pad2)*%
X90035000Y-103634998D02*
X90035000Y-103595000D01*
X92340000Y-105939998D02*
X90035000Y-103634998D01*
X92340000Y-108190000D02*
X92340000Y-105939998D01*
%TO.N,Net-(R5-Pad2)*%
X103035000Y-100634998D02*
X103035000Y-100595000D01*
X105140000Y-102739998D02*
X103035000Y-100634998D01*
X105140000Y-104990000D02*
X105140000Y-102739998D01*
%TO.N,Net-(R6-Pad2)*%
X118330000Y-99890000D02*
X118330000Y-102110000D01*
X116035000Y-97595000D02*
X118330000Y-99890000D01*
%TO.N,Net-(R9-Pad2)*%
X130880000Y-99440000D02*
X129035000Y-97595000D01*
X130880000Y-102130000D02*
X130880000Y-99440000D01*
%TO.N,Net-(R10-Pad2)*%
X144160000Y-102720000D02*
X142035000Y-100595000D01*
X144160000Y-104710000D02*
X144160000Y-102720000D01*
%TO.N,Net-(R13-Pad2)*%
X156920000Y-105480000D02*
X155035000Y-103595000D01*
X156920000Y-107610000D02*
X156920000Y-105480000D01*
%TO.N,Net-(R14-Pad2)*%
X168720000Y-108760000D02*
X166505000Y-106545000D01*
X168720000Y-110690000D02*
X168720000Y-108760000D01*
%TD*%
D17*
%TO.N,GND*%
X130510000Y-94162594D02*
X130507486Y-94180002D01*
X130510000Y-94227455D01*
X130510000Y-94242418D01*
X130511716Y-94259837D01*
X130514364Y-94309827D01*
X130518075Y-94324404D01*
X130519550Y-94339382D01*
X130534087Y-94387302D01*
X130546437Y-94435817D01*
X130552922Y-94449394D01*
X130557290Y-94463792D01*
X130580896Y-94507956D01*
X130602474Y-94553129D01*
X130611481Y-94565176D01*
X130618575Y-94578449D01*
X130650342Y-94617158D01*
X130680320Y-94657256D01*
X130691507Y-94667317D01*
X130701052Y-94678948D01*
X130739763Y-94710718D01*
X130776984Y-94744193D01*
X130789915Y-94751876D01*
X130801550Y-94761425D01*
X130845717Y-94785033D01*
X130888752Y-94810603D01*
X130902937Y-94815617D01*
X130916207Y-94822710D01*
X130964134Y-94837249D01*
X130980614Y-94843074D01*
X130995121Y-94846649D01*
X131040617Y-94860450D01*
X131058130Y-94862175D01*
X171769799Y-104894022D01*
X176032215Y-117590000D01*
X141482419Y-117590000D01*
X141450000Y-117586807D01*
X141417581Y-117590000D01*
X141320617Y-117599550D01*
X141196207Y-117637290D01*
X141081550Y-117698575D01*
X140981052Y-117781052D01*
X140898575Y-117881550D01*
X140837290Y-117996207D01*
X140799550Y-118120617D01*
X140786807Y-118250000D01*
X140790000Y-118282419D01*
X140790001Y-132540000D01*
X106110000Y-132540000D01*
X106110000Y-129774561D01*
X107511075Y-129774561D01*
X107511075Y-130225439D01*
X107599037Y-130667655D01*
X107771581Y-131084212D01*
X108022076Y-131459105D01*
X108340895Y-131777924D01*
X108715788Y-132028419D01*
X109132345Y-132200963D01*
X109574561Y-132288925D01*
X110025439Y-132288925D01*
X110467655Y-132200963D01*
X110884212Y-132028419D01*
X111259105Y-131777924D01*
X111577924Y-131459105D01*
X111828419Y-131084212D01*
X112000963Y-130667655D01*
X112088925Y-130225439D01*
X112088925Y-129774561D01*
X134911075Y-129774561D01*
X134911075Y-130225439D01*
X134999037Y-130667655D01*
X135171581Y-131084212D01*
X135422076Y-131459105D01*
X135740895Y-131777924D01*
X136115788Y-132028419D01*
X136532345Y-132200963D01*
X136974561Y-132288925D01*
X137425439Y-132288925D01*
X137867655Y-132200963D01*
X138284212Y-132028419D01*
X138659105Y-131777924D01*
X138977924Y-131459105D01*
X139228419Y-131084212D01*
X139400963Y-130667655D01*
X139488925Y-130225439D01*
X139488925Y-129774561D01*
X139400963Y-129332345D01*
X139228419Y-128915788D01*
X138977924Y-128540895D01*
X138659105Y-128222076D01*
X138284212Y-127971581D01*
X137867655Y-127799037D01*
X137425439Y-127711075D01*
X136974561Y-127711075D01*
X136532345Y-127799037D01*
X136115788Y-127971581D01*
X135740895Y-128222076D01*
X135422076Y-128540895D01*
X135171581Y-128915788D01*
X134999037Y-129332345D01*
X134911075Y-129774561D01*
X112088925Y-129774561D01*
X112000963Y-129332345D01*
X111828419Y-128915788D01*
X111577924Y-128540895D01*
X111259105Y-128222076D01*
X110884212Y-127971581D01*
X110467655Y-127799037D01*
X110025439Y-127711075D01*
X109574561Y-127711075D01*
X109132345Y-127799037D01*
X108715788Y-127971581D01*
X108340895Y-128222076D01*
X108022076Y-128540895D01*
X107771581Y-128915788D01*
X107599037Y-129332345D01*
X107511075Y-129774561D01*
X106110000Y-129774561D01*
X106110000Y-118282419D01*
X106113193Y-118250000D01*
X106100450Y-118120617D01*
X106062710Y-117996207D01*
X106001425Y-117881550D01*
X105918948Y-117781052D01*
X105818450Y-117698575D01*
X105703793Y-117637290D01*
X105579383Y-117599550D01*
X105482419Y-117590000D01*
X105450000Y-117586807D01*
X105417581Y-117590000D01*
X70867784Y-117590000D01*
X74659850Y-106295000D01*
X75746928Y-106295000D01*
X75746928Y-106895000D01*
X75759188Y-107019482D01*
X75795498Y-107139180D01*
X75854463Y-107249494D01*
X75933815Y-107346185D01*
X76030506Y-107425537D01*
X76140820Y-107484502D01*
X76260518Y-107520812D01*
X76385000Y-107533072D01*
X76681496Y-107533072D01*
X78865001Y-109716578D01*
X78865001Y-110380386D01*
X78806613Y-110411595D01*
X78672038Y-110522038D01*
X78561595Y-110656613D01*
X78479528Y-110810149D01*
X78428992Y-110976745D01*
X78411928Y-111149999D01*
X78411928Y-111850001D01*
X78428992Y-112023255D01*
X78479528Y-112189851D01*
X78561595Y-112343387D01*
X78672038Y-112477962D01*
X78698891Y-112500000D01*
X78672038Y-112522038D01*
X78561595Y-112656613D01*
X78479528Y-112810149D01*
X78428992Y-112976745D01*
X78411928Y-113149999D01*
X78411928Y-113850001D01*
X78428992Y-114023255D01*
X78479528Y-114189851D01*
X78561595Y-114343387D01*
X78672038Y-114477962D01*
X78806613Y-114588405D01*
X78960149Y-114670472D01*
X79126745Y-114721008D01*
X79299999Y-114738072D01*
X80200001Y-114738072D01*
X80373255Y-114721008D01*
X80539851Y-114670472D01*
X80693387Y-114588405D01*
X80788924Y-114510000D01*
X81261076Y-114510000D01*
X81356613Y-114588405D01*
X81510149Y-114670472D01*
X81676745Y-114721008D01*
X81849999Y-114738072D01*
X82750001Y-114738072D01*
X82923255Y-114721008D01*
X83089851Y-114670472D01*
X83243387Y-114588405D01*
X83338924Y-114510000D01*
X97540392Y-114510000D01*
X97590000Y-114514886D01*
X97787994Y-114495385D01*
X97845430Y-114477962D01*
X97978380Y-114437632D01*
X98153840Y-114343847D01*
X98307633Y-114217633D01*
X98339261Y-114179094D01*
X101288356Y-111230000D01*
X109370392Y-111230000D01*
X109420000Y-111234886D01*
X109617994Y-111215385D01*
X109657981Y-111203255D01*
X109808380Y-111157632D01*
X109983840Y-111063847D01*
X110137633Y-110937633D01*
X110169261Y-110899094D01*
X110448354Y-110620000D01*
X126090392Y-110620000D01*
X126140000Y-110624886D01*
X126189608Y-110620000D01*
X139040394Y-110620000D01*
X139089999Y-110624886D01*
X139139604Y-110620000D01*
X141391645Y-110620000D01*
X130565902Y-121445743D01*
X130527369Y-121477366D01*
X130495746Y-121515899D01*
X130495745Y-121515900D01*
X130401155Y-121631159D01*
X130307369Y-121806620D01*
X130249616Y-121997005D01*
X130230115Y-122194999D01*
X130235002Y-122244616D01*
X130235001Y-124346643D01*
X129876644Y-124705000D01*
X129673740Y-124705000D01*
X129386842Y-124762068D01*
X129116589Y-124874010D01*
X128873368Y-125036525D01*
X128854893Y-125055000D01*
X128245107Y-125055000D01*
X128226632Y-125036525D01*
X127983411Y-124874010D01*
X127713158Y-124762068D01*
X127426260Y-124705000D01*
X127133740Y-124705000D01*
X126846842Y-124762068D01*
X126576589Y-124874010D01*
X126333368Y-125036525D01*
X126126525Y-125243368D01*
X126010000Y-125417760D01*
X125893475Y-125243368D01*
X125686632Y-125036525D01*
X125512240Y-124920000D01*
X125686632Y-124803475D01*
X125893475Y-124596632D01*
X126055990Y-124353411D01*
X126167932Y-124083158D01*
X126225000Y-123796260D01*
X126225000Y-123503740D01*
X126167932Y-123216842D01*
X126055990Y-122946589D01*
X125893475Y-122703368D01*
X125686632Y-122496525D01*
X125443411Y-122334010D01*
X125173158Y-122222068D01*
X124886260Y-122165000D01*
X124593740Y-122165000D01*
X124306842Y-122222068D01*
X124036589Y-122334010D01*
X123793368Y-122496525D01*
X123586525Y-122703368D01*
X123470000Y-122877760D01*
X123353475Y-122703368D01*
X123146632Y-122496525D01*
X122903411Y-122334010D01*
X122633158Y-122222068D01*
X122346260Y-122165000D01*
X122053740Y-122165000D01*
X121766842Y-122222068D01*
X121496589Y-122334010D01*
X121253368Y-122496525D01*
X121046525Y-122703368D01*
X120930000Y-122877760D01*
X120813475Y-122703368D01*
X120606632Y-122496525D01*
X120363411Y-122334010D01*
X120093158Y-122222068D01*
X119806260Y-122165000D01*
X119513740Y-122165000D01*
X119226842Y-122222068D01*
X118956589Y-122334010D01*
X118713368Y-122496525D01*
X118506525Y-122703368D01*
X118390000Y-122877760D01*
X118273475Y-122703368D01*
X118066632Y-122496525D01*
X117823411Y-122334010D01*
X117553158Y-122222068D01*
X117266260Y-122165000D01*
X116973740Y-122165000D01*
X116686842Y-122222068D01*
X116416589Y-122334010D01*
X116173368Y-122496525D01*
X115966525Y-122703368D01*
X115804010Y-122946589D01*
X115692068Y-123216842D01*
X115635000Y-123503740D01*
X115635000Y-123796260D01*
X115692068Y-124083158D01*
X115804010Y-124353411D01*
X115966525Y-124596632D01*
X116098380Y-124728487D01*
X116025820Y-124750498D01*
X115915506Y-124809463D01*
X115818815Y-124888815D01*
X115739463Y-124985506D01*
X115680498Y-125095820D01*
X115644188Y-125215518D01*
X115631928Y-125340000D01*
X115631928Y-127040000D01*
X115644188Y-127164482D01*
X115680498Y-127284180D01*
X115739463Y-127394494D01*
X115818815Y-127491185D01*
X115915506Y-127570537D01*
X116025820Y-127629502D01*
X116145518Y-127665812D01*
X116270000Y-127678072D01*
X117970000Y-127678072D01*
X118094482Y-127665812D01*
X118214180Y-127629502D01*
X118324494Y-127570537D01*
X118421185Y-127491185D01*
X118500537Y-127394494D01*
X118559502Y-127284180D01*
X118581513Y-127211620D01*
X118713368Y-127343475D01*
X118956589Y-127505990D01*
X119226842Y-127617932D01*
X119513740Y-127675000D01*
X119806260Y-127675000D01*
X120093158Y-127617932D01*
X120363411Y-127505990D01*
X120606632Y-127343475D01*
X120813475Y-127136632D01*
X120930000Y-126962240D01*
X121046525Y-127136632D01*
X121253368Y-127343475D01*
X121496589Y-127505990D01*
X121766842Y-127617932D01*
X122053740Y-127675000D01*
X122346260Y-127675000D01*
X122633158Y-127617932D01*
X122903411Y-127505990D01*
X123146632Y-127343475D01*
X123353475Y-127136632D01*
X123470000Y-126962240D01*
X123586525Y-127136632D01*
X123793368Y-127343475D01*
X124036589Y-127505990D01*
X124306842Y-127617932D01*
X124593740Y-127675000D01*
X124886260Y-127675000D01*
X125173158Y-127617932D01*
X125443411Y-127505990D01*
X125686632Y-127343475D01*
X125893475Y-127136632D01*
X126010000Y-126962240D01*
X126126525Y-127136632D01*
X126333368Y-127343475D01*
X126576589Y-127505990D01*
X126846842Y-127617932D01*
X127133740Y-127675000D01*
X127426260Y-127675000D01*
X127713158Y-127617932D01*
X127983411Y-127505990D01*
X128226632Y-127343475D01*
X128245107Y-127325000D01*
X128854893Y-127325000D01*
X128873368Y-127343475D01*
X129116589Y-127505990D01*
X129386842Y-127617932D01*
X129673740Y-127675000D01*
X129966260Y-127675000D01*
X130253158Y-127617932D01*
X130523411Y-127505990D01*
X130766632Y-127343475D01*
X130973475Y-127136632D01*
X131135990Y-126893411D01*
X131247932Y-126623158D01*
X131305000Y-126336260D01*
X131305000Y-126133356D01*
X131924100Y-125514256D01*
X131962634Y-125482632D01*
X132088848Y-125328839D01*
X132182633Y-125153379D01*
X132240386Y-124962993D01*
X132255001Y-124814607D01*
X132255001Y-124814606D01*
X132259887Y-124764999D01*
X132255001Y-124715391D01*
X132255001Y-122613354D01*
X144248355Y-110620000D01*
X148741645Y-110620000D01*
X151540744Y-113419100D01*
X151572367Y-113457633D01*
X151726160Y-113583847D01*
X151901620Y-113677632D01*
X152092006Y-113735385D01*
X152240392Y-113750000D01*
X152240394Y-113750000D01*
X152289999Y-113754886D01*
X152339604Y-113750000D01*
X167742001Y-113750000D01*
X167776613Y-113778405D01*
X167930149Y-113860472D01*
X168096745Y-113911008D01*
X168269999Y-113928072D01*
X169170001Y-113928072D01*
X169343255Y-113911008D01*
X169509851Y-113860472D01*
X169663387Y-113778405D01*
X169758924Y-113700000D01*
X170153261Y-113700000D01*
X170236613Y-113768405D01*
X170390149Y-113850472D01*
X170556745Y-113901008D01*
X170729999Y-113918072D01*
X171630001Y-113918072D01*
X171803255Y-113901008D01*
X171969851Y-113850472D01*
X172123387Y-113768405D01*
X172257962Y-113657962D01*
X172368405Y-113523387D01*
X172450472Y-113369851D01*
X172501008Y-113203255D01*
X172518072Y-113030001D01*
X172518072Y-112927934D01*
X172608102Y-112965226D01*
X172808061Y-113005000D01*
X173011939Y-113005000D01*
X173211898Y-112965226D01*
X173400256Y-112887205D01*
X173569774Y-112773937D01*
X173713937Y-112629774D01*
X173827205Y-112460256D01*
X173905226Y-112271898D01*
X173945000Y-112071939D01*
X173945000Y-111868061D01*
X173905226Y-111668102D01*
X173827205Y-111479744D01*
X173713937Y-111310226D01*
X173569774Y-111166063D01*
X173400256Y-111052795D01*
X173211898Y-110974774D01*
X173011939Y-110935000D01*
X172808061Y-110935000D01*
X172706734Y-110955155D01*
X172518072Y-110766493D01*
X172518072Y-110329999D01*
X172501008Y-110156745D01*
X172450472Y-109990149D01*
X172368405Y-109836613D01*
X172257962Y-109702038D01*
X172123387Y-109591595D01*
X171969851Y-109509528D01*
X171803255Y-109458992D01*
X171630001Y-109441928D01*
X171320000Y-109441928D01*
X171320000Y-109237287D01*
X171329180Y-109234502D01*
X171439494Y-109175537D01*
X171536185Y-109096185D01*
X171615537Y-108999494D01*
X171674502Y-108889180D01*
X171710812Y-108769482D01*
X171723072Y-108645000D01*
X171723072Y-108045000D01*
X171710812Y-107920518D01*
X171674502Y-107800820D01*
X171615537Y-107690506D01*
X171536185Y-107593815D01*
X171439494Y-107514463D01*
X171329180Y-107455498D01*
X171209482Y-107419188D01*
X171085000Y-107406928D01*
X169785000Y-107406928D01*
X169660518Y-107419188D01*
X169540820Y-107455498D01*
X169430506Y-107514463D01*
X169333815Y-107593815D01*
X169254463Y-107690506D01*
X169195498Y-107800820D01*
X169159188Y-107920518D01*
X169156759Y-107945180D01*
X167793072Y-106581494D01*
X167793072Y-106245000D01*
X167780812Y-106120518D01*
X167744502Y-106000820D01*
X167685537Y-105890506D01*
X167606185Y-105793815D01*
X167509494Y-105714463D01*
X167399180Y-105655498D01*
X167279482Y-105619188D01*
X167155000Y-105606928D01*
X165855000Y-105606928D01*
X165730518Y-105619188D01*
X165610820Y-105655498D01*
X165500506Y-105714463D01*
X165403815Y-105793815D01*
X165324463Y-105890506D01*
X165265498Y-106000820D01*
X165229188Y-106120518D01*
X165216928Y-106245000D01*
X165216928Y-106845000D01*
X165229188Y-106969482D01*
X165265498Y-107089180D01*
X165324463Y-107199494D01*
X165403815Y-107296185D01*
X165500506Y-107375537D01*
X165610820Y-107434502D01*
X165730518Y-107470812D01*
X165855000Y-107483072D01*
X166191494Y-107483072D01*
X167835001Y-109126580D01*
X167835001Y-109570386D01*
X167776613Y-109601595D01*
X167642038Y-109712038D01*
X167531595Y-109846613D01*
X167449528Y-110000149D01*
X167398992Y-110166745D01*
X167381928Y-110339999D01*
X167381928Y-111040001D01*
X167398992Y-111213255D01*
X167449528Y-111379851D01*
X167531595Y-111533387D01*
X167642038Y-111667962D01*
X167668891Y-111690000D01*
X167642038Y-111712038D01*
X167627297Y-111730000D01*
X152708356Y-111730000D01*
X151598356Y-110620000D01*
X155881076Y-110620000D01*
X155976613Y-110698405D01*
X156130149Y-110780472D01*
X156296745Y-110831008D01*
X156469999Y-110848072D01*
X157370001Y-110848072D01*
X157543255Y-110831008D01*
X157709851Y-110780472D01*
X157863387Y-110698405D01*
X157958924Y-110620000D01*
X158229090Y-110620000D01*
X158252038Y-110647962D01*
X158386613Y-110758405D01*
X158540149Y-110840472D01*
X158706745Y-110891008D01*
X158879999Y-110908072D01*
X159780001Y-110908072D01*
X159953255Y-110891008D01*
X160119851Y-110840472D01*
X160273387Y-110758405D01*
X160407962Y-110647962D01*
X160518405Y-110513387D01*
X160600472Y-110359851D01*
X160651008Y-110193255D01*
X160668072Y-110020001D01*
X160668072Y-109475000D01*
X161361546Y-109475000D01*
X161409744Y-109507205D01*
X161598102Y-109585226D01*
X161798061Y-109625000D01*
X162001939Y-109625000D01*
X162201898Y-109585226D01*
X162390256Y-109507205D01*
X162559774Y-109393937D01*
X162703937Y-109249774D01*
X162817205Y-109080256D01*
X162895226Y-108891898D01*
X162935000Y-108691939D01*
X162935000Y-108488061D01*
X162895226Y-108288102D01*
X162817205Y-108099744D01*
X162703937Y-107930226D01*
X162559774Y-107786063D01*
X162390256Y-107672795D01*
X162201898Y-107594774D01*
X162001939Y-107555000D01*
X161798061Y-107555000D01*
X161598102Y-107594774D01*
X161409744Y-107672795D01*
X161361546Y-107705000D01*
X160668072Y-107705000D01*
X160668072Y-107319999D01*
X160651008Y-107146745D01*
X160600472Y-106980149D01*
X160518405Y-106826613D01*
X160407962Y-106692038D01*
X160273387Y-106581595D01*
X160215000Y-106550386D01*
X160215000Y-105904573D01*
X160240812Y-105819482D01*
X160253072Y-105695000D01*
X160253072Y-105095000D01*
X160240812Y-104970518D01*
X160204502Y-104850820D01*
X160145537Y-104740506D01*
X160066185Y-104643815D01*
X159969494Y-104564463D01*
X159859180Y-104505498D01*
X159739482Y-104469188D01*
X159615000Y-104456928D01*
X158315000Y-104456928D01*
X158190518Y-104469188D01*
X158070820Y-104505498D01*
X157960506Y-104564463D01*
X157863815Y-104643815D01*
X157784463Y-104740506D01*
X157725498Y-104850820D01*
X157689188Y-104970518D01*
X157683272Y-105030583D01*
X157659411Y-104985941D01*
X157576532Y-104884953D01*
X157576530Y-104884951D01*
X157548817Y-104851183D01*
X157515049Y-104823470D01*
X156323072Y-103631494D01*
X156323072Y-103295000D01*
X156310812Y-103170518D01*
X156274502Y-103050820D01*
X156215537Y-102940506D01*
X156136185Y-102843815D01*
X156039494Y-102764463D01*
X155929180Y-102705498D01*
X155809482Y-102669188D01*
X155685000Y-102656928D01*
X154385000Y-102656928D01*
X154260518Y-102669188D01*
X154140820Y-102705498D01*
X154030506Y-102764463D01*
X153933815Y-102843815D01*
X153854463Y-102940506D01*
X153795498Y-103050820D01*
X153759188Y-103170518D01*
X153746928Y-103295000D01*
X153746928Y-103895000D01*
X153759188Y-104019482D01*
X153795498Y-104139180D01*
X153854463Y-104249494D01*
X153933815Y-104346185D01*
X154030506Y-104425537D01*
X154140820Y-104484502D01*
X154260518Y-104520812D01*
X154385000Y-104533072D01*
X154721494Y-104533072D01*
X156035001Y-105846580D01*
X156035001Y-106490386D01*
X155976613Y-106521595D01*
X155842038Y-106632038D01*
X155731595Y-106766613D01*
X155649528Y-106920149D01*
X155598992Y-107086745D01*
X155581928Y-107259999D01*
X155581928Y-107960001D01*
X155598992Y-108133255D01*
X155649528Y-108299851D01*
X155731595Y-108453387D01*
X155842038Y-108587962D01*
X155856706Y-108600000D01*
X149209608Y-108600000D01*
X149160000Y-108595114D01*
X149110392Y-108600000D01*
X146268355Y-108600000D01*
X146920283Y-107948072D01*
X146950001Y-107948072D01*
X147123255Y-107931008D01*
X147289851Y-107880472D01*
X147443387Y-107798405D01*
X147577962Y-107687962D01*
X147688405Y-107553387D01*
X147770472Y-107399851D01*
X147821008Y-107233255D01*
X147838072Y-107060001D01*
X147838072Y-106635000D01*
X148681546Y-106635000D01*
X148729744Y-106667205D01*
X148918102Y-106745226D01*
X149118061Y-106785000D01*
X149321939Y-106785000D01*
X149521898Y-106745226D01*
X149710256Y-106667205D01*
X149879774Y-106553937D01*
X150023937Y-106409774D01*
X150137205Y-106240256D01*
X150215226Y-106051898D01*
X150255000Y-105851939D01*
X150255000Y-105648061D01*
X150215226Y-105448102D01*
X150137205Y-105259744D01*
X150023937Y-105090226D01*
X149879774Y-104946063D01*
X149710256Y-104832795D01*
X149521898Y-104754774D01*
X149321939Y-104715000D01*
X149118061Y-104715000D01*
X148918102Y-104754774D01*
X148729744Y-104832795D01*
X148681546Y-104865000D01*
X147906579Y-104865000D01*
X147838072Y-104796493D01*
X147838072Y-104359999D01*
X147821008Y-104186745D01*
X147770472Y-104020149D01*
X147688405Y-103866613D01*
X147577962Y-103732038D01*
X147443387Y-103621595D01*
X147385000Y-103590386D01*
X147385000Y-102973465D01*
X147389281Y-102929999D01*
X147385000Y-102886533D01*
X147385000Y-102886523D01*
X147372195Y-102756510D01*
X147321589Y-102589687D01*
X147253072Y-102461499D01*
X147253072Y-102095000D01*
X147240812Y-101970518D01*
X147204502Y-101850820D01*
X147145537Y-101740506D01*
X147066185Y-101643815D01*
X146969494Y-101564463D01*
X146859180Y-101505498D01*
X146739482Y-101469188D01*
X146615000Y-101456928D01*
X145315000Y-101456928D01*
X145190518Y-101469188D01*
X145070820Y-101505498D01*
X144960506Y-101564463D01*
X144863815Y-101643815D01*
X144784463Y-101740506D01*
X144725498Y-101850820D01*
X144689188Y-101970518D01*
X144686759Y-101995180D01*
X143323072Y-100631494D01*
X143323072Y-100295000D01*
X143310812Y-100170518D01*
X143274502Y-100050820D01*
X143215537Y-99940506D01*
X143136185Y-99843815D01*
X143039494Y-99764463D01*
X142929180Y-99705498D01*
X142809482Y-99669188D01*
X142685000Y-99656928D01*
X141385000Y-99656928D01*
X141260518Y-99669188D01*
X141140820Y-99705498D01*
X141030506Y-99764463D01*
X140933815Y-99843815D01*
X140854463Y-99940506D01*
X140795498Y-100050820D01*
X140759188Y-100170518D01*
X140746928Y-100295000D01*
X140746928Y-100895000D01*
X140759188Y-101019482D01*
X140795498Y-101139180D01*
X140854463Y-101249494D01*
X140933815Y-101346185D01*
X141030506Y-101425537D01*
X141140820Y-101484502D01*
X141260518Y-101520812D01*
X141385000Y-101533072D01*
X141721494Y-101533072D01*
X143275001Y-103086580D01*
X143275001Y-103590386D01*
X143216613Y-103621595D01*
X143082038Y-103732038D01*
X142971595Y-103866613D01*
X142889528Y-104020149D01*
X142838992Y-104186745D01*
X142821928Y-104359999D01*
X142821928Y-105060001D01*
X142838992Y-105233255D01*
X142889528Y-105399851D01*
X142971595Y-105553387D01*
X143082038Y-105687962D01*
X143108891Y-105710000D01*
X143082038Y-105732038D01*
X142971595Y-105866613D01*
X142889528Y-106020149D01*
X142838992Y-106186745D01*
X142821928Y-106359999D01*
X142821928Y-107060001D01*
X142838992Y-107233255D01*
X142889528Y-107399851D01*
X142971595Y-107553387D01*
X143082038Y-107687962D01*
X143216613Y-107798405D01*
X143370149Y-107880472D01*
X143536745Y-107931008D01*
X143709999Y-107948072D01*
X144063573Y-107948072D01*
X143411645Y-108600000D01*
X139508355Y-108600000D01*
X135383355Y-104475000D01*
X135571939Y-104475000D01*
X135771898Y-104435226D01*
X135960256Y-104357205D01*
X136129774Y-104243937D01*
X136273937Y-104099774D01*
X136387205Y-103930256D01*
X136465226Y-103741898D01*
X136505000Y-103541939D01*
X136505000Y-103338061D01*
X136465226Y-103138102D01*
X136387205Y-102949744D01*
X136273937Y-102780226D01*
X136129774Y-102636063D01*
X135960256Y-102522795D01*
X135771898Y-102444774D01*
X135571939Y-102405000D01*
X135368061Y-102405000D01*
X135174984Y-102443405D01*
X134958072Y-102226493D01*
X134958072Y-101789999D01*
X134941008Y-101616745D01*
X134890472Y-101450149D01*
X134808405Y-101296613D01*
X134697962Y-101162038D01*
X134563387Y-101051595D01*
X134505000Y-101020386D01*
X134505000Y-100093469D01*
X134509281Y-100050000D01*
X134505000Y-100006531D01*
X134505000Y-100006523D01*
X134492195Y-99876510D01*
X134441589Y-99709687D01*
X134359411Y-99555941D01*
X134253072Y-99426368D01*
X134253072Y-99095000D01*
X134240812Y-98970518D01*
X134204502Y-98850820D01*
X134145537Y-98740506D01*
X134066185Y-98643815D01*
X133969494Y-98564463D01*
X133859180Y-98505498D01*
X133739482Y-98469188D01*
X133615000Y-98456928D01*
X132315000Y-98456928D01*
X132190518Y-98469188D01*
X132070820Y-98505498D01*
X131960506Y-98564463D01*
X131863815Y-98643815D01*
X131784463Y-98740506D01*
X131725498Y-98850820D01*
X131689188Y-98970518D01*
X131680375Y-99059998D01*
X131619411Y-98945941D01*
X131508817Y-98811183D01*
X131475049Y-98783470D01*
X130323072Y-97631494D01*
X130323072Y-97295000D01*
X130310812Y-97170518D01*
X130274502Y-97050820D01*
X130215537Y-96940506D01*
X130136185Y-96843815D01*
X130039494Y-96764463D01*
X129929180Y-96705498D01*
X129809482Y-96669188D01*
X129685000Y-96656928D01*
X128385000Y-96656928D01*
X128260518Y-96669188D01*
X128140820Y-96705498D01*
X128030506Y-96764463D01*
X127933815Y-96843815D01*
X127854463Y-96940506D01*
X127795498Y-97050820D01*
X127759188Y-97170518D01*
X127746928Y-97295000D01*
X127746928Y-97895000D01*
X127759188Y-98019482D01*
X127795498Y-98139180D01*
X127854463Y-98249494D01*
X127933815Y-98346185D01*
X128030506Y-98425537D01*
X128140820Y-98484502D01*
X128260518Y-98520812D01*
X128385000Y-98533072D01*
X128721494Y-98533072D01*
X129995001Y-99806580D01*
X129995000Y-101010386D01*
X129936613Y-101041595D01*
X129802038Y-101152038D01*
X129691595Y-101286613D01*
X129609528Y-101440149D01*
X129558992Y-101606745D01*
X129541928Y-101779999D01*
X129541928Y-102480001D01*
X129558992Y-102653255D01*
X129609528Y-102819851D01*
X129691595Y-102973387D01*
X129802038Y-103107962D01*
X129828891Y-103130000D01*
X129802038Y-103152038D01*
X129691595Y-103286613D01*
X129609528Y-103440149D01*
X129558992Y-103606745D01*
X129541928Y-103779999D01*
X129541928Y-104480001D01*
X129558992Y-104653255D01*
X129609528Y-104819851D01*
X129691595Y-104973387D01*
X129802038Y-105107962D01*
X129936613Y-105218405D01*
X130090149Y-105300472D01*
X130256745Y-105351008D01*
X130429999Y-105368072D01*
X131330001Y-105368072D01*
X131503255Y-105351008D01*
X131669851Y-105300472D01*
X131823387Y-105218405D01*
X131906739Y-105150000D01*
X132581076Y-105150000D01*
X132676613Y-105228405D01*
X132830149Y-105310472D01*
X132996745Y-105361008D01*
X133169999Y-105378072D01*
X133429717Y-105378072D01*
X136651645Y-108600000D01*
X126558356Y-108600000D01*
X121958072Y-103999717D01*
X121958072Y-103739999D01*
X121944531Y-103602515D01*
X121956063Y-103619774D01*
X122100226Y-103763937D01*
X122269744Y-103877205D01*
X122458102Y-103955226D01*
X122658061Y-103995000D01*
X122861939Y-103995000D01*
X123061898Y-103955226D01*
X123250256Y-103877205D01*
X123419774Y-103763937D01*
X123563937Y-103619774D01*
X123677205Y-103450256D01*
X123755226Y-103261898D01*
X123795000Y-103061939D01*
X123795000Y-102858061D01*
X123755226Y-102658102D01*
X123677205Y-102469744D01*
X123563937Y-102300226D01*
X123419774Y-102156063D01*
X123250256Y-102042795D01*
X123061898Y-101964774D01*
X123005044Y-101953465D01*
X122546534Y-101494956D01*
X122518817Y-101461183D01*
X122384059Y-101350589D01*
X122230313Y-101268411D01*
X122063490Y-101217805D01*
X121933477Y-101205000D01*
X121933469Y-101205000D01*
X121890000Y-101200719D01*
X121846531Y-101205000D01*
X121774254Y-101205000D01*
X121697962Y-101112038D01*
X121563387Y-101001595D01*
X121505000Y-100970386D01*
X121505000Y-100093469D01*
X121509281Y-100050000D01*
X121505000Y-100006531D01*
X121505000Y-100006523D01*
X121492195Y-99876510D01*
X121441589Y-99709687D01*
X121359411Y-99555941D01*
X121253072Y-99426368D01*
X121253072Y-99095000D01*
X121240812Y-98970518D01*
X121204502Y-98850820D01*
X121145537Y-98740506D01*
X121066185Y-98643815D01*
X120969494Y-98564463D01*
X120859180Y-98505498D01*
X120739482Y-98469188D01*
X120615000Y-98456928D01*
X119315000Y-98456928D01*
X119190518Y-98469188D01*
X119070820Y-98505498D01*
X118960506Y-98564463D01*
X118863815Y-98643815D01*
X118784463Y-98740506D01*
X118725498Y-98850820D01*
X118689188Y-98970518D01*
X118686759Y-98995180D01*
X117323072Y-97631494D01*
X117323072Y-97295000D01*
X117310812Y-97170518D01*
X117274502Y-97050820D01*
X117215537Y-96940506D01*
X117136185Y-96843815D01*
X117039494Y-96764463D01*
X116929180Y-96705498D01*
X116809482Y-96669188D01*
X116685000Y-96656928D01*
X115385000Y-96656928D01*
X115260518Y-96669188D01*
X115140820Y-96705498D01*
X115030506Y-96764463D01*
X114933815Y-96843815D01*
X114854463Y-96940506D01*
X114795498Y-97050820D01*
X114759188Y-97170518D01*
X114746928Y-97295000D01*
X114746928Y-97895000D01*
X114759188Y-98019482D01*
X114795498Y-98139180D01*
X114854463Y-98249494D01*
X114933815Y-98346185D01*
X115030506Y-98425537D01*
X115140820Y-98484502D01*
X115260518Y-98520812D01*
X115385000Y-98533072D01*
X115721494Y-98533072D01*
X117445000Y-100256579D01*
X117445000Y-100990386D01*
X117386613Y-101021595D01*
X117252038Y-101132038D01*
X117141595Y-101266613D01*
X117059528Y-101420149D01*
X117008992Y-101586745D01*
X116991928Y-101759999D01*
X116991928Y-102460001D01*
X117008992Y-102633255D01*
X117059528Y-102799851D01*
X117141595Y-102953387D01*
X117252038Y-103087962D01*
X117278891Y-103110000D01*
X117252038Y-103132038D01*
X117141595Y-103266613D01*
X117059528Y-103420149D01*
X117008992Y-103586745D01*
X116991928Y-103759999D01*
X116991928Y-104460001D01*
X117008992Y-104633255D01*
X117059528Y-104799851D01*
X117141595Y-104953387D01*
X117252038Y-105087962D01*
X117386613Y-105198405D01*
X117540149Y-105280472D01*
X117706745Y-105331008D01*
X117879999Y-105348072D01*
X118780001Y-105348072D01*
X118953255Y-105331008D01*
X119119851Y-105280472D01*
X119273387Y-105198405D01*
X119368924Y-105120000D01*
X119605446Y-105120000D01*
X119676613Y-105178405D01*
X119830149Y-105260472D01*
X119996745Y-105311008D01*
X120169999Y-105328072D01*
X120429717Y-105328072D01*
X123701644Y-108600000D01*
X110448356Y-108600000D01*
X108728072Y-106879717D01*
X108728072Y-106619999D01*
X108711008Y-106446745D01*
X108660472Y-106280149D01*
X108578405Y-106126613D01*
X108467962Y-105992038D01*
X108441109Y-105970000D01*
X108467962Y-105947962D01*
X108544254Y-105855000D01*
X109881546Y-105855000D01*
X109929744Y-105887205D01*
X110118102Y-105965226D01*
X110318061Y-106005000D01*
X110521939Y-106005000D01*
X110721898Y-105965226D01*
X110910256Y-105887205D01*
X111079774Y-105773937D01*
X111223937Y-105629774D01*
X111337205Y-105460256D01*
X111415226Y-105271898D01*
X111455000Y-105071939D01*
X111455000Y-104868061D01*
X111415226Y-104668102D01*
X111337205Y-104479744D01*
X111223937Y-104310226D01*
X111079774Y-104166063D01*
X110910256Y-104052795D01*
X110721898Y-103974774D01*
X110521939Y-103935000D01*
X110318061Y-103935000D01*
X110118102Y-103974774D01*
X109929744Y-104052795D01*
X109881546Y-104085000D01*
X108544254Y-104085000D01*
X108467962Y-103992038D01*
X108333387Y-103881595D01*
X108275000Y-103850386D01*
X108275000Y-102863469D01*
X108279281Y-102820000D01*
X108275000Y-102776531D01*
X108275000Y-102776523D01*
X108262195Y-102646510D01*
X108253072Y-102616436D01*
X108253072Y-102095000D01*
X108240812Y-101970518D01*
X108204502Y-101850820D01*
X108145537Y-101740506D01*
X108066185Y-101643815D01*
X107969494Y-101564463D01*
X107859180Y-101505498D01*
X107739482Y-101469188D01*
X107615000Y-101456928D01*
X106315000Y-101456928D01*
X106190518Y-101469188D01*
X106070820Y-101505498D01*
X105960506Y-101564463D01*
X105863815Y-101643815D01*
X105784463Y-101740506D01*
X105725498Y-101850820D01*
X105689188Y-101970518D01*
X105683173Y-102031592D01*
X104323072Y-100671492D01*
X104323072Y-100295000D01*
X104310812Y-100170518D01*
X104274502Y-100050820D01*
X104215537Y-99940506D01*
X104136185Y-99843815D01*
X104039494Y-99764463D01*
X103929180Y-99705498D01*
X103809482Y-99669188D01*
X103685000Y-99656928D01*
X102385000Y-99656928D01*
X102260518Y-99669188D01*
X102140820Y-99705498D01*
X102030506Y-99764463D01*
X101933815Y-99843815D01*
X101854463Y-99940506D01*
X101795498Y-100050820D01*
X101759188Y-100170518D01*
X101746928Y-100295000D01*
X101746928Y-100895000D01*
X101759188Y-101019482D01*
X101795498Y-101139180D01*
X101854463Y-101249494D01*
X101933815Y-101346185D01*
X102030506Y-101425537D01*
X102140820Y-101484502D01*
X102260518Y-101520812D01*
X102385000Y-101533072D01*
X102681496Y-101533072D01*
X104255001Y-103106578D01*
X104255000Y-103870386D01*
X104196613Y-103901595D01*
X104062038Y-104012038D01*
X103951595Y-104146613D01*
X103869528Y-104300149D01*
X103818992Y-104466745D01*
X103801928Y-104639999D01*
X103801928Y-105340001D01*
X103818992Y-105513255D01*
X103869528Y-105679851D01*
X103951595Y-105833387D01*
X104062038Y-105967962D01*
X104088891Y-105990000D01*
X104062038Y-106012038D01*
X103951595Y-106146613D01*
X103869528Y-106300149D01*
X103818992Y-106466745D01*
X103801928Y-106639999D01*
X103801928Y-107340001D01*
X103818992Y-107513255D01*
X103869528Y-107679851D01*
X103951595Y-107833387D01*
X104062038Y-107967962D01*
X104196613Y-108078405D01*
X104350149Y-108160472D01*
X104516745Y-108211008D01*
X104689999Y-108228072D01*
X105590001Y-108228072D01*
X105763255Y-108211008D01*
X105929851Y-108160472D01*
X106083387Y-108078405D01*
X106178924Y-108000000D01*
X106375446Y-108000000D01*
X106446613Y-108058405D01*
X106600149Y-108140472D01*
X106766745Y-108191008D01*
X106939999Y-108208072D01*
X107199717Y-108208072D01*
X108201644Y-109210000D01*
X101732799Y-109210000D01*
X101860256Y-109157205D01*
X102029774Y-109043937D01*
X102173937Y-108899774D01*
X102287205Y-108730256D01*
X102365226Y-108541898D01*
X102405000Y-108341939D01*
X102405000Y-108138061D01*
X102365226Y-107938102D01*
X102287205Y-107749744D01*
X102173937Y-107580226D01*
X102029774Y-107436063D01*
X101860256Y-107322795D01*
X101671898Y-107244774D01*
X101471939Y-107205000D01*
X101268061Y-107205000D01*
X101068102Y-107244774D01*
X100879744Y-107322795D01*
X100831546Y-107355000D01*
X96050668Y-107355000D01*
X95957962Y-107242038D01*
X95823387Y-107131595D01*
X95765000Y-107100386D01*
X95765000Y-106353465D01*
X95769281Y-106309999D01*
X95765000Y-106266533D01*
X95765000Y-106266523D01*
X95752195Y-106136510D01*
X95701589Y-105969687D01*
X95619411Y-105815941D01*
X95577164Y-105764463D01*
X95536532Y-105714953D01*
X95536530Y-105714951D01*
X95508817Y-105681183D01*
X95475049Y-105653470D01*
X95253072Y-105431493D01*
X95253072Y-105095000D01*
X95240812Y-104970518D01*
X95204502Y-104850820D01*
X95145537Y-104740506D01*
X95066185Y-104643815D01*
X94969494Y-104564463D01*
X94859180Y-104505498D01*
X94739482Y-104469188D01*
X94615000Y-104456928D01*
X93315000Y-104456928D01*
X93190518Y-104469188D01*
X93070820Y-104505498D01*
X92960506Y-104564463D01*
X92863815Y-104643815D01*
X92784463Y-104740506D01*
X92725498Y-104850820D01*
X92689188Y-104970518D01*
X92683173Y-105031592D01*
X91323072Y-103671492D01*
X91323072Y-103295000D01*
X91310812Y-103170518D01*
X91274502Y-103050820D01*
X91215537Y-102940506D01*
X91136185Y-102843815D01*
X91039494Y-102764463D01*
X90929180Y-102705498D01*
X90809482Y-102669188D01*
X90685000Y-102656928D01*
X89385000Y-102656928D01*
X89260518Y-102669188D01*
X89140820Y-102705498D01*
X89030506Y-102764463D01*
X88933815Y-102843815D01*
X88854463Y-102940506D01*
X88795498Y-103050820D01*
X88759188Y-103170518D01*
X88746928Y-103295000D01*
X88746928Y-103895000D01*
X88759188Y-104019482D01*
X88795498Y-104139180D01*
X88854463Y-104249494D01*
X88933815Y-104346185D01*
X89030506Y-104425537D01*
X89140820Y-104484502D01*
X89260518Y-104520812D01*
X89385000Y-104533072D01*
X89681496Y-104533072D01*
X91455001Y-106306578D01*
X91455000Y-107070386D01*
X91396613Y-107101595D01*
X91262038Y-107212038D01*
X91151595Y-107346613D01*
X91069528Y-107500149D01*
X91018992Y-107666745D01*
X91001928Y-107839999D01*
X91001928Y-108540001D01*
X91018992Y-108713255D01*
X91069528Y-108879851D01*
X91151595Y-109033387D01*
X91262038Y-109167962D01*
X91288891Y-109190000D01*
X91262038Y-109212038D01*
X91151595Y-109346613D01*
X91069528Y-109500149D01*
X91018992Y-109666745D01*
X91001928Y-109839999D01*
X91001928Y-110540001D01*
X91018992Y-110713255D01*
X91069528Y-110879851D01*
X91151595Y-111033387D01*
X91262038Y-111167962D01*
X91396613Y-111278405D01*
X91550149Y-111360472D01*
X91716745Y-111411008D01*
X91889999Y-111428072D01*
X92790001Y-111428072D01*
X92963255Y-111411008D01*
X93129851Y-111360472D01*
X93283387Y-111278405D01*
X93378924Y-111200000D01*
X93804521Y-111200000D01*
X93936613Y-111308405D01*
X94090149Y-111390472D01*
X94256745Y-111441008D01*
X94429999Y-111458072D01*
X95330001Y-111458072D01*
X95503255Y-111441008D01*
X95669851Y-111390472D01*
X95823387Y-111308405D01*
X95918924Y-111230000D01*
X98431645Y-111230000D01*
X97171645Y-112490000D01*
X85150836Y-112490000D01*
X85219774Y-112443937D01*
X85363937Y-112299774D01*
X85477205Y-112130256D01*
X85555226Y-111941898D01*
X85595000Y-111741939D01*
X85595000Y-111538061D01*
X85555226Y-111338102D01*
X85477205Y-111149744D01*
X85363937Y-110980226D01*
X85219774Y-110836063D01*
X85050256Y-110722795D01*
X84861898Y-110644774D01*
X84661939Y-110605000D01*
X84458061Y-110605000D01*
X84258102Y-110644774D01*
X84069744Y-110722795D01*
X84021546Y-110755000D01*
X83540994Y-110755000D01*
X83488405Y-110656613D01*
X83377962Y-110522038D01*
X83243387Y-110411595D01*
X83185000Y-110380386D01*
X83185000Y-109773465D01*
X83189281Y-109729999D01*
X83185000Y-109686533D01*
X83185000Y-109686523D01*
X83172195Y-109556510D01*
X83121589Y-109389687D01*
X83039411Y-109235941D01*
X82983622Y-109167962D01*
X82956532Y-109134953D01*
X82956530Y-109134951D01*
X82928817Y-109101183D01*
X82895049Y-109073470D01*
X82253072Y-108431494D01*
X82253072Y-108095000D01*
X82240812Y-107970518D01*
X82204502Y-107850820D01*
X82145537Y-107740506D01*
X82066185Y-107643815D01*
X81969494Y-107564463D01*
X81859180Y-107505498D01*
X81739482Y-107469188D01*
X81615000Y-107456928D01*
X80315000Y-107456928D01*
X80190518Y-107469188D01*
X80070820Y-107505498D01*
X79960506Y-107564463D01*
X79863815Y-107643815D01*
X79784463Y-107740506D01*
X79725498Y-107850820D01*
X79689188Y-107970518D01*
X79683173Y-108031592D01*
X78323072Y-106671492D01*
X78323072Y-106295000D01*
X78310812Y-106170518D01*
X78274502Y-106050820D01*
X78215537Y-105940506D01*
X78136185Y-105843815D01*
X78039494Y-105764463D01*
X77929180Y-105705498D01*
X77809482Y-105669188D01*
X77685000Y-105656928D01*
X76385000Y-105656928D01*
X76260518Y-105669188D01*
X76140820Y-105705498D01*
X76030506Y-105764463D01*
X75933815Y-105843815D01*
X75854463Y-105940506D01*
X75795498Y-106050820D01*
X75759188Y-106170518D01*
X75746928Y-106295000D01*
X74659850Y-106295000D01*
X75130230Y-104893934D01*
X115641951Y-94902167D01*
X115659382Y-94900450D01*
X115704916Y-94886637D01*
X115719521Y-94883035D01*
X115735966Y-94877218D01*
X115783792Y-94862710D01*
X115797115Y-94855589D01*
X115811377Y-94850544D01*
X115854376Y-94824983D01*
X115898449Y-94801425D01*
X115910132Y-94791837D01*
X115923130Y-94784110D01*
X115960303Y-94750663D01*
X115998948Y-94718948D01*
X116008538Y-94707263D01*
X116019775Y-94697152D01*
X116049700Y-94657107D01*
X116081425Y-94618450D01*
X116088553Y-94605114D01*
X116097599Y-94593009D01*
X116119136Y-94547898D01*
X116142710Y-94503793D01*
X116147099Y-94489326D01*
X116153611Y-94475685D01*
X116165932Y-94427240D01*
X116180450Y-94379383D01*
X116181932Y-94364333D01*
X116185657Y-94349688D01*
X116188290Y-94299777D01*
X116190000Y-94282419D01*
X116190000Y-94267375D01*
X116192507Y-94219860D01*
X116190000Y-94202527D01*
X116190000Y-92345550D01*
X121585713Y-92345550D01*
X121585713Y-92734450D01*
X121661583Y-93115878D01*
X121810409Y-93475176D01*
X122026471Y-93798535D01*
X122301465Y-94073529D01*
X122624824Y-94289591D01*
X122984122Y-94438417D01*
X123365550Y-94514287D01*
X123754450Y-94514287D01*
X124135878Y-94438417D01*
X124495176Y-94289591D01*
X124818535Y-94073529D01*
X125093529Y-93798535D01*
X125309591Y-93475176D01*
X125458417Y-93115878D01*
X125534287Y-92734450D01*
X125534287Y-92345550D01*
X125458417Y-91964122D01*
X125309591Y-91604824D01*
X125093529Y-91281465D01*
X124818535Y-91006471D01*
X124495176Y-90790409D01*
X124135878Y-90641583D01*
X123754450Y-90565713D01*
X123365550Y-90565713D01*
X122984122Y-90641583D01*
X122624824Y-90790409D01*
X122301465Y-91006471D01*
X122026471Y-91281465D01*
X121810409Y-91604824D01*
X121661583Y-91964122D01*
X121585713Y-92345550D01*
X116190000Y-92345550D01*
X116190000Y-89860000D01*
X130510001Y-89860000D01*
X130510000Y-94162594D01*
%TA.AperFunction,Conductor*%
D18*
G36*
X130510000Y-94162594D02*
G01*
X130507486Y-94180002D01*
X130510000Y-94227455D01*
X130510000Y-94242418D01*
X130511716Y-94259837D01*
X130514364Y-94309827D01*
X130518075Y-94324404D01*
X130519550Y-94339382D01*
X130534087Y-94387302D01*
X130546437Y-94435817D01*
X130552922Y-94449394D01*
X130557290Y-94463792D01*
X130580896Y-94507956D01*
X130602474Y-94553129D01*
X130611481Y-94565176D01*
X130618575Y-94578449D01*
X130650342Y-94617158D01*
X130680320Y-94657256D01*
X130691507Y-94667317D01*
X130701052Y-94678948D01*
X130739763Y-94710718D01*
X130776984Y-94744193D01*
X130789915Y-94751876D01*
X130801550Y-94761425D01*
X130845717Y-94785033D01*
X130888752Y-94810603D01*
X130902937Y-94815617D01*
X130916207Y-94822710D01*
X130964134Y-94837249D01*
X130980614Y-94843074D01*
X130995121Y-94846649D01*
X131040617Y-94860450D01*
X131058130Y-94862175D01*
X171769799Y-104894022D01*
X176032215Y-117590000D01*
X141482419Y-117590000D01*
X141450000Y-117586807D01*
X141417581Y-117590000D01*
X141320617Y-117599550D01*
X141196207Y-117637290D01*
X141081550Y-117698575D01*
X140981052Y-117781052D01*
X140898575Y-117881550D01*
X140837290Y-117996207D01*
X140799550Y-118120617D01*
X140786807Y-118250000D01*
X140790000Y-118282419D01*
X140790001Y-132540000D01*
X106110000Y-132540000D01*
X106110000Y-129774561D01*
X107511075Y-129774561D01*
X107511075Y-130225439D01*
X107599037Y-130667655D01*
X107771581Y-131084212D01*
X108022076Y-131459105D01*
X108340895Y-131777924D01*
X108715788Y-132028419D01*
X109132345Y-132200963D01*
X109574561Y-132288925D01*
X110025439Y-132288925D01*
X110467655Y-132200963D01*
X110884212Y-132028419D01*
X111259105Y-131777924D01*
X111577924Y-131459105D01*
X111828419Y-131084212D01*
X112000963Y-130667655D01*
X112088925Y-130225439D01*
X112088925Y-129774561D01*
X134911075Y-129774561D01*
X134911075Y-130225439D01*
X134999037Y-130667655D01*
X135171581Y-131084212D01*
X135422076Y-131459105D01*
X135740895Y-131777924D01*
X136115788Y-132028419D01*
X136532345Y-132200963D01*
X136974561Y-132288925D01*
X137425439Y-132288925D01*
X137867655Y-132200963D01*
X138284212Y-132028419D01*
X138659105Y-131777924D01*
X138977924Y-131459105D01*
X139228419Y-131084212D01*
X139400963Y-130667655D01*
X139488925Y-130225439D01*
X139488925Y-129774561D01*
X139400963Y-129332345D01*
X139228419Y-128915788D01*
X138977924Y-128540895D01*
X138659105Y-128222076D01*
X138284212Y-127971581D01*
X137867655Y-127799037D01*
X137425439Y-127711075D01*
X136974561Y-127711075D01*
X136532345Y-127799037D01*
X136115788Y-127971581D01*
X135740895Y-128222076D01*
X135422076Y-128540895D01*
X135171581Y-128915788D01*
X134999037Y-129332345D01*
X134911075Y-129774561D01*
X112088925Y-129774561D01*
X112000963Y-129332345D01*
X111828419Y-128915788D01*
X111577924Y-128540895D01*
X111259105Y-128222076D01*
X110884212Y-127971581D01*
X110467655Y-127799037D01*
X110025439Y-127711075D01*
X109574561Y-127711075D01*
X109132345Y-127799037D01*
X108715788Y-127971581D01*
X108340895Y-128222076D01*
X108022076Y-128540895D01*
X107771581Y-128915788D01*
X107599037Y-129332345D01*
X107511075Y-129774561D01*
X106110000Y-129774561D01*
X106110000Y-118282419D01*
X106113193Y-118250000D01*
X106100450Y-118120617D01*
X106062710Y-117996207D01*
X106001425Y-117881550D01*
X105918948Y-117781052D01*
X105818450Y-117698575D01*
X105703793Y-117637290D01*
X105579383Y-117599550D01*
X105482419Y-117590000D01*
X105450000Y-117586807D01*
X105417581Y-117590000D01*
X70867784Y-117590000D01*
X74659850Y-106295000D01*
X75746928Y-106295000D01*
X75746928Y-106895000D01*
X75759188Y-107019482D01*
X75795498Y-107139180D01*
X75854463Y-107249494D01*
X75933815Y-107346185D01*
X76030506Y-107425537D01*
X76140820Y-107484502D01*
X76260518Y-107520812D01*
X76385000Y-107533072D01*
X76681496Y-107533072D01*
X78865001Y-109716578D01*
X78865001Y-110380386D01*
X78806613Y-110411595D01*
X78672038Y-110522038D01*
X78561595Y-110656613D01*
X78479528Y-110810149D01*
X78428992Y-110976745D01*
X78411928Y-111149999D01*
X78411928Y-111850001D01*
X78428992Y-112023255D01*
X78479528Y-112189851D01*
X78561595Y-112343387D01*
X78672038Y-112477962D01*
X78698891Y-112500000D01*
X78672038Y-112522038D01*
X78561595Y-112656613D01*
X78479528Y-112810149D01*
X78428992Y-112976745D01*
X78411928Y-113149999D01*
X78411928Y-113850001D01*
X78428992Y-114023255D01*
X78479528Y-114189851D01*
X78561595Y-114343387D01*
X78672038Y-114477962D01*
X78806613Y-114588405D01*
X78960149Y-114670472D01*
X79126745Y-114721008D01*
X79299999Y-114738072D01*
X80200001Y-114738072D01*
X80373255Y-114721008D01*
X80539851Y-114670472D01*
X80693387Y-114588405D01*
X80788924Y-114510000D01*
X81261076Y-114510000D01*
X81356613Y-114588405D01*
X81510149Y-114670472D01*
X81676745Y-114721008D01*
X81849999Y-114738072D01*
X82750001Y-114738072D01*
X82923255Y-114721008D01*
X83089851Y-114670472D01*
X83243387Y-114588405D01*
X83338924Y-114510000D01*
X97540392Y-114510000D01*
X97590000Y-114514886D01*
X97787994Y-114495385D01*
X97845430Y-114477962D01*
X97978380Y-114437632D01*
X98153840Y-114343847D01*
X98307633Y-114217633D01*
X98339261Y-114179094D01*
X101288356Y-111230000D01*
X109370392Y-111230000D01*
X109420000Y-111234886D01*
X109617994Y-111215385D01*
X109657981Y-111203255D01*
X109808380Y-111157632D01*
X109983840Y-111063847D01*
X110137633Y-110937633D01*
X110169261Y-110899094D01*
X110448354Y-110620000D01*
X126090392Y-110620000D01*
X126140000Y-110624886D01*
X126189608Y-110620000D01*
X139040394Y-110620000D01*
X139089999Y-110624886D01*
X139139604Y-110620000D01*
X141391645Y-110620000D01*
X130565902Y-121445743D01*
X130527369Y-121477366D01*
X130495746Y-121515899D01*
X130495745Y-121515900D01*
X130401155Y-121631159D01*
X130307369Y-121806620D01*
X130249616Y-121997005D01*
X130230115Y-122194999D01*
X130235002Y-122244616D01*
X130235001Y-124346643D01*
X129876644Y-124705000D01*
X129673740Y-124705000D01*
X129386842Y-124762068D01*
X129116589Y-124874010D01*
X128873368Y-125036525D01*
X128854893Y-125055000D01*
X128245107Y-125055000D01*
X128226632Y-125036525D01*
X127983411Y-124874010D01*
X127713158Y-124762068D01*
X127426260Y-124705000D01*
X127133740Y-124705000D01*
X126846842Y-124762068D01*
X126576589Y-124874010D01*
X126333368Y-125036525D01*
X126126525Y-125243368D01*
X126010000Y-125417760D01*
X125893475Y-125243368D01*
X125686632Y-125036525D01*
X125512240Y-124920000D01*
X125686632Y-124803475D01*
X125893475Y-124596632D01*
X126055990Y-124353411D01*
X126167932Y-124083158D01*
X126225000Y-123796260D01*
X126225000Y-123503740D01*
X126167932Y-123216842D01*
X126055990Y-122946589D01*
X125893475Y-122703368D01*
X125686632Y-122496525D01*
X125443411Y-122334010D01*
X125173158Y-122222068D01*
X124886260Y-122165000D01*
X124593740Y-122165000D01*
X124306842Y-122222068D01*
X124036589Y-122334010D01*
X123793368Y-122496525D01*
X123586525Y-122703368D01*
X123470000Y-122877760D01*
X123353475Y-122703368D01*
X123146632Y-122496525D01*
X122903411Y-122334010D01*
X122633158Y-122222068D01*
X122346260Y-122165000D01*
X122053740Y-122165000D01*
X121766842Y-122222068D01*
X121496589Y-122334010D01*
X121253368Y-122496525D01*
X121046525Y-122703368D01*
X120930000Y-122877760D01*
X120813475Y-122703368D01*
X120606632Y-122496525D01*
X120363411Y-122334010D01*
X120093158Y-122222068D01*
X119806260Y-122165000D01*
X119513740Y-122165000D01*
X119226842Y-122222068D01*
X118956589Y-122334010D01*
X118713368Y-122496525D01*
X118506525Y-122703368D01*
X118390000Y-122877760D01*
X118273475Y-122703368D01*
X118066632Y-122496525D01*
X117823411Y-122334010D01*
X117553158Y-122222068D01*
X117266260Y-122165000D01*
X116973740Y-122165000D01*
X116686842Y-122222068D01*
X116416589Y-122334010D01*
X116173368Y-122496525D01*
X115966525Y-122703368D01*
X115804010Y-122946589D01*
X115692068Y-123216842D01*
X115635000Y-123503740D01*
X115635000Y-123796260D01*
X115692068Y-124083158D01*
X115804010Y-124353411D01*
X115966525Y-124596632D01*
X116098380Y-124728487D01*
X116025820Y-124750498D01*
X115915506Y-124809463D01*
X115818815Y-124888815D01*
X115739463Y-124985506D01*
X115680498Y-125095820D01*
X115644188Y-125215518D01*
X115631928Y-125340000D01*
X115631928Y-127040000D01*
X115644188Y-127164482D01*
X115680498Y-127284180D01*
X115739463Y-127394494D01*
X115818815Y-127491185D01*
X115915506Y-127570537D01*
X116025820Y-127629502D01*
X116145518Y-127665812D01*
X116270000Y-127678072D01*
X117970000Y-127678072D01*
X118094482Y-127665812D01*
X118214180Y-127629502D01*
X118324494Y-127570537D01*
X118421185Y-127491185D01*
X118500537Y-127394494D01*
X118559502Y-127284180D01*
X118581513Y-127211620D01*
X118713368Y-127343475D01*
X118956589Y-127505990D01*
X119226842Y-127617932D01*
X119513740Y-127675000D01*
X119806260Y-127675000D01*
X120093158Y-127617932D01*
X120363411Y-127505990D01*
X120606632Y-127343475D01*
X120813475Y-127136632D01*
X120930000Y-126962240D01*
X121046525Y-127136632D01*
X121253368Y-127343475D01*
X121496589Y-127505990D01*
X121766842Y-127617932D01*
X122053740Y-127675000D01*
X122346260Y-127675000D01*
X122633158Y-127617932D01*
X122903411Y-127505990D01*
X123146632Y-127343475D01*
X123353475Y-127136632D01*
X123470000Y-126962240D01*
X123586525Y-127136632D01*
X123793368Y-127343475D01*
X124036589Y-127505990D01*
X124306842Y-127617932D01*
X124593740Y-127675000D01*
X124886260Y-127675000D01*
X125173158Y-127617932D01*
X125443411Y-127505990D01*
X125686632Y-127343475D01*
X125893475Y-127136632D01*
X126010000Y-126962240D01*
X126126525Y-127136632D01*
X126333368Y-127343475D01*
X126576589Y-127505990D01*
X126846842Y-127617932D01*
X127133740Y-127675000D01*
X127426260Y-127675000D01*
X127713158Y-127617932D01*
X127983411Y-127505990D01*
X128226632Y-127343475D01*
X128245107Y-127325000D01*
X128854893Y-127325000D01*
X128873368Y-127343475D01*
X129116589Y-127505990D01*
X129386842Y-127617932D01*
X129673740Y-127675000D01*
X129966260Y-127675000D01*
X130253158Y-127617932D01*
X130523411Y-127505990D01*
X130766632Y-127343475D01*
X130973475Y-127136632D01*
X131135990Y-126893411D01*
X131247932Y-126623158D01*
X131305000Y-126336260D01*
X131305000Y-126133356D01*
X131924100Y-125514256D01*
X131962634Y-125482632D01*
X132088848Y-125328839D01*
X132182633Y-125153379D01*
X132240386Y-124962993D01*
X132255001Y-124814607D01*
X132255001Y-124814606D01*
X132259887Y-124764999D01*
X132255001Y-124715391D01*
X132255001Y-122613354D01*
X144248355Y-110620000D01*
X148741645Y-110620000D01*
X151540744Y-113419100D01*
X151572367Y-113457633D01*
X151726160Y-113583847D01*
X151901620Y-113677632D01*
X152092006Y-113735385D01*
X152240392Y-113750000D01*
X152240394Y-113750000D01*
X152289999Y-113754886D01*
X152339604Y-113750000D01*
X167742001Y-113750000D01*
X167776613Y-113778405D01*
X167930149Y-113860472D01*
X168096745Y-113911008D01*
X168269999Y-113928072D01*
X169170001Y-113928072D01*
X169343255Y-113911008D01*
X169509851Y-113860472D01*
X169663387Y-113778405D01*
X169758924Y-113700000D01*
X170153261Y-113700000D01*
X170236613Y-113768405D01*
X170390149Y-113850472D01*
X170556745Y-113901008D01*
X170729999Y-113918072D01*
X171630001Y-113918072D01*
X171803255Y-113901008D01*
X171969851Y-113850472D01*
X172123387Y-113768405D01*
X172257962Y-113657962D01*
X172368405Y-113523387D01*
X172450472Y-113369851D01*
X172501008Y-113203255D01*
X172518072Y-113030001D01*
X172518072Y-112927934D01*
X172608102Y-112965226D01*
X172808061Y-113005000D01*
X173011939Y-113005000D01*
X173211898Y-112965226D01*
X173400256Y-112887205D01*
X173569774Y-112773937D01*
X173713937Y-112629774D01*
X173827205Y-112460256D01*
X173905226Y-112271898D01*
X173945000Y-112071939D01*
X173945000Y-111868061D01*
X173905226Y-111668102D01*
X173827205Y-111479744D01*
X173713937Y-111310226D01*
X173569774Y-111166063D01*
X173400256Y-111052795D01*
X173211898Y-110974774D01*
X173011939Y-110935000D01*
X172808061Y-110935000D01*
X172706734Y-110955155D01*
X172518072Y-110766493D01*
X172518072Y-110329999D01*
X172501008Y-110156745D01*
X172450472Y-109990149D01*
X172368405Y-109836613D01*
X172257962Y-109702038D01*
X172123387Y-109591595D01*
X171969851Y-109509528D01*
X171803255Y-109458992D01*
X171630001Y-109441928D01*
X171320000Y-109441928D01*
X171320000Y-109237287D01*
X171329180Y-109234502D01*
X171439494Y-109175537D01*
X171536185Y-109096185D01*
X171615537Y-108999494D01*
X171674502Y-108889180D01*
X171710812Y-108769482D01*
X171723072Y-108645000D01*
X171723072Y-108045000D01*
X171710812Y-107920518D01*
X171674502Y-107800820D01*
X171615537Y-107690506D01*
X171536185Y-107593815D01*
X171439494Y-107514463D01*
X171329180Y-107455498D01*
X171209482Y-107419188D01*
X171085000Y-107406928D01*
X169785000Y-107406928D01*
X169660518Y-107419188D01*
X169540820Y-107455498D01*
X169430506Y-107514463D01*
X169333815Y-107593815D01*
X169254463Y-107690506D01*
X169195498Y-107800820D01*
X169159188Y-107920518D01*
X169156759Y-107945180D01*
X167793072Y-106581494D01*
X167793072Y-106245000D01*
X167780812Y-106120518D01*
X167744502Y-106000820D01*
X167685537Y-105890506D01*
X167606185Y-105793815D01*
X167509494Y-105714463D01*
X167399180Y-105655498D01*
X167279482Y-105619188D01*
X167155000Y-105606928D01*
X165855000Y-105606928D01*
X165730518Y-105619188D01*
X165610820Y-105655498D01*
X165500506Y-105714463D01*
X165403815Y-105793815D01*
X165324463Y-105890506D01*
X165265498Y-106000820D01*
X165229188Y-106120518D01*
X165216928Y-106245000D01*
X165216928Y-106845000D01*
X165229188Y-106969482D01*
X165265498Y-107089180D01*
X165324463Y-107199494D01*
X165403815Y-107296185D01*
X165500506Y-107375537D01*
X165610820Y-107434502D01*
X165730518Y-107470812D01*
X165855000Y-107483072D01*
X166191494Y-107483072D01*
X167835001Y-109126580D01*
X167835001Y-109570386D01*
X167776613Y-109601595D01*
X167642038Y-109712038D01*
X167531595Y-109846613D01*
X167449528Y-110000149D01*
X167398992Y-110166745D01*
X167381928Y-110339999D01*
X167381928Y-111040001D01*
X167398992Y-111213255D01*
X167449528Y-111379851D01*
X167531595Y-111533387D01*
X167642038Y-111667962D01*
X167668891Y-111690000D01*
X167642038Y-111712038D01*
X167627297Y-111730000D01*
X152708356Y-111730000D01*
X151598356Y-110620000D01*
X155881076Y-110620000D01*
X155976613Y-110698405D01*
X156130149Y-110780472D01*
X156296745Y-110831008D01*
X156469999Y-110848072D01*
X157370001Y-110848072D01*
X157543255Y-110831008D01*
X157709851Y-110780472D01*
X157863387Y-110698405D01*
X157958924Y-110620000D01*
X158229090Y-110620000D01*
X158252038Y-110647962D01*
X158386613Y-110758405D01*
X158540149Y-110840472D01*
X158706745Y-110891008D01*
X158879999Y-110908072D01*
X159780001Y-110908072D01*
X159953255Y-110891008D01*
X160119851Y-110840472D01*
X160273387Y-110758405D01*
X160407962Y-110647962D01*
X160518405Y-110513387D01*
X160600472Y-110359851D01*
X160651008Y-110193255D01*
X160668072Y-110020001D01*
X160668072Y-109475000D01*
X161361546Y-109475000D01*
X161409744Y-109507205D01*
X161598102Y-109585226D01*
X161798061Y-109625000D01*
X162001939Y-109625000D01*
X162201898Y-109585226D01*
X162390256Y-109507205D01*
X162559774Y-109393937D01*
X162703937Y-109249774D01*
X162817205Y-109080256D01*
X162895226Y-108891898D01*
X162935000Y-108691939D01*
X162935000Y-108488061D01*
X162895226Y-108288102D01*
X162817205Y-108099744D01*
X162703937Y-107930226D01*
X162559774Y-107786063D01*
X162390256Y-107672795D01*
X162201898Y-107594774D01*
X162001939Y-107555000D01*
X161798061Y-107555000D01*
X161598102Y-107594774D01*
X161409744Y-107672795D01*
X161361546Y-107705000D01*
X160668072Y-107705000D01*
X160668072Y-107319999D01*
X160651008Y-107146745D01*
X160600472Y-106980149D01*
X160518405Y-106826613D01*
X160407962Y-106692038D01*
X160273387Y-106581595D01*
X160215000Y-106550386D01*
X160215000Y-105904573D01*
X160240812Y-105819482D01*
X160253072Y-105695000D01*
X160253072Y-105095000D01*
X160240812Y-104970518D01*
X160204502Y-104850820D01*
X160145537Y-104740506D01*
X160066185Y-104643815D01*
X159969494Y-104564463D01*
X159859180Y-104505498D01*
X159739482Y-104469188D01*
X159615000Y-104456928D01*
X158315000Y-104456928D01*
X158190518Y-104469188D01*
X158070820Y-104505498D01*
X157960506Y-104564463D01*
X157863815Y-104643815D01*
X157784463Y-104740506D01*
X157725498Y-104850820D01*
X157689188Y-104970518D01*
X157683272Y-105030583D01*
X157659411Y-104985941D01*
X157576532Y-104884953D01*
X157576530Y-104884951D01*
X157548817Y-104851183D01*
X157515049Y-104823470D01*
X156323072Y-103631494D01*
X156323072Y-103295000D01*
X156310812Y-103170518D01*
X156274502Y-103050820D01*
X156215537Y-102940506D01*
X156136185Y-102843815D01*
X156039494Y-102764463D01*
X155929180Y-102705498D01*
X155809482Y-102669188D01*
X155685000Y-102656928D01*
X154385000Y-102656928D01*
X154260518Y-102669188D01*
X154140820Y-102705498D01*
X154030506Y-102764463D01*
X153933815Y-102843815D01*
X153854463Y-102940506D01*
X153795498Y-103050820D01*
X153759188Y-103170518D01*
X153746928Y-103295000D01*
X153746928Y-103895000D01*
X153759188Y-104019482D01*
X153795498Y-104139180D01*
X153854463Y-104249494D01*
X153933815Y-104346185D01*
X154030506Y-104425537D01*
X154140820Y-104484502D01*
X154260518Y-104520812D01*
X154385000Y-104533072D01*
X154721494Y-104533072D01*
X156035001Y-105846580D01*
X156035001Y-106490386D01*
X155976613Y-106521595D01*
X155842038Y-106632038D01*
X155731595Y-106766613D01*
X155649528Y-106920149D01*
X155598992Y-107086745D01*
X155581928Y-107259999D01*
X155581928Y-107960001D01*
X155598992Y-108133255D01*
X155649528Y-108299851D01*
X155731595Y-108453387D01*
X155842038Y-108587962D01*
X155856706Y-108600000D01*
X149209608Y-108600000D01*
X149160000Y-108595114D01*
X149110392Y-108600000D01*
X146268355Y-108600000D01*
X146920283Y-107948072D01*
X146950001Y-107948072D01*
X147123255Y-107931008D01*
X147289851Y-107880472D01*
X147443387Y-107798405D01*
X147577962Y-107687962D01*
X147688405Y-107553387D01*
X147770472Y-107399851D01*
X147821008Y-107233255D01*
X147838072Y-107060001D01*
X147838072Y-106635000D01*
X148681546Y-106635000D01*
X148729744Y-106667205D01*
X148918102Y-106745226D01*
X149118061Y-106785000D01*
X149321939Y-106785000D01*
X149521898Y-106745226D01*
X149710256Y-106667205D01*
X149879774Y-106553937D01*
X150023937Y-106409774D01*
X150137205Y-106240256D01*
X150215226Y-106051898D01*
X150255000Y-105851939D01*
X150255000Y-105648061D01*
X150215226Y-105448102D01*
X150137205Y-105259744D01*
X150023937Y-105090226D01*
X149879774Y-104946063D01*
X149710256Y-104832795D01*
X149521898Y-104754774D01*
X149321939Y-104715000D01*
X149118061Y-104715000D01*
X148918102Y-104754774D01*
X148729744Y-104832795D01*
X148681546Y-104865000D01*
X147906579Y-104865000D01*
X147838072Y-104796493D01*
X147838072Y-104359999D01*
X147821008Y-104186745D01*
X147770472Y-104020149D01*
X147688405Y-103866613D01*
X147577962Y-103732038D01*
X147443387Y-103621595D01*
X147385000Y-103590386D01*
X147385000Y-102973465D01*
X147389281Y-102929999D01*
X147385000Y-102886533D01*
X147385000Y-102886523D01*
X147372195Y-102756510D01*
X147321589Y-102589687D01*
X147253072Y-102461499D01*
X147253072Y-102095000D01*
X147240812Y-101970518D01*
X147204502Y-101850820D01*
X147145537Y-101740506D01*
X147066185Y-101643815D01*
X146969494Y-101564463D01*
X146859180Y-101505498D01*
X146739482Y-101469188D01*
X146615000Y-101456928D01*
X145315000Y-101456928D01*
X145190518Y-101469188D01*
X145070820Y-101505498D01*
X144960506Y-101564463D01*
X144863815Y-101643815D01*
X144784463Y-101740506D01*
X144725498Y-101850820D01*
X144689188Y-101970518D01*
X144686759Y-101995180D01*
X143323072Y-100631494D01*
X143323072Y-100295000D01*
X143310812Y-100170518D01*
X143274502Y-100050820D01*
X143215537Y-99940506D01*
X143136185Y-99843815D01*
X143039494Y-99764463D01*
X142929180Y-99705498D01*
X142809482Y-99669188D01*
X142685000Y-99656928D01*
X141385000Y-99656928D01*
X141260518Y-99669188D01*
X141140820Y-99705498D01*
X141030506Y-99764463D01*
X140933815Y-99843815D01*
X140854463Y-99940506D01*
X140795498Y-100050820D01*
X140759188Y-100170518D01*
X140746928Y-100295000D01*
X140746928Y-100895000D01*
X140759188Y-101019482D01*
X140795498Y-101139180D01*
X140854463Y-101249494D01*
X140933815Y-101346185D01*
X141030506Y-101425537D01*
X141140820Y-101484502D01*
X141260518Y-101520812D01*
X141385000Y-101533072D01*
X141721494Y-101533072D01*
X143275001Y-103086580D01*
X143275001Y-103590386D01*
X143216613Y-103621595D01*
X143082038Y-103732038D01*
X142971595Y-103866613D01*
X142889528Y-104020149D01*
X142838992Y-104186745D01*
X142821928Y-104359999D01*
X142821928Y-105060001D01*
X142838992Y-105233255D01*
X142889528Y-105399851D01*
X142971595Y-105553387D01*
X143082038Y-105687962D01*
X143108891Y-105710000D01*
X143082038Y-105732038D01*
X142971595Y-105866613D01*
X142889528Y-106020149D01*
X142838992Y-106186745D01*
X142821928Y-106359999D01*
X142821928Y-107060001D01*
X142838992Y-107233255D01*
X142889528Y-107399851D01*
X142971595Y-107553387D01*
X143082038Y-107687962D01*
X143216613Y-107798405D01*
X143370149Y-107880472D01*
X143536745Y-107931008D01*
X143709999Y-107948072D01*
X144063573Y-107948072D01*
X143411645Y-108600000D01*
X139508355Y-108600000D01*
X135383355Y-104475000D01*
X135571939Y-104475000D01*
X135771898Y-104435226D01*
X135960256Y-104357205D01*
X136129774Y-104243937D01*
X136273937Y-104099774D01*
X136387205Y-103930256D01*
X136465226Y-103741898D01*
X136505000Y-103541939D01*
X136505000Y-103338061D01*
X136465226Y-103138102D01*
X136387205Y-102949744D01*
X136273937Y-102780226D01*
X136129774Y-102636063D01*
X135960256Y-102522795D01*
X135771898Y-102444774D01*
X135571939Y-102405000D01*
X135368061Y-102405000D01*
X135174984Y-102443405D01*
X134958072Y-102226493D01*
X134958072Y-101789999D01*
X134941008Y-101616745D01*
X134890472Y-101450149D01*
X134808405Y-101296613D01*
X134697962Y-101162038D01*
X134563387Y-101051595D01*
X134505000Y-101020386D01*
X134505000Y-100093469D01*
X134509281Y-100050000D01*
X134505000Y-100006531D01*
X134505000Y-100006523D01*
X134492195Y-99876510D01*
X134441589Y-99709687D01*
X134359411Y-99555941D01*
X134253072Y-99426368D01*
X134253072Y-99095000D01*
X134240812Y-98970518D01*
X134204502Y-98850820D01*
X134145537Y-98740506D01*
X134066185Y-98643815D01*
X133969494Y-98564463D01*
X133859180Y-98505498D01*
X133739482Y-98469188D01*
X133615000Y-98456928D01*
X132315000Y-98456928D01*
X132190518Y-98469188D01*
X132070820Y-98505498D01*
X131960506Y-98564463D01*
X131863815Y-98643815D01*
X131784463Y-98740506D01*
X131725498Y-98850820D01*
X131689188Y-98970518D01*
X131680375Y-99059998D01*
X131619411Y-98945941D01*
X131508817Y-98811183D01*
X131475049Y-98783470D01*
X130323072Y-97631494D01*
X130323072Y-97295000D01*
X130310812Y-97170518D01*
X130274502Y-97050820D01*
X130215537Y-96940506D01*
X130136185Y-96843815D01*
X130039494Y-96764463D01*
X129929180Y-96705498D01*
X129809482Y-96669188D01*
X129685000Y-96656928D01*
X128385000Y-96656928D01*
X128260518Y-96669188D01*
X128140820Y-96705498D01*
X128030506Y-96764463D01*
X127933815Y-96843815D01*
X127854463Y-96940506D01*
X127795498Y-97050820D01*
X127759188Y-97170518D01*
X127746928Y-97295000D01*
X127746928Y-97895000D01*
X127759188Y-98019482D01*
X127795498Y-98139180D01*
X127854463Y-98249494D01*
X127933815Y-98346185D01*
X128030506Y-98425537D01*
X128140820Y-98484502D01*
X128260518Y-98520812D01*
X128385000Y-98533072D01*
X128721494Y-98533072D01*
X129995001Y-99806580D01*
X129995000Y-101010386D01*
X129936613Y-101041595D01*
X129802038Y-101152038D01*
X129691595Y-101286613D01*
X129609528Y-101440149D01*
X129558992Y-101606745D01*
X129541928Y-101779999D01*
X129541928Y-102480001D01*
X129558992Y-102653255D01*
X129609528Y-102819851D01*
X129691595Y-102973387D01*
X129802038Y-103107962D01*
X129828891Y-103130000D01*
X129802038Y-103152038D01*
X129691595Y-103286613D01*
X129609528Y-103440149D01*
X129558992Y-103606745D01*
X129541928Y-103779999D01*
X129541928Y-104480001D01*
X129558992Y-104653255D01*
X129609528Y-104819851D01*
X129691595Y-104973387D01*
X129802038Y-105107962D01*
X129936613Y-105218405D01*
X130090149Y-105300472D01*
X130256745Y-105351008D01*
X130429999Y-105368072D01*
X131330001Y-105368072D01*
X131503255Y-105351008D01*
X131669851Y-105300472D01*
X131823387Y-105218405D01*
X131906739Y-105150000D01*
X132581076Y-105150000D01*
X132676613Y-105228405D01*
X132830149Y-105310472D01*
X132996745Y-105361008D01*
X133169999Y-105378072D01*
X133429717Y-105378072D01*
X136651645Y-108600000D01*
X126558356Y-108600000D01*
X121958072Y-103999717D01*
X121958072Y-103739999D01*
X121944531Y-103602515D01*
X121956063Y-103619774D01*
X122100226Y-103763937D01*
X122269744Y-103877205D01*
X122458102Y-103955226D01*
X122658061Y-103995000D01*
X122861939Y-103995000D01*
X123061898Y-103955226D01*
X123250256Y-103877205D01*
X123419774Y-103763937D01*
X123563937Y-103619774D01*
X123677205Y-103450256D01*
X123755226Y-103261898D01*
X123795000Y-103061939D01*
X123795000Y-102858061D01*
X123755226Y-102658102D01*
X123677205Y-102469744D01*
X123563937Y-102300226D01*
X123419774Y-102156063D01*
X123250256Y-102042795D01*
X123061898Y-101964774D01*
X123005044Y-101953465D01*
X122546534Y-101494956D01*
X122518817Y-101461183D01*
X122384059Y-101350589D01*
X122230313Y-101268411D01*
X122063490Y-101217805D01*
X121933477Y-101205000D01*
X121933469Y-101205000D01*
X121890000Y-101200719D01*
X121846531Y-101205000D01*
X121774254Y-101205000D01*
X121697962Y-101112038D01*
X121563387Y-101001595D01*
X121505000Y-100970386D01*
X121505000Y-100093469D01*
X121509281Y-100050000D01*
X121505000Y-100006531D01*
X121505000Y-100006523D01*
X121492195Y-99876510D01*
X121441589Y-99709687D01*
X121359411Y-99555941D01*
X121253072Y-99426368D01*
X121253072Y-99095000D01*
X121240812Y-98970518D01*
X121204502Y-98850820D01*
X121145537Y-98740506D01*
X121066185Y-98643815D01*
X120969494Y-98564463D01*
X120859180Y-98505498D01*
X120739482Y-98469188D01*
X120615000Y-98456928D01*
X119315000Y-98456928D01*
X119190518Y-98469188D01*
X119070820Y-98505498D01*
X118960506Y-98564463D01*
X118863815Y-98643815D01*
X118784463Y-98740506D01*
X118725498Y-98850820D01*
X118689188Y-98970518D01*
X118686759Y-98995180D01*
X117323072Y-97631494D01*
X117323072Y-97295000D01*
X117310812Y-97170518D01*
X117274502Y-97050820D01*
X117215537Y-96940506D01*
X117136185Y-96843815D01*
X117039494Y-96764463D01*
X116929180Y-96705498D01*
X116809482Y-96669188D01*
X116685000Y-96656928D01*
X115385000Y-96656928D01*
X115260518Y-96669188D01*
X115140820Y-96705498D01*
X115030506Y-96764463D01*
X114933815Y-96843815D01*
X114854463Y-96940506D01*
X114795498Y-97050820D01*
X114759188Y-97170518D01*
X114746928Y-97295000D01*
X114746928Y-97895000D01*
X114759188Y-98019482D01*
X114795498Y-98139180D01*
X114854463Y-98249494D01*
X114933815Y-98346185D01*
X115030506Y-98425537D01*
X115140820Y-98484502D01*
X115260518Y-98520812D01*
X115385000Y-98533072D01*
X115721494Y-98533072D01*
X117445000Y-100256579D01*
X117445000Y-100990386D01*
X117386613Y-101021595D01*
X117252038Y-101132038D01*
X117141595Y-101266613D01*
X117059528Y-101420149D01*
X117008992Y-101586745D01*
X116991928Y-101759999D01*
X116991928Y-102460001D01*
X117008992Y-102633255D01*
X117059528Y-102799851D01*
X117141595Y-102953387D01*
X117252038Y-103087962D01*
X117278891Y-103110000D01*
X117252038Y-103132038D01*
X117141595Y-103266613D01*
X117059528Y-103420149D01*
X117008992Y-103586745D01*
X116991928Y-103759999D01*
X116991928Y-104460001D01*
X117008992Y-104633255D01*
X117059528Y-104799851D01*
X117141595Y-104953387D01*
X117252038Y-105087962D01*
X117386613Y-105198405D01*
X117540149Y-105280472D01*
X117706745Y-105331008D01*
X117879999Y-105348072D01*
X118780001Y-105348072D01*
X118953255Y-105331008D01*
X119119851Y-105280472D01*
X119273387Y-105198405D01*
X119368924Y-105120000D01*
X119605446Y-105120000D01*
X119676613Y-105178405D01*
X119830149Y-105260472D01*
X119996745Y-105311008D01*
X120169999Y-105328072D01*
X120429717Y-105328072D01*
X123701644Y-108600000D01*
X110448356Y-108600000D01*
X108728072Y-106879717D01*
X108728072Y-106619999D01*
X108711008Y-106446745D01*
X108660472Y-106280149D01*
X108578405Y-106126613D01*
X108467962Y-105992038D01*
X108441109Y-105970000D01*
X108467962Y-105947962D01*
X108544254Y-105855000D01*
X109881546Y-105855000D01*
X109929744Y-105887205D01*
X110118102Y-105965226D01*
X110318061Y-106005000D01*
X110521939Y-106005000D01*
X110721898Y-105965226D01*
X110910256Y-105887205D01*
X111079774Y-105773937D01*
X111223937Y-105629774D01*
X111337205Y-105460256D01*
X111415226Y-105271898D01*
X111455000Y-105071939D01*
X111455000Y-104868061D01*
X111415226Y-104668102D01*
X111337205Y-104479744D01*
X111223937Y-104310226D01*
X111079774Y-104166063D01*
X110910256Y-104052795D01*
X110721898Y-103974774D01*
X110521939Y-103935000D01*
X110318061Y-103935000D01*
X110118102Y-103974774D01*
X109929744Y-104052795D01*
X109881546Y-104085000D01*
X108544254Y-104085000D01*
X108467962Y-103992038D01*
X108333387Y-103881595D01*
X108275000Y-103850386D01*
X108275000Y-102863469D01*
X108279281Y-102820000D01*
X108275000Y-102776531D01*
X108275000Y-102776523D01*
X108262195Y-102646510D01*
X108253072Y-102616436D01*
X108253072Y-102095000D01*
X108240812Y-101970518D01*
X108204502Y-101850820D01*
X108145537Y-101740506D01*
X108066185Y-101643815D01*
X107969494Y-101564463D01*
X107859180Y-101505498D01*
X107739482Y-101469188D01*
X107615000Y-101456928D01*
X106315000Y-101456928D01*
X106190518Y-101469188D01*
X106070820Y-101505498D01*
X105960506Y-101564463D01*
X105863815Y-101643815D01*
X105784463Y-101740506D01*
X105725498Y-101850820D01*
X105689188Y-101970518D01*
X105683173Y-102031592D01*
X104323072Y-100671492D01*
X104323072Y-100295000D01*
X104310812Y-100170518D01*
X104274502Y-100050820D01*
X104215537Y-99940506D01*
X104136185Y-99843815D01*
X104039494Y-99764463D01*
X103929180Y-99705498D01*
X103809482Y-99669188D01*
X103685000Y-99656928D01*
X102385000Y-99656928D01*
X102260518Y-99669188D01*
X102140820Y-99705498D01*
X102030506Y-99764463D01*
X101933815Y-99843815D01*
X101854463Y-99940506D01*
X101795498Y-100050820D01*
X101759188Y-100170518D01*
X101746928Y-100295000D01*
X101746928Y-100895000D01*
X101759188Y-101019482D01*
X101795498Y-101139180D01*
X101854463Y-101249494D01*
X101933815Y-101346185D01*
X102030506Y-101425537D01*
X102140820Y-101484502D01*
X102260518Y-101520812D01*
X102385000Y-101533072D01*
X102681496Y-101533072D01*
X104255001Y-103106578D01*
X104255000Y-103870386D01*
X104196613Y-103901595D01*
X104062038Y-104012038D01*
X103951595Y-104146613D01*
X103869528Y-104300149D01*
X103818992Y-104466745D01*
X103801928Y-104639999D01*
X103801928Y-105340001D01*
X103818992Y-105513255D01*
X103869528Y-105679851D01*
X103951595Y-105833387D01*
X104062038Y-105967962D01*
X104088891Y-105990000D01*
X104062038Y-106012038D01*
X103951595Y-106146613D01*
X103869528Y-106300149D01*
X103818992Y-106466745D01*
X103801928Y-106639999D01*
X103801928Y-107340001D01*
X103818992Y-107513255D01*
X103869528Y-107679851D01*
X103951595Y-107833387D01*
X104062038Y-107967962D01*
X104196613Y-108078405D01*
X104350149Y-108160472D01*
X104516745Y-108211008D01*
X104689999Y-108228072D01*
X105590001Y-108228072D01*
X105763255Y-108211008D01*
X105929851Y-108160472D01*
X106083387Y-108078405D01*
X106178924Y-108000000D01*
X106375446Y-108000000D01*
X106446613Y-108058405D01*
X106600149Y-108140472D01*
X106766745Y-108191008D01*
X106939999Y-108208072D01*
X107199717Y-108208072D01*
X108201644Y-109210000D01*
X101732799Y-109210000D01*
X101860256Y-109157205D01*
X102029774Y-109043937D01*
X102173937Y-108899774D01*
X102287205Y-108730256D01*
X102365226Y-108541898D01*
X102405000Y-108341939D01*
X102405000Y-108138061D01*
X102365226Y-107938102D01*
X102287205Y-107749744D01*
X102173937Y-107580226D01*
X102029774Y-107436063D01*
X101860256Y-107322795D01*
X101671898Y-107244774D01*
X101471939Y-107205000D01*
X101268061Y-107205000D01*
X101068102Y-107244774D01*
X100879744Y-107322795D01*
X100831546Y-107355000D01*
X96050668Y-107355000D01*
X95957962Y-107242038D01*
X95823387Y-107131595D01*
X95765000Y-107100386D01*
X95765000Y-106353465D01*
X95769281Y-106309999D01*
X95765000Y-106266533D01*
X95765000Y-106266523D01*
X95752195Y-106136510D01*
X95701589Y-105969687D01*
X95619411Y-105815941D01*
X95577164Y-105764463D01*
X95536532Y-105714953D01*
X95536530Y-105714951D01*
X95508817Y-105681183D01*
X95475049Y-105653470D01*
X95253072Y-105431493D01*
X95253072Y-105095000D01*
X95240812Y-104970518D01*
X95204502Y-104850820D01*
X95145537Y-104740506D01*
X95066185Y-104643815D01*
X94969494Y-104564463D01*
X94859180Y-104505498D01*
X94739482Y-104469188D01*
X94615000Y-104456928D01*
X93315000Y-104456928D01*
X93190518Y-104469188D01*
X93070820Y-104505498D01*
X92960506Y-104564463D01*
X92863815Y-104643815D01*
X92784463Y-104740506D01*
X92725498Y-104850820D01*
X92689188Y-104970518D01*
X92683173Y-105031592D01*
X91323072Y-103671492D01*
X91323072Y-103295000D01*
X91310812Y-103170518D01*
X91274502Y-103050820D01*
X91215537Y-102940506D01*
X91136185Y-102843815D01*
X91039494Y-102764463D01*
X90929180Y-102705498D01*
X90809482Y-102669188D01*
X90685000Y-102656928D01*
X89385000Y-102656928D01*
X89260518Y-102669188D01*
X89140820Y-102705498D01*
X89030506Y-102764463D01*
X88933815Y-102843815D01*
X88854463Y-102940506D01*
X88795498Y-103050820D01*
X88759188Y-103170518D01*
X88746928Y-103295000D01*
X88746928Y-103895000D01*
X88759188Y-104019482D01*
X88795498Y-104139180D01*
X88854463Y-104249494D01*
X88933815Y-104346185D01*
X89030506Y-104425537D01*
X89140820Y-104484502D01*
X89260518Y-104520812D01*
X89385000Y-104533072D01*
X89681496Y-104533072D01*
X91455001Y-106306578D01*
X91455000Y-107070386D01*
X91396613Y-107101595D01*
X91262038Y-107212038D01*
X91151595Y-107346613D01*
X91069528Y-107500149D01*
X91018992Y-107666745D01*
X91001928Y-107839999D01*
X91001928Y-108540001D01*
X91018992Y-108713255D01*
X91069528Y-108879851D01*
X91151595Y-109033387D01*
X91262038Y-109167962D01*
X91288891Y-109190000D01*
X91262038Y-109212038D01*
X91151595Y-109346613D01*
X91069528Y-109500149D01*
X91018992Y-109666745D01*
X91001928Y-109839999D01*
X91001928Y-110540001D01*
X91018992Y-110713255D01*
X91069528Y-110879851D01*
X91151595Y-111033387D01*
X91262038Y-111167962D01*
X91396613Y-111278405D01*
X91550149Y-111360472D01*
X91716745Y-111411008D01*
X91889999Y-111428072D01*
X92790001Y-111428072D01*
X92963255Y-111411008D01*
X93129851Y-111360472D01*
X93283387Y-111278405D01*
X93378924Y-111200000D01*
X93804521Y-111200000D01*
X93936613Y-111308405D01*
X94090149Y-111390472D01*
X94256745Y-111441008D01*
X94429999Y-111458072D01*
X95330001Y-111458072D01*
X95503255Y-111441008D01*
X95669851Y-111390472D01*
X95823387Y-111308405D01*
X95918924Y-111230000D01*
X98431645Y-111230000D01*
X97171645Y-112490000D01*
X85150836Y-112490000D01*
X85219774Y-112443937D01*
X85363937Y-112299774D01*
X85477205Y-112130256D01*
X85555226Y-111941898D01*
X85595000Y-111741939D01*
X85595000Y-111538061D01*
X85555226Y-111338102D01*
X85477205Y-111149744D01*
X85363937Y-110980226D01*
X85219774Y-110836063D01*
X85050256Y-110722795D01*
X84861898Y-110644774D01*
X84661939Y-110605000D01*
X84458061Y-110605000D01*
X84258102Y-110644774D01*
X84069744Y-110722795D01*
X84021546Y-110755000D01*
X83540994Y-110755000D01*
X83488405Y-110656613D01*
X83377962Y-110522038D01*
X83243387Y-110411595D01*
X83185000Y-110380386D01*
X83185000Y-109773465D01*
X83189281Y-109729999D01*
X83185000Y-109686533D01*
X83185000Y-109686523D01*
X83172195Y-109556510D01*
X83121589Y-109389687D01*
X83039411Y-109235941D01*
X82983622Y-109167962D01*
X82956532Y-109134953D01*
X82956530Y-109134951D01*
X82928817Y-109101183D01*
X82895049Y-109073470D01*
X82253072Y-108431494D01*
X82253072Y-108095000D01*
X82240812Y-107970518D01*
X82204502Y-107850820D01*
X82145537Y-107740506D01*
X82066185Y-107643815D01*
X81969494Y-107564463D01*
X81859180Y-107505498D01*
X81739482Y-107469188D01*
X81615000Y-107456928D01*
X80315000Y-107456928D01*
X80190518Y-107469188D01*
X80070820Y-107505498D01*
X79960506Y-107564463D01*
X79863815Y-107643815D01*
X79784463Y-107740506D01*
X79725498Y-107850820D01*
X79689188Y-107970518D01*
X79683173Y-108031592D01*
X78323072Y-106671492D01*
X78323072Y-106295000D01*
X78310812Y-106170518D01*
X78274502Y-106050820D01*
X78215537Y-105940506D01*
X78136185Y-105843815D01*
X78039494Y-105764463D01*
X77929180Y-105705498D01*
X77809482Y-105669188D01*
X77685000Y-105656928D01*
X76385000Y-105656928D01*
X76260518Y-105669188D01*
X76140820Y-105705498D01*
X76030506Y-105764463D01*
X75933815Y-105843815D01*
X75854463Y-105940506D01*
X75795498Y-106050820D01*
X75759188Y-106170518D01*
X75746928Y-106295000D01*
X74659850Y-106295000D01*
X75130230Y-104893934D01*
X115641951Y-94902167D01*
X115659382Y-94900450D01*
X115704916Y-94886637D01*
X115719521Y-94883035D01*
X115735966Y-94877218D01*
X115783792Y-94862710D01*
X115797115Y-94855589D01*
X115811377Y-94850544D01*
X115854376Y-94824983D01*
X115898449Y-94801425D01*
X115910132Y-94791837D01*
X115923130Y-94784110D01*
X115960303Y-94750663D01*
X115998948Y-94718948D01*
X116008538Y-94707263D01*
X116019775Y-94697152D01*
X116049700Y-94657107D01*
X116081425Y-94618450D01*
X116088553Y-94605114D01*
X116097599Y-94593009D01*
X116119136Y-94547898D01*
X116142710Y-94503793D01*
X116147099Y-94489326D01*
X116153611Y-94475685D01*
X116165932Y-94427240D01*
X116180450Y-94379383D01*
X116181932Y-94364333D01*
X116185657Y-94349688D01*
X116188290Y-94299777D01*
X116190000Y-94282419D01*
X116190000Y-94267375D01*
X116192507Y-94219860D01*
X116190000Y-94202527D01*
X116190000Y-92345550D01*
X121585713Y-92345550D01*
X121585713Y-92734450D01*
X121661583Y-93115878D01*
X121810409Y-93475176D01*
X122026471Y-93798535D01*
X122301465Y-94073529D01*
X122624824Y-94289591D01*
X122984122Y-94438417D01*
X123365550Y-94514287D01*
X123754450Y-94514287D01*
X124135878Y-94438417D01*
X124495176Y-94289591D01*
X124818535Y-94073529D01*
X125093529Y-93798535D01*
X125309591Y-93475176D01*
X125458417Y-93115878D01*
X125534287Y-92734450D01*
X125534287Y-92345550D01*
X125458417Y-91964122D01*
X125309591Y-91604824D01*
X125093529Y-91281465D01*
X124818535Y-91006471D01*
X124495176Y-90790409D01*
X124135878Y-90641583D01*
X123754450Y-90565713D01*
X123365550Y-90565713D01*
X122984122Y-90641583D01*
X122624824Y-90790409D01*
X122301465Y-91006471D01*
X122026471Y-91281465D01*
X121810409Y-91604824D01*
X121661583Y-91964122D01*
X121585713Y-92345550D01*
X116190000Y-92345550D01*
X116190000Y-89860000D01*
X130510001Y-89860000D01*
X130510000Y-94162594D01*
G37*
%TD.AperFunction*%
%TD*%
M02*
