%TF.GenerationSoftware,KiCad,Pcbnew,(5.1.9)-1*%
%TF.CreationDate,2021-05-13T01:41:10+02:00*%
%TF.ProjectId,CzujnikOdb,437a756a-6e69-46b4-9f64-622e6b696361,rev?*%
%TF.SameCoordinates,Original*%
%TF.FileFunction,Legend,Top*%
%TF.FilePolarity,Positive*%
%FSLAX46Y46*%
G04 Gerber Fmt 4.6, Leading zero omitted, Abs format (unit mm)*
G04 Created by KiCad (PCBNEW (5.1.9)-1) date 2021-05-13 01:41:10*
%MOMM*%
%LPD*%
G01*
G04 APERTURE LIST*
%ADD10C,0.150000*%
%ADD11C,0.600000*%
%ADD12C,0.010000*%
%ADD13C,0.120000*%
G04 APERTURE END LIST*
D10*
X83357142Y-115152380D02*
X83595238Y-116152380D01*
X83785714Y-115438095D01*
X83976190Y-116152380D01*
X84214285Y-115152380D01*
X84595238Y-116152380D02*
X84595238Y-115152380D01*
X85071428Y-116152380D02*
X85071428Y-115152380D01*
X85642857Y-116152380D02*
X85214285Y-115580952D01*
X85642857Y-115152380D02*
X85071428Y-115723809D01*
X85928571Y-115152380D02*
X86500000Y-115152380D01*
X86214285Y-116152380D02*
X86214285Y-115152380D01*
X87023809Y-115152380D02*
X87214285Y-115152380D01*
X87309523Y-115200000D01*
X87404761Y-115295238D01*
X87452380Y-115485714D01*
X87452380Y-115819047D01*
X87404761Y-116009523D01*
X87309523Y-116104761D01*
X87214285Y-116152380D01*
X87023809Y-116152380D01*
X86928571Y-116104761D01*
X86833333Y-116009523D01*
X86785714Y-115819047D01*
X86785714Y-115485714D01*
X86833333Y-115295238D01*
X86928571Y-115200000D01*
X87023809Y-115152380D01*
X88452380Y-116152380D02*
X88119047Y-115676190D01*
X87880952Y-116152380D02*
X87880952Y-115152380D01*
X88261904Y-115152380D01*
X88357142Y-115200000D01*
X88404761Y-115247619D01*
X88452380Y-115342857D01*
X88452380Y-115485714D01*
X88404761Y-115580952D01*
X88357142Y-115628571D01*
X88261904Y-115676190D01*
X87880952Y-115676190D01*
X89595238Y-116104761D02*
X89738095Y-116152380D01*
X89976190Y-116152380D01*
X90071428Y-116104761D01*
X90119047Y-116057142D01*
X90166666Y-115961904D01*
X90166666Y-115866666D01*
X90119047Y-115771428D01*
X90071428Y-115723809D01*
X89976190Y-115676190D01*
X89785714Y-115628571D01*
X89690476Y-115580952D01*
X89642857Y-115533333D01*
X89595238Y-115438095D01*
X89595238Y-115342857D01*
X89642857Y-115247619D01*
X89690476Y-115200000D01*
X89785714Y-115152380D01*
X90023809Y-115152380D01*
X90166666Y-115200000D01*
X90595238Y-116152380D02*
X90595238Y-115152380D01*
X90976190Y-115152380D01*
X91071428Y-115200000D01*
X91119047Y-115247619D01*
X91166666Y-115342857D01*
X91166666Y-115485714D01*
X91119047Y-115580952D01*
X91071428Y-115628571D01*
X90976190Y-115676190D01*
X90595238Y-115676190D01*
X92166666Y-116152380D02*
X91833333Y-115676190D01*
X91595238Y-116152380D02*
X91595238Y-115152380D01*
X91976190Y-115152380D01*
X92071428Y-115200000D01*
X92119047Y-115247619D01*
X92166666Y-115342857D01*
X92166666Y-115485714D01*
X92119047Y-115580952D01*
X92071428Y-115628571D01*
X91976190Y-115676190D01*
X91595238Y-115676190D01*
X92595238Y-116152380D02*
X92595238Y-115152380D01*
X93071428Y-116152380D02*
X93071428Y-115152380D01*
X93642857Y-116152380D01*
X93642857Y-115152380D01*
X94642857Y-115200000D02*
X94547619Y-115152380D01*
X94404761Y-115152380D01*
X94261904Y-115200000D01*
X94166666Y-115295238D01*
X94119047Y-115390476D01*
X94071428Y-115580952D01*
X94071428Y-115723809D01*
X94119047Y-115914285D01*
X94166666Y-116009523D01*
X94261904Y-116104761D01*
X94404761Y-116152380D01*
X94500000Y-116152380D01*
X94642857Y-116104761D01*
X94690476Y-116057142D01*
X94690476Y-115723809D01*
X94500000Y-115723809D01*
X95119047Y-115628571D02*
X95452380Y-115628571D01*
X95595238Y-116152380D02*
X95119047Y-116152380D01*
X95119047Y-115152380D01*
X95595238Y-115152380D01*
X96595238Y-116152380D02*
X96261904Y-115676190D01*
X96023809Y-116152380D02*
X96023809Y-115152380D01*
X96404761Y-115152380D01*
X96500000Y-115200000D01*
X96547619Y-115247619D01*
X96595238Y-115342857D01*
X96595238Y-115485714D01*
X96547619Y-115580952D01*
X96500000Y-115628571D01*
X96404761Y-115676190D01*
X96023809Y-115676190D01*
D11*
X117310000Y-98015714D02*
X118310000Y-98015714D01*
X118738571Y-99587142D02*
X117310000Y-99587142D01*
X117310000Y-96587142D01*
X118738571Y-96587142D01*
X119881428Y-98730000D02*
X121310000Y-98730000D01*
X119595714Y-99587142D02*
X120595714Y-96587142D01*
X121595714Y-99587142D01*
X124167142Y-96730000D02*
X123881428Y-96587142D01*
X123452857Y-96587142D01*
X123024285Y-96730000D01*
X122738571Y-97015714D01*
X122595714Y-97301428D01*
X122452857Y-97872857D01*
X122452857Y-98301428D01*
X122595714Y-98872857D01*
X122738571Y-99158571D01*
X123024285Y-99444285D01*
X123452857Y-99587142D01*
X123738571Y-99587142D01*
X124167142Y-99444285D01*
X124310000Y-99301428D01*
X124310000Y-98301428D01*
X123738571Y-98301428D01*
X127024285Y-99587142D02*
X125595714Y-99587142D01*
X125595714Y-96587142D01*
X128024285Y-98015714D02*
X129024285Y-98015714D01*
X129452857Y-99587142D02*
X128024285Y-99587142D01*
X128024285Y-96587142D01*
X129452857Y-96587142D01*
D12*
%TO.C,G\u002A\u002A\u002A*%
G36*
X147116228Y-100181949D02*
G01*
X147908762Y-100185634D01*
X148630295Y-100191477D01*
X149265584Y-100199237D01*
X149799389Y-100208668D01*
X150216469Y-100219528D01*
X150501583Y-100231573D01*
X150639489Y-100244559D01*
X150649434Y-100250668D01*
X150523403Y-100347646D01*
X150294374Y-100513155D01*
X149999768Y-100721087D01*
X149677007Y-100945337D01*
X149363509Y-101159797D01*
X149096698Y-101338359D01*
X149003321Y-101399092D01*
X148621667Y-101643850D01*
X147394000Y-101580471D01*
X147056870Y-101563886D01*
X146629493Y-101544099D01*
X146139051Y-101522236D01*
X145612728Y-101499427D01*
X145077707Y-101476800D01*
X144561170Y-101455484D01*
X144090301Y-101436606D01*
X143692282Y-101421295D01*
X143394296Y-101410679D01*
X143223527Y-101405887D01*
X143193744Y-101406125D01*
X143169851Y-101479070D01*
X143132525Y-101625653D01*
X143080561Y-101842973D01*
X144073114Y-101943400D01*
X144518970Y-101984813D01*
X145074426Y-102030841D01*
X145680001Y-102076852D01*
X146276215Y-102118212D01*
X146505000Y-102132803D01*
X146988551Y-102163370D01*
X147418264Y-102191805D01*
X147763403Y-102215971D01*
X147993229Y-102233736D01*
X148071334Y-102241559D01*
X148082606Y-102292369D01*
X147966142Y-102405336D01*
X147817334Y-102511377D01*
X147596584Y-102659604D01*
X147439546Y-102771279D01*
X147394000Y-102808620D01*
X147302576Y-102883854D01*
X147129656Y-103010550D01*
X147083183Y-103043252D01*
X146814698Y-103230680D01*
X145178183Y-103102690D01*
X144472508Y-103048783D01*
X143917030Y-103010217D01*
X143493300Y-102987089D01*
X143182868Y-102979498D01*
X142967287Y-102987540D01*
X142828105Y-103011315D01*
X142746875Y-103050919D01*
X142705147Y-103106450D01*
X142701283Y-103115824D01*
X142677673Y-103223260D01*
X142719158Y-103302423D01*
X142850288Y-103363643D01*
X143095617Y-103417248D01*
X143479695Y-103473568D01*
X143584000Y-103487187D01*
X144059676Y-103548410D01*
X144588768Y-103616305D01*
X145070444Y-103677936D01*
X145150334Y-103688132D01*
X145509466Y-103739358D01*
X145711843Y-103782704D01*
X145769658Y-103821656D01*
X145721834Y-103851370D01*
X145574625Y-103929272D01*
X145531334Y-103990606D01*
X145468776Y-104084036D01*
X145315455Y-104217062D01*
X145288222Y-104236913D01*
X145045110Y-104410024D01*
X143616055Y-104240404D01*
X143066121Y-104177834D01*
X142658647Y-104138898D01*
X142368563Y-104122592D01*
X142170797Y-104127910D01*
X142040280Y-104153850D01*
X141990384Y-104175305D01*
X141912999Y-104226539D01*
X141914084Y-104271379D01*
X142015647Y-104320820D01*
X142239696Y-104385854D01*
X142583050Y-104471368D01*
X142951413Y-104555900D01*
X143278579Y-104622270D01*
X143515338Y-104660872D01*
X143584000Y-104666751D01*
X143765781Y-104694514D01*
X143927674Y-104754753D01*
X144014178Y-104822325D01*
X144004882Y-104857418D01*
X143916397Y-104916265D01*
X143733386Y-105034961D01*
X143594758Y-105124110D01*
X143359700Y-105262768D01*
X143185661Y-105316172D01*
X142997384Y-105299576D01*
X142875092Y-105269979D01*
X142625774Y-105211426D01*
X142291983Y-105141877D01*
X141919998Y-105069884D01*
X141556097Y-105004002D01*
X141246559Y-104952784D01*
X141037664Y-104924783D01*
X140992314Y-104922000D01*
X140900261Y-104994989D01*
X140874667Y-105126873D01*
X140910524Y-105258351D01*
X141033119Y-105411142D01*
X141264983Y-105609065D01*
X141488500Y-105775760D01*
X141766330Y-105978777D01*
X141988970Y-106145307D01*
X142122660Y-106249927D01*
X142144667Y-106269868D01*
X142232650Y-106345581D01*
X142409348Y-106482360D01*
X142525667Y-106569005D01*
X142730243Y-106722742D01*
X142872593Y-106835824D01*
X142906667Y-106866813D01*
X143000835Y-106941496D01*
X143175273Y-107059777D01*
X143200800Y-107076167D01*
X143396274Y-107205780D01*
X143532827Y-107304902D01*
X143539466Y-107310404D01*
X143656484Y-107402940D01*
X143872853Y-107568694D01*
X144151879Y-107780061D01*
X144456868Y-108009433D01*
X144751128Y-108229205D01*
X144997964Y-108411770D01*
X145147665Y-108520333D01*
X145375210Y-108691416D01*
X145624056Y-108891758D01*
X145660564Y-108922500D01*
X145848558Y-109067102D01*
X145989015Y-109148662D01*
X146016222Y-109155333D01*
X146128616Y-109212280D01*
X146251000Y-109324666D01*
X146312702Y-109398814D01*
X146320691Y-109447263D01*
X146250313Y-109475341D01*
X146076914Y-109488379D01*
X145775840Y-109491706D01*
X145480956Y-109491127D01*
X145023025Y-109482936D01*
X144691979Y-109457994D01*
X144445740Y-109410752D01*
X144242231Y-109335660D01*
X144219000Y-109324666D01*
X143989627Y-109223613D01*
X143816340Y-109164374D01*
X143779301Y-109158206D01*
X143650583Y-109095086D01*
X143563133Y-109007166D01*
X143465209Y-108899712D01*
X143268731Y-108698167D01*
X142997034Y-108425985D01*
X142673454Y-108106618D01*
X142446871Y-107885333D01*
X142079370Y-107528390D01*
X141823727Y-107282988D01*
X141670443Y-107142576D01*
X141610017Y-107100603D01*
X141632948Y-107150519D01*
X141729735Y-107285773D01*
X141890878Y-107499814D01*
X141894298Y-107504333D01*
X142126457Y-107810117D01*
X142344761Y-108096001D01*
X142510438Y-108311253D01*
X142541369Y-108351000D01*
X142717290Y-108576864D01*
X142834777Y-108731702D01*
X142939897Y-108877729D01*
X143074214Y-109070666D01*
X143222701Y-109270338D01*
X143343442Y-109408006D01*
X143368254Y-109429203D01*
X143343719Y-109459321D01*
X143199385Y-109476926D01*
X142984352Y-109481671D01*
X142747719Y-109473205D01*
X142538582Y-109451182D01*
X142462167Y-109435637D01*
X142336658Y-109368631D01*
X142314000Y-109324164D01*
X142244230Y-109243264D01*
X142144667Y-109197666D01*
X142007806Y-109120629D01*
X141975334Y-109062549D01*
X141930131Y-108961675D01*
X141808588Y-108756802D01*
X141631802Y-108482422D01*
X141509667Y-108301227D01*
X141313261Y-108021515D01*
X141157787Y-107813556D01*
X141063268Y-107703347D01*
X141044000Y-107696623D01*
X141080898Y-107811788D01*
X141173633Y-108020122D01*
X141295268Y-108267071D01*
X141418864Y-108498078D01*
X141517484Y-108658591D01*
X141522139Y-108664951D01*
X141614631Y-108821605D01*
X141702969Y-109007166D01*
X141760228Y-109170420D01*
X141714899Y-109231245D01*
X141566479Y-109240000D01*
X141405954Y-109213469D01*
X141292167Y-109105977D01*
X141182281Y-108880166D01*
X141072520Y-108624619D01*
X140974953Y-108414885D01*
X140949724Y-108365955D01*
X140801956Y-108082272D01*
X140599741Y-107674889D01*
X140510628Y-107490222D01*
X140902889Y-107490222D01*
X140914511Y-107540556D01*
X140959334Y-107546666D01*
X141029024Y-107515688D01*
X141015778Y-107490222D01*
X140915298Y-107480089D01*
X140902889Y-107490222D01*
X140510628Y-107490222D01*
X140358256Y-107174466D01*
X140316613Y-107087022D01*
X140077977Y-106585044D01*
X140008513Y-106853113D01*
X139944313Y-107019372D01*
X139831695Y-107124102D01*
X139632727Y-107185613D01*
X139309474Y-107222211D01*
X139232242Y-107227766D01*
X138951603Y-107289535D01*
X138808908Y-107419666D01*
X138715748Y-107571543D01*
X138668426Y-107631333D01*
X138590650Y-107725805D01*
X138477926Y-107883005D01*
X138334667Y-108092344D01*
X138334667Y-107861838D01*
X138310511Y-107697761D01*
X138202812Y-107637582D01*
X138081384Y-107631333D01*
X137830888Y-107694666D01*
X137722351Y-107800666D01*
X137598130Y-107947198D01*
X137514916Y-107939963D01*
X137488000Y-107801310D01*
X137561453Y-107567716D01*
X137743573Y-107357198D01*
X137977001Y-107226135D01*
X138091626Y-107208000D01*
X138318114Y-107132681D01*
X138531456Y-106939760D01*
X138691441Y-106678794D01*
X138757856Y-106399336D01*
X138758000Y-106386789D01*
X138726974Y-106215648D01*
X138617424Y-106032320D01*
X138404640Y-105799761D01*
X138297402Y-105696281D01*
X138045769Y-105468261D01*
X137860159Y-105337055D01*
X137690095Y-105276592D01*
X137485100Y-105260798D01*
X137454033Y-105260666D01*
X137153580Y-105290920D01*
X136950901Y-105395666D01*
X136898632Y-105445964D01*
X136726000Y-105631263D01*
X136726000Y-105165228D01*
X136734218Y-104904868D01*
X136777612Y-104721795D01*
X136884293Y-104554866D01*
X137082371Y-104342939D01*
X137122597Y-104302596D01*
X137519193Y-103905999D01*
X138752430Y-103905527D01*
X139347156Y-103899739D01*
X139801963Y-103878743D01*
X140146025Y-103836315D01*
X140408518Y-103766233D01*
X140618616Y-103662272D01*
X140805494Y-103518212D01*
X140875434Y-103452686D01*
X141289571Y-102932645D01*
X141583290Y-102296906D01*
X141754753Y-101550650D01*
X141802984Y-100836833D01*
X141806000Y-100180666D01*
X146267934Y-100180666D01*
X147116228Y-100181949D01*
G37*
X147116228Y-100181949D02*
X147908762Y-100185634D01*
X148630295Y-100191477D01*
X149265584Y-100199237D01*
X149799389Y-100208668D01*
X150216469Y-100219528D01*
X150501583Y-100231573D01*
X150639489Y-100244559D01*
X150649434Y-100250668D01*
X150523403Y-100347646D01*
X150294374Y-100513155D01*
X149999768Y-100721087D01*
X149677007Y-100945337D01*
X149363509Y-101159797D01*
X149096698Y-101338359D01*
X149003321Y-101399092D01*
X148621667Y-101643850D01*
X147394000Y-101580471D01*
X147056870Y-101563886D01*
X146629493Y-101544099D01*
X146139051Y-101522236D01*
X145612728Y-101499427D01*
X145077707Y-101476800D01*
X144561170Y-101455484D01*
X144090301Y-101436606D01*
X143692282Y-101421295D01*
X143394296Y-101410679D01*
X143223527Y-101405887D01*
X143193744Y-101406125D01*
X143169851Y-101479070D01*
X143132525Y-101625653D01*
X143080561Y-101842973D01*
X144073114Y-101943400D01*
X144518970Y-101984813D01*
X145074426Y-102030841D01*
X145680001Y-102076852D01*
X146276215Y-102118212D01*
X146505000Y-102132803D01*
X146988551Y-102163370D01*
X147418264Y-102191805D01*
X147763403Y-102215971D01*
X147993229Y-102233736D01*
X148071334Y-102241559D01*
X148082606Y-102292369D01*
X147966142Y-102405336D01*
X147817334Y-102511377D01*
X147596584Y-102659604D01*
X147439546Y-102771279D01*
X147394000Y-102808620D01*
X147302576Y-102883854D01*
X147129656Y-103010550D01*
X147083183Y-103043252D01*
X146814698Y-103230680D01*
X145178183Y-103102690D01*
X144472508Y-103048783D01*
X143917030Y-103010217D01*
X143493300Y-102987089D01*
X143182868Y-102979498D01*
X142967287Y-102987540D01*
X142828105Y-103011315D01*
X142746875Y-103050919D01*
X142705147Y-103106450D01*
X142701283Y-103115824D01*
X142677673Y-103223260D01*
X142719158Y-103302423D01*
X142850288Y-103363643D01*
X143095617Y-103417248D01*
X143479695Y-103473568D01*
X143584000Y-103487187D01*
X144059676Y-103548410D01*
X144588768Y-103616305D01*
X145070444Y-103677936D01*
X145150334Y-103688132D01*
X145509466Y-103739358D01*
X145711843Y-103782704D01*
X145769658Y-103821656D01*
X145721834Y-103851370D01*
X145574625Y-103929272D01*
X145531334Y-103990606D01*
X145468776Y-104084036D01*
X145315455Y-104217062D01*
X145288222Y-104236913D01*
X145045110Y-104410024D01*
X143616055Y-104240404D01*
X143066121Y-104177834D01*
X142658647Y-104138898D01*
X142368563Y-104122592D01*
X142170797Y-104127910D01*
X142040280Y-104153850D01*
X141990384Y-104175305D01*
X141912999Y-104226539D01*
X141914084Y-104271379D01*
X142015647Y-104320820D01*
X142239696Y-104385854D01*
X142583050Y-104471368D01*
X142951413Y-104555900D01*
X143278579Y-104622270D01*
X143515338Y-104660872D01*
X143584000Y-104666751D01*
X143765781Y-104694514D01*
X143927674Y-104754753D01*
X144014178Y-104822325D01*
X144004882Y-104857418D01*
X143916397Y-104916265D01*
X143733386Y-105034961D01*
X143594758Y-105124110D01*
X143359700Y-105262768D01*
X143185661Y-105316172D01*
X142997384Y-105299576D01*
X142875092Y-105269979D01*
X142625774Y-105211426D01*
X142291983Y-105141877D01*
X141919998Y-105069884D01*
X141556097Y-105004002D01*
X141246559Y-104952784D01*
X141037664Y-104924783D01*
X140992314Y-104922000D01*
X140900261Y-104994989D01*
X140874667Y-105126873D01*
X140910524Y-105258351D01*
X141033119Y-105411142D01*
X141264983Y-105609065D01*
X141488500Y-105775760D01*
X141766330Y-105978777D01*
X141988970Y-106145307D01*
X142122660Y-106249927D01*
X142144667Y-106269868D01*
X142232650Y-106345581D01*
X142409348Y-106482360D01*
X142525667Y-106569005D01*
X142730243Y-106722742D01*
X142872593Y-106835824D01*
X142906667Y-106866813D01*
X143000835Y-106941496D01*
X143175273Y-107059777D01*
X143200800Y-107076167D01*
X143396274Y-107205780D01*
X143532827Y-107304902D01*
X143539466Y-107310404D01*
X143656484Y-107402940D01*
X143872853Y-107568694D01*
X144151879Y-107780061D01*
X144456868Y-108009433D01*
X144751128Y-108229205D01*
X144997964Y-108411770D01*
X145147665Y-108520333D01*
X145375210Y-108691416D01*
X145624056Y-108891758D01*
X145660564Y-108922500D01*
X145848558Y-109067102D01*
X145989015Y-109148662D01*
X146016222Y-109155333D01*
X146128616Y-109212280D01*
X146251000Y-109324666D01*
X146312702Y-109398814D01*
X146320691Y-109447263D01*
X146250313Y-109475341D01*
X146076914Y-109488379D01*
X145775840Y-109491706D01*
X145480956Y-109491127D01*
X145023025Y-109482936D01*
X144691979Y-109457994D01*
X144445740Y-109410752D01*
X144242231Y-109335660D01*
X144219000Y-109324666D01*
X143989627Y-109223613D01*
X143816340Y-109164374D01*
X143779301Y-109158206D01*
X143650583Y-109095086D01*
X143563133Y-109007166D01*
X143465209Y-108899712D01*
X143268731Y-108698167D01*
X142997034Y-108425985D01*
X142673454Y-108106618D01*
X142446871Y-107885333D01*
X142079370Y-107528390D01*
X141823727Y-107282988D01*
X141670443Y-107142576D01*
X141610017Y-107100603D01*
X141632948Y-107150519D01*
X141729735Y-107285773D01*
X141890878Y-107499814D01*
X141894298Y-107504333D01*
X142126457Y-107810117D01*
X142344761Y-108096001D01*
X142510438Y-108311253D01*
X142541369Y-108351000D01*
X142717290Y-108576864D01*
X142834777Y-108731702D01*
X142939897Y-108877729D01*
X143074214Y-109070666D01*
X143222701Y-109270338D01*
X143343442Y-109408006D01*
X143368254Y-109429203D01*
X143343719Y-109459321D01*
X143199385Y-109476926D01*
X142984352Y-109481671D01*
X142747719Y-109473205D01*
X142538582Y-109451182D01*
X142462167Y-109435637D01*
X142336658Y-109368631D01*
X142314000Y-109324164D01*
X142244230Y-109243264D01*
X142144667Y-109197666D01*
X142007806Y-109120629D01*
X141975334Y-109062549D01*
X141930131Y-108961675D01*
X141808588Y-108756802D01*
X141631802Y-108482422D01*
X141509667Y-108301227D01*
X141313261Y-108021515D01*
X141157787Y-107813556D01*
X141063268Y-107703347D01*
X141044000Y-107696623D01*
X141080898Y-107811788D01*
X141173633Y-108020122D01*
X141295268Y-108267071D01*
X141418864Y-108498078D01*
X141517484Y-108658591D01*
X141522139Y-108664951D01*
X141614631Y-108821605D01*
X141702969Y-109007166D01*
X141760228Y-109170420D01*
X141714899Y-109231245D01*
X141566479Y-109240000D01*
X141405954Y-109213469D01*
X141292167Y-109105977D01*
X141182281Y-108880166D01*
X141072520Y-108624619D01*
X140974953Y-108414885D01*
X140949724Y-108365955D01*
X140801956Y-108082272D01*
X140599741Y-107674889D01*
X140510628Y-107490222D01*
X140902889Y-107490222D01*
X140914511Y-107540556D01*
X140959334Y-107546666D01*
X141029024Y-107515688D01*
X141015778Y-107490222D01*
X140915298Y-107480089D01*
X140902889Y-107490222D01*
X140510628Y-107490222D01*
X140358256Y-107174466D01*
X140316613Y-107087022D01*
X140077977Y-106585044D01*
X140008513Y-106853113D01*
X139944313Y-107019372D01*
X139831695Y-107124102D01*
X139632727Y-107185613D01*
X139309474Y-107222211D01*
X139232242Y-107227766D01*
X138951603Y-107289535D01*
X138808908Y-107419666D01*
X138715748Y-107571543D01*
X138668426Y-107631333D01*
X138590650Y-107725805D01*
X138477926Y-107883005D01*
X138334667Y-108092344D01*
X138334667Y-107861838D01*
X138310511Y-107697761D01*
X138202812Y-107637582D01*
X138081384Y-107631333D01*
X137830888Y-107694666D01*
X137722351Y-107800666D01*
X137598130Y-107947198D01*
X137514916Y-107939963D01*
X137488000Y-107801310D01*
X137561453Y-107567716D01*
X137743573Y-107357198D01*
X137977001Y-107226135D01*
X138091626Y-107208000D01*
X138318114Y-107132681D01*
X138531456Y-106939760D01*
X138691441Y-106678794D01*
X138757856Y-106399336D01*
X138758000Y-106386789D01*
X138726974Y-106215648D01*
X138617424Y-106032320D01*
X138404640Y-105799761D01*
X138297402Y-105696281D01*
X138045769Y-105468261D01*
X137860159Y-105337055D01*
X137690095Y-105276592D01*
X137485100Y-105260798D01*
X137454033Y-105260666D01*
X137153580Y-105290920D01*
X136950901Y-105395666D01*
X136898632Y-105445964D01*
X136726000Y-105631263D01*
X136726000Y-105165228D01*
X136734218Y-104904868D01*
X136777612Y-104721795D01*
X136884293Y-104554866D01*
X137082371Y-104342939D01*
X137122597Y-104302596D01*
X137519193Y-103905999D01*
X138752430Y-103905527D01*
X139347156Y-103899739D01*
X139801963Y-103878743D01*
X140146025Y-103836315D01*
X140408518Y-103766233D01*
X140618616Y-103662272D01*
X140805494Y-103518212D01*
X140875434Y-103452686D01*
X141289571Y-102932645D01*
X141583290Y-102296906D01*
X141754753Y-101550650D01*
X141802984Y-100836833D01*
X141806000Y-100180666D01*
X146267934Y-100180666D01*
X147116228Y-100181949D01*
D13*
%TO.C,J1*%
X115790000Y-127520000D02*
X115790000Y-126190000D01*
X117120000Y-127520000D02*
X115790000Y-127520000D01*
X115790000Y-124920000D02*
X115790000Y-122320000D01*
X118390000Y-124920000D02*
X115790000Y-124920000D01*
X118390000Y-127520000D02*
X118390000Y-124920000D01*
X115790000Y-122320000D02*
X131150000Y-122320000D01*
X118390000Y-127520000D02*
X131150000Y-127520000D01*
X131150000Y-127520000D02*
X131150000Y-122320000D01*
%TD*%
%TO.C,J1*%
D10*
X114242380Y-125253333D02*
X114956666Y-125253333D01*
X115099523Y-125300952D01*
X115194761Y-125396190D01*
X115242380Y-125539047D01*
X115242380Y-125634285D01*
X115242380Y-124253333D02*
X115242380Y-124824761D01*
X115242380Y-124539047D02*
X114242380Y-124539047D01*
X114385238Y-124634285D01*
X114480476Y-124729523D01*
X114528095Y-124824761D01*
%TD*%
M02*
