%TF.GenerationSoftware,KiCad,Pcbnew,(5.1.9)-1*%
%TF.CreationDate,2021-05-13T01:41:10+02:00*%
%TF.ProjectId,CzujnikOdb,437a756a-6e69-46b4-9f64-622e6b696361,rev?*%
%TF.SameCoordinates,Original*%
%TF.FileFunction,Legend,Bot*%
%TF.FilePolarity,Positive*%
%FSLAX46Y46*%
G04 Gerber Fmt 4.6, Leading zero omitted, Abs format (unit mm)*
G04 Created by KiCad (PCBNEW (5.1.9)-1) date 2021-05-13 01:41:10*
%MOMM*%
%LPD*%
G01*
G04 APERTURE LIST*
%ADD10C,0.150000*%
%ADD11C,0.120000*%
G04 APERTURE END LIST*
D10*
%TO.C,U8*%
X167073000Y-106045000D02*
X167073000Y-109045000D01*
X167073000Y-109101000D02*
X169823000Y-109101000D01*
X167581000Y-105545000D02*
X167073000Y-106053000D01*
X169867000Y-105545000D02*
X167581000Y-105545000D01*
X169867000Y-109101000D02*
X169867000Y-105545000D01*
%TO.C,U7*%
X155603000Y-103095000D02*
X155603000Y-106095000D01*
X155603000Y-106151000D02*
X158353000Y-106151000D01*
X156111000Y-102595000D02*
X155603000Y-103103000D01*
X158397000Y-102595000D02*
X156111000Y-102595000D01*
X158397000Y-106151000D02*
X158397000Y-102595000D01*
%TO.C,U6*%
X142603000Y-100095000D02*
X142603000Y-103095000D01*
X142603000Y-103151000D02*
X145353000Y-103151000D01*
X143111000Y-99595000D02*
X142603000Y-100103000D01*
X145397000Y-99595000D02*
X143111000Y-99595000D01*
X145397000Y-103151000D02*
X145397000Y-99595000D01*
%TO.C,U5*%
X129603000Y-97095000D02*
X129603000Y-100095000D01*
X129603000Y-100151000D02*
X132353000Y-100151000D01*
X130111000Y-96595000D02*
X129603000Y-97103000D01*
X132397000Y-96595000D02*
X130111000Y-96595000D01*
X132397000Y-100151000D02*
X132397000Y-96595000D01*
%TO.C,U4*%
X116603000Y-97095000D02*
X116603000Y-100095000D01*
X116603000Y-100151000D02*
X119353000Y-100151000D01*
X117111000Y-96595000D02*
X116603000Y-97103000D01*
X119397000Y-96595000D02*
X117111000Y-96595000D01*
X119397000Y-100151000D02*
X119397000Y-96595000D01*
%TO.C,U3*%
X103603000Y-100095000D02*
X103603000Y-103095000D01*
X103603000Y-103151000D02*
X106353000Y-103151000D01*
X104111000Y-99595000D02*
X103603000Y-100103000D01*
X106397000Y-99595000D02*
X104111000Y-99595000D01*
X106397000Y-103151000D02*
X106397000Y-99595000D01*
%TO.C,U2*%
X90603000Y-103095000D02*
X90603000Y-106095000D01*
X90603000Y-106151000D02*
X93353000Y-106151000D01*
X91111000Y-102595000D02*
X90603000Y-103103000D01*
X93397000Y-102595000D02*
X91111000Y-102595000D01*
X93397000Y-106151000D02*
X93397000Y-102595000D01*
%TO.C,U1*%
X77603000Y-106095000D02*
X77603000Y-109095000D01*
X77603000Y-109151000D02*
X80353000Y-109151000D01*
X78111000Y-105595000D02*
X77603000Y-106103000D01*
X80397000Y-105595000D02*
X78111000Y-105595000D01*
X80397000Y-109151000D02*
X80397000Y-105595000D01*
D11*
%TO.C,R11*%
X134355000Y-103367064D02*
X134355000Y-102912936D01*
X132885000Y-103367064D02*
X132885000Y-102912936D01*
%TO.C,R9*%
X130145000Y-103357064D02*
X130145000Y-102902936D01*
X131615000Y-103357064D02*
X131615000Y-102902936D01*
%TO.C,R8*%
X121355000Y-103317064D02*
X121355000Y-102862936D01*
X119885000Y-103317064D02*
X119885000Y-102862936D01*
%TO.C,R6*%
X117595000Y-103337064D02*
X117595000Y-102882936D01*
X119065000Y-103337064D02*
X119065000Y-102882936D01*
%TO.C,R1*%
X79015000Y-112727064D02*
X79015000Y-112272936D01*
X80485000Y-112727064D02*
X80485000Y-112272936D01*
%TO.C,R2*%
X93075000Y-109417064D02*
X93075000Y-108962936D01*
X91605000Y-109417064D02*
X91605000Y-108962936D01*
%TO.C,R3*%
X83035000Y-112727064D02*
X83035000Y-112272936D01*
X81565000Y-112727064D02*
X81565000Y-112272936D01*
%TO.C,R4*%
X94145000Y-109447064D02*
X94145000Y-108992936D01*
X95615000Y-109447064D02*
X95615000Y-108992936D01*
%TO.C,R5*%
X105875000Y-106217064D02*
X105875000Y-105762936D01*
X104405000Y-106217064D02*
X104405000Y-105762936D01*
%TO.C,R7*%
X106655000Y-106197064D02*
X106655000Y-105742936D01*
X108125000Y-106197064D02*
X108125000Y-105742936D01*
%TO.C,R10*%
X144895000Y-105937064D02*
X144895000Y-105482936D01*
X143425000Y-105937064D02*
X143425000Y-105482936D01*
%TO.C,R12*%
X145765000Y-105937064D02*
X145765000Y-105482936D01*
X147235000Y-105937064D02*
X147235000Y-105482936D01*
%TO.C,R13*%
X156185000Y-108837064D02*
X156185000Y-108382936D01*
X157655000Y-108837064D02*
X157655000Y-108382936D01*
%TO.C,R14*%
X169455000Y-111917064D02*
X169455000Y-111462936D01*
X167985000Y-111917064D02*
X167985000Y-111462936D01*
%TO.C,R15*%
X160065000Y-108897064D02*
X160065000Y-108442936D01*
X158595000Y-108897064D02*
X158595000Y-108442936D01*
%TO.C,R16*%
X170445000Y-111907064D02*
X170445000Y-111452936D01*
X171915000Y-111907064D02*
X171915000Y-111452936D01*
%TD*%
%TO.C,U8*%
D10*
X164515380Y-106469095D02*
X165324904Y-106469095D01*
X165420142Y-106516714D01*
X165467761Y-106564333D01*
X165515380Y-106659571D01*
X165515380Y-106850047D01*
X165467761Y-106945285D01*
X165420142Y-106992904D01*
X165324904Y-107040523D01*
X164515380Y-107040523D01*
X164943952Y-107659571D02*
X164896333Y-107564333D01*
X164848714Y-107516714D01*
X164753476Y-107469095D01*
X164705857Y-107469095D01*
X164610619Y-107516714D01*
X164563000Y-107564333D01*
X164515380Y-107659571D01*
X164515380Y-107850047D01*
X164563000Y-107945285D01*
X164610619Y-107992904D01*
X164705857Y-108040523D01*
X164753476Y-108040523D01*
X164848714Y-107992904D01*
X164896333Y-107945285D01*
X164943952Y-107850047D01*
X164943952Y-107659571D01*
X164991571Y-107564333D01*
X165039190Y-107516714D01*
X165134428Y-107469095D01*
X165324904Y-107469095D01*
X165420142Y-107516714D01*
X165467761Y-107564333D01*
X165515380Y-107659571D01*
X165515380Y-107850047D01*
X165467761Y-107945285D01*
X165420142Y-107992904D01*
X165324904Y-108040523D01*
X165134428Y-108040523D01*
X165039190Y-107992904D01*
X164991571Y-107945285D01*
X164943952Y-107850047D01*
%TO.C,U7*%
X153045380Y-103519095D02*
X153854904Y-103519095D01*
X153950142Y-103566714D01*
X153997761Y-103614333D01*
X154045380Y-103709571D01*
X154045380Y-103900047D01*
X153997761Y-103995285D01*
X153950142Y-104042904D01*
X153854904Y-104090523D01*
X153045380Y-104090523D01*
X153045380Y-104471476D02*
X153045380Y-105138142D01*
X154045380Y-104709571D01*
%TO.C,U6*%
X140045380Y-100519095D02*
X140854904Y-100519095D01*
X140950142Y-100566714D01*
X140997761Y-100614333D01*
X141045380Y-100709571D01*
X141045380Y-100900047D01*
X140997761Y-100995285D01*
X140950142Y-101042904D01*
X140854904Y-101090523D01*
X140045380Y-101090523D01*
X140045380Y-101995285D02*
X140045380Y-101804809D01*
X140093000Y-101709571D01*
X140140619Y-101661952D01*
X140283476Y-101566714D01*
X140473952Y-101519095D01*
X140854904Y-101519095D01*
X140950142Y-101566714D01*
X140997761Y-101614333D01*
X141045380Y-101709571D01*
X141045380Y-101900047D01*
X140997761Y-101995285D01*
X140950142Y-102042904D01*
X140854904Y-102090523D01*
X140616809Y-102090523D01*
X140521571Y-102042904D01*
X140473952Y-101995285D01*
X140426333Y-101900047D01*
X140426333Y-101709571D01*
X140473952Y-101614333D01*
X140521571Y-101566714D01*
X140616809Y-101519095D01*
%TO.C,U5*%
X127045380Y-97519095D02*
X127854904Y-97519095D01*
X127950142Y-97566714D01*
X127997761Y-97614333D01*
X128045380Y-97709571D01*
X128045380Y-97900047D01*
X127997761Y-97995285D01*
X127950142Y-98042904D01*
X127854904Y-98090523D01*
X127045380Y-98090523D01*
X127045380Y-99042904D02*
X127045380Y-98566714D01*
X127521571Y-98519095D01*
X127473952Y-98566714D01*
X127426333Y-98661952D01*
X127426333Y-98900047D01*
X127473952Y-98995285D01*
X127521571Y-99042904D01*
X127616809Y-99090523D01*
X127854904Y-99090523D01*
X127950142Y-99042904D01*
X127997761Y-98995285D01*
X128045380Y-98900047D01*
X128045380Y-98661952D01*
X127997761Y-98566714D01*
X127950142Y-98519095D01*
%TO.C,U4*%
X114045380Y-97519095D02*
X114854904Y-97519095D01*
X114950142Y-97566714D01*
X114997761Y-97614333D01*
X115045380Y-97709571D01*
X115045380Y-97900047D01*
X114997761Y-97995285D01*
X114950142Y-98042904D01*
X114854904Y-98090523D01*
X114045380Y-98090523D01*
X114378714Y-98995285D02*
X115045380Y-98995285D01*
X113997761Y-98757190D02*
X114712047Y-98519095D01*
X114712047Y-99138142D01*
%TO.C,U3*%
X101045380Y-100519095D02*
X101854904Y-100519095D01*
X101950142Y-100566714D01*
X101997761Y-100614333D01*
X102045380Y-100709571D01*
X102045380Y-100900047D01*
X101997761Y-100995285D01*
X101950142Y-101042904D01*
X101854904Y-101090523D01*
X101045380Y-101090523D01*
X101045380Y-101471476D02*
X101045380Y-102090523D01*
X101426333Y-101757190D01*
X101426333Y-101900047D01*
X101473952Y-101995285D01*
X101521571Y-102042904D01*
X101616809Y-102090523D01*
X101854904Y-102090523D01*
X101950142Y-102042904D01*
X101997761Y-101995285D01*
X102045380Y-101900047D01*
X102045380Y-101614333D01*
X101997761Y-101519095D01*
X101950142Y-101471476D01*
%TO.C,U2*%
X88045380Y-103519095D02*
X88854904Y-103519095D01*
X88950142Y-103566714D01*
X88997761Y-103614333D01*
X89045380Y-103709571D01*
X89045380Y-103900047D01*
X88997761Y-103995285D01*
X88950142Y-104042904D01*
X88854904Y-104090523D01*
X88045380Y-104090523D01*
X88140619Y-104519095D02*
X88093000Y-104566714D01*
X88045380Y-104661952D01*
X88045380Y-104900047D01*
X88093000Y-104995285D01*
X88140619Y-105042904D01*
X88235857Y-105090523D01*
X88331095Y-105090523D01*
X88473952Y-105042904D01*
X89045380Y-104471476D01*
X89045380Y-105090523D01*
%TO.C,U1*%
X75045380Y-106519095D02*
X75854904Y-106519095D01*
X75950142Y-106566714D01*
X75997761Y-106614333D01*
X76045380Y-106709571D01*
X76045380Y-106900047D01*
X75997761Y-106995285D01*
X75950142Y-107042904D01*
X75854904Y-107090523D01*
X75045380Y-107090523D01*
X76045380Y-108090523D02*
X76045380Y-107519095D01*
X76045380Y-107804809D02*
X75045380Y-107804809D01*
X75188238Y-107709571D01*
X75283476Y-107614333D01*
X75331095Y-107519095D01*
%TO.C,R11*%
X134522857Y-106592380D02*
X134856190Y-106116190D01*
X135094285Y-106592380D02*
X135094285Y-105592380D01*
X134713333Y-105592380D01*
X134618095Y-105640000D01*
X134570476Y-105687619D01*
X134522857Y-105782857D01*
X134522857Y-105925714D01*
X134570476Y-106020952D01*
X134618095Y-106068571D01*
X134713333Y-106116190D01*
X135094285Y-106116190D01*
X133570476Y-106592380D02*
X134141904Y-106592380D01*
X133856190Y-106592380D02*
X133856190Y-105592380D01*
X133951428Y-105735238D01*
X134046666Y-105830476D01*
X134141904Y-105878095D01*
X132618095Y-106592380D02*
X133189523Y-106592380D01*
X132903809Y-106592380D02*
X132903809Y-105592380D01*
X132999047Y-105735238D01*
X133094285Y-105830476D01*
X133189523Y-105878095D01*
%TO.C,R9*%
X131096666Y-106382380D02*
X131430000Y-105906190D01*
X131668095Y-106382380D02*
X131668095Y-105382380D01*
X131287142Y-105382380D01*
X131191904Y-105430000D01*
X131144285Y-105477619D01*
X131096666Y-105572857D01*
X131096666Y-105715714D01*
X131144285Y-105810952D01*
X131191904Y-105858571D01*
X131287142Y-105906190D01*
X131668095Y-105906190D01*
X130620476Y-106382380D02*
X130430000Y-106382380D01*
X130334761Y-106334761D01*
X130287142Y-106287142D01*
X130191904Y-106144285D01*
X130144285Y-105953809D01*
X130144285Y-105572857D01*
X130191904Y-105477619D01*
X130239523Y-105430000D01*
X130334761Y-105382380D01*
X130525238Y-105382380D01*
X130620476Y-105430000D01*
X130668095Y-105477619D01*
X130715714Y-105572857D01*
X130715714Y-105810952D01*
X130668095Y-105906190D01*
X130620476Y-105953809D01*
X130525238Y-106001428D01*
X130334761Y-106001428D01*
X130239523Y-105953809D01*
X130191904Y-105906190D01*
X130144285Y-105810952D01*
%TO.C,R8*%
X120826666Y-106442380D02*
X121160000Y-105966190D01*
X121398095Y-106442380D02*
X121398095Y-105442380D01*
X121017142Y-105442380D01*
X120921904Y-105490000D01*
X120874285Y-105537619D01*
X120826666Y-105632857D01*
X120826666Y-105775714D01*
X120874285Y-105870952D01*
X120921904Y-105918571D01*
X121017142Y-105966190D01*
X121398095Y-105966190D01*
X120255238Y-105870952D02*
X120350476Y-105823333D01*
X120398095Y-105775714D01*
X120445714Y-105680476D01*
X120445714Y-105632857D01*
X120398095Y-105537619D01*
X120350476Y-105490000D01*
X120255238Y-105442380D01*
X120064761Y-105442380D01*
X119969523Y-105490000D01*
X119921904Y-105537619D01*
X119874285Y-105632857D01*
X119874285Y-105680476D01*
X119921904Y-105775714D01*
X119969523Y-105823333D01*
X120064761Y-105870952D01*
X120255238Y-105870952D01*
X120350476Y-105918571D01*
X120398095Y-105966190D01*
X120445714Y-106061428D01*
X120445714Y-106251904D01*
X120398095Y-106347142D01*
X120350476Y-106394761D01*
X120255238Y-106442380D01*
X120064761Y-106442380D01*
X119969523Y-106394761D01*
X119921904Y-106347142D01*
X119874285Y-106251904D01*
X119874285Y-106061428D01*
X119921904Y-105966190D01*
X119969523Y-105918571D01*
X120064761Y-105870952D01*
%TO.C,R6*%
X118496666Y-106432380D02*
X118830000Y-105956190D01*
X119068095Y-106432380D02*
X119068095Y-105432380D01*
X118687142Y-105432380D01*
X118591904Y-105480000D01*
X118544285Y-105527619D01*
X118496666Y-105622857D01*
X118496666Y-105765714D01*
X118544285Y-105860952D01*
X118591904Y-105908571D01*
X118687142Y-105956190D01*
X119068095Y-105956190D01*
X117639523Y-105432380D02*
X117830000Y-105432380D01*
X117925238Y-105480000D01*
X117972857Y-105527619D01*
X118068095Y-105670476D01*
X118115714Y-105860952D01*
X118115714Y-106241904D01*
X118068095Y-106337142D01*
X118020476Y-106384761D01*
X117925238Y-106432380D01*
X117734761Y-106432380D01*
X117639523Y-106384761D01*
X117591904Y-106337142D01*
X117544285Y-106241904D01*
X117544285Y-106003809D01*
X117591904Y-105908571D01*
X117639523Y-105860952D01*
X117734761Y-105813333D01*
X117925238Y-105813333D01*
X118020476Y-105860952D01*
X118068095Y-105908571D01*
X118115714Y-106003809D01*
%TO.C,R1*%
X79896666Y-115752380D02*
X80230000Y-115276190D01*
X80468095Y-115752380D02*
X80468095Y-114752380D01*
X80087142Y-114752380D01*
X79991904Y-114800000D01*
X79944285Y-114847619D01*
X79896666Y-114942857D01*
X79896666Y-115085714D01*
X79944285Y-115180952D01*
X79991904Y-115228571D01*
X80087142Y-115276190D01*
X80468095Y-115276190D01*
X78944285Y-115752380D02*
X79515714Y-115752380D01*
X79230000Y-115752380D02*
X79230000Y-114752380D01*
X79325238Y-114895238D01*
X79420476Y-114990476D01*
X79515714Y-115038095D01*
%TO.C,R2*%
X91202380Y-109033333D02*
X90726190Y-108700000D01*
X91202380Y-108461904D02*
X90202380Y-108461904D01*
X90202380Y-108842857D01*
X90250000Y-108938095D01*
X90297619Y-108985714D01*
X90392857Y-109033333D01*
X90535714Y-109033333D01*
X90630952Y-108985714D01*
X90678571Y-108938095D01*
X90726190Y-108842857D01*
X90726190Y-108461904D01*
X90297619Y-109414285D02*
X90250000Y-109461904D01*
X90202380Y-109557142D01*
X90202380Y-109795238D01*
X90250000Y-109890476D01*
X90297619Y-109938095D01*
X90392857Y-109985714D01*
X90488095Y-109985714D01*
X90630952Y-109938095D01*
X91202380Y-109366666D01*
X91202380Y-109985714D01*
%TO.C,R3*%
X82486666Y-115792380D02*
X82820000Y-115316190D01*
X83058095Y-115792380D02*
X83058095Y-114792380D01*
X82677142Y-114792380D01*
X82581904Y-114840000D01*
X82534285Y-114887619D01*
X82486666Y-114982857D01*
X82486666Y-115125714D01*
X82534285Y-115220952D01*
X82581904Y-115268571D01*
X82677142Y-115316190D01*
X83058095Y-115316190D01*
X82153333Y-114792380D02*
X81534285Y-114792380D01*
X81867619Y-115173333D01*
X81724761Y-115173333D01*
X81629523Y-115220952D01*
X81581904Y-115268571D01*
X81534285Y-115363809D01*
X81534285Y-115601904D01*
X81581904Y-115697142D01*
X81629523Y-115744761D01*
X81724761Y-115792380D01*
X82010476Y-115792380D01*
X82105714Y-115744761D01*
X82153333Y-115697142D01*
%TO.C,R4*%
X97062380Y-109123333D02*
X96586190Y-108790000D01*
X97062380Y-108551904D02*
X96062380Y-108551904D01*
X96062380Y-108932857D01*
X96110000Y-109028095D01*
X96157619Y-109075714D01*
X96252857Y-109123333D01*
X96395714Y-109123333D01*
X96490952Y-109075714D01*
X96538571Y-109028095D01*
X96586190Y-108932857D01*
X96586190Y-108551904D01*
X96395714Y-109980476D02*
X97062380Y-109980476D01*
X96014761Y-109742380D02*
X96729047Y-109504285D01*
X96729047Y-110123333D01*
%TO.C,R5*%
X105376666Y-109372380D02*
X105710000Y-108896190D01*
X105948095Y-109372380D02*
X105948095Y-108372380D01*
X105567142Y-108372380D01*
X105471904Y-108420000D01*
X105424285Y-108467619D01*
X105376666Y-108562857D01*
X105376666Y-108705714D01*
X105424285Y-108800952D01*
X105471904Y-108848571D01*
X105567142Y-108896190D01*
X105948095Y-108896190D01*
X104471904Y-108372380D02*
X104948095Y-108372380D01*
X104995714Y-108848571D01*
X104948095Y-108800952D01*
X104852857Y-108753333D01*
X104614761Y-108753333D01*
X104519523Y-108800952D01*
X104471904Y-108848571D01*
X104424285Y-108943809D01*
X104424285Y-109181904D01*
X104471904Y-109277142D01*
X104519523Y-109324761D01*
X104614761Y-109372380D01*
X104852857Y-109372380D01*
X104948095Y-109324761D01*
X104995714Y-109277142D01*
%TO.C,R7*%
X107456666Y-109362380D02*
X107790000Y-108886190D01*
X108028095Y-109362380D02*
X108028095Y-108362380D01*
X107647142Y-108362380D01*
X107551904Y-108410000D01*
X107504285Y-108457619D01*
X107456666Y-108552857D01*
X107456666Y-108695714D01*
X107504285Y-108790952D01*
X107551904Y-108838571D01*
X107647142Y-108886190D01*
X108028095Y-108886190D01*
X107123333Y-108362380D02*
X106456666Y-108362380D01*
X106885238Y-109362380D01*
%TO.C,R10*%
X144572857Y-109112380D02*
X144906190Y-108636190D01*
X145144285Y-109112380D02*
X145144285Y-108112380D01*
X144763333Y-108112380D01*
X144668095Y-108160000D01*
X144620476Y-108207619D01*
X144572857Y-108302857D01*
X144572857Y-108445714D01*
X144620476Y-108540952D01*
X144668095Y-108588571D01*
X144763333Y-108636190D01*
X145144285Y-108636190D01*
X143620476Y-109112380D02*
X144191904Y-109112380D01*
X143906190Y-109112380D02*
X143906190Y-108112380D01*
X144001428Y-108255238D01*
X144096666Y-108350476D01*
X144191904Y-108398095D01*
X143001428Y-108112380D02*
X142906190Y-108112380D01*
X142810952Y-108160000D01*
X142763333Y-108207619D01*
X142715714Y-108302857D01*
X142668095Y-108493333D01*
X142668095Y-108731428D01*
X142715714Y-108921904D01*
X142763333Y-109017142D01*
X142810952Y-109064761D01*
X142906190Y-109112380D01*
X143001428Y-109112380D01*
X143096666Y-109064761D01*
X143144285Y-109017142D01*
X143191904Y-108921904D01*
X143239523Y-108731428D01*
X143239523Y-108493333D01*
X143191904Y-108302857D01*
X143144285Y-108207619D01*
X143096666Y-108160000D01*
X143001428Y-108112380D01*
%TO.C,R12*%
X147842857Y-109052380D02*
X148176190Y-108576190D01*
X148414285Y-109052380D02*
X148414285Y-108052380D01*
X148033333Y-108052380D01*
X147938095Y-108100000D01*
X147890476Y-108147619D01*
X147842857Y-108242857D01*
X147842857Y-108385714D01*
X147890476Y-108480952D01*
X147938095Y-108528571D01*
X148033333Y-108576190D01*
X148414285Y-108576190D01*
X146890476Y-109052380D02*
X147461904Y-109052380D01*
X147176190Y-109052380D02*
X147176190Y-108052380D01*
X147271428Y-108195238D01*
X147366666Y-108290476D01*
X147461904Y-108338095D01*
X146509523Y-108147619D02*
X146461904Y-108100000D01*
X146366666Y-108052380D01*
X146128571Y-108052380D01*
X146033333Y-108100000D01*
X145985714Y-108147619D01*
X145938095Y-108242857D01*
X145938095Y-108338095D01*
X145985714Y-108480952D01*
X146557142Y-109052380D01*
X145938095Y-109052380D01*
%TO.C,R13*%
X157312857Y-111792380D02*
X157646190Y-111316190D01*
X157884285Y-111792380D02*
X157884285Y-110792380D01*
X157503333Y-110792380D01*
X157408095Y-110840000D01*
X157360476Y-110887619D01*
X157312857Y-110982857D01*
X157312857Y-111125714D01*
X157360476Y-111220952D01*
X157408095Y-111268571D01*
X157503333Y-111316190D01*
X157884285Y-111316190D01*
X156360476Y-111792380D02*
X156931904Y-111792380D01*
X156646190Y-111792380D02*
X156646190Y-110792380D01*
X156741428Y-110935238D01*
X156836666Y-111030476D01*
X156931904Y-111078095D01*
X156027142Y-110792380D02*
X155408095Y-110792380D01*
X155741428Y-111173333D01*
X155598571Y-111173333D01*
X155503333Y-111220952D01*
X155455714Y-111268571D01*
X155408095Y-111363809D01*
X155408095Y-111601904D01*
X155455714Y-111697142D01*
X155503333Y-111744761D01*
X155598571Y-111792380D01*
X155884285Y-111792380D01*
X155979523Y-111744761D01*
X156027142Y-111697142D01*
%TO.C,R14*%
X169042857Y-114912380D02*
X169376190Y-114436190D01*
X169614285Y-114912380D02*
X169614285Y-113912380D01*
X169233333Y-113912380D01*
X169138095Y-113960000D01*
X169090476Y-114007619D01*
X169042857Y-114102857D01*
X169042857Y-114245714D01*
X169090476Y-114340952D01*
X169138095Y-114388571D01*
X169233333Y-114436190D01*
X169614285Y-114436190D01*
X168090476Y-114912380D02*
X168661904Y-114912380D01*
X168376190Y-114912380D02*
X168376190Y-113912380D01*
X168471428Y-114055238D01*
X168566666Y-114150476D01*
X168661904Y-114198095D01*
X167233333Y-114245714D02*
X167233333Y-114912380D01*
X167471428Y-113864761D02*
X167709523Y-114579047D01*
X167090476Y-114579047D01*
%TO.C,R15*%
X160262857Y-111782380D02*
X160596190Y-111306190D01*
X160834285Y-111782380D02*
X160834285Y-110782380D01*
X160453333Y-110782380D01*
X160358095Y-110830000D01*
X160310476Y-110877619D01*
X160262857Y-110972857D01*
X160262857Y-111115714D01*
X160310476Y-111210952D01*
X160358095Y-111258571D01*
X160453333Y-111306190D01*
X160834285Y-111306190D01*
X159310476Y-111782380D02*
X159881904Y-111782380D01*
X159596190Y-111782380D02*
X159596190Y-110782380D01*
X159691428Y-110925238D01*
X159786666Y-111020476D01*
X159881904Y-111068095D01*
X158405714Y-110782380D02*
X158881904Y-110782380D01*
X158929523Y-111258571D01*
X158881904Y-111210952D01*
X158786666Y-111163333D01*
X158548571Y-111163333D01*
X158453333Y-111210952D01*
X158405714Y-111258571D01*
X158358095Y-111353809D01*
X158358095Y-111591904D01*
X158405714Y-111687142D01*
X158453333Y-111734761D01*
X158548571Y-111782380D01*
X158786666Y-111782380D01*
X158881904Y-111734761D01*
X158929523Y-111687142D01*
%TO.C,R16*%
X172202857Y-115012380D02*
X172536190Y-114536190D01*
X172774285Y-115012380D02*
X172774285Y-114012380D01*
X172393333Y-114012380D01*
X172298095Y-114060000D01*
X172250476Y-114107619D01*
X172202857Y-114202857D01*
X172202857Y-114345714D01*
X172250476Y-114440952D01*
X172298095Y-114488571D01*
X172393333Y-114536190D01*
X172774285Y-114536190D01*
X171250476Y-115012380D02*
X171821904Y-115012380D01*
X171536190Y-115012380D02*
X171536190Y-114012380D01*
X171631428Y-114155238D01*
X171726666Y-114250476D01*
X171821904Y-114298095D01*
X170393333Y-114012380D02*
X170583809Y-114012380D01*
X170679047Y-114060000D01*
X170726666Y-114107619D01*
X170821904Y-114250476D01*
X170869523Y-114440952D01*
X170869523Y-114821904D01*
X170821904Y-114917142D01*
X170774285Y-114964761D01*
X170679047Y-115012380D01*
X170488571Y-115012380D01*
X170393333Y-114964761D01*
X170345714Y-114917142D01*
X170298095Y-114821904D01*
X170298095Y-114583809D01*
X170345714Y-114488571D01*
X170393333Y-114440952D01*
X170488571Y-114393333D01*
X170679047Y-114393333D01*
X170774285Y-114440952D01*
X170821904Y-114488571D01*
X170869523Y-114583809D01*
%TD*%
M02*
