%TF.GenerationSoftware,KiCad,Pcbnew,(5.1.9)-1*%
%TF.CreationDate,2021-05-13T01:41:10+02:00*%
%TF.ProjectId,CzujnikOdb,437a756a-6e69-46b4-9f64-622e6b696361,rev?*%
%TF.SameCoordinates,Original*%
%TF.FileFunction,Copper,L1,Top*%
%TF.FilePolarity,Positive*%
%FSLAX46Y46*%
G04 Gerber Fmt 4.6, Leading zero omitted, Abs format (unit mm)*
G04 Created by KiCad (PCBNEW (5.1.9)-1) date 2021-05-13 01:41:10*
%MOMM*%
%LPD*%
G01*
G04 APERTURE LIST*
%TA.AperFunction,ComponentPad*%
%ADD10R,1.700000X1.700000*%
%TD*%
%TA.AperFunction,ComponentPad*%
%ADD11O,1.700000X1.700000*%
%TD*%
%TA.AperFunction,ViaPad*%
%ADD12C,0.800000*%
%TD*%
%TA.AperFunction,Conductor*%
%ADD13C,0.500000*%
%TD*%
%TA.AperFunction,Conductor*%
%ADD14C,0.254000*%
%TD*%
%TA.AperFunction,Conductor*%
%ADD15C,0.100000*%
%TD*%
G04 APERTURE END LIST*
D10*
%TO.P,J1,1*%
%TO.N,Out4*%
X117120000Y-126190000D03*
D11*
%TO.P,J1,2*%
%TO.N,Out5*%
X117120000Y-123650000D03*
%TO.P,J1,3*%
%TO.N,Out3*%
X119660000Y-126190000D03*
%TO.P,J1,4*%
%TO.N,Out6*%
X119660000Y-123650000D03*
%TO.P,J1,5*%
%TO.N,Out2*%
X122200000Y-126190000D03*
%TO.P,J1,6*%
%TO.N,Out7*%
X122200000Y-123650000D03*
%TO.P,J1,7*%
%TO.N,Out1*%
X124740000Y-126190000D03*
%TO.P,J1,8*%
%TO.N,Out8*%
X124740000Y-123650000D03*
%TO.P,J1,9*%
%TO.N,+3V3*%
X127280000Y-126190000D03*
%TO.P,J1,10*%
%TO.N,GND*%
X127280000Y-123650000D03*
%TO.P,J1,11*%
%TO.N,+3V3*%
X129820000Y-126190000D03*
%TO.P,J1,12*%
%TO.N,GND*%
X129820000Y-123650000D03*
%TD*%
D12*
%TO.N,Out1*%
X84560000Y-111640000D03*
%TO.N,Out2*%
X101370000Y-108240000D03*
%TO.N,Out3*%
X110420000Y-104970000D03*
%TO.N,Out4*%
X122760000Y-102960000D03*
%TO.N,Out5*%
X135470000Y-103440000D03*
%TO.N,Out6*%
X149220000Y-105750000D03*
%TO.N,Out7*%
X161900000Y-108590000D03*
%TO.N,Out8*%
X172910000Y-111970000D03*
%TD*%
D13*
%TO.N,Out1*%
X122039979Y-128890021D02*
X115330093Y-128890021D01*
X115330093Y-128890021D02*
X113719969Y-127279897D01*
X124740000Y-126190000D02*
X122039979Y-128890021D01*
X113719969Y-127279897D02*
X113719969Y-121579931D01*
X103780038Y-111640000D02*
X84560000Y-111640000D01*
X113719969Y-121579931D02*
X103780038Y-111640000D01*
%TO.N,Out2*%
X115620046Y-128190011D02*
X114419979Y-126989944D01*
X120199989Y-128190011D02*
X115620046Y-128190011D01*
X122200000Y-126190000D02*
X120199989Y-128190011D01*
X114419979Y-126989944D02*
X114419979Y-121289979D01*
X114419979Y-121289979D02*
X101370000Y-108240000D01*
%TO.N,Out3*%
X115909999Y-127490001D02*
X115119989Y-126699991D01*
X118359999Y-127490001D02*
X115909999Y-127490001D01*
X119660000Y-126190000D02*
X118359999Y-127490001D01*
X115119989Y-109669989D02*
X110420000Y-104970000D01*
X115119989Y-126699991D02*
X115119989Y-109669989D01*
%TO.N,Out4*%
X115819999Y-109900001D02*
X122760000Y-102960000D01*
X115819999Y-124889999D02*
X115819999Y-109900001D01*
X117120000Y-126190000D02*
X115819999Y-124889999D01*
%TO.N,Out5*%
X117120000Y-123650000D02*
X120249967Y-120520033D01*
X120249967Y-120520033D02*
X121800004Y-120520033D01*
X121800004Y-120520033D02*
X124900079Y-120520033D01*
X124900079Y-120520033D02*
X135480141Y-109939970D01*
X135480141Y-103450141D02*
X135470000Y-103440000D01*
X135480141Y-109939970D02*
X135480141Y-103450141D01*
%TO.N,Out6*%
X119660000Y-123650000D02*
X122089957Y-121220043D01*
X125150043Y-121220043D02*
X125170000Y-121240000D01*
X122089957Y-121220043D02*
X125150043Y-121220043D01*
X125170075Y-121240000D02*
X135770094Y-110639980D01*
X125170000Y-121240000D02*
X125170075Y-121240000D01*
X135770094Y-110639980D02*
X147410000Y-110639980D01*
X147410000Y-110639980D02*
X147520020Y-110639980D01*
X149220000Y-108940000D02*
X149220000Y-105750000D01*
X147520020Y-110639980D02*
X149220000Y-108940000D01*
%TO.N,Out7*%
X122200000Y-123650000D02*
X123909981Y-121940019D01*
X123909981Y-121940019D02*
X125460019Y-121940019D01*
X125460019Y-121940019D02*
X136060047Y-111339990D01*
X159150010Y-111339990D02*
X161900000Y-108590000D01*
X136060047Y-111339990D02*
X159150010Y-111339990D01*
%TO.N,Out8*%
X124740000Y-123650000D02*
X136350000Y-112040000D01*
X172840000Y-112040000D02*
X172910000Y-111970000D01*
X136350000Y-112040000D02*
X172840000Y-112040000D01*
%TD*%
D14*
%TO.N,GND*%
X130510000Y-94162594D02*
X130507486Y-94180002D01*
X130510000Y-94227455D01*
X130510000Y-94242418D01*
X130511716Y-94259837D01*
X130514364Y-94309827D01*
X130518075Y-94324404D01*
X130519550Y-94339382D01*
X130534087Y-94387302D01*
X130546437Y-94435817D01*
X130552922Y-94449394D01*
X130557290Y-94463792D01*
X130580896Y-94507956D01*
X130602474Y-94553129D01*
X130611481Y-94565176D01*
X130618575Y-94578449D01*
X130650342Y-94617158D01*
X130680320Y-94657256D01*
X130691507Y-94667317D01*
X130701052Y-94678948D01*
X130739763Y-94710718D01*
X130776984Y-94744193D01*
X130789915Y-94751876D01*
X130801550Y-94761425D01*
X130845717Y-94785033D01*
X130888752Y-94810603D01*
X130902937Y-94815617D01*
X130916207Y-94822710D01*
X130964134Y-94837249D01*
X130980614Y-94843074D01*
X130995121Y-94846649D01*
X131040617Y-94860450D01*
X131058130Y-94862175D01*
X171769799Y-104894022D01*
X176032215Y-117590000D01*
X141482419Y-117590000D01*
X141450000Y-117586807D01*
X141417581Y-117590000D01*
X141320617Y-117599550D01*
X141196207Y-117637290D01*
X141081550Y-117698575D01*
X140981052Y-117781052D01*
X140898575Y-117881550D01*
X140837290Y-117996207D01*
X140799550Y-118120617D01*
X140786807Y-118250000D01*
X140790000Y-118282419D01*
X140790001Y-132540000D01*
X106110000Y-132540000D01*
X106110000Y-129774561D01*
X107511075Y-129774561D01*
X107511075Y-130225439D01*
X107599037Y-130667655D01*
X107771581Y-131084212D01*
X108022076Y-131459105D01*
X108340895Y-131777924D01*
X108715788Y-132028419D01*
X109132345Y-132200963D01*
X109574561Y-132288925D01*
X110025439Y-132288925D01*
X110467655Y-132200963D01*
X110884212Y-132028419D01*
X111259105Y-131777924D01*
X111577924Y-131459105D01*
X111828419Y-131084212D01*
X112000963Y-130667655D01*
X112088925Y-130225439D01*
X112088925Y-129774561D01*
X112000963Y-129332345D01*
X111828419Y-128915788D01*
X111577924Y-128540895D01*
X111259105Y-128222076D01*
X110884212Y-127971581D01*
X110467655Y-127799037D01*
X110025439Y-127711075D01*
X109574561Y-127711075D01*
X109132345Y-127799037D01*
X108715788Y-127971581D01*
X108340895Y-128222076D01*
X108022076Y-128540895D01*
X107771581Y-128915788D01*
X107599037Y-129332345D01*
X107511075Y-129774561D01*
X106110000Y-129774561D01*
X106110000Y-118282419D01*
X106113193Y-118250000D01*
X106100450Y-118120617D01*
X106062710Y-117996207D01*
X106001425Y-117881550D01*
X105918948Y-117781052D01*
X105818450Y-117698575D01*
X105703793Y-117637290D01*
X105579383Y-117599550D01*
X105482419Y-117590000D01*
X105450000Y-117586807D01*
X105417581Y-117590000D01*
X70867784Y-117590000D01*
X72899599Y-111538061D01*
X83525000Y-111538061D01*
X83525000Y-111741939D01*
X83564774Y-111941898D01*
X83642795Y-112130256D01*
X83756063Y-112299774D01*
X83900226Y-112443937D01*
X84069744Y-112557205D01*
X84258102Y-112635226D01*
X84458061Y-112675000D01*
X84661939Y-112675000D01*
X84861898Y-112635226D01*
X85050256Y-112557205D01*
X85098454Y-112525000D01*
X103413460Y-112525000D01*
X112834970Y-121946511D01*
X112834969Y-127236428D01*
X112830688Y-127279897D01*
X112834969Y-127323366D01*
X112834969Y-127323373D01*
X112847774Y-127453386D01*
X112898380Y-127620209D01*
X112980558Y-127773955D01*
X113091152Y-127908714D01*
X113124925Y-127936431D01*
X114673563Y-129485070D01*
X114701276Y-129518838D01*
X114735044Y-129546551D01*
X114735046Y-129546553D01*
X114736150Y-129547459D01*
X114836034Y-129629432D01*
X114989780Y-129711610D01*
X115156603Y-129762216D01*
X115286616Y-129775021D01*
X115286626Y-129775021D01*
X115330092Y-129779302D01*
X115373558Y-129775021D01*
X121996510Y-129775021D01*
X122039979Y-129779302D01*
X122083448Y-129775021D01*
X122083456Y-129775021D01*
X122088126Y-129774561D01*
X134911075Y-129774561D01*
X134911075Y-130225439D01*
X134999037Y-130667655D01*
X135171581Y-131084212D01*
X135422076Y-131459105D01*
X135740895Y-131777924D01*
X136115788Y-132028419D01*
X136532345Y-132200963D01*
X136974561Y-132288925D01*
X137425439Y-132288925D01*
X137867655Y-132200963D01*
X138284212Y-132028419D01*
X138659105Y-131777924D01*
X138977924Y-131459105D01*
X139228419Y-131084212D01*
X139400963Y-130667655D01*
X139488925Y-130225439D01*
X139488925Y-129774561D01*
X139400963Y-129332345D01*
X139228419Y-128915788D01*
X138977924Y-128540895D01*
X138659105Y-128222076D01*
X138284212Y-127971581D01*
X137867655Y-127799037D01*
X137425439Y-127711075D01*
X136974561Y-127711075D01*
X136532345Y-127799037D01*
X136115788Y-127971581D01*
X135740895Y-128222076D01*
X135422076Y-128540895D01*
X135171581Y-128915788D01*
X134999037Y-129332345D01*
X134911075Y-129774561D01*
X122088126Y-129774561D01*
X122213469Y-129762216D01*
X122380292Y-129711610D01*
X122534038Y-129629432D01*
X122668796Y-129518838D01*
X122696513Y-129485065D01*
X124521040Y-127660539D01*
X124593740Y-127675000D01*
X124886260Y-127675000D01*
X125173158Y-127617932D01*
X125443411Y-127505990D01*
X125686632Y-127343475D01*
X125893475Y-127136632D01*
X126010000Y-126962240D01*
X126126525Y-127136632D01*
X126333368Y-127343475D01*
X126576589Y-127505990D01*
X126846842Y-127617932D01*
X127133740Y-127675000D01*
X127426260Y-127675000D01*
X127713158Y-127617932D01*
X127983411Y-127505990D01*
X128226632Y-127343475D01*
X128433475Y-127136632D01*
X128550000Y-126962240D01*
X128666525Y-127136632D01*
X128873368Y-127343475D01*
X129116589Y-127505990D01*
X129386842Y-127617932D01*
X129673740Y-127675000D01*
X129966260Y-127675000D01*
X130253158Y-127617932D01*
X130523411Y-127505990D01*
X130766632Y-127343475D01*
X130973475Y-127136632D01*
X131135990Y-126893411D01*
X131247932Y-126623158D01*
X131305000Y-126336260D01*
X131305000Y-126043740D01*
X131247932Y-125756842D01*
X131135990Y-125486589D01*
X130973475Y-125243368D01*
X130766632Y-125036525D01*
X130523411Y-124874010D01*
X130253158Y-124762068D01*
X129966260Y-124705000D01*
X129673740Y-124705000D01*
X129386842Y-124762068D01*
X129116589Y-124874010D01*
X128873368Y-125036525D01*
X128666525Y-125243368D01*
X128550000Y-125417760D01*
X128433475Y-125243368D01*
X128226632Y-125036525D01*
X127983411Y-124874010D01*
X127713158Y-124762068D01*
X127426260Y-124705000D01*
X127133740Y-124705000D01*
X126846842Y-124762068D01*
X126576589Y-124874010D01*
X126333368Y-125036525D01*
X126126525Y-125243368D01*
X126010000Y-125417760D01*
X125893475Y-125243368D01*
X125686632Y-125036525D01*
X125512240Y-124920000D01*
X125686632Y-124803475D01*
X125893475Y-124596632D01*
X126055990Y-124353411D01*
X126167932Y-124083158D01*
X126225000Y-123796260D01*
X126225000Y-123503740D01*
X126210539Y-123431039D01*
X136716579Y-112925000D01*
X172510989Y-112925000D01*
X172608102Y-112965226D01*
X172808061Y-113005000D01*
X173011939Y-113005000D01*
X173211898Y-112965226D01*
X173400256Y-112887205D01*
X173569774Y-112773937D01*
X173713937Y-112629774D01*
X173827205Y-112460256D01*
X173905226Y-112271898D01*
X173945000Y-112071939D01*
X173945000Y-111868061D01*
X173905226Y-111668102D01*
X173827205Y-111479744D01*
X173713937Y-111310226D01*
X173569774Y-111166063D01*
X173400256Y-111052795D01*
X173211898Y-110974774D01*
X173011939Y-110935000D01*
X172808061Y-110935000D01*
X172608102Y-110974774D01*
X172419744Y-111052795D01*
X172266783Y-111155000D01*
X160586578Y-111155000D01*
X162145044Y-109596535D01*
X162201898Y-109585226D01*
X162390256Y-109507205D01*
X162559774Y-109393937D01*
X162703937Y-109249774D01*
X162817205Y-109080256D01*
X162895226Y-108891898D01*
X162935000Y-108691939D01*
X162935000Y-108488061D01*
X162895226Y-108288102D01*
X162817205Y-108099744D01*
X162703937Y-107930226D01*
X162559774Y-107786063D01*
X162390256Y-107672795D01*
X162201898Y-107594774D01*
X162001939Y-107555000D01*
X161798061Y-107555000D01*
X161598102Y-107594774D01*
X161409744Y-107672795D01*
X161240226Y-107786063D01*
X161096063Y-107930226D01*
X160982795Y-108099744D01*
X160904774Y-108288102D01*
X160893465Y-108344956D01*
X158783432Y-110454990D01*
X148956588Y-110454990D01*
X149815050Y-109596529D01*
X149848817Y-109568817D01*
X149908168Y-109496499D01*
X149959411Y-109434059D01*
X150015204Y-109329676D01*
X150041589Y-109280313D01*
X150092195Y-109113490D01*
X150105000Y-108983477D01*
X150105000Y-108983469D01*
X150109281Y-108940000D01*
X150105000Y-108896531D01*
X150105000Y-106288454D01*
X150137205Y-106240256D01*
X150215226Y-106051898D01*
X150255000Y-105851939D01*
X150255000Y-105648061D01*
X150215226Y-105448102D01*
X150137205Y-105259744D01*
X150023937Y-105090226D01*
X149879774Y-104946063D01*
X149710256Y-104832795D01*
X149521898Y-104754774D01*
X149321939Y-104715000D01*
X149118061Y-104715000D01*
X148918102Y-104754774D01*
X148729744Y-104832795D01*
X148560226Y-104946063D01*
X148416063Y-105090226D01*
X148302795Y-105259744D01*
X148224774Y-105448102D01*
X148185000Y-105648061D01*
X148185000Y-105851939D01*
X148224774Y-106051898D01*
X148302795Y-106240256D01*
X148335001Y-106288456D01*
X148335000Y-108573421D01*
X147153442Y-109754980D01*
X136365141Y-109754980D01*
X136365141Y-103963277D01*
X136387205Y-103930256D01*
X136465226Y-103741898D01*
X136505000Y-103541939D01*
X136505000Y-103338061D01*
X136465226Y-103138102D01*
X136387205Y-102949744D01*
X136273937Y-102780226D01*
X136129774Y-102636063D01*
X135960256Y-102522795D01*
X135771898Y-102444774D01*
X135571939Y-102405000D01*
X135368061Y-102405000D01*
X135168102Y-102444774D01*
X134979744Y-102522795D01*
X134810226Y-102636063D01*
X134666063Y-102780226D01*
X134552795Y-102949744D01*
X134474774Y-103138102D01*
X134435000Y-103338061D01*
X134435000Y-103541939D01*
X134474774Y-103741898D01*
X134552795Y-103930256D01*
X134595142Y-103993633D01*
X134595141Y-109573391D01*
X124533501Y-119635033D01*
X120293436Y-119635033D01*
X120249967Y-119630752D01*
X120206498Y-119635033D01*
X120206490Y-119635033D01*
X120076477Y-119647838D01*
X119909654Y-119698444D01*
X119755908Y-119780622D01*
X119654920Y-119863501D01*
X119654918Y-119863503D01*
X119621150Y-119891216D01*
X119593437Y-119924984D01*
X117338961Y-122179461D01*
X117266260Y-122165000D01*
X116973740Y-122165000D01*
X116704999Y-122218456D01*
X116704999Y-110266579D01*
X123005044Y-103966535D01*
X123061898Y-103955226D01*
X123250256Y-103877205D01*
X123419774Y-103763937D01*
X123563937Y-103619774D01*
X123677205Y-103450256D01*
X123755226Y-103261898D01*
X123795000Y-103061939D01*
X123795000Y-102858061D01*
X123755226Y-102658102D01*
X123677205Y-102469744D01*
X123563937Y-102300226D01*
X123419774Y-102156063D01*
X123250256Y-102042795D01*
X123061898Y-101964774D01*
X122861939Y-101925000D01*
X122658061Y-101925000D01*
X122458102Y-101964774D01*
X122269744Y-102042795D01*
X122100226Y-102156063D01*
X121956063Y-102300226D01*
X121842795Y-102469744D01*
X121764774Y-102658102D01*
X121753465Y-102714956D01*
X115585000Y-108883421D01*
X111426535Y-104724957D01*
X111415226Y-104668102D01*
X111337205Y-104479744D01*
X111223937Y-104310226D01*
X111079774Y-104166063D01*
X110910256Y-104052795D01*
X110721898Y-103974774D01*
X110521939Y-103935000D01*
X110318061Y-103935000D01*
X110118102Y-103974774D01*
X109929744Y-104052795D01*
X109760226Y-104166063D01*
X109616063Y-104310226D01*
X109502795Y-104479744D01*
X109424774Y-104668102D01*
X109385000Y-104868061D01*
X109385000Y-105071939D01*
X109424774Y-105271898D01*
X109502795Y-105460256D01*
X109616063Y-105629774D01*
X109760226Y-105773937D01*
X109929744Y-105887205D01*
X110118102Y-105965226D01*
X110174957Y-105976535D01*
X114234990Y-110036569D01*
X114234989Y-119853410D01*
X102376535Y-107994957D01*
X102365226Y-107938102D01*
X102287205Y-107749744D01*
X102173937Y-107580226D01*
X102029774Y-107436063D01*
X101860256Y-107322795D01*
X101671898Y-107244774D01*
X101471939Y-107205000D01*
X101268061Y-107205000D01*
X101068102Y-107244774D01*
X100879744Y-107322795D01*
X100710226Y-107436063D01*
X100566063Y-107580226D01*
X100452795Y-107749744D01*
X100374774Y-107938102D01*
X100335000Y-108138061D01*
X100335000Y-108341939D01*
X100374774Y-108541898D01*
X100452795Y-108730256D01*
X100566063Y-108899774D01*
X100710226Y-109043937D01*
X100879744Y-109157205D01*
X101068102Y-109235226D01*
X101124957Y-109246535D01*
X102633422Y-110755000D01*
X85098454Y-110755000D01*
X85050256Y-110722795D01*
X84861898Y-110644774D01*
X84661939Y-110605000D01*
X84458061Y-110605000D01*
X84258102Y-110644774D01*
X84069744Y-110722795D01*
X83900226Y-110836063D01*
X83756063Y-110980226D01*
X83642795Y-111149744D01*
X83564774Y-111338102D01*
X83525000Y-111538061D01*
X72899599Y-111538061D01*
X75130230Y-104893934D01*
X115641951Y-94902167D01*
X115659382Y-94900450D01*
X115704916Y-94886637D01*
X115719521Y-94883035D01*
X115735966Y-94877218D01*
X115783792Y-94862710D01*
X115797115Y-94855589D01*
X115811377Y-94850544D01*
X115854376Y-94824983D01*
X115898449Y-94801425D01*
X115910132Y-94791837D01*
X115923130Y-94784110D01*
X115960303Y-94750663D01*
X115998948Y-94718948D01*
X116008538Y-94707263D01*
X116019775Y-94697152D01*
X116049700Y-94657107D01*
X116081425Y-94618450D01*
X116088553Y-94605114D01*
X116097599Y-94593009D01*
X116119136Y-94547898D01*
X116142710Y-94503793D01*
X116147099Y-94489326D01*
X116153611Y-94475685D01*
X116165932Y-94427240D01*
X116180450Y-94379383D01*
X116181932Y-94364333D01*
X116185657Y-94349688D01*
X116188290Y-94299777D01*
X116190000Y-94282419D01*
X116190000Y-94267375D01*
X116192507Y-94219860D01*
X116190000Y-94202527D01*
X116190000Y-92345550D01*
X121585713Y-92345550D01*
X121585713Y-92734450D01*
X121661583Y-93115878D01*
X121810409Y-93475176D01*
X122026471Y-93798535D01*
X122301465Y-94073529D01*
X122624824Y-94289591D01*
X122984122Y-94438417D01*
X123365550Y-94514287D01*
X123754450Y-94514287D01*
X124135878Y-94438417D01*
X124495176Y-94289591D01*
X124818535Y-94073529D01*
X125093529Y-93798535D01*
X125309591Y-93475176D01*
X125458417Y-93115878D01*
X125534287Y-92734450D01*
X125534287Y-92345550D01*
X125458417Y-91964122D01*
X125309591Y-91604824D01*
X125093529Y-91281465D01*
X124818535Y-91006471D01*
X124495176Y-90790409D01*
X124135878Y-90641583D01*
X123754450Y-90565713D01*
X123365550Y-90565713D01*
X122984122Y-90641583D01*
X122624824Y-90790409D01*
X122301465Y-91006471D01*
X122026471Y-91281465D01*
X121810409Y-91604824D01*
X121661583Y-91964122D01*
X121585713Y-92345550D01*
X116190000Y-92345550D01*
X116190000Y-89860000D01*
X130510001Y-89860000D01*
X130510000Y-94162594D01*
%TA.AperFunction,Conductor*%
D15*
G36*
X130510000Y-94162594D02*
G01*
X130507486Y-94180002D01*
X130510000Y-94227455D01*
X130510000Y-94242418D01*
X130511716Y-94259837D01*
X130514364Y-94309827D01*
X130518075Y-94324404D01*
X130519550Y-94339382D01*
X130534087Y-94387302D01*
X130546437Y-94435817D01*
X130552922Y-94449394D01*
X130557290Y-94463792D01*
X130580896Y-94507956D01*
X130602474Y-94553129D01*
X130611481Y-94565176D01*
X130618575Y-94578449D01*
X130650342Y-94617158D01*
X130680320Y-94657256D01*
X130691507Y-94667317D01*
X130701052Y-94678948D01*
X130739763Y-94710718D01*
X130776984Y-94744193D01*
X130789915Y-94751876D01*
X130801550Y-94761425D01*
X130845717Y-94785033D01*
X130888752Y-94810603D01*
X130902937Y-94815617D01*
X130916207Y-94822710D01*
X130964134Y-94837249D01*
X130980614Y-94843074D01*
X130995121Y-94846649D01*
X131040617Y-94860450D01*
X131058130Y-94862175D01*
X171769799Y-104894022D01*
X176032215Y-117590000D01*
X141482419Y-117590000D01*
X141450000Y-117586807D01*
X141417581Y-117590000D01*
X141320617Y-117599550D01*
X141196207Y-117637290D01*
X141081550Y-117698575D01*
X140981052Y-117781052D01*
X140898575Y-117881550D01*
X140837290Y-117996207D01*
X140799550Y-118120617D01*
X140786807Y-118250000D01*
X140790000Y-118282419D01*
X140790001Y-132540000D01*
X106110000Y-132540000D01*
X106110000Y-129774561D01*
X107511075Y-129774561D01*
X107511075Y-130225439D01*
X107599037Y-130667655D01*
X107771581Y-131084212D01*
X108022076Y-131459105D01*
X108340895Y-131777924D01*
X108715788Y-132028419D01*
X109132345Y-132200963D01*
X109574561Y-132288925D01*
X110025439Y-132288925D01*
X110467655Y-132200963D01*
X110884212Y-132028419D01*
X111259105Y-131777924D01*
X111577924Y-131459105D01*
X111828419Y-131084212D01*
X112000963Y-130667655D01*
X112088925Y-130225439D01*
X112088925Y-129774561D01*
X112000963Y-129332345D01*
X111828419Y-128915788D01*
X111577924Y-128540895D01*
X111259105Y-128222076D01*
X110884212Y-127971581D01*
X110467655Y-127799037D01*
X110025439Y-127711075D01*
X109574561Y-127711075D01*
X109132345Y-127799037D01*
X108715788Y-127971581D01*
X108340895Y-128222076D01*
X108022076Y-128540895D01*
X107771581Y-128915788D01*
X107599037Y-129332345D01*
X107511075Y-129774561D01*
X106110000Y-129774561D01*
X106110000Y-118282419D01*
X106113193Y-118250000D01*
X106100450Y-118120617D01*
X106062710Y-117996207D01*
X106001425Y-117881550D01*
X105918948Y-117781052D01*
X105818450Y-117698575D01*
X105703793Y-117637290D01*
X105579383Y-117599550D01*
X105482419Y-117590000D01*
X105450000Y-117586807D01*
X105417581Y-117590000D01*
X70867784Y-117590000D01*
X72899599Y-111538061D01*
X83525000Y-111538061D01*
X83525000Y-111741939D01*
X83564774Y-111941898D01*
X83642795Y-112130256D01*
X83756063Y-112299774D01*
X83900226Y-112443937D01*
X84069744Y-112557205D01*
X84258102Y-112635226D01*
X84458061Y-112675000D01*
X84661939Y-112675000D01*
X84861898Y-112635226D01*
X85050256Y-112557205D01*
X85098454Y-112525000D01*
X103413460Y-112525000D01*
X112834970Y-121946511D01*
X112834969Y-127236428D01*
X112830688Y-127279897D01*
X112834969Y-127323366D01*
X112834969Y-127323373D01*
X112847774Y-127453386D01*
X112898380Y-127620209D01*
X112980558Y-127773955D01*
X113091152Y-127908714D01*
X113124925Y-127936431D01*
X114673563Y-129485070D01*
X114701276Y-129518838D01*
X114735044Y-129546551D01*
X114735046Y-129546553D01*
X114736150Y-129547459D01*
X114836034Y-129629432D01*
X114989780Y-129711610D01*
X115156603Y-129762216D01*
X115286616Y-129775021D01*
X115286626Y-129775021D01*
X115330092Y-129779302D01*
X115373558Y-129775021D01*
X121996510Y-129775021D01*
X122039979Y-129779302D01*
X122083448Y-129775021D01*
X122083456Y-129775021D01*
X122088126Y-129774561D01*
X134911075Y-129774561D01*
X134911075Y-130225439D01*
X134999037Y-130667655D01*
X135171581Y-131084212D01*
X135422076Y-131459105D01*
X135740895Y-131777924D01*
X136115788Y-132028419D01*
X136532345Y-132200963D01*
X136974561Y-132288925D01*
X137425439Y-132288925D01*
X137867655Y-132200963D01*
X138284212Y-132028419D01*
X138659105Y-131777924D01*
X138977924Y-131459105D01*
X139228419Y-131084212D01*
X139400963Y-130667655D01*
X139488925Y-130225439D01*
X139488925Y-129774561D01*
X139400963Y-129332345D01*
X139228419Y-128915788D01*
X138977924Y-128540895D01*
X138659105Y-128222076D01*
X138284212Y-127971581D01*
X137867655Y-127799037D01*
X137425439Y-127711075D01*
X136974561Y-127711075D01*
X136532345Y-127799037D01*
X136115788Y-127971581D01*
X135740895Y-128222076D01*
X135422076Y-128540895D01*
X135171581Y-128915788D01*
X134999037Y-129332345D01*
X134911075Y-129774561D01*
X122088126Y-129774561D01*
X122213469Y-129762216D01*
X122380292Y-129711610D01*
X122534038Y-129629432D01*
X122668796Y-129518838D01*
X122696513Y-129485065D01*
X124521040Y-127660539D01*
X124593740Y-127675000D01*
X124886260Y-127675000D01*
X125173158Y-127617932D01*
X125443411Y-127505990D01*
X125686632Y-127343475D01*
X125893475Y-127136632D01*
X126010000Y-126962240D01*
X126126525Y-127136632D01*
X126333368Y-127343475D01*
X126576589Y-127505990D01*
X126846842Y-127617932D01*
X127133740Y-127675000D01*
X127426260Y-127675000D01*
X127713158Y-127617932D01*
X127983411Y-127505990D01*
X128226632Y-127343475D01*
X128433475Y-127136632D01*
X128550000Y-126962240D01*
X128666525Y-127136632D01*
X128873368Y-127343475D01*
X129116589Y-127505990D01*
X129386842Y-127617932D01*
X129673740Y-127675000D01*
X129966260Y-127675000D01*
X130253158Y-127617932D01*
X130523411Y-127505990D01*
X130766632Y-127343475D01*
X130973475Y-127136632D01*
X131135990Y-126893411D01*
X131247932Y-126623158D01*
X131305000Y-126336260D01*
X131305000Y-126043740D01*
X131247932Y-125756842D01*
X131135990Y-125486589D01*
X130973475Y-125243368D01*
X130766632Y-125036525D01*
X130523411Y-124874010D01*
X130253158Y-124762068D01*
X129966260Y-124705000D01*
X129673740Y-124705000D01*
X129386842Y-124762068D01*
X129116589Y-124874010D01*
X128873368Y-125036525D01*
X128666525Y-125243368D01*
X128550000Y-125417760D01*
X128433475Y-125243368D01*
X128226632Y-125036525D01*
X127983411Y-124874010D01*
X127713158Y-124762068D01*
X127426260Y-124705000D01*
X127133740Y-124705000D01*
X126846842Y-124762068D01*
X126576589Y-124874010D01*
X126333368Y-125036525D01*
X126126525Y-125243368D01*
X126010000Y-125417760D01*
X125893475Y-125243368D01*
X125686632Y-125036525D01*
X125512240Y-124920000D01*
X125686632Y-124803475D01*
X125893475Y-124596632D01*
X126055990Y-124353411D01*
X126167932Y-124083158D01*
X126225000Y-123796260D01*
X126225000Y-123503740D01*
X126210539Y-123431039D01*
X136716579Y-112925000D01*
X172510989Y-112925000D01*
X172608102Y-112965226D01*
X172808061Y-113005000D01*
X173011939Y-113005000D01*
X173211898Y-112965226D01*
X173400256Y-112887205D01*
X173569774Y-112773937D01*
X173713937Y-112629774D01*
X173827205Y-112460256D01*
X173905226Y-112271898D01*
X173945000Y-112071939D01*
X173945000Y-111868061D01*
X173905226Y-111668102D01*
X173827205Y-111479744D01*
X173713937Y-111310226D01*
X173569774Y-111166063D01*
X173400256Y-111052795D01*
X173211898Y-110974774D01*
X173011939Y-110935000D01*
X172808061Y-110935000D01*
X172608102Y-110974774D01*
X172419744Y-111052795D01*
X172266783Y-111155000D01*
X160586578Y-111155000D01*
X162145044Y-109596535D01*
X162201898Y-109585226D01*
X162390256Y-109507205D01*
X162559774Y-109393937D01*
X162703937Y-109249774D01*
X162817205Y-109080256D01*
X162895226Y-108891898D01*
X162935000Y-108691939D01*
X162935000Y-108488061D01*
X162895226Y-108288102D01*
X162817205Y-108099744D01*
X162703937Y-107930226D01*
X162559774Y-107786063D01*
X162390256Y-107672795D01*
X162201898Y-107594774D01*
X162001939Y-107555000D01*
X161798061Y-107555000D01*
X161598102Y-107594774D01*
X161409744Y-107672795D01*
X161240226Y-107786063D01*
X161096063Y-107930226D01*
X160982795Y-108099744D01*
X160904774Y-108288102D01*
X160893465Y-108344956D01*
X158783432Y-110454990D01*
X148956588Y-110454990D01*
X149815050Y-109596529D01*
X149848817Y-109568817D01*
X149908168Y-109496499D01*
X149959411Y-109434059D01*
X150015204Y-109329676D01*
X150041589Y-109280313D01*
X150092195Y-109113490D01*
X150105000Y-108983477D01*
X150105000Y-108983469D01*
X150109281Y-108940000D01*
X150105000Y-108896531D01*
X150105000Y-106288454D01*
X150137205Y-106240256D01*
X150215226Y-106051898D01*
X150255000Y-105851939D01*
X150255000Y-105648061D01*
X150215226Y-105448102D01*
X150137205Y-105259744D01*
X150023937Y-105090226D01*
X149879774Y-104946063D01*
X149710256Y-104832795D01*
X149521898Y-104754774D01*
X149321939Y-104715000D01*
X149118061Y-104715000D01*
X148918102Y-104754774D01*
X148729744Y-104832795D01*
X148560226Y-104946063D01*
X148416063Y-105090226D01*
X148302795Y-105259744D01*
X148224774Y-105448102D01*
X148185000Y-105648061D01*
X148185000Y-105851939D01*
X148224774Y-106051898D01*
X148302795Y-106240256D01*
X148335001Y-106288456D01*
X148335000Y-108573421D01*
X147153442Y-109754980D01*
X136365141Y-109754980D01*
X136365141Y-103963277D01*
X136387205Y-103930256D01*
X136465226Y-103741898D01*
X136505000Y-103541939D01*
X136505000Y-103338061D01*
X136465226Y-103138102D01*
X136387205Y-102949744D01*
X136273937Y-102780226D01*
X136129774Y-102636063D01*
X135960256Y-102522795D01*
X135771898Y-102444774D01*
X135571939Y-102405000D01*
X135368061Y-102405000D01*
X135168102Y-102444774D01*
X134979744Y-102522795D01*
X134810226Y-102636063D01*
X134666063Y-102780226D01*
X134552795Y-102949744D01*
X134474774Y-103138102D01*
X134435000Y-103338061D01*
X134435000Y-103541939D01*
X134474774Y-103741898D01*
X134552795Y-103930256D01*
X134595142Y-103993633D01*
X134595141Y-109573391D01*
X124533501Y-119635033D01*
X120293436Y-119635033D01*
X120249967Y-119630752D01*
X120206498Y-119635033D01*
X120206490Y-119635033D01*
X120076477Y-119647838D01*
X119909654Y-119698444D01*
X119755908Y-119780622D01*
X119654920Y-119863501D01*
X119654918Y-119863503D01*
X119621150Y-119891216D01*
X119593437Y-119924984D01*
X117338961Y-122179461D01*
X117266260Y-122165000D01*
X116973740Y-122165000D01*
X116704999Y-122218456D01*
X116704999Y-110266579D01*
X123005044Y-103966535D01*
X123061898Y-103955226D01*
X123250256Y-103877205D01*
X123419774Y-103763937D01*
X123563937Y-103619774D01*
X123677205Y-103450256D01*
X123755226Y-103261898D01*
X123795000Y-103061939D01*
X123795000Y-102858061D01*
X123755226Y-102658102D01*
X123677205Y-102469744D01*
X123563937Y-102300226D01*
X123419774Y-102156063D01*
X123250256Y-102042795D01*
X123061898Y-101964774D01*
X122861939Y-101925000D01*
X122658061Y-101925000D01*
X122458102Y-101964774D01*
X122269744Y-102042795D01*
X122100226Y-102156063D01*
X121956063Y-102300226D01*
X121842795Y-102469744D01*
X121764774Y-102658102D01*
X121753465Y-102714956D01*
X115585000Y-108883421D01*
X111426535Y-104724957D01*
X111415226Y-104668102D01*
X111337205Y-104479744D01*
X111223937Y-104310226D01*
X111079774Y-104166063D01*
X110910256Y-104052795D01*
X110721898Y-103974774D01*
X110521939Y-103935000D01*
X110318061Y-103935000D01*
X110118102Y-103974774D01*
X109929744Y-104052795D01*
X109760226Y-104166063D01*
X109616063Y-104310226D01*
X109502795Y-104479744D01*
X109424774Y-104668102D01*
X109385000Y-104868061D01*
X109385000Y-105071939D01*
X109424774Y-105271898D01*
X109502795Y-105460256D01*
X109616063Y-105629774D01*
X109760226Y-105773937D01*
X109929744Y-105887205D01*
X110118102Y-105965226D01*
X110174957Y-105976535D01*
X114234990Y-110036569D01*
X114234989Y-119853410D01*
X102376535Y-107994957D01*
X102365226Y-107938102D01*
X102287205Y-107749744D01*
X102173937Y-107580226D01*
X102029774Y-107436063D01*
X101860256Y-107322795D01*
X101671898Y-107244774D01*
X101471939Y-107205000D01*
X101268061Y-107205000D01*
X101068102Y-107244774D01*
X100879744Y-107322795D01*
X100710226Y-107436063D01*
X100566063Y-107580226D01*
X100452795Y-107749744D01*
X100374774Y-107938102D01*
X100335000Y-108138061D01*
X100335000Y-108341939D01*
X100374774Y-108541898D01*
X100452795Y-108730256D01*
X100566063Y-108899774D01*
X100710226Y-109043937D01*
X100879744Y-109157205D01*
X101068102Y-109235226D01*
X101124957Y-109246535D01*
X102633422Y-110755000D01*
X85098454Y-110755000D01*
X85050256Y-110722795D01*
X84861898Y-110644774D01*
X84661939Y-110605000D01*
X84458061Y-110605000D01*
X84258102Y-110644774D01*
X84069744Y-110722795D01*
X83900226Y-110836063D01*
X83756063Y-110980226D01*
X83642795Y-111149744D01*
X83564774Y-111338102D01*
X83525000Y-111538061D01*
X72899599Y-111538061D01*
X75130230Y-104893934D01*
X115641951Y-94902167D01*
X115659382Y-94900450D01*
X115704916Y-94886637D01*
X115719521Y-94883035D01*
X115735966Y-94877218D01*
X115783792Y-94862710D01*
X115797115Y-94855589D01*
X115811377Y-94850544D01*
X115854376Y-94824983D01*
X115898449Y-94801425D01*
X115910132Y-94791837D01*
X115923130Y-94784110D01*
X115960303Y-94750663D01*
X115998948Y-94718948D01*
X116008538Y-94707263D01*
X116019775Y-94697152D01*
X116049700Y-94657107D01*
X116081425Y-94618450D01*
X116088553Y-94605114D01*
X116097599Y-94593009D01*
X116119136Y-94547898D01*
X116142710Y-94503793D01*
X116147099Y-94489326D01*
X116153611Y-94475685D01*
X116165932Y-94427240D01*
X116180450Y-94379383D01*
X116181932Y-94364333D01*
X116185657Y-94349688D01*
X116188290Y-94299777D01*
X116190000Y-94282419D01*
X116190000Y-94267375D01*
X116192507Y-94219860D01*
X116190000Y-94202527D01*
X116190000Y-92345550D01*
X121585713Y-92345550D01*
X121585713Y-92734450D01*
X121661583Y-93115878D01*
X121810409Y-93475176D01*
X122026471Y-93798535D01*
X122301465Y-94073529D01*
X122624824Y-94289591D01*
X122984122Y-94438417D01*
X123365550Y-94514287D01*
X123754450Y-94514287D01*
X124135878Y-94438417D01*
X124495176Y-94289591D01*
X124818535Y-94073529D01*
X125093529Y-93798535D01*
X125309591Y-93475176D01*
X125458417Y-93115878D01*
X125534287Y-92734450D01*
X125534287Y-92345550D01*
X125458417Y-91964122D01*
X125309591Y-91604824D01*
X125093529Y-91281465D01*
X124818535Y-91006471D01*
X124495176Y-90790409D01*
X124135878Y-90641583D01*
X123754450Y-90565713D01*
X123365550Y-90565713D01*
X122984122Y-90641583D01*
X122624824Y-90790409D01*
X122301465Y-91006471D01*
X122026471Y-91281465D01*
X121810409Y-91604824D01*
X121661583Y-91964122D01*
X121585713Y-92345550D01*
X116190000Y-92345550D01*
X116190000Y-89860000D01*
X130510001Y-89860000D01*
X130510000Y-94162594D01*
G37*
%TD.AperFunction*%
%TD*%
M02*
