%TF.GenerationSoftware,KiCad,Pcbnew,(5.1.9)-1*%
%TF.CreationDate,2021-05-13T01:47:40+02:00*%
%TF.ProjectId,PlytkaGlowna,506c7974-6b61-4476-9c6f-776e612e6b69,rev?*%
%TF.SameCoordinates,Original*%
%TF.FileFunction,Copper,L2,Bot*%
%TF.FilePolarity,Positive*%
%FSLAX46Y46*%
G04 Gerber Fmt 4.6, Leading zero omitted, Abs format (unit mm)*
G04 Created by KiCad (PCBNEW (5.1.9)-1) date 2021-05-13 01:47:40*
%MOMM*%
%LPD*%
G01*
G04 APERTURE LIST*
%TA.AperFunction,ComponentPad*%
%ADD10O,1.700000X1.700000*%
%TD*%
%TA.AperFunction,ComponentPad*%
%ADD11R,1.700000X1.700000*%
%TD*%
%TA.AperFunction,ComponentPad*%
%ADD12R,1.800000X1.800000*%
%TD*%
%TA.AperFunction,ComponentPad*%
%ADD13C,1.800000*%
%TD*%
%TA.AperFunction,ComponentPad*%
%ADD14O,2.000000X1.700000*%
%TD*%
%TA.AperFunction,ComponentPad*%
%ADD15C,1.524000*%
%TD*%
%TA.AperFunction,ComponentPad*%
%ADD16O,1.550000X2.600000*%
%TD*%
%TA.AperFunction,ViaPad*%
%ADD17C,0.800000*%
%TD*%
%TA.AperFunction,ViaPad*%
%ADD18C,1.000000*%
%TD*%
%TA.AperFunction,Conductor*%
%ADD19C,0.250000*%
%TD*%
%TA.AperFunction,Conductor*%
%ADD20C,0.750000*%
%TD*%
%TA.AperFunction,Conductor*%
%ADD21C,0.254000*%
%TD*%
%TA.AperFunction,Conductor*%
%ADD22C,0.100000*%
%TD*%
G04 APERTURE END LIST*
D10*
%TO.P,J6,6*%
%TO.N,GND*%
X201540000Y-76730000D03*
%TO.P,J6,5*%
%TO.N,ENCODER12*%
X201540000Y-79270000D03*
%TO.P,J6,4*%
%TO.N,ENCODER11*%
X201540000Y-81810000D03*
%TO.P,J6,3*%
%TO.N,+5V*%
X201540000Y-84350000D03*
%TO.P,J6,2*%
%TO.N,AO1*%
X201540000Y-86890000D03*
D11*
%TO.P,J6,1*%
%TO.N,AO2*%
X201540000Y-89430000D03*
%TD*%
%TO.P,J7,1*%
%TO.N,BO2*%
X137350000Y-93790000D03*
D10*
%TO.P,J7,2*%
%TO.N,BO1*%
X137350000Y-91250000D03*
%TO.P,J7,3*%
%TO.N,+5V*%
X137350000Y-88710000D03*
%TO.P,J7,4*%
%TO.N,ENCODER21*%
X137350000Y-86170000D03*
%TO.P,J7,5*%
%TO.N,ENCODER22*%
X137350000Y-83630000D03*
%TO.P,J7,6*%
%TO.N,GND*%
X137350000Y-81090000D03*
%TD*%
%TO.P,J5,8*%
%TO.N,PWM1*%
X199230000Y-121804999D03*
%TO.P,J5,7*%
%TO.N,AIN2*%
X196690000Y-121804999D03*
%TO.P,J5,6*%
%TO.N,AIN1*%
X194150000Y-121804999D03*
%TO.P,J5,5*%
%TO.N,VDD*%
X191610000Y-121804999D03*
%TO.P,J5,4*%
%TO.N,BIN1*%
X189070000Y-121804999D03*
%TO.P,J5,3*%
%TO.N,BIN2*%
X186530000Y-121804999D03*
%TO.P,J5,2*%
%TO.N,PWM2*%
X183990000Y-121804999D03*
D11*
%TO.P,J5,1*%
%TO.N,GND*%
X181450000Y-121804999D03*
%TD*%
D12*
%TO.P,D1,1*%
%TO.N,GND*%
X190250000Y-65250000D03*
D13*
%TO.P,D1,2*%
%TO.N,Net-(D1-Pad2)*%
X192790000Y-65250000D03*
%TD*%
%TO.P,D2,2*%
%TO.N,Net-(D2-Pad2)*%
X147290000Y-98000000D03*
D12*
%TO.P,D2,1*%
%TO.N,GND*%
X144750000Y-98000000D03*
%TD*%
%TO.P,J1,1*%
%TO.N,GND*%
%TA.AperFunction,ComponentPad*%
G36*
G01*
X138750000Y-70100000D02*
X137250000Y-70100000D01*
G75*
G02*
X137000000Y-69850000I0J250000D01*
G01*
X137000000Y-68650000D01*
G75*
G02*
X137250000Y-68400000I250000J0D01*
G01*
X138750000Y-68400000D01*
G75*
G02*
X139000000Y-68650000I0J-250000D01*
G01*
X139000000Y-69850000D01*
G75*
G02*
X138750000Y-70100000I-250000J0D01*
G01*
G37*
%TD.AperFunction*%
D14*
%TO.P,J1,2*%
%TO.N,Net-(J1-Pad2)*%
X138000000Y-66750000D03*
%TD*%
D11*
%TO.P,J2,1*%
%TO.N,VDD*%
X168750000Y-96750000D03*
D10*
%TO.P,J2,2*%
%TO.N,SWDIO*%
X166210000Y-96750000D03*
%TO.P,J2,3*%
%TO.N,SWCLK*%
X163670000Y-96750000D03*
%TO.P,J2,4*%
%TO.N,NRST*%
X161130000Y-96750000D03*
%TO.P,J2,5*%
%TO.N,GND*%
X158590000Y-96750000D03*
%TD*%
D11*
%TO.P,J3,1*%
%TO.N,N/C*%
X182200000Y-130800000D03*
D10*
%TO.P,J3,2*%
%TO.N,+5V*%
X179660000Y-130800000D03*
%TO.P,J3,3*%
%TO.N,GND*%
X177120000Y-130800000D03*
%TO.P,J3,4*%
%TO.N,TXD*%
X174580000Y-130800000D03*
%TO.P,J3,5*%
%TO.N,RXD*%
X172040000Y-130800000D03*
%TO.P,J3,6*%
%TO.N,N/C*%
X169500000Y-130800000D03*
%TD*%
D11*
%TO.P,J4,1*%
%TO.N,GND*%
X199200000Y-108610000D03*
D10*
%TO.P,J4,2*%
%TO.N,VDD*%
X196660000Y-108610000D03*
%TO.P,J4,3*%
%TO.N,AO1*%
X194120000Y-108610000D03*
%TO.P,J4,4*%
%TO.N,AO2*%
X191580000Y-108610000D03*
%TO.P,J4,5*%
%TO.N,BO2*%
X189040000Y-108610000D03*
%TO.P,J4,6*%
%TO.N,BO1*%
X186500000Y-108610000D03*
%TO.P,J4,7*%
%TO.N,7\u002C4V*%
X183960000Y-108610000D03*
%TO.P,J4,8*%
%TO.N,GND*%
X181420000Y-108610000D03*
%TD*%
D11*
%TO.P,J8,1*%
%TO.N,ADC1_IN8*%
X175000000Y-140500000D03*
D10*
%TO.P,J8,2*%
%TO.N,ADC1_IN15*%
X175000000Y-143040000D03*
%TO.P,J8,3*%
%TO.N,ADC1_IN14*%
X172460000Y-140500000D03*
%TO.P,J8,4*%
%TO.N,ADC1_IN7*%
X172460000Y-143040000D03*
%TO.P,J8,5*%
%TO.N,ADC1_IN6*%
X169920000Y-140500000D03*
%TO.P,J8,6*%
%TO.N,ADC1_IN5*%
X169920000Y-143040000D03*
%TO.P,J8,7*%
%TO.N,ADC1_IN4*%
X167380000Y-140500000D03*
%TO.P,J8,8*%
%TO.N,ADC1_IN3*%
X167380000Y-143040000D03*
%TO.P,J8,9*%
%TO.N,GND*%
X164840000Y-140500000D03*
%TO.P,J8,10*%
%TO.N,VDD*%
X164840000Y-143040000D03*
%TO.P,J8,11*%
%TO.N,GND*%
X162300000Y-140500000D03*
%TO.P,J8,12*%
%TO.N,VDD*%
X162300000Y-143040000D03*
%TD*%
D15*
%TO.P,SW2,1*%
%TO.N,GND*%
X162500000Y-63000000D03*
%TO.P,SW2,2*%
%TO.N,Net-(R4-Pad2)*%
X159500000Y-63000000D03*
%TO.P,SW2,3*%
X156500000Y-63000000D03*
D16*
%TO.P,SW2,5*%
%TO.N,N/C*%
X165500000Y-63000000D03*
X153500000Y-63000000D03*
%TD*%
D17*
%TO.N,VDD*%
X172500000Y-101750000D03*
X160250000Y-103250000D03*
X155500000Y-105750000D03*
X148500000Y-109000000D03*
X148750000Y-115250000D03*
X171750000Y-116750000D03*
X174500000Y-97250000D03*
X159250000Y-118500000D03*
X153000000Y-110000000D03*
D18*
X175000000Y-87250000D03*
D17*
%TO.N,GND*%
X158750000Y-121000000D03*
X158000000Y-122000000D03*
X158020000Y-123270000D03*
%TO.N,NRST*%
X146765421Y-109951158D03*
D18*
%TO.N,7\u002C4V*%
X189020000Y-104540000D03*
%TO.N,+5V*%
X176460000Y-78200000D03*
X151900000Y-134910000D03*
D17*
%TO.N,TXD*%
X174250000Y-110000000D03*
%TO.N,RXD*%
X172500000Y-111000000D03*
%TO.N,PWM2*%
X168500000Y-112000000D03*
X167500000Y-109000000D03*
%TO.N,PWM1*%
X184810000Y-115830000D03*
%TO.N,LED1*%
X167750000Y-110250000D03*
X164000000Y-110250000D03*
%TD*%
D19*
%TO.N,VDD*%
X172500000Y-101750000D02*
X161750000Y-101750000D01*
X161750000Y-101750000D02*
X160250000Y-103250000D01*
X160250000Y-103250000D02*
X158000000Y-103250000D01*
X158000000Y-103250000D02*
X157250000Y-103250000D01*
X155500000Y-105000000D02*
X155500000Y-105750000D01*
X157250000Y-103250000D02*
X155500000Y-105000000D01*
X155500000Y-105750000D02*
X153000000Y-108250000D01*
X149250000Y-108250000D02*
X148500000Y-109000000D01*
X153000000Y-108250000D02*
X149250000Y-108250000D01*
X149250000Y-114750000D02*
X148750000Y-115250000D01*
X149250000Y-108250000D02*
X149250000Y-114750000D01*
X149250000Y-114750000D02*
X152250000Y-114750000D01*
X152250000Y-114750000D02*
X156000000Y-118500000D01*
X170000000Y-118500000D02*
X171750000Y-116750000D01*
D20*
X175000000Y-87250000D02*
X175000000Y-87250000D01*
X175000000Y-96750000D02*
X174500000Y-97250000D01*
X169250000Y-97250000D02*
X168750000Y-96750000D01*
X174500000Y-97250000D02*
X169250000Y-97250000D01*
X164840000Y-143040000D02*
X162300000Y-143040000D01*
D19*
X156000000Y-118500000D02*
X159250000Y-118500000D01*
X162250000Y-118500000D02*
X159250000Y-118500000D01*
X160750000Y-118500000D02*
X162250000Y-118500000D01*
X162250000Y-118500000D02*
X170000000Y-118500000D01*
X153000000Y-108250000D02*
X153000000Y-110000000D01*
D20*
X175000000Y-96750000D02*
X180195001Y-96750000D01*
X183795001Y-100350000D02*
X180195001Y-96750000D01*
X183795001Y-100350000D02*
X188400000Y-100350000D01*
X188400000Y-100350000D02*
X192850000Y-104800000D01*
X192850000Y-104800000D02*
X196660000Y-108610000D01*
X193035001Y-123230000D02*
X191610000Y-121804999D01*
X192470000Y-123230000D02*
X177370000Y-138330000D01*
X193035001Y-123230000D02*
X192470000Y-123230000D01*
X175684001Y-144465001D02*
X166265001Y-144465001D01*
X166265001Y-144465001D02*
X164840000Y-143040000D01*
X177370000Y-142779002D02*
X175684001Y-144465001D01*
X177370000Y-138330000D02*
X177370000Y-142779002D01*
X199914001Y-123230000D02*
X193035001Y-123230000D01*
X201779990Y-121364011D02*
X199914001Y-123230000D01*
X201779990Y-106529990D02*
X201779990Y-121364011D01*
X200050000Y-104800000D02*
X201779990Y-106529990D01*
X192850000Y-104800000D02*
X200050000Y-104800000D01*
X175000000Y-87250000D02*
X175000000Y-96750000D01*
D19*
%TO.N,GND*%
X158750000Y-121250000D02*
X158000000Y-122000000D01*
X158750000Y-121000000D02*
X158750000Y-121250000D01*
D20*
X162300000Y-140500000D02*
X164840000Y-140500000D01*
D19*
%TO.N,NRST*%
X161130000Y-96750000D02*
X161130000Y-101733590D01*
X161130000Y-101733590D02*
X160613590Y-102250000D01*
X160176998Y-102250000D02*
X159627008Y-102799990D01*
X160613590Y-102250000D02*
X160176998Y-102250000D01*
X159627008Y-102799990D02*
X158186400Y-102799990D01*
X158186400Y-102799990D02*
X157063599Y-102799991D01*
X157063599Y-102799991D02*
X155306795Y-104556795D01*
X155306795Y-104556795D02*
X154750000Y-105113590D01*
X154750000Y-105113590D02*
X154750000Y-105863590D01*
X154750000Y-105863590D02*
X153056795Y-107556795D01*
X153056795Y-107556795D02*
X152813600Y-107799990D01*
X152813600Y-107799990D02*
X150250000Y-107799990D01*
X146765421Y-109661577D02*
X146765421Y-109951158D01*
X148627008Y-107799990D02*
X146765421Y-109661577D01*
X150250000Y-107799990D02*
X148627008Y-107799990D01*
D20*
%TO.N,7\u002C4V*%
X188030000Y-104540000D02*
X183960000Y-108610000D01*
X189020000Y-104540000D02*
X189020000Y-104540000D01*
X189020000Y-104540000D02*
X188030000Y-104540000D01*
%TO.N,+5V*%
X179000000Y-77500000D02*
X189500000Y-77500000D01*
X189500000Y-77500000D02*
X196420000Y-84420000D01*
X201470000Y-84420000D02*
X201540000Y-84350000D01*
X196420000Y-84420000D02*
X201470000Y-84420000D01*
X141060000Y-85000000D02*
X137350000Y-88710000D01*
X147770000Y-85000000D02*
X141060000Y-85000000D01*
X151900000Y-128590000D02*
X151900000Y-134910000D01*
X134020000Y-110710000D02*
X151900000Y-128590000D01*
X134020000Y-78830000D02*
X134020000Y-110710000D01*
X140650000Y-77860000D02*
X134990000Y-77860000D01*
X134990000Y-77860000D02*
X134020000Y-78830000D01*
X147770000Y-84980000D02*
X140650000Y-77860000D01*
X147770000Y-85000000D02*
X147770000Y-84980000D01*
X155000000Y-85000000D02*
X147770000Y-85000000D01*
X157250000Y-82750000D02*
X155000000Y-85000000D01*
X171910000Y-82750000D02*
X157250000Y-82750000D01*
X176460000Y-78200000D02*
X171910000Y-82750000D01*
X178300000Y-78200000D02*
X179000000Y-77500000D01*
X176460000Y-78200000D02*
X178300000Y-78200000D01*
X151900000Y-134910000D02*
X151900000Y-134910000D01*
D19*
%TO.N,TXD*%
X174250000Y-110500000D02*
X174250000Y-110000000D01*
X174580000Y-130800000D02*
X173110011Y-129330011D01*
X173110011Y-129330011D02*
X173110011Y-111639989D01*
X173375000Y-111375000D02*
X174250000Y-110500000D01*
X173110011Y-111639989D02*
X173375000Y-111375000D01*
X173110010Y-111639990D02*
X173375000Y-111375000D01*
%TO.N,RXD*%
X172660000Y-111160000D02*
X172500000Y-111000000D01*
X172660001Y-111160001D02*
X172500000Y-111000000D01*
X172660001Y-130179999D02*
X172660001Y-111160001D01*
X172040000Y-130800000D02*
X172660001Y-130179999D01*
%TO.N,PWM2*%
X168500000Y-112000000D02*
X168500000Y-109926998D01*
X168500000Y-109926998D02*
X167573002Y-109000000D01*
X167573002Y-109000000D02*
X167500000Y-109000000D01*
%TO.N,PWM1*%
X193255001Y-115830000D02*
X186280000Y-115830000D01*
X199230000Y-121804999D02*
X193255001Y-115830000D01*
X186280000Y-115830000D02*
X184810000Y-115830000D01*
X184810000Y-115830000D02*
X184810000Y-115830000D01*
%TO.N,LED1*%
X167750000Y-110250000D02*
X164000000Y-110250000D01*
%TD*%
D21*
%TO.N,GND*%
X207810388Y-68843769D02*
X207831052Y-68868948D01*
X207931550Y-68951425D01*
X208046207Y-69012710D01*
X208170617Y-69050450D01*
X208267581Y-69060000D01*
X208267588Y-69060000D01*
X208300000Y-69063192D01*
X208332412Y-69060000D01*
X237650001Y-69060000D01*
X237650000Y-95740000D01*
X208332419Y-95740000D01*
X208300000Y-95736807D01*
X208267581Y-95740000D01*
X208170617Y-95749550D01*
X208046207Y-95787290D01*
X207931550Y-95848575D01*
X207831052Y-95931052D01*
X207748575Y-96031550D01*
X207687290Y-96146207D01*
X207649550Y-96270617D01*
X207636807Y-96400000D01*
X207640000Y-96432418D01*
X207640001Y-105812805D01*
X201344017Y-129225999D01*
X186330030Y-135958813D01*
X186307995Y-135965497D01*
X186270851Y-135985351D01*
X186262149Y-135989253D01*
X186242282Y-136000621D01*
X186193338Y-136026782D01*
X186185912Y-136032877D01*
X186177582Y-136037643D01*
X186135752Y-136074041D01*
X186092840Y-136109259D01*
X186086745Y-136116686D01*
X186079506Y-136122985D01*
X186045574Y-136166853D01*
X186010363Y-136209758D01*
X186005836Y-136218227D01*
X185999963Y-136225820D01*
X185975234Y-136275480D01*
X185949078Y-136324415D01*
X185946291Y-136333604D01*
X185942011Y-136342198D01*
X185927445Y-136395727D01*
X185911338Y-136448825D01*
X185910397Y-136458381D01*
X185907876Y-136467645D01*
X185904033Y-136522997D01*
X185901788Y-136545789D01*
X185901788Y-136555328D01*
X185898871Y-136597340D01*
X185901788Y-136620180D01*
X185901789Y-145940001D01*
X150698213Y-145940001D01*
X150698213Y-142526444D01*
X151980202Y-142526444D01*
X151980202Y-142973556D01*
X152067429Y-143412076D01*
X152238531Y-143825153D01*
X152486932Y-144196912D01*
X152803088Y-144513068D01*
X153174847Y-144761469D01*
X153587924Y-144932571D01*
X154026444Y-145019798D01*
X154473556Y-145019798D01*
X154912076Y-144932571D01*
X155325153Y-144761469D01*
X155696912Y-144513068D01*
X156013068Y-144196912D01*
X156261469Y-143825153D01*
X156432571Y-143412076D01*
X156519798Y-142973556D01*
X156519798Y-142526444D01*
X156432571Y-142087924D01*
X156261469Y-141674847D01*
X156013068Y-141303088D01*
X155696912Y-140986932D01*
X155325153Y-140738531D01*
X154912076Y-140567429D01*
X154473556Y-140480202D01*
X154026444Y-140480202D01*
X153587924Y-140567429D01*
X153174847Y-140738531D01*
X152803088Y-140986932D01*
X152486932Y-141303088D01*
X152238531Y-141674847D01*
X152067429Y-142087924D01*
X151980202Y-142526444D01*
X150698213Y-142526444D01*
X150698213Y-136620172D01*
X150701129Y-136597340D01*
X150698213Y-136555342D01*
X150698213Y-136545789D01*
X150695965Y-136522964D01*
X150692124Y-136467644D01*
X150689605Y-136458385D01*
X150688663Y-136448825D01*
X150672548Y-136395703D01*
X150657989Y-136342197D01*
X150653711Y-136333607D01*
X150650923Y-136324415D01*
X150624759Y-136275466D01*
X150600037Y-136225819D01*
X150594165Y-136218228D01*
X150589638Y-136209758D01*
X150554429Y-136166856D01*
X150520494Y-136122984D01*
X150513253Y-136116683D01*
X150507161Y-136109260D01*
X150464278Y-136074067D01*
X150422418Y-136037642D01*
X150414081Y-136032871D01*
X150406662Y-136026783D01*
X150357759Y-136000644D01*
X150337850Y-135989252D01*
X150329131Y-135985342D01*
X150292005Y-135965498D01*
X150269980Y-135958817D01*
X135255983Y-129226000D01*
X128960000Y-105812811D01*
X128960000Y-96432418D01*
X128963193Y-96400000D01*
X128950450Y-96270617D01*
X128912710Y-96146207D01*
X128851425Y-96031550D01*
X128768948Y-95931052D01*
X128668450Y-95848575D01*
X128553793Y-95787290D01*
X128429383Y-95749550D01*
X128332419Y-95740000D01*
X128300000Y-95736807D01*
X128267581Y-95740000D01*
X98950000Y-95740000D01*
X98950000Y-91926323D01*
X104730497Y-91926323D01*
X104730497Y-92353677D01*
X104813870Y-92772821D01*
X104977412Y-93167645D01*
X105214837Y-93522977D01*
X105517023Y-93825163D01*
X105872355Y-94062588D01*
X106267179Y-94226130D01*
X106686323Y-94309503D01*
X107113677Y-94309503D01*
X107532821Y-94226130D01*
X107927645Y-94062588D01*
X108282977Y-93825163D01*
X108585163Y-93522977D01*
X108822588Y-93167645D01*
X108986130Y-92772821D01*
X109069503Y-92353677D01*
X109069503Y-91926323D01*
X116830497Y-91926323D01*
X116830497Y-92353677D01*
X116913870Y-92772821D01*
X117077412Y-93167645D01*
X117314837Y-93522977D01*
X117617023Y-93825163D01*
X117972355Y-94062588D01*
X118367179Y-94226130D01*
X118786323Y-94309503D01*
X119213677Y-94309503D01*
X119632821Y-94226130D01*
X120027645Y-94062588D01*
X120382977Y-93825163D01*
X120685163Y-93522977D01*
X120922588Y-93167645D01*
X121086130Y-92772821D01*
X121169503Y-92353677D01*
X121169503Y-91926323D01*
X121086130Y-91507179D01*
X120922588Y-91112355D01*
X120685163Y-90757023D01*
X120382977Y-90454837D01*
X120027645Y-90217412D01*
X119632821Y-90053870D01*
X119213677Y-89970497D01*
X118786323Y-89970497D01*
X118367179Y-90053870D01*
X117972355Y-90217412D01*
X117617023Y-90454837D01*
X117314837Y-90757023D01*
X117077412Y-91112355D01*
X116913870Y-91507179D01*
X116830497Y-91926323D01*
X109069503Y-91926323D01*
X108986130Y-91507179D01*
X108822588Y-91112355D01*
X108585163Y-90757023D01*
X108282977Y-90454837D01*
X107927645Y-90217412D01*
X107532821Y-90053870D01*
X107113677Y-89970497D01*
X106686323Y-89970497D01*
X106267179Y-90053870D01*
X105872355Y-90217412D01*
X105517023Y-90454837D01*
X105214837Y-90757023D01*
X104977412Y-91112355D01*
X104813870Y-91507179D01*
X104730497Y-91926323D01*
X98950000Y-91926323D01*
X98950000Y-78830000D01*
X133005114Y-78830000D01*
X133010000Y-78879608D01*
X133010001Y-110660382D01*
X133005114Y-110710000D01*
X133024615Y-110907994D01*
X133082368Y-111098379D01*
X133162878Y-111249003D01*
X133176154Y-111273840D01*
X133302368Y-111427633D01*
X133340901Y-111459256D01*
X150890000Y-129008356D01*
X150890001Y-134382456D01*
X150808617Y-134578933D01*
X150765000Y-134798212D01*
X150765000Y-135021788D01*
X150808617Y-135241067D01*
X150894176Y-135447624D01*
X151018388Y-135633520D01*
X151176480Y-135791612D01*
X151362376Y-135915824D01*
X151568933Y-136001383D01*
X151788212Y-136045000D01*
X152011788Y-136045000D01*
X152231067Y-136001383D01*
X152437624Y-135915824D01*
X152623520Y-135791612D01*
X152781612Y-135633520D01*
X152905824Y-135447624D01*
X152991383Y-135241067D01*
X153035000Y-135021788D01*
X153035000Y-134798212D01*
X152991383Y-134578933D01*
X152910000Y-134382458D01*
X152910000Y-128639597D01*
X152914885Y-128589999D01*
X152910000Y-128540401D01*
X152910000Y-128540392D01*
X152895385Y-128392006D01*
X152837632Y-128201620D01*
X152743847Y-128026160D01*
X152617633Y-127872367D01*
X152579100Y-127840744D01*
X135030000Y-110291645D01*
X135030000Y-109849219D01*
X145730421Y-109849219D01*
X145730421Y-110053097D01*
X145770195Y-110253056D01*
X145848216Y-110441414D01*
X145961484Y-110610932D01*
X146105647Y-110755095D01*
X146275165Y-110868363D01*
X146463523Y-110946384D01*
X146663482Y-110986158D01*
X146867360Y-110986158D01*
X147067319Y-110946384D01*
X147255677Y-110868363D01*
X147425195Y-110755095D01*
X147569358Y-110610932D01*
X147682626Y-110441414D01*
X147760647Y-110253056D01*
X147800421Y-110053097D01*
X147800421Y-109849219D01*
X147779294Y-109743005D01*
X147840226Y-109803937D01*
X148009744Y-109917205D01*
X148198102Y-109995226D01*
X148398061Y-110035000D01*
X148490000Y-110035000D01*
X148490001Y-114246440D01*
X148448102Y-114254774D01*
X148259744Y-114332795D01*
X148090226Y-114446063D01*
X147946063Y-114590226D01*
X147832795Y-114759744D01*
X147754774Y-114948102D01*
X147715000Y-115148061D01*
X147715000Y-115351939D01*
X147754774Y-115551898D01*
X147832795Y-115740256D01*
X147946063Y-115909774D01*
X148090226Y-116053937D01*
X148259744Y-116167205D01*
X148448102Y-116245226D01*
X148648061Y-116285000D01*
X148851939Y-116285000D01*
X149051898Y-116245226D01*
X149240256Y-116167205D01*
X149409774Y-116053937D01*
X149553937Y-115909774D01*
X149667205Y-115740256D01*
X149745226Y-115551898D01*
X149753560Y-115510000D01*
X151935199Y-115510000D01*
X155436201Y-119011003D01*
X155459999Y-119040001D01*
X155575724Y-119134974D01*
X155707753Y-119205546D01*
X155851014Y-119249003D01*
X155962667Y-119260000D01*
X155962677Y-119260000D01*
X156000000Y-119263676D01*
X156037323Y-119260000D01*
X158546289Y-119260000D01*
X158590226Y-119303937D01*
X158759744Y-119417205D01*
X158948102Y-119495226D01*
X159148061Y-119535000D01*
X159351939Y-119535000D01*
X159551898Y-119495226D01*
X159740256Y-119417205D01*
X159909774Y-119303937D01*
X159953711Y-119260000D01*
X169962678Y-119260000D01*
X170000000Y-119263676D01*
X170037322Y-119260000D01*
X170037333Y-119260000D01*
X170148986Y-119249003D01*
X170292247Y-119205546D01*
X170424276Y-119134974D01*
X170540001Y-119040001D01*
X170563804Y-119010997D01*
X171789802Y-117785000D01*
X171851939Y-117785000D01*
X171900002Y-117775440D01*
X171900001Y-129315000D01*
X171893740Y-129315000D01*
X171606842Y-129372068D01*
X171336589Y-129484010D01*
X171093368Y-129646525D01*
X170886525Y-129853368D01*
X170770000Y-130027760D01*
X170653475Y-129853368D01*
X170446632Y-129646525D01*
X170203411Y-129484010D01*
X169933158Y-129372068D01*
X169646260Y-129315000D01*
X169353740Y-129315000D01*
X169066842Y-129372068D01*
X168796589Y-129484010D01*
X168553368Y-129646525D01*
X168346525Y-129853368D01*
X168184010Y-130096589D01*
X168072068Y-130366842D01*
X168015000Y-130653740D01*
X168015000Y-130946260D01*
X168072068Y-131233158D01*
X168184010Y-131503411D01*
X168346525Y-131746632D01*
X168553368Y-131953475D01*
X168796589Y-132115990D01*
X169066842Y-132227932D01*
X169353740Y-132285000D01*
X169646260Y-132285000D01*
X169933158Y-132227932D01*
X170203411Y-132115990D01*
X170446632Y-131953475D01*
X170653475Y-131746632D01*
X170770000Y-131572240D01*
X170886525Y-131746632D01*
X171093368Y-131953475D01*
X171336589Y-132115990D01*
X171606842Y-132227932D01*
X171893740Y-132285000D01*
X172186260Y-132285000D01*
X172473158Y-132227932D01*
X172743411Y-132115990D01*
X172986632Y-131953475D01*
X173193475Y-131746632D01*
X173310000Y-131572240D01*
X173426525Y-131746632D01*
X173633368Y-131953475D01*
X173876589Y-132115990D01*
X174146842Y-132227932D01*
X174433740Y-132285000D01*
X174726260Y-132285000D01*
X175013158Y-132227932D01*
X175283411Y-132115990D01*
X175526632Y-131953475D01*
X175733475Y-131746632D01*
X175895990Y-131503411D01*
X176007932Y-131233158D01*
X176065000Y-130946260D01*
X176065000Y-130653740D01*
X176007932Y-130366842D01*
X175895990Y-130096589D01*
X175733475Y-129853368D01*
X175526632Y-129646525D01*
X175283411Y-129484010D01*
X175013158Y-129372068D01*
X174726260Y-129315000D01*
X174433740Y-129315000D01*
X174213592Y-129358790D01*
X173870011Y-129015210D01*
X173870011Y-111954791D01*
X173938799Y-111886003D01*
X173938803Y-111885998D01*
X174761004Y-111063798D01*
X174790001Y-111040001D01*
X174884974Y-110924276D01*
X174955546Y-110792247D01*
X174970386Y-110743325D01*
X175053937Y-110659774D01*
X175167205Y-110490256D01*
X175245226Y-110301898D01*
X175285000Y-110101939D01*
X175285000Y-109898061D01*
X175245226Y-109698102D01*
X175167205Y-109509744D01*
X175053937Y-109340226D01*
X174909774Y-109196063D01*
X174740256Y-109082795D01*
X174551898Y-109004774D01*
X174351939Y-108965000D01*
X174148061Y-108965000D01*
X173948102Y-109004774D01*
X173759744Y-109082795D01*
X173590226Y-109196063D01*
X173446063Y-109340226D01*
X173332795Y-109509744D01*
X173254774Y-109698102D01*
X173215000Y-109898061D01*
X173215000Y-110101939D01*
X173252084Y-110288373D01*
X173159774Y-110196063D01*
X172990256Y-110082795D01*
X172801898Y-110004774D01*
X172601939Y-109965000D01*
X172398061Y-109965000D01*
X172198102Y-110004774D01*
X172009744Y-110082795D01*
X171840226Y-110196063D01*
X171696063Y-110340226D01*
X171582795Y-110509744D01*
X171504774Y-110698102D01*
X171465000Y-110898061D01*
X171465000Y-111101939D01*
X171504774Y-111301898D01*
X171582795Y-111490256D01*
X171696063Y-111659774D01*
X171840226Y-111803937D01*
X171900002Y-111843878D01*
X171900002Y-115724560D01*
X171851939Y-115715000D01*
X171648061Y-115715000D01*
X171448102Y-115754774D01*
X171259744Y-115832795D01*
X171090226Y-115946063D01*
X170946063Y-116090226D01*
X170832795Y-116259744D01*
X170754774Y-116448102D01*
X170715000Y-116648061D01*
X170715000Y-116710198D01*
X169685199Y-117740000D01*
X159953711Y-117740000D01*
X159909774Y-117696063D01*
X159740256Y-117582795D01*
X159551898Y-117504774D01*
X159351939Y-117465000D01*
X159148061Y-117465000D01*
X158948102Y-117504774D01*
X158759744Y-117582795D01*
X158590226Y-117696063D01*
X158546289Y-117740000D01*
X156314802Y-117740000D01*
X152813804Y-114239003D01*
X152790001Y-114209999D01*
X152674276Y-114115026D01*
X152542247Y-114044454D01*
X152398986Y-114000997D01*
X152287333Y-113990000D01*
X152287322Y-113990000D01*
X152250000Y-113986324D01*
X152212678Y-113990000D01*
X150010000Y-113990000D01*
X150010000Y-109010000D01*
X152240000Y-109010000D01*
X152240001Y-109296288D01*
X152196063Y-109340226D01*
X152082795Y-109509744D01*
X152004774Y-109698102D01*
X151965000Y-109898061D01*
X151965000Y-110101939D01*
X152004774Y-110301898D01*
X152082795Y-110490256D01*
X152196063Y-110659774D01*
X152340226Y-110803937D01*
X152509744Y-110917205D01*
X152698102Y-110995226D01*
X152898061Y-111035000D01*
X153101939Y-111035000D01*
X153301898Y-110995226D01*
X153490256Y-110917205D01*
X153659774Y-110803937D01*
X153803937Y-110659774D01*
X153917205Y-110490256D01*
X153995226Y-110301898D01*
X154025825Y-110148061D01*
X162965000Y-110148061D01*
X162965000Y-110351939D01*
X163004774Y-110551898D01*
X163082795Y-110740256D01*
X163196063Y-110909774D01*
X163340226Y-111053937D01*
X163509744Y-111167205D01*
X163698102Y-111245226D01*
X163898061Y-111285000D01*
X164101939Y-111285000D01*
X164301898Y-111245226D01*
X164490256Y-111167205D01*
X164659774Y-111053937D01*
X164703711Y-111010000D01*
X167046289Y-111010000D01*
X167090226Y-111053937D01*
X167259744Y-111167205D01*
X167448102Y-111245226D01*
X167648061Y-111285000D01*
X167740000Y-111285000D01*
X167740000Y-111296289D01*
X167696063Y-111340226D01*
X167582795Y-111509744D01*
X167504774Y-111698102D01*
X167465000Y-111898061D01*
X167465000Y-112101939D01*
X167504774Y-112301898D01*
X167582795Y-112490256D01*
X167696063Y-112659774D01*
X167840226Y-112803937D01*
X168009744Y-112917205D01*
X168198102Y-112995226D01*
X168398061Y-113035000D01*
X168601939Y-113035000D01*
X168801898Y-112995226D01*
X168990256Y-112917205D01*
X169159774Y-112803937D01*
X169303937Y-112659774D01*
X169417205Y-112490256D01*
X169495226Y-112301898D01*
X169535000Y-112101939D01*
X169535000Y-111898061D01*
X169495226Y-111698102D01*
X169417205Y-111509744D01*
X169303937Y-111340226D01*
X169260000Y-111296289D01*
X169260000Y-109964320D01*
X169263676Y-109926997D01*
X169260000Y-109889674D01*
X169260000Y-109889665D01*
X169249003Y-109778012D01*
X169205546Y-109634751D01*
X169163790Y-109556632D01*
X169134974Y-109502721D01*
X169063799Y-109415995D01*
X169040001Y-109386997D01*
X169011003Y-109363199D01*
X168532302Y-108884499D01*
X168495226Y-108698102D01*
X168417205Y-108509744D01*
X168303937Y-108340226D01*
X168159774Y-108196063D01*
X167990256Y-108082795D01*
X167801898Y-108004774D01*
X167601939Y-107965000D01*
X167398061Y-107965000D01*
X167198102Y-108004774D01*
X167009744Y-108082795D01*
X166840226Y-108196063D01*
X166696063Y-108340226D01*
X166582795Y-108509744D01*
X166504774Y-108698102D01*
X166465000Y-108898061D01*
X166465000Y-109101939D01*
X166504774Y-109301898D01*
X166582689Y-109490000D01*
X164703711Y-109490000D01*
X164659774Y-109446063D01*
X164490256Y-109332795D01*
X164301898Y-109254774D01*
X164101939Y-109215000D01*
X163898061Y-109215000D01*
X163698102Y-109254774D01*
X163509744Y-109332795D01*
X163340226Y-109446063D01*
X163196063Y-109590226D01*
X163082795Y-109759744D01*
X163004774Y-109948102D01*
X162965000Y-110148061D01*
X154025825Y-110148061D01*
X154035000Y-110101939D01*
X154035000Y-109898061D01*
X153995226Y-109698102D01*
X153917205Y-109509744D01*
X153803937Y-109340226D01*
X153760000Y-109296289D01*
X153760000Y-108564801D01*
X155539802Y-106785000D01*
X155601939Y-106785000D01*
X155801898Y-106745226D01*
X155990256Y-106667205D01*
X156159774Y-106553937D01*
X156303937Y-106409774D01*
X156417205Y-106240256D01*
X156495226Y-106051898D01*
X156535000Y-105851939D01*
X156535000Y-105648061D01*
X156495226Y-105448102D01*
X156417205Y-105259744D01*
X156376290Y-105198511D01*
X157564802Y-104010000D01*
X159546289Y-104010000D01*
X159590226Y-104053937D01*
X159759744Y-104167205D01*
X159948102Y-104245226D01*
X160148061Y-104285000D01*
X160351939Y-104285000D01*
X160551898Y-104245226D01*
X160740256Y-104167205D01*
X160909774Y-104053937D01*
X161053937Y-103909774D01*
X161167205Y-103740256D01*
X161245226Y-103551898D01*
X161285000Y-103351939D01*
X161285000Y-103289801D01*
X162064802Y-102510000D01*
X171796289Y-102510000D01*
X171840226Y-102553937D01*
X172009744Y-102667205D01*
X172198102Y-102745226D01*
X172398061Y-102785000D01*
X172601939Y-102785000D01*
X172801898Y-102745226D01*
X172990256Y-102667205D01*
X173159774Y-102553937D01*
X173303937Y-102409774D01*
X173417205Y-102240256D01*
X173495226Y-102051898D01*
X173535000Y-101851939D01*
X173535000Y-101648061D01*
X173495226Y-101448102D01*
X173417205Y-101259744D01*
X173303937Y-101090226D01*
X173159774Y-100946063D01*
X172990256Y-100832795D01*
X172801898Y-100754774D01*
X172601939Y-100715000D01*
X172398061Y-100715000D01*
X172198102Y-100754774D01*
X172009744Y-100832795D01*
X171840226Y-100946063D01*
X171796289Y-100990000D01*
X161890000Y-100990000D01*
X161890000Y-98028178D01*
X162076632Y-97903475D01*
X162283475Y-97696632D01*
X162400000Y-97522240D01*
X162516525Y-97696632D01*
X162723368Y-97903475D01*
X162966589Y-98065990D01*
X163236842Y-98177932D01*
X163523740Y-98235000D01*
X163816260Y-98235000D01*
X164103158Y-98177932D01*
X164373411Y-98065990D01*
X164616632Y-97903475D01*
X164823475Y-97696632D01*
X164940000Y-97522240D01*
X165056525Y-97696632D01*
X165263368Y-97903475D01*
X165506589Y-98065990D01*
X165776842Y-98177932D01*
X166063740Y-98235000D01*
X166356260Y-98235000D01*
X166643158Y-98177932D01*
X166913411Y-98065990D01*
X167156632Y-97903475D01*
X167288487Y-97771620D01*
X167310498Y-97844180D01*
X167369463Y-97954494D01*
X167448815Y-98051185D01*
X167545506Y-98130537D01*
X167655820Y-98189502D01*
X167775518Y-98225812D01*
X167900000Y-98238072D01*
X169027897Y-98238072D01*
X169052005Y-98245385D01*
X169250000Y-98264886D01*
X169299608Y-98260000D01*
X174272377Y-98260000D01*
X174398061Y-98285000D01*
X174601939Y-98285000D01*
X174801898Y-98245226D01*
X174990256Y-98167205D01*
X175159774Y-98053937D01*
X175303937Y-97909774D01*
X175375132Y-97803223D01*
X175418355Y-97760000D01*
X179776646Y-97760000D01*
X183045744Y-101029099D01*
X183077368Y-101067633D01*
X183231161Y-101193847D01*
X183354446Y-101259744D01*
X183406621Y-101287632D01*
X183597006Y-101345385D01*
X183795001Y-101364886D01*
X183844609Y-101360000D01*
X187981645Y-101360000D01*
X192100739Y-105479094D01*
X192132367Y-105517633D01*
X192170906Y-105549261D01*
X193784322Y-107162678D01*
X193686842Y-107182068D01*
X193416589Y-107294010D01*
X193173368Y-107456525D01*
X192966525Y-107663368D01*
X192850000Y-107837760D01*
X192733475Y-107663368D01*
X192526632Y-107456525D01*
X192283411Y-107294010D01*
X192013158Y-107182068D01*
X191726260Y-107125000D01*
X191433740Y-107125000D01*
X191146842Y-107182068D01*
X190876589Y-107294010D01*
X190633368Y-107456525D01*
X190426525Y-107663368D01*
X190310000Y-107837760D01*
X190193475Y-107663368D01*
X189986632Y-107456525D01*
X189743411Y-107294010D01*
X189473158Y-107182068D01*
X189186260Y-107125000D01*
X188893740Y-107125000D01*
X188606842Y-107182068D01*
X188336589Y-107294010D01*
X188093368Y-107456525D01*
X187886525Y-107663368D01*
X187770000Y-107837760D01*
X187653475Y-107663368D01*
X187446632Y-107456525D01*
X187203411Y-107294010D01*
X186933158Y-107182068D01*
X186835677Y-107162678D01*
X188448355Y-105550000D01*
X188492458Y-105550000D01*
X188688933Y-105631383D01*
X188908212Y-105675000D01*
X189131788Y-105675000D01*
X189351067Y-105631383D01*
X189557624Y-105545824D01*
X189743520Y-105421612D01*
X189901612Y-105263520D01*
X190025824Y-105077624D01*
X190111383Y-104871067D01*
X190155000Y-104651788D01*
X190155000Y-104428212D01*
X190111383Y-104208933D01*
X190025824Y-104002376D01*
X189901612Y-103816480D01*
X189743520Y-103658388D01*
X189557624Y-103534176D01*
X189351067Y-103448617D01*
X189131788Y-103405000D01*
X188908212Y-103405000D01*
X188688933Y-103448617D01*
X188492458Y-103530000D01*
X188079604Y-103530000D01*
X188029999Y-103525114D01*
X187980394Y-103530000D01*
X187980392Y-103530000D01*
X187832006Y-103544615D01*
X187641620Y-103602368D01*
X187466160Y-103696153D01*
X187312367Y-103822367D01*
X187280739Y-103860906D01*
X184016645Y-107125000D01*
X183813740Y-107125000D01*
X183526842Y-107182068D01*
X183256589Y-107294010D01*
X183013368Y-107456525D01*
X182806525Y-107663368D01*
X182644010Y-107906589D01*
X182532068Y-108176842D01*
X182475000Y-108463740D01*
X182475000Y-108756260D01*
X182532068Y-109043158D01*
X182644010Y-109313411D01*
X182806525Y-109556632D01*
X183013368Y-109763475D01*
X183256589Y-109925990D01*
X183526842Y-110037932D01*
X183813740Y-110095000D01*
X184106260Y-110095000D01*
X184393158Y-110037932D01*
X184663411Y-109925990D01*
X184906632Y-109763475D01*
X185113475Y-109556632D01*
X185230000Y-109382240D01*
X185346525Y-109556632D01*
X185553368Y-109763475D01*
X185796589Y-109925990D01*
X186066842Y-110037932D01*
X186353740Y-110095000D01*
X186646260Y-110095000D01*
X186933158Y-110037932D01*
X187203411Y-109925990D01*
X187446632Y-109763475D01*
X187653475Y-109556632D01*
X187770000Y-109382240D01*
X187886525Y-109556632D01*
X188093368Y-109763475D01*
X188336589Y-109925990D01*
X188606842Y-110037932D01*
X188893740Y-110095000D01*
X189186260Y-110095000D01*
X189473158Y-110037932D01*
X189743411Y-109925990D01*
X189986632Y-109763475D01*
X190193475Y-109556632D01*
X190310000Y-109382240D01*
X190426525Y-109556632D01*
X190633368Y-109763475D01*
X190876589Y-109925990D01*
X191146842Y-110037932D01*
X191433740Y-110095000D01*
X191726260Y-110095000D01*
X192013158Y-110037932D01*
X192283411Y-109925990D01*
X192526632Y-109763475D01*
X192733475Y-109556632D01*
X192850000Y-109382240D01*
X192966525Y-109556632D01*
X193173368Y-109763475D01*
X193416589Y-109925990D01*
X193686842Y-110037932D01*
X193973740Y-110095000D01*
X194266260Y-110095000D01*
X194553158Y-110037932D01*
X194823411Y-109925990D01*
X195066632Y-109763475D01*
X195273475Y-109556632D01*
X195390000Y-109382240D01*
X195506525Y-109556632D01*
X195713368Y-109763475D01*
X195956589Y-109925990D01*
X196226842Y-110037932D01*
X196513740Y-110095000D01*
X196806260Y-110095000D01*
X197093158Y-110037932D01*
X197363411Y-109925990D01*
X197606632Y-109763475D01*
X197813475Y-109556632D01*
X197975990Y-109313411D01*
X198087932Y-109043158D01*
X198145000Y-108756260D01*
X198145000Y-108463740D01*
X198087932Y-108176842D01*
X197975990Y-107906589D01*
X197813475Y-107663368D01*
X197606632Y-107456525D01*
X197363411Y-107294010D01*
X197093158Y-107182068D01*
X196806260Y-107125000D01*
X196603356Y-107125000D01*
X195288355Y-105810000D01*
X199631645Y-105810000D01*
X200769990Y-106948345D01*
X200769991Y-120945654D01*
X200565926Y-121149719D01*
X200545990Y-121101588D01*
X200383475Y-120858367D01*
X200176632Y-120651524D01*
X199933411Y-120489009D01*
X199663158Y-120377067D01*
X199376260Y-120319999D01*
X199083740Y-120319999D01*
X198863592Y-120363789D01*
X193818805Y-115319003D01*
X193795002Y-115289999D01*
X193679277Y-115195026D01*
X193547248Y-115124454D01*
X193403987Y-115080997D01*
X193292334Y-115070000D01*
X193292323Y-115070000D01*
X193255001Y-115066324D01*
X193217679Y-115070000D01*
X185513711Y-115070000D01*
X185469774Y-115026063D01*
X185300256Y-114912795D01*
X185111898Y-114834774D01*
X184911939Y-114795000D01*
X184708061Y-114795000D01*
X184508102Y-114834774D01*
X184319744Y-114912795D01*
X184150226Y-115026063D01*
X184006063Y-115170226D01*
X183892795Y-115339744D01*
X183814774Y-115528102D01*
X183775000Y-115728061D01*
X183775000Y-115931939D01*
X183814774Y-116131898D01*
X183892795Y-116320256D01*
X184006063Y-116489774D01*
X184150226Y-116633937D01*
X184319744Y-116747205D01*
X184508102Y-116825226D01*
X184708061Y-116865000D01*
X184911939Y-116865000D01*
X185111898Y-116825226D01*
X185300256Y-116747205D01*
X185469774Y-116633937D01*
X185513711Y-116590000D01*
X192940200Y-116590000D01*
X196670198Y-120319999D01*
X196543740Y-120319999D01*
X196256842Y-120377067D01*
X195986589Y-120489009D01*
X195743368Y-120651524D01*
X195536525Y-120858367D01*
X195420000Y-121032759D01*
X195303475Y-120858367D01*
X195096632Y-120651524D01*
X194853411Y-120489009D01*
X194583158Y-120377067D01*
X194296260Y-120319999D01*
X194003740Y-120319999D01*
X193716842Y-120377067D01*
X193446589Y-120489009D01*
X193203368Y-120651524D01*
X192996525Y-120858367D01*
X192880000Y-121032759D01*
X192763475Y-120858367D01*
X192556632Y-120651524D01*
X192313411Y-120489009D01*
X192043158Y-120377067D01*
X191756260Y-120319999D01*
X191463740Y-120319999D01*
X191176842Y-120377067D01*
X190906589Y-120489009D01*
X190663368Y-120651524D01*
X190456525Y-120858367D01*
X190340000Y-121032759D01*
X190223475Y-120858367D01*
X190016632Y-120651524D01*
X189773411Y-120489009D01*
X189503158Y-120377067D01*
X189216260Y-120319999D01*
X188923740Y-120319999D01*
X188636842Y-120377067D01*
X188366589Y-120489009D01*
X188123368Y-120651524D01*
X187916525Y-120858367D01*
X187800000Y-121032759D01*
X187683475Y-120858367D01*
X187476632Y-120651524D01*
X187233411Y-120489009D01*
X186963158Y-120377067D01*
X186676260Y-120319999D01*
X186383740Y-120319999D01*
X186096842Y-120377067D01*
X185826589Y-120489009D01*
X185583368Y-120651524D01*
X185376525Y-120858367D01*
X185260000Y-121032759D01*
X185143475Y-120858367D01*
X184936632Y-120651524D01*
X184693411Y-120489009D01*
X184423158Y-120377067D01*
X184136260Y-120319999D01*
X183843740Y-120319999D01*
X183556842Y-120377067D01*
X183286589Y-120489009D01*
X183043368Y-120651524D01*
X182836525Y-120858367D01*
X182674010Y-121101588D01*
X182562068Y-121371841D01*
X182505000Y-121658739D01*
X182505000Y-121951259D01*
X182562068Y-122238157D01*
X182674010Y-122508410D01*
X182836525Y-122751631D01*
X183043368Y-122958474D01*
X183286589Y-123120989D01*
X183556842Y-123232931D01*
X183843740Y-123289999D01*
X184136260Y-123289999D01*
X184423158Y-123232931D01*
X184693411Y-123120989D01*
X184936632Y-122958474D01*
X185143475Y-122751631D01*
X185260000Y-122577239D01*
X185376525Y-122751631D01*
X185583368Y-122958474D01*
X185826589Y-123120989D01*
X186096842Y-123232931D01*
X186383740Y-123289999D01*
X186676260Y-123289999D01*
X186963158Y-123232931D01*
X187233411Y-123120989D01*
X187476632Y-122958474D01*
X187683475Y-122751631D01*
X187800000Y-122577239D01*
X187916525Y-122751631D01*
X188123368Y-122958474D01*
X188366589Y-123120989D01*
X188636842Y-123232931D01*
X188923740Y-123289999D01*
X189216260Y-123289999D01*
X189503158Y-123232931D01*
X189773411Y-123120989D01*
X190016632Y-122958474D01*
X190223475Y-122751631D01*
X190340000Y-122577239D01*
X190456525Y-122751631D01*
X190663368Y-122958474D01*
X190906589Y-123120989D01*
X191079170Y-123192474D01*
X183688072Y-130583573D01*
X183688072Y-129950000D01*
X183675812Y-129825518D01*
X183639502Y-129705820D01*
X183580537Y-129595506D01*
X183501185Y-129498815D01*
X183404494Y-129419463D01*
X183294180Y-129360498D01*
X183174482Y-129324188D01*
X183050000Y-129311928D01*
X181350000Y-129311928D01*
X181225518Y-129324188D01*
X181105820Y-129360498D01*
X180995506Y-129419463D01*
X180898815Y-129498815D01*
X180819463Y-129595506D01*
X180760498Y-129705820D01*
X180738487Y-129778380D01*
X180606632Y-129646525D01*
X180363411Y-129484010D01*
X180093158Y-129372068D01*
X179806260Y-129315000D01*
X179513740Y-129315000D01*
X179226842Y-129372068D01*
X178956589Y-129484010D01*
X178713368Y-129646525D01*
X178506525Y-129853368D01*
X178344010Y-130096589D01*
X178232068Y-130366842D01*
X178175000Y-130653740D01*
X178175000Y-130946260D01*
X178232068Y-131233158D01*
X178344010Y-131503411D01*
X178506525Y-131746632D01*
X178713368Y-131953475D01*
X178956589Y-132115990D01*
X179226842Y-132227932D01*
X179513740Y-132285000D01*
X179806260Y-132285000D01*
X180093158Y-132227932D01*
X180363411Y-132115990D01*
X180606632Y-131953475D01*
X180738487Y-131821620D01*
X180760498Y-131894180D01*
X180819463Y-132004494D01*
X180898815Y-132101185D01*
X180995506Y-132180537D01*
X181105820Y-132239502D01*
X181225518Y-132275812D01*
X181350000Y-132288072D01*
X181983573Y-132288072D01*
X176690906Y-137580739D01*
X176652367Y-137612367D01*
X176526153Y-137766160D01*
X176432369Y-137941620D01*
X176432368Y-137941621D01*
X176374615Y-138132006D01*
X176355114Y-138330000D01*
X176360000Y-138379608D01*
X176360000Y-139270482D01*
X176301185Y-139198815D01*
X176204494Y-139119463D01*
X176094180Y-139060498D01*
X175974482Y-139024188D01*
X175850000Y-139011928D01*
X174150000Y-139011928D01*
X174025518Y-139024188D01*
X173905820Y-139060498D01*
X173795506Y-139119463D01*
X173698815Y-139198815D01*
X173619463Y-139295506D01*
X173560498Y-139405820D01*
X173538487Y-139478380D01*
X173406632Y-139346525D01*
X173163411Y-139184010D01*
X172893158Y-139072068D01*
X172606260Y-139015000D01*
X172313740Y-139015000D01*
X172026842Y-139072068D01*
X171756589Y-139184010D01*
X171513368Y-139346525D01*
X171306525Y-139553368D01*
X171190000Y-139727760D01*
X171073475Y-139553368D01*
X170866632Y-139346525D01*
X170623411Y-139184010D01*
X170353158Y-139072068D01*
X170066260Y-139015000D01*
X169773740Y-139015000D01*
X169486842Y-139072068D01*
X169216589Y-139184010D01*
X168973368Y-139346525D01*
X168766525Y-139553368D01*
X168650000Y-139727760D01*
X168533475Y-139553368D01*
X168326632Y-139346525D01*
X168083411Y-139184010D01*
X167813158Y-139072068D01*
X167526260Y-139015000D01*
X167233740Y-139015000D01*
X166946842Y-139072068D01*
X166676589Y-139184010D01*
X166433368Y-139346525D01*
X166226525Y-139553368D01*
X166064010Y-139796589D01*
X165952068Y-140066842D01*
X165895000Y-140353740D01*
X165895000Y-140646260D01*
X165952068Y-140933158D01*
X166064010Y-141203411D01*
X166226525Y-141446632D01*
X166433368Y-141653475D01*
X166607760Y-141770000D01*
X166433368Y-141886525D01*
X166226525Y-142093368D01*
X166110000Y-142267760D01*
X165993475Y-142093368D01*
X165786632Y-141886525D01*
X165543411Y-141724010D01*
X165273158Y-141612068D01*
X164986260Y-141555000D01*
X164693740Y-141555000D01*
X164406842Y-141612068D01*
X164136589Y-141724010D01*
X163893368Y-141886525D01*
X163749893Y-142030000D01*
X163390107Y-142030000D01*
X163246632Y-141886525D01*
X163003411Y-141724010D01*
X162733158Y-141612068D01*
X162446260Y-141555000D01*
X162153740Y-141555000D01*
X161866842Y-141612068D01*
X161596589Y-141724010D01*
X161353368Y-141886525D01*
X161146525Y-142093368D01*
X160984010Y-142336589D01*
X160872068Y-142606842D01*
X160815000Y-142893740D01*
X160815000Y-143186260D01*
X160872068Y-143473158D01*
X160984010Y-143743411D01*
X161146525Y-143986632D01*
X161353368Y-144193475D01*
X161596589Y-144355990D01*
X161866842Y-144467932D01*
X162153740Y-144525000D01*
X162446260Y-144525000D01*
X162733158Y-144467932D01*
X163003411Y-144355990D01*
X163246632Y-144193475D01*
X163390107Y-144050000D01*
X163749893Y-144050000D01*
X163893368Y-144193475D01*
X164136589Y-144355990D01*
X164406842Y-144467932D01*
X164693740Y-144525000D01*
X164896644Y-144525000D01*
X165515744Y-145144100D01*
X165547368Y-145182634D01*
X165701161Y-145308848D01*
X165876621Y-145402633D01*
X166067006Y-145460386D01*
X166265001Y-145479887D01*
X166314609Y-145475001D01*
X175634393Y-145475001D01*
X175684001Y-145479887D01*
X175881995Y-145460386D01*
X176072381Y-145402633D01*
X176247841Y-145308848D01*
X176401634Y-145182634D01*
X176433262Y-145144095D01*
X178049099Y-143528258D01*
X178087633Y-143496635D01*
X178213847Y-143342842D01*
X178307632Y-143167382D01*
X178346273Y-143040000D01*
X178365385Y-142976997D01*
X178384886Y-142779002D01*
X178380000Y-142729394D01*
X178380000Y-142526444D01*
X180480202Y-142526444D01*
X180480202Y-142973556D01*
X180567429Y-143412076D01*
X180738531Y-143825153D01*
X180986932Y-144196912D01*
X181303088Y-144513068D01*
X181674847Y-144761469D01*
X182087924Y-144932571D01*
X182526444Y-145019798D01*
X182973556Y-145019798D01*
X183412076Y-144932571D01*
X183825153Y-144761469D01*
X184196912Y-144513068D01*
X184513068Y-144196912D01*
X184761469Y-143825153D01*
X184932571Y-143412076D01*
X185019798Y-142973556D01*
X185019798Y-142526444D01*
X184932571Y-142087924D01*
X184761469Y-141674847D01*
X184513068Y-141303088D01*
X184196912Y-140986932D01*
X183825153Y-140738531D01*
X183412076Y-140567429D01*
X182973556Y-140480202D01*
X182526444Y-140480202D01*
X182087924Y-140567429D01*
X181674847Y-140738531D01*
X181303088Y-140986932D01*
X180986932Y-141303088D01*
X180738531Y-141674847D01*
X180567429Y-142087924D01*
X180480202Y-142526444D01*
X178380000Y-142526444D01*
X178380000Y-138748355D01*
X192888356Y-124240000D01*
X192985393Y-124240000D01*
X193035001Y-124244886D01*
X193084609Y-124240000D01*
X199864393Y-124240000D01*
X199914001Y-124244886D01*
X200111995Y-124225385D01*
X200302381Y-124167632D01*
X200477841Y-124073847D01*
X200631634Y-123947633D01*
X200663262Y-123909094D01*
X202459090Y-122113267D01*
X202497623Y-122081644D01*
X202623837Y-121927851D01*
X202717622Y-121752391D01*
X202746858Y-121656013D01*
X202775375Y-121562006D01*
X202794876Y-121364011D01*
X202789990Y-121314403D01*
X202789990Y-106579594D01*
X202794876Y-106529989D01*
X202787138Y-106451425D01*
X202775375Y-106331996D01*
X202717622Y-106141610D01*
X202623837Y-105966150D01*
X202497623Y-105812357D01*
X202459084Y-105780729D01*
X200799261Y-104120906D01*
X200767633Y-104082367D01*
X200613840Y-103956153D01*
X200438380Y-103862368D01*
X200247994Y-103804615D01*
X200099608Y-103790000D01*
X200050000Y-103785114D01*
X200000392Y-103790000D01*
X193268355Y-103790000D01*
X189149261Y-99670906D01*
X189117633Y-99632367D01*
X188963840Y-99506153D01*
X188788380Y-99412368D01*
X188597994Y-99354615D01*
X188449608Y-99340000D01*
X188400000Y-99335114D01*
X188350392Y-99340000D01*
X184213357Y-99340000D01*
X180944262Y-96070906D01*
X180912634Y-96032367D01*
X180758841Y-95906153D01*
X180583381Y-95812368D01*
X180392995Y-95754615D01*
X180244609Y-95740000D01*
X180195001Y-95735114D01*
X180145393Y-95740000D01*
X176010000Y-95740000D01*
X176010000Y-91736323D01*
X215570497Y-91736323D01*
X215570497Y-92163677D01*
X215653870Y-92582821D01*
X215817412Y-92977645D01*
X216054837Y-93332977D01*
X216357023Y-93635163D01*
X216712355Y-93872588D01*
X217107179Y-94036130D01*
X217526323Y-94119503D01*
X217953677Y-94119503D01*
X218372821Y-94036130D01*
X218767645Y-93872588D01*
X219122977Y-93635163D01*
X219425163Y-93332977D01*
X219662588Y-92977645D01*
X219826130Y-92582821D01*
X219909503Y-92163677D01*
X219909503Y-91736323D01*
X227670497Y-91736323D01*
X227670497Y-92163677D01*
X227753870Y-92582821D01*
X227917412Y-92977645D01*
X228154837Y-93332977D01*
X228457023Y-93635163D01*
X228812355Y-93872588D01*
X229207179Y-94036130D01*
X229626323Y-94119503D01*
X230053677Y-94119503D01*
X230472821Y-94036130D01*
X230867645Y-93872588D01*
X231222977Y-93635163D01*
X231525163Y-93332977D01*
X231762588Y-92977645D01*
X231926130Y-92582821D01*
X232009503Y-92163677D01*
X232009503Y-91736323D01*
X231926130Y-91317179D01*
X231762588Y-90922355D01*
X231525163Y-90567023D01*
X231222977Y-90264837D01*
X230867645Y-90027412D01*
X230472821Y-89863870D01*
X230053677Y-89780497D01*
X229626323Y-89780497D01*
X229207179Y-89863870D01*
X228812355Y-90027412D01*
X228457023Y-90264837D01*
X228154837Y-90567023D01*
X227917412Y-90922355D01*
X227753870Y-91317179D01*
X227670497Y-91736323D01*
X219909503Y-91736323D01*
X219826130Y-91317179D01*
X219662588Y-90922355D01*
X219425163Y-90567023D01*
X219122977Y-90264837D01*
X218767645Y-90027412D01*
X218372821Y-89863870D01*
X217953677Y-89780497D01*
X217526323Y-89780497D01*
X217107179Y-89863870D01*
X216712355Y-90027412D01*
X216357023Y-90264837D01*
X216054837Y-90567023D01*
X215817412Y-90922355D01*
X215653870Y-91317179D01*
X215570497Y-91736323D01*
X176010000Y-91736323D01*
X176010000Y-87777542D01*
X176091383Y-87581067D01*
X176135000Y-87361788D01*
X176135000Y-87138212D01*
X176091383Y-86918933D01*
X176005824Y-86712376D01*
X175881612Y-86526480D01*
X175723520Y-86368388D01*
X175537624Y-86244176D01*
X175331067Y-86158617D01*
X175111788Y-86115000D01*
X174888212Y-86115000D01*
X174668933Y-86158617D01*
X174462376Y-86244176D01*
X174276480Y-86368388D01*
X174118388Y-86526480D01*
X173994176Y-86712376D01*
X173908617Y-86918933D01*
X173865000Y-87138212D01*
X173865000Y-87361788D01*
X173908617Y-87581067D01*
X173990000Y-87777542D01*
X173990001Y-96240000D01*
X170238072Y-96240000D01*
X170238072Y-95900000D01*
X170225812Y-95775518D01*
X170189502Y-95655820D01*
X170130537Y-95545506D01*
X170051185Y-95448815D01*
X169954494Y-95369463D01*
X169844180Y-95310498D01*
X169724482Y-95274188D01*
X169600000Y-95261928D01*
X167900000Y-95261928D01*
X167775518Y-95274188D01*
X167655820Y-95310498D01*
X167545506Y-95369463D01*
X167448815Y-95448815D01*
X167369463Y-95545506D01*
X167310498Y-95655820D01*
X167288487Y-95728380D01*
X167156632Y-95596525D01*
X166913411Y-95434010D01*
X166643158Y-95322068D01*
X166356260Y-95265000D01*
X166063740Y-95265000D01*
X165776842Y-95322068D01*
X165506589Y-95434010D01*
X165263368Y-95596525D01*
X165056525Y-95803368D01*
X164940000Y-95977760D01*
X164823475Y-95803368D01*
X164616632Y-95596525D01*
X164373411Y-95434010D01*
X164103158Y-95322068D01*
X163816260Y-95265000D01*
X163523740Y-95265000D01*
X163236842Y-95322068D01*
X162966589Y-95434010D01*
X162723368Y-95596525D01*
X162516525Y-95803368D01*
X162400000Y-95977760D01*
X162283475Y-95803368D01*
X162076632Y-95596525D01*
X161833411Y-95434010D01*
X161563158Y-95322068D01*
X161276260Y-95265000D01*
X160983740Y-95265000D01*
X160696842Y-95322068D01*
X160426589Y-95434010D01*
X160183368Y-95596525D01*
X159976525Y-95803368D01*
X159814010Y-96046589D01*
X159702068Y-96316842D01*
X159645000Y-96603740D01*
X159645000Y-96896260D01*
X159702068Y-97183158D01*
X159814010Y-97453411D01*
X159976525Y-97696632D01*
X160183368Y-97903475D01*
X160370000Y-98028179D01*
X160370001Y-101418788D01*
X160298789Y-101490000D01*
X160214320Y-101490000D01*
X160176997Y-101486324D01*
X160139674Y-101490000D01*
X160139665Y-101490000D01*
X160028012Y-101500997D01*
X159884751Y-101544454D01*
X159752722Y-101615026D01*
X159636997Y-101709999D01*
X159613198Y-101738998D01*
X159312207Y-102039990D01*
X158149066Y-102039990D01*
X157100930Y-102039992D01*
X157063598Y-102036315D01*
X156914612Y-102050989D01*
X156771352Y-102094445D01*
X156639322Y-102165017D01*
X156552596Y-102236192D01*
X156552591Y-102236197D01*
X156523598Y-102259991D01*
X156499804Y-102288984D01*
X154795797Y-103992992D01*
X154795792Y-103992996D01*
X154239002Y-104549787D01*
X154209999Y-104573589D01*
X154154871Y-104640764D01*
X154115026Y-104689314D01*
X154080037Y-104754774D01*
X154044454Y-104821344D01*
X154000997Y-104964605D01*
X153990000Y-105076258D01*
X153990000Y-105076268D01*
X153986324Y-105113590D01*
X153990000Y-105150912D01*
X153990000Y-105548787D01*
X152545793Y-106992996D01*
X152498799Y-107039990D01*
X148664341Y-107039990D01*
X148627008Y-107036313D01*
X148589675Y-107039990D01*
X148478022Y-107050987D01*
X148334761Y-107094444D01*
X148202732Y-107165016D01*
X148087007Y-107259989D01*
X148063209Y-107288987D01*
X146348706Y-109003491D01*
X146275165Y-109033953D01*
X146105647Y-109147221D01*
X145961484Y-109291384D01*
X145848216Y-109460902D01*
X145770195Y-109649260D01*
X145730421Y-109849219D01*
X135030000Y-109849219D01*
X135030000Y-97848816D01*
X145755000Y-97848816D01*
X145755000Y-98151184D01*
X145813989Y-98447743D01*
X145929701Y-98727095D01*
X146097688Y-98978505D01*
X146311495Y-99192312D01*
X146562905Y-99360299D01*
X146842257Y-99476011D01*
X147138816Y-99535000D01*
X147441184Y-99535000D01*
X147737743Y-99476011D01*
X148017095Y-99360299D01*
X148268505Y-99192312D01*
X148482312Y-98978505D01*
X148650299Y-98727095D01*
X148766011Y-98447743D01*
X148825000Y-98151184D01*
X148825000Y-97848816D01*
X148766011Y-97552257D01*
X148650299Y-97272905D01*
X148482312Y-97021495D01*
X148268505Y-96807688D01*
X148017095Y-96639701D01*
X147737743Y-96523989D01*
X147441184Y-96465000D01*
X147138816Y-96465000D01*
X146842257Y-96523989D01*
X146562905Y-96639701D01*
X146311495Y-96807688D01*
X146097688Y-97021495D01*
X145929701Y-97272905D01*
X145813989Y-97552257D01*
X145755000Y-97848816D01*
X135030000Y-97848816D01*
X135030000Y-79248355D01*
X135408355Y-78870000D01*
X140231645Y-78870000D01*
X145351644Y-83990000D01*
X141109604Y-83990000D01*
X141059999Y-83985114D01*
X141010394Y-83990000D01*
X141010392Y-83990000D01*
X140862006Y-84004615D01*
X140671620Y-84062368D01*
X140496160Y-84156153D01*
X140342367Y-84282367D01*
X140310739Y-84320906D01*
X138797322Y-85834323D01*
X138777932Y-85736842D01*
X138665990Y-85466589D01*
X138503475Y-85223368D01*
X138296632Y-85016525D01*
X138122240Y-84900000D01*
X138296632Y-84783475D01*
X138503475Y-84576632D01*
X138665990Y-84333411D01*
X138777932Y-84063158D01*
X138835000Y-83776260D01*
X138835000Y-83483740D01*
X138777932Y-83196842D01*
X138665990Y-82926589D01*
X138503475Y-82683368D01*
X138296632Y-82476525D01*
X138053411Y-82314010D01*
X137783158Y-82202068D01*
X137496260Y-82145000D01*
X137203740Y-82145000D01*
X136916842Y-82202068D01*
X136646589Y-82314010D01*
X136403368Y-82476525D01*
X136196525Y-82683368D01*
X136034010Y-82926589D01*
X135922068Y-83196842D01*
X135865000Y-83483740D01*
X135865000Y-83776260D01*
X135922068Y-84063158D01*
X136034010Y-84333411D01*
X136196525Y-84576632D01*
X136403368Y-84783475D01*
X136577760Y-84900000D01*
X136403368Y-85016525D01*
X136196525Y-85223368D01*
X136034010Y-85466589D01*
X135922068Y-85736842D01*
X135865000Y-86023740D01*
X135865000Y-86316260D01*
X135922068Y-86603158D01*
X136034010Y-86873411D01*
X136196525Y-87116632D01*
X136403368Y-87323475D01*
X136577760Y-87440000D01*
X136403368Y-87556525D01*
X136196525Y-87763368D01*
X136034010Y-88006589D01*
X135922068Y-88276842D01*
X135865000Y-88563740D01*
X135865000Y-88856260D01*
X135922068Y-89143158D01*
X136034010Y-89413411D01*
X136196525Y-89656632D01*
X136403368Y-89863475D01*
X136577760Y-89980000D01*
X136403368Y-90096525D01*
X136196525Y-90303368D01*
X136034010Y-90546589D01*
X135922068Y-90816842D01*
X135865000Y-91103740D01*
X135865000Y-91396260D01*
X135922068Y-91683158D01*
X136034010Y-91953411D01*
X136196525Y-92196632D01*
X136328380Y-92328487D01*
X136255820Y-92350498D01*
X136145506Y-92409463D01*
X136048815Y-92488815D01*
X135969463Y-92585506D01*
X135910498Y-92695820D01*
X135874188Y-92815518D01*
X135861928Y-92940000D01*
X135861928Y-94640000D01*
X135874188Y-94764482D01*
X135910498Y-94884180D01*
X135969463Y-94994494D01*
X136048815Y-95091185D01*
X136145506Y-95170537D01*
X136255820Y-95229502D01*
X136375518Y-95265812D01*
X136500000Y-95278072D01*
X138200000Y-95278072D01*
X138324482Y-95265812D01*
X138444180Y-95229502D01*
X138554494Y-95170537D01*
X138651185Y-95091185D01*
X138730537Y-94994494D01*
X138789502Y-94884180D01*
X138825812Y-94764482D01*
X138838072Y-94640000D01*
X138838072Y-92940000D01*
X138825812Y-92815518D01*
X138789502Y-92695820D01*
X138730537Y-92585506D01*
X138651185Y-92488815D01*
X138554494Y-92409463D01*
X138444180Y-92350498D01*
X138371620Y-92328487D01*
X138503475Y-92196632D01*
X138665990Y-91953411D01*
X138777932Y-91683158D01*
X138835000Y-91396260D01*
X138835000Y-91103740D01*
X138777932Y-90816842D01*
X138665990Y-90546589D01*
X138503475Y-90303368D01*
X138296632Y-90096525D01*
X138122240Y-89980000D01*
X138296632Y-89863475D01*
X138503475Y-89656632D01*
X138665990Y-89413411D01*
X138777932Y-89143158D01*
X138835000Y-88856260D01*
X138835000Y-88653355D01*
X141478355Y-86010000D01*
X147720392Y-86010000D01*
X147770000Y-86014886D01*
X147819607Y-86010000D01*
X154950392Y-86010000D01*
X155000000Y-86014886D01*
X155197994Y-85995385D01*
X155263925Y-85975385D01*
X155388380Y-85937632D01*
X155563840Y-85843847D01*
X155717633Y-85717633D01*
X155749261Y-85679094D01*
X157668356Y-83760000D01*
X171860392Y-83760000D01*
X171910000Y-83764886D01*
X172107994Y-83745385D01*
X172249805Y-83702367D01*
X172298380Y-83687632D01*
X172473840Y-83593847D01*
X172627633Y-83467633D01*
X172659261Y-83429094D01*
X176801149Y-79287207D01*
X176987542Y-79210000D01*
X178250392Y-79210000D01*
X178300000Y-79214886D01*
X178497994Y-79195385D01*
X178688380Y-79137632D01*
X178863840Y-79043847D01*
X179017633Y-78917633D01*
X179049260Y-78879095D01*
X179418356Y-78510000D01*
X189081645Y-78510000D01*
X195670744Y-85099100D01*
X195702367Y-85137633D01*
X195856160Y-85263847D01*
X195917497Y-85296632D01*
X196031620Y-85357632D01*
X196222005Y-85415385D01*
X196420000Y-85434886D01*
X196469608Y-85430000D01*
X200519893Y-85430000D01*
X200593368Y-85503475D01*
X200767760Y-85620000D01*
X200593368Y-85736525D01*
X200386525Y-85943368D01*
X200224010Y-86186589D01*
X200112068Y-86456842D01*
X200055000Y-86743740D01*
X200055000Y-87036260D01*
X200112068Y-87323158D01*
X200224010Y-87593411D01*
X200386525Y-87836632D01*
X200518380Y-87968487D01*
X200445820Y-87990498D01*
X200335506Y-88049463D01*
X200238815Y-88128815D01*
X200159463Y-88225506D01*
X200100498Y-88335820D01*
X200064188Y-88455518D01*
X200051928Y-88580000D01*
X200051928Y-90280000D01*
X200064188Y-90404482D01*
X200100498Y-90524180D01*
X200159463Y-90634494D01*
X200238815Y-90731185D01*
X200335506Y-90810537D01*
X200445820Y-90869502D01*
X200565518Y-90905812D01*
X200690000Y-90918072D01*
X202390000Y-90918072D01*
X202514482Y-90905812D01*
X202634180Y-90869502D01*
X202744494Y-90810537D01*
X202841185Y-90731185D01*
X202920537Y-90634494D01*
X202979502Y-90524180D01*
X203015812Y-90404482D01*
X203028072Y-90280000D01*
X203028072Y-88580000D01*
X203015812Y-88455518D01*
X202979502Y-88335820D01*
X202920537Y-88225506D01*
X202841185Y-88128815D01*
X202744494Y-88049463D01*
X202634180Y-87990498D01*
X202561620Y-87968487D01*
X202693475Y-87836632D01*
X202855990Y-87593411D01*
X202967932Y-87323158D01*
X203025000Y-87036260D01*
X203025000Y-86743740D01*
X202967932Y-86456842D01*
X202855990Y-86186589D01*
X202693475Y-85943368D01*
X202486632Y-85736525D01*
X202312240Y-85620000D01*
X202486632Y-85503475D01*
X202693475Y-85296632D01*
X202855990Y-85053411D01*
X202967932Y-84783158D01*
X203025000Y-84496260D01*
X203025000Y-84203740D01*
X202967932Y-83916842D01*
X202855990Y-83646589D01*
X202693475Y-83403368D01*
X202486632Y-83196525D01*
X202312240Y-83080000D01*
X202486632Y-82963475D01*
X202693475Y-82756632D01*
X202855990Y-82513411D01*
X202967932Y-82243158D01*
X203025000Y-81956260D01*
X203025000Y-81663740D01*
X202967932Y-81376842D01*
X202855990Y-81106589D01*
X202693475Y-80863368D01*
X202486632Y-80656525D01*
X202312240Y-80540000D01*
X202486632Y-80423475D01*
X202693475Y-80216632D01*
X202855990Y-79973411D01*
X202967932Y-79703158D01*
X203025000Y-79416260D01*
X203025000Y-79123740D01*
X202967932Y-78836842D01*
X202855990Y-78566589D01*
X202693475Y-78323368D01*
X202486632Y-78116525D01*
X202243411Y-77954010D01*
X201973158Y-77842068D01*
X201686260Y-77785000D01*
X201393740Y-77785000D01*
X201106842Y-77842068D01*
X200836589Y-77954010D01*
X200593368Y-78116525D01*
X200386525Y-78323368D01*
X200224010Y-78566589D01*
X200112068Y-78836842D01*
X200055000Y-79123740D01*
X200055000Y-79416260D01*
X200112068Y-79703158D01*
X200224010Y-79973411D01*
X200386525Y-80216632D01*
X200593368Y-80423475D01*
X200767760Y-80540000D01*
X200593368Y-80656525D01*
X200386525Y-80863368D01*
X200224010Y-81106589D01*
X200112068Y-81376842D01*
X200055000Y-81663740D01*
X200055000Y-81956260D01*
X200112068Y-82243158D01*
X200224010Y-82513411D01*
X200386525Y-82756632D01*
X200593368Y-82963475D01*
X200767760Y-83080000D01*
X200593368Y-83196525D01*
X200386525Y-83403368D01*
X200382094Y-83410000D01*
X196838356Y-83410000D01*
X190249261Y-76820906D01*
X190217633Y-76782367D01*
X190063840Y-76656153D01*
X189888380Y-76562368D01*
X189697994Y-76504615D01*
X189549608Y-76490000D01*
X189500000Y-76485114D01*
X189450392Y-76490000D01*
X179049597Y-76490000D01*
X178999999Y-76485115D01*
X178950401Y-76490000D01*
X178950392Y-76490000D01*
X178802006Y-76504615D01*
X178611620Y-76562368D01*
X178436160Y-76656153D01*
X178282367Y-76782367D01*
X178250743Y-76820901D01*
X177881645Y-77190000D01*
X176987542Y-77190000D01*
X176791067Y-77108617D01*
X176571788Y-77065000D01*
X176348212Y-77065000D01*
X176128933Y-77108617D01*
X175922376Y-77194176D01*
X175736480Y-77318388D01*
X175578388Y-77476480D01*
X175454176Y-77662376D01*
X175372793Y-77858851D01*
X171491645Y-81740000D01*
X157299608Y-81740000D01*
X157250000Y-81735114D01*
X157052005Y-81754615D01*
X156861620Y-81812368D01*
X156686160Y-81906153D01*
X156532367Y-82032367D01*
X156500744Y-82070900D01*
X154581645Y-83990000D01*
X148208356Y-83990000D01*
X141399261Y-77180906D01*
X141367633Y-77142367D01*
X141213840Y-77016153D01*
X141038380Y-76922368D01*
X140847994Y-76864615D01*
X140699608Y-76850000D01*
X140650000Y-76845114D01*
X140600392Y-76850000D01*
X135039604Y-76850000D01*
X134989999Y-76845114D01*
X134940394Y-76850000D01*
X134940392Y-76850000D01*
X134792006Y-76864615D01*
X134601620Y-76922368D01*
X134426160Y-77016153D01*
X134272367Y-77142367D01*
X134240739Y-77180906D01*
X133340906Y-78080739D01*
X133302367Y-78112367D01*
X133176153Y-78266160D01*
X133091872Y-78423840D01*
X133082368Y-78441621D01*
X133024615Y-78632006D01*
X133005114Y-78830000D01*
X98950000Y-78830000D01*
X98950000Y-72026323D01*
X104730497Y-72026323D01*
X104730497Y-72453677D01*
X104813870Y-72872821D01*
X104977412Y-73267645D01*
X105214837Y-73622977D01*
X105517023Y-73925163D01*
X105872355Y-74162588D01*
X106267179Y-74326130D01*
X106686323Y-74409503D01*
X107113677Y-74409503D01*
X107532821Y-74326130D01*
X107927645Y-74162588D01*
X108282977Y-73925163D01*
X108585163Y-73622977D01*
X108822588Y-73267645D01*
X108986130Y-72872821D01*
X109069503Y-72453677D01*
X109069503Y-72026323D01*
X116830497Y-72026323D01*
X116830497Y-72453677D01*
X116913870Y-72872821D01*
X117077412Y-73267645D01*
X117314837Y-73622977D01*
X117617023Y-73925163D01*
X117972355Y-74162588D01*
X118367179Y-74326130D01*
X118786323Y-74409503D01*
X119213677Y-74409503D01*
X119632821Y-74326130D01*
X120027645Y-74162588D01*
X120382977Y-73925163D01*
X120685163Y-73622977D01*
X120922588Y-73267645D01*
X121086130Y-72872821D01*
X121169503Y-72453677D01*
X121169503Y-72026323D01*
X121131710Y-71836323D01*
X215570497Y-71836323D01*
X215570497Y-72263677D01*
X215653870Y-72682821D01*
X215817412Y-73077645D01*
X216054837Y-73432977D01*
X216357023Y-73735163D01*
X216712355Y-73972588D01*
X217107179Y-74136130D01*
X217526323Y-74219503D01*
X217953677Y-74219503D01*
X218372821Y-74136130D01*
X218767645Y-73972588D01*
X219122977Y-73735163D01*
X219425163Y-73432977D01*
X219662588Y-73077645D01*
X219826130Y-72682821D01*
X219909503Y-72263677D01*
X219909503Y-71836323D01*
X227670497Y-71836323D01*
X227670497Y-72263677D01*
X227753870Y-72682821D01*
X227917412Y-73077645D01*
X228154837Y-73432977D01*
X228457023Y-73735163D01*
X228812355Y-73972588D01*
X229207179Y-74136130D01*
X229626323Y-74219503D01*
X230053677Y-74219503D01*
X230472821Y-74136130D01*
X230867645Y-73972588D01*
X231222977Y-73735163D01*
X231525163Y-73432977D01*
X231762588Y-73077645D01*
X231926130Y-72682821D01*
X232009503Y-72263677D01*
X232009503Y-71836323D01*
X231926130Y-71417179D01*
X231762588Y-71022355D01*
X231525163Y-70667023D01*
X231222977Y-70364837D01*
X230867645Y-70127412D01*
X230472821Y-69963870D01*
X230053677Y-69880497D01*
X229626323Y-69880497D01*
X229207179Y-69963870D01*
X228812355Y-70127412D01*
X228457023Y-70364837D01*
X228154837Y-70667023D01*
X227917412Y-71022355D01*
X227753870Y-71417179D01*
X227670497Y-71836323D01*
X219909503Y-71836323D01*
X219826130Y-71417179D01*
X219662588Y-71022355D01*
X219425163Y-70667023D01*
X219122977Y-70364837D01*
X218767645Y-70127412D01*
X218372821Y-69963870D01*
X217953677Y-69880497D01*
X217526323Y-69880497D01*
X217107179Y-69963870D01*
X216712355Y-70127412D01*
X216357023Y-70364837D01*
X216054837Y-70667023D01*
X215817412Y-71022355D01*
X215653870Y-71417179D01*
X215570497Y-71836323D01*
X121131710Y-71836323D01*
X121086130Y-71607179D01*
X120922588Y-71212355D01*
X120685163Y-70857023D01*
X120382977Y-70554837D01*
X120027645Y-70317412D01*
X119632821Y-70153870D01*
X119213677Y-70070497D01*
X118786323Y-70070497D01*
X118367179Y-70153870D01*
X117972355Y-70317412D01*
X117617023Y-70554837D01*
X117314837Y-70857023D01*
X117077412Y-71212355D01*
X116913870Y-71607179D01*
X116830497Y-72026323D01*
X109069503Y-72026323D01*
X108986130Y-71607179D01*
X108822588Y-71212355D01*
X108585163Y-70857023D01*
X108282977Y-70554837D01*
X107927645Y-70317412D01*
X107532821Y-70153870D01*
X107113677Y-70070497D01*
X106686323Y-70070497D01*
X106267179Y-70153870D01*
X105872355Y-70317412D01*
X105517023Y-70554837D01*
X105214837Y-70857023D01*
X104977412Y-71212355D01*
X104813870Y-71607179D01*
X104730497Y-72026323D01*
X98950000Y-72026323D01*
X98950000Y-69060000D01*
X128267591Y-69060000D01*
X128300000Y-69063192D01*
X128332409Y-69060000D01*
X128332419Y-69060000D01*
X128429383Y-69050450D01*
X128553793Y-69012710D01*
X128668450Y-68951425D01*
X128768948Y-68868948D01*
X128789616Y-68843764D01*
X130883380Y-66750000D01*
X136357815Y-66750000D01*
X136386487Y-67041111D01*
X136471401Y-67321034D01*
X136609294Y-67579014D01*
X136794866Y-67805134D01*
X137020986Y-67990706D01*
X137278966Y-68128599D01*
X137558889Y-68213513D01*
X137777050Y-68235000D01*
X138222950Y-68235000D01*
X138441111Y-68213513D01*
X138721034Y-68128599D01*
X138979014Y-67990706D01*
X139205134Y-67805134D01*
X139390706Y-67579014D01*
X139528599Y-67321034D01*
X139613513Y-67041111D01*
X139642185Y-66750000D01*
X139613513Y-66458889D01*
X139528599Y-66178966D01*
X139390706Y-65920986D01*
X139205134Y-65694866D01*
X138979014Y-65509294D01*
X138721034Y-65371401D01*
X138441111Y-65286487D01*
X138222950Y-65265000D01*
X137777050Y-65265000D01*
X137558889Y-65286487D01*
X137278966Y-65371401D01*
X137020986Y-65509294D01*
X136794866Y-65694866D01*
X136609294Y-65920986D01*
X136471401Y-66178966D01*
X136386487Y-66458889D01*
X136357815Y-66750000D01*
X130883380Y-66750000D01*
X132534564Y-65098816D01*
X191255000Y-65098816D01*
X191255000Y-65401184D01*
X191313989Y-65697743D01*
X191429701Y-65977095D01*
X191597688Y-66228505D01*
X191811495Y-66442312D01*
X192062905Y-66610299D01*
X192342257Y-66726011D01*
X192638816Y-66785000D01*
X192941184Y-66785000D01*
X193237743Y-66726011D01*
X193517095Y-66610299D01*
X193768505Y-66442312D01*
X193982312Y-66228505D01*
X194150299Y-65977095D01*
X194266011Y-65697743D01*
X194325000Y-65401184D01*
X194325000Y-65098816D01*
X194266011Y-64802257D01*
X194150299Y-64522905D01*
X193982312Y-64271495D01*
X193768505Y-64057688D01*
X193517095Y-63889701D01*
X193237743Y-63773989D01*
X192941184Y-63715000D01*
X192638816Y-63715000D01*
X192342257Y-63773989D01*
X192062905Y-63889701D01*
X191811495Y-64057688D01*
X191597688Y-64271495D01*
X191429701Y-64522905D01*
X191313989Y-64802257D01*
X191255000Y-65098816D01*
X132534564Y-65098816D01*
X135227644Y-62405736D01*
X152090000Y-62405736D01*
X152090000Y-63594263D01*
X152110402Y-63801407D01*
X152191027Y-64067193D01*
X152321956Y-64312143D01*
X152498156Y-64526843D01*
X152712856Y-64703044D01*
X152957806Y-64833973D01*
X153223592Y-64914598D01*
X153500000Y-64941822D01*
X153776407Y-64914598D01*
X154042193Y-64833973D01*
X154287143Y-64703044D01*
X154501843Y-64526844D01*
X154678044Y-64312144D01*
X154808973Y-64067194D01*
X154889598Y-63801408D01*
X154910000Y-63594264D01*
X154910000Y-62862408D01*
X155103000Y-62862408D01*
X155103000Y-63137592D01*
X155156686Y-63407490D01*
X155261995Y-63661727D01*
X155414880Y-63890535D01*
X155609465Y-64085120D01*
X155838273Y-64238005D01*
X156092510Y-64343314D01*
X156362408Y-64397000D01*
X156637592Y-64397000D01*
X156907490Y-64343314D01*
X157161727Y-64238005D01*
X157390535Y-64085120D01*
X157585120Y-63890535D01*
X157738005Y-63661727D01*
X157843314Y-63407490D01*
X157897000Y-63137592D01*
X157897000Y-62862408D01*
X158103000Y-62862408D01*
X158103000Y-63137592D01*
X158156686Y-63407490D01*
X158261995Y-63661727D01*
X158414880Y-63890535D01*
X158609465Y-64085120D01*
X158838273Y-64238005D01*
X159092510Y-64343314D01*
X159362408Y-64397000D01*
X159637592Y-64397000D01*
X159907490Y-64343314D01*
X160161727Y-64238005D01*
X160390535Y-64085120D01*
X160585120Y-63890535D01*
X160738005Y-63661727D01*
X160843314Y-63407490D01*
X160897000Y-63137592D01*
X160897000Y-62862408D01*
X160843314Y-62592510D01*
X160765950Y-62405736D01*
X164090000Y-62405736D01*
X164090000Y-63594263D01*
X164110402Y-63801407D01*
X164191027Y-64067193D01*
X164321956Y-64312143D01*
X164498156Y-64526843D01*
X164712856Y-64703044D01*
X164957806Y-64833973D01*
X165223592Y-64914598D01*
X165500000Y-64941822D01*
X165776407Y-64914598D01*
X166042193Y-64833973D01*
X166287143Y-64703044D01*
X166501843Y-64526844D01*
X166678044Y-64312144D01*
X166808973Y-64067194D01*
X166889598Y-63801408D01*
X166910000Y-63594264D01*
X166910000Y-62405736D01*
X166889598Y-62198592D01*
X166808973Y-61932806D01*
X166678044Y-61687856D01*
X166501844Y-61473156D01*
X166287144Y-61296956D01*
X166042194Y-61166027D01*
X165776408Y-61085402D01*
X165500000Y-61058178D01*
X165223593Y-61085402D01*
X164957807Y-61166027D01*
X164712857Y-61296956D01*
X164498157Y-61473156D01*
X164321956Y-61687856D01*
X164191027Y-61932806D01*
X164110402Y-62198592D01*
X164090000Y-62405736D01*
X160765950Y-62405736D01*
X160738005Y-62338273D01*
X160585120Y-62109465D01*
X160390535Y-61914880D01*
X160161727Y-61761995D01*
X159907490Y-61656686D01*
X159637592Y-61603000D01*
X159362408Y-61603000D01*
X159092510Y-61656686D01*
X158838273Y-61761995D01*
X158609465Y-61914880D01*
X158414880Y-62109465D01*
X158261995Y-62338273D01*
X158156686Y-62592510D01*
X158103000Y-62862408D01*
X157897000Y-62862408D01*
X157843314Y-62592510D01*
X157738005Y-62338273D01*
X157585120Y-62109465D01*
X157390535Y-61914880D01*
X157161727Y-61761995D01*
X156907490Y-61656686D01*
X156637592Y-61603000D01*
X156362408Y-61603000D01*
X156092510Y-61656686D01*
X155838273Y-61761995D01*
X155609465Y-61914880D01*
X155414880Y-62109465D01*
X155261995Y-62338273D01*
X155156686Y-62592510D01*
X155103000Y-62862408D01*
X154910000Y-62862408D01*
X154910000Y-62405736D01*
X154889598Y-62198592D01*
X154808973Y-61932806D01*
X154678044Y-61687856D01*
X154501844Y-61473156D01*
X154287144Y-61296956D01*
X154042194Y-61166027D01*
X153776408Y-61085402D01*
X153500000Y-61058178D01*
X153223593Y-61085402D01*
X152957807Y-61166027D01*
X152712857Y-61296956D01*
X152498157Y-61473156D01*
X152321956Y-61687856D01*
X152191027Y-61932806D01*
X152110402Y-62198592D01*
X152090000Y-62405736D01*
X135227644Y-62405736D01*
X138573381Y-59060000D01*
X198026620Y-59060000D01*
X207810388Y-68843769D01*
%TA.AperFunction,Conductor*%
D22*
G36*
X207810388Y-68843769D02*
G01*
X207831052Y-68868948D01*
X207931550Y-68951425D01*
X208046207Y-69012710D01*
X208170617Y-69050450D01*
X208267581Y-69060000D01*
X208267588Y-69060000D01*
X208300000Y-69063192D01*
X208332412Y-69060000D01*
X237650001Y-69060000D01*
X237650000Y-95740000D01*
X208332419Y-95740000D01*
X208300000Y-95736807D01*
X208267581Y-95740000D01*
X208170617Y-95749550D01*
X208046207Y-95787290D01*
X207931550Y-95848575D01*
X207831052Y-95931052D01*
X207748575Y-96031550D01*
X207687290Y-96146207D01*
X207649550Y-96270617D01*
X207636807Y-96400000D01*
X207640000Y-96432418D01*
X207640001Y-105812805D01*
X201344017Y-129225999D01*
X186330030Y-135958813D01*
X186307995Y-135965497D01*
X186270851Y-135985351D01*
X186262149Y-135989253D01*
X186242282Y-136000621D01*
X186193338Y-136026782D01*
X186185912Y-136032877D01*
X186177582Y-136037643D01*
X186135752Y-136074041D01*
X186092840Y-136109259D01*
X186086745Y-136116686D01*
X186079506Y-136122985D01*
X186045574Y-136166853D01*
X186010363Y-136209758D01*
X186005836Y-136218227D01*
X185999963Y-136225820D01*
X185975234Y-136275480D01*
X185949078Y-136324415D01*
X185946291Y-136333604D01*
X185942011Y-136342198D01*
X185927445Y-136395727D01*
X185911338Y-136448825D01*
X185910397Y-136458381D01*
X185907876Y-136467645D01*
X185904033Y-136522997D01*
X185901788Y-136545789D01*
X185901788Y-136555328D01*
X185898871Y-136597340D01*
X185901788Y-136620180D01*
X185901789Y-145940001D01*
X150698213Y-145940001D01*
X150698213Y-142526444D01*
X151980202Y-142526444D01*
X151980202Y-142973556D01*
X152067429Y-143412076D01*
X152238531Y-143825153D01*
X152486932Y-144196912D01*
X152803088Y-144513068D01*
X153174847Y-144761469D01*
X153587924Y-144932571D01*
X154026444Y-145019798D01*
X154473556Y-145019798D01*
X154912076Y-144932571D01*
X155325153Y-144761469D01*
X155696912Y-144513068D01*
X156013068Y-144196912D01*
X156261469Y-143825153D01*
X156432571Y-143412076D01*
X156519798Y-142973556D01*
X156519798Y-142526444D01*
X156432571Y-142087924D01*
X156261469Y-141674847D01*
X156013068Y-141303088D01*
X155696912Y-140986932D01*
X155325153Y-140738531D01*
X154912076Y-140567429D01*
X154473556Y-140480202D01*
X154026444Y-140480202D01*
X153587924Y-140567429D01*
X153174847Y-140738531D01*
X152803088Y-140986932D01*
X152486932Y-141303088D01*
X152238531Y-141674847D01*
X152067429Y-142087924D01*
X151980202Y-142526444D01*
X150698213Y-142526444D01*
X150698213Y-136620172D01*
X150701129Y-136597340D01*
X150698213Y-136555342D01*
X150698213Y-136545789D01*
X150695965Y-136522964D01*
X150692124Y-136467644D01*
X150689605Y-136458385D01*
X150688663Y-136448825D01*
X150672548Y-136395703D01*
X150657989Y-136342197D01*
X150653711Y-136333607D01*
X150650923Y-136324415D01*
X150624759Y-136275466D01*
X150600037Y-136225819D01*
X150594165Y-136218228D01*
X150589638Y-136209758D01*
X150554429Y-136166856D01*
X150520494Y-136122984D01*
X150513253Y-136116683D01*
X150507161Y-136109260D01*
X150464278Y-136074067D01*
X150422418Y-136037642D01*
X150414081Y-136032871D01*
X150406662Y-136026783D01*
X150357759Y-136000644D01*
X150337850Y-135989252D01*
X150329131Y-135985342D01*
X150292005Y-135965498D01*
X150269980Y-135958817D01*
X135255983Y-129226000D01*
X128960000Y-105812811D01*
X128960000Y-96432418D01*
X128963193Y-96400000D01*
X128950450Y-96270617D01*
X128912710Y-96146207D01*
X128851425Y-96031550D01*
X128768948Y-95931052D01*
X128668450Y-95848575D01*
X128553793Y-95787290D01*
X128429383Y-95749550D01*
X128332419Y-95740000D01*
X128300000Y-95736807D01*
X128267581Y-95740000D01*
X98950000Y-95740000D01*
X98950000Y-91926323D01*
X104730497Y-91926323D01*
X104730497Y-92353677D01*
X104813870Y-92772821D01*
X104977412Y-93167645D01*
X105214837Y-93522977D01*
X105517023Y-93825163D01*
X105872355Y-94062588D01*
X106267179Y-94226130D01*
X106686323Y-94309503D01*
X107113677Y-94309503D01*
X107532821Y-94226130D01*
X107927645Y-94062588D01*
X108282977Y-93825163D01*
X108585163Y-93522977D01*
X108822588Y-93167645D01*
X108986130Y-92772821D01*
X109069503Y-92353677D01*
X109069503Y-91926323D01*
X116830497Y-91926323D01*
X116830497Y-92353677D01*
X116913870Y-92772821D01*
X117077412Y-93167645D01*
X117314837Y-93522977D01*
X117617023Y-93825163D01*
X117972355Y-94062588D01*
X118367179Y-94226130D01*
X118786323Y-94309503D01*
X119213677Y-94309503D01*
X119632821Y-94226130D01*
X120027645Y-94062588D01*
X120382977Y-93825163D01*
X120685163Y-93522977D01*
X120922588Y-93167645D01*
X121086130Y-92772821D01*
X121169503Y-92353677D01*
X121169503Y-91926323D01*
X121086130Y-91507179D01*
X120922588Y-91112355D01*
X120685163Y-90757023D01*
X120382977Y-90454837D01*
X120027645Y-90217412D01*
X119632821Y-90053870D01*
X119213677Y-89970497D01*
X118786323Y-89970497D01*
X118367179Y-90053870D01*
X117972355Y-90217412D01*
X117617023Y-90454837D01*
X117314837Y-90757023D01*
X117077412Y-91112355D01*
X116913870Y-91507179D01*
X116830497Y-91926323D01*
X109069503Y-91926323D01*
X108986130Y-91507179D01*
X108822588Y-91112355D01*
X108585163Y-90757023D01*
X108282977Y-90454837D01*
X107927645Y-90217412D01*
X107532821Y-90053870D01*
X107113677Y-89970497D01*
X106686323Y-89970497D01*
X106267179Y-90053870D01*
X105872355Y-90217412D01*
X105517023Y-90454837D01*
X105214837Y-90757023D01*
X104977412Y-91112355D01*
X104813870Y-91507179D01*
X104730497Y-91926323D01*
X98950000Y-91926323D01*
X98950000Y-78830000D01*
X133005114Y-78830000D01*
X133010000Y-78879608D01*
X133010001Y-110660382D01*
X133005114Y-110710000D01*
X133024615Y-110907994D01*
X133082368Y-111098379D01*
X133162878Y-111249003D01*
X133176154Y-111273840D01*
X133302368Y-111427633D01*
X133340901Y-111459256D01*
X150890000Y-129008356D01*
X150890001Y-134382456D01*
X150808617Y-134578933D01*
X150765000Y-134798212D01*
X150765000Y-135021788D01*
X150808617Y-135241067D01*
X150894176Y-135447624D01*
X151018388Y-135633520D01*
X151176480Y-135791612D01*
X151362376Y-135915824D01*
X151568933Y-136001383D01*
X151788212Y-136045000D01*
X152011788Y-136045000D01*
X152231067Y-136001383D01*
X152437624Y-135915824D01*
X152623520Y-135791612D01*
X152781612Y-135633520D01*
X152905824Y-135447624D01*
X152991383Y-135241067D01*
X153035000Y-135021788D01*
X153035000Y-134798212D01*
X152991383Y-134578933D01*
X152910000Y-134382458D01*
X152910000Y-128639597D01*
X152914885Y-128589999D01*
X152910000Y-128540401D01*
X152910000Y-128540392D01*
X152895385Y-128392006D01*
X152837632Y-128201620D01*
X152743847Y-128026160D01*
X152617633Y-127872367D01*
X152579100Y-127840744D01*
X135030000Y-110291645D01*
X135030000Y-109849219D01*
X145730421Y-109849219D01*
X145730421Y-110053097D01*
X145770195Y-110253056D01*
X145848216Y-110441414D01*
X145961484Y-110610932D01*
X146105647Y-110755095D01*
X146275165Y-110868363D01*
X146463523Y-110946384D01*
X146663482Y-110986158D01*
X146867360Y-110986158D01*
X147067319Y-110946384D01*
X147255677Y-110868363D01*
X147425195Y-110755095D01*
X147569358Y-110610932D01*
X147682626Y-110441414D01*
X147760647Y-110253056D01*
X147800421Y-110053097D01*
X147800421Y-109849219D01*
X147779294Y-109743005D01*
X147840226Y-109803937D01*
X148009744Y-109917205D01*
X148198102Y-109995226D01*
X148398061Y-110035000D01*
X148490000Y-110035000D01*
X148490001Y-114246440D01*
X148448102Y-114254774D01*
X148259744Y-114332795D01*
X148090226Y-114446063D01*
X147946063Y-114590226D01*
X147832795Y-114759744D01*
X147754774Y-114948102D01*
X147715000Y-115148061D01*
X147715000Y-115351939D01*
X147754774Y-115551898D01*
X147832795Y-115740256D01*
X147946063Y-115909774D01*
X148090226Y-116053937D01*
X148259744Y-116167205D01*
X148448102Y-116245226D01*
X148648061Y-116285000D01*
X148851939Y-116285000D01*
X149051898Y-116245226D01*
X149240256Y-116167205D01*
X149409774Y-116053937D01*
X149553937Y-115909774D01*
X149667205Y-115740256D01*
X149745226Y-115551898D01*
X149753560Y-115510000D01*
X151935199Y-115510000D01*
X155436201Y-119011003D01*
X155459999Y-119040001D01*
X155575724Y-119134974D01*
X155707753Y-119205546D01*
X155851014Y-119249003D01*
X155962667Y-119260000D01*
X155962677Y-119260000D01*
X156000000Y-119263676D01*
X156037323Y-119260000D01*
X158546289Y-119260000D01*
X158590226Y-119303937D01*
X158759744Y-119417205D01*
X158948102Y-119495226D01*
X159148061Y-119535000D01*
X159351939Y-119535000D01*
X159551898Y-119495226D01*
X159740256Y-119417205D01*
X159909774Y-119303937D01*
X159953711Y-119260000D01*
X169962678Y-119260000D01*
X170000000Y-119263676D01*
X170037322Y-119260000D01*
X170037333Y-119260000D01*
X170148986Y-119249003D01*
X170292247Y-119205546D01*
X170424276Y-119134974D01*
X170540001Y-119040001D01*
X170563804Y-119010997D01*
X171789802Y-117785000D01*
X171851939Y-117785000D01*
X171900002Y-117775440D01*
X171900001Y-129315000D01*
X171893740Y-129315000D01*
X171606842Y-129372068D01*
X171336589Y-129484010D01*
X171093368Y-129646525D01*
X170886525Y-129853368D01*
X170770000Y-130027760D01*
X170653475Y-129853368D01*
X170446632Y-129646525D01*
X170203411Y-129484010D01*
X169933158Y-129372068D01*
X169646260Y-129315000D01*
X169353740Y-129315000D01*
X169066842Y-129372068D01*
X168796589Y-129484010D01*
X168553368Y-129646525D01*
X168346525Y-129853368D01*
X168184010Y-130096589D01*
X168072068Y-130366842D01*
X168015000Y-130653740D01*
X168015000Y-130946260D01*
X168072068Y-131233158D01*
X168184010Y-131503411D01*
X168346525Y-131746632D01*
X168553368Y-131953475D01*
X168796589Y-132115990D01*
X169066842Y-132227932D01*
X169353740Y-132285000D01*
X169646260Y-132285000D01*
X169933158Y-132227932D01*
X170203411Y-132115990D01*
X170446632Y-131953475D01*
X170653475Y-131746632D01*
X170770000Y-131572240D01*
X170886525Y-131746632D01*
X171093368Y-131953475D01*
X171336589Y-132115990D01*
X171606842Y-132227932D01*
X171893740Y-132285000D01*
X172186260Y-132285000D01*
X172473158Y-132227932D01*
X172743411Y-132115990D01*
X172986632Y-131953475D01*
X173193475Y-131746632D01*
X173310000Y-131572240D01*
X173426525Y-131746632D01*
X173633368Y-131953475D01*
X173876589Y-132115990D01*
X174146842Y-132227932D01*
X174433740Y-132285000D01*
X174726260Y-132285000D01*
X175013158Y-132227932D01*
X175283411Y-132115990D01*
X175526632Y-131953475D01*
X175733475Y-131746632D01*
X175895990Y-131503411D01*
X176007932Y-131233158D01*
X176065000Y-130946260D01*
X176065000Y-130653740D01*
X176007932Y-130366842D01*
X175895990Y-130096589D01*
X175733475Y-129853368D01*
X175526632Y-129646525D01*
X175283411Y-129484010D01*
X175013158Y-129372068D01*
X174726260Y-129315000D01*
X174433740Y-129315000D01*
X174213592Y-129358790D01*
X173870011Y-129015210D01*
X173870011Y-111954791D01*
X173938799Y-111886003D01*
X173938803Y-111885998D01*
X174761004Y-111063798D01*
X174790001Y-111040001D01*
X174884974Y-110924276D01*
X174955546Y-110792247D01*
X174970386Y-110743325D01*
X175053937Y-110659774D01*
X175167205Y-110490256D01*
X175245226Y-110301898D01*
X175285000Y-110101939D01*
X175285000Y-109898061D01*
X175245226Y-109698102D01*
X175167205Y-109509744D01*
X175053937Y-109340226D01*
X174909774Y-109196063D01*
X174740256Y-109082795D01*
X174551898Y-109004774D01*
X174351939Y-108965000D01*
X174148061Y-108965000D01*
X173948102Y-109004774D01*
X173759744Y-109082795D01*
X173590226Y-109196063D01*
X173446063Y-109340226D01*
X173332795Y-109509744D01*
X173254774Y-109698102D01*
X173215000Y-109898061D01*
X173215000Y-110101939D01*
X173252084Y-110288373D01*
X173159774Y-110196063D01*
X172990256Y-110082795D01*
X172801898Y-110004774D01*
X172601939Y-109965000D01*
X172398061Y-109965000D01*
X172198102Y-110004774D01*
X172009744Y-110082795D01*
X171840226Y-110196063D01*
X171696063Y-110340226D01*
X171582795Y-110509744D01*
X171504774Y-110698102D01*
X171465000Y-110898061D01*
X171465000Y-111101939D01*
X171504774Y-111301898D01*
X171582795Y-111490256D01*
X171696063Y-111659774D01*
X171840226Y-111803937D01*
X171900002Y-111843878D01*
X171900002Y-115724560D01*
X171851939Y-115715000D01*
X171648061Y-115715000D01*
X171448102Y-115754774D01*
X171259744Y-115832795D01*
X171090226Y-115946063D01*
X170946063Y-116090226D01*
X170832795Y-116259744D01*
X170754774Y-116448102D01*
X170715000Y-116648061D01*
X170715000Y-116710198D01*
X169685199Y-117740000D01*
X159953711Y-117740000D01*
X159909774Y-117696063D01*
X159740256Y-117582795D01*
X159551898Y-117504774D01*
X159351939Y-117465000D01*
X159148061Y-117465000D01*
X158948102Y-117504774D01*
X158759744Y-117582795D01*
X158590226Y-117696063D01*
X158546289Y-117740000D01*
X156314802Y-117740000D01*
X152813804Y-114239003D01*
X152790001Y-114209999D01*
X152674276Y-114115026D01*
X152542247Y-114044454D01*
X152398986Y-114000997D01*
X152287333Y-113990000D01*
X152287322Y-113990000D01*
X152250000Y-113986324D01*
X152212678Y-113990000D01*
X150010000Y-113990000D01*
X150010000Y-109010000D01*
X152240000Y-109010000D01*
X152240001Y-109296288D01*
X152196063Y-109340226D01*
X152082795Y-109509744D01*
X152004774Y-109698102D01*
X151965000Y-109898061D01*
X151965000Y-110101939D01*
X152004774Y-110301898D01*
X152082795Y-110490256D01*
X152196063Y-110659774D01*
X152340226Y-110803937D01*
X152509744Y-110917205D01*
X152698102Y-110995226D01*
X152898061Y-111035000D01*
X153101939Y-111035000D01*
X153301898Y-110995226D01*
X153490256Y-110917205D01*
X153659774Y-110803937D01*
X153803937Y-110659774D01*
X153917205Y-110490256D01*
X153995226Y-110301898D01*
X154025825Y-110148061D01*
X162965000Y-110148061D01*
X162965000Y-110351939D01*
X163004774Y-110551898D01*
X163082795Y-110740256D01*
X163196063Y-110909774D01*
X163340226Y-111053937D01*
X163509744Y-111167205D01*
X163698102Y-111245226D01*
X163898061Y-111285000D01*
X164101939Y-111285000D01*
X164301898Y-111245226D01*
X164490256Y-111167205D01*
X164659774Y-111053937D01*
X164703711Y-111010000D01*
X167046289Y-111010000D01*
X167090226Y-111053937D01*
X167259744Y-111167205D01*
X167448102Y-111245226D01*
X167648061Y-111285000D01*
X167740000Y-111285000D01*
X167740000Y-111296289D01*
X167696063Y-111340226D01*
X167582795Y-111509744D01*
X167504774Y-111698102D01*
X167465000Y-111898061D01*
X167465000Y-112101939D01*
X167504774Y-112301898D01*
X167582795Y-112490256D01*
X167696063Y-112659774D01*
X167840226Y-112803937D01*
X168009744Y-112917205D01*
X168198102Y-112995226D01*
X168398061Y-113035000D01*
X168601939Y-113035000D01*
X168801898Y-112995226D01*
X168990256Y-112917205D01*
X169159774Y-112803937D01*
X169303937Y-112659774D01*
X169417205Y-112490256D01*
X169495226Y-112301898D01*
X169535000Y-112101939D01*
X169535000Y-111898061D01*
X169495226Y-111698102D01*
X169417205Y-111509744D01*
X169303937Y-111340226D01*
X169260000Y-111296289D01*
X169260000Y-109964320D01*
X169263676Y-109926997D01*
X169260000Y-109889674D01*
X169260000Y-109889665D01*
X169249003Y-109778012D01*
X169205546Y-109634751D01*
X169163790Y-109556632D01*
X169134974Y-109502721D01*
X169063799Y-109415995D01*
X169040001Y-109386997D01*
X169011003Y-109363199D01*
X168532302Y-108884499D01*
X168495226Y-108698102D01*
X168417205Y-108509744D01*
X168303937Y-108340226D01*
X168159774Y-108196063D01*
X167990256Y-108082795D01*
X167801898Y-108004774D01*
X167601939Y-107965000D01*
X167398061Y-107965000D01*
X167198102Y-108004774D01*
X167009744Y-108082795D01*
X166840226Y-108196063D01*
X166696063Y-108340226D01*
X166582795Y-108509744D01*
X166504774Y-108698102D01*
X166465000Y-108898061D01*
X166465000Y-109101939D01*
X166504774Y-109301898D01*
X166582689Y-109490000D01*
X164703711Y-109490000D01*
X164659774Y-109446063D01*
X164490256Y-109332795D01*
X164301898Y-109254774D01*
X164101939Y-109215000D01*
X163898061Y-109215000D01*
X163698102Y-109254774D01*
X163509744Y-109332795D01*
X163340226Y-109446063D01*
X163196063Y-109590226D01*
X163082795Y-109759744D01*
X163004774Y-109948102D01*
X162965000Y-110148061D01*
X154025825Y-110148061D01*
X154035000Y-110101939D01*
X154035000Y-109898061D01*
X153995226Y-109698102D01*
X153917205Y-109509744D01*
X153803937Y-109340226D01*
X153760000Y-109296289D01*
X153760000Y-108564801D01*
X155539802Y-106785000D01*
X155601939Y-106785000D01*
X155801898Y-106745226D01*
X155990256Y-106667205D01*
X156159774Y-106553937D01*
X156303937Y-106409774D01*
X156417205Y-106240256D01*
X156495226Y-106051898D01*
X156535000Y-105851939D01*
X156535000Y-105648061D01*
X156495226Y-105448102D01*
X156417205Y-105259744D01*
X156376290Y-105198511D01*
X157564802Y-104010000D01*
X159546289Y-104010000D01*
X159590226Y-104053937D01*
X159759744Y-104167205D01*
X159948102Y-104245226D01*
X160148061Y-104285000D01*
X160351939Y-104285000D01*
X160551898Y-104245226D01*
X160740256Y-104167205D01*
X160909774Y-104053937D01*
X161053937Y-103909774D01*
X161167205Y-103740256D01*
X161245226Y-103551898D01*
X161285000Y-103351939D01*
X161285000Y-103289801D01*
X162064802Y-102510000D01*
X171796289Y-102510000D01*
X171840226Y-102553937D01*
X172009744Y-102667205D01*
X172198102Y-102745226D01*
X172398061Y-102785000D01*
X172601939Y-102785000D01*
X172801898Y-102745226D01*
X172990256Y-102667205D01*
X173159774Y-102553937D01*
X173303937Y-102409774D01*
X173417205Y-102240256D01*
X173495226Y-102051898D01*
X173535000Y-101851939D01*
X173535000Y-101648061D01*
X173495226Y-101448102D01*
X173417205Y-101259744D01*
X173303937Y-101090226D01*
X173159774Y-100946063D01*
X172990256Y-100832795D01*
X172801898Y-100754774D01*
X172601939Y-100715000D01*
X172398061Y-100715000D01*
X172198102Y-100754774D01*
X172009744Y-100832795D01*
X171840226Y-100946063D01*
X171796289Y-100990000D01*
X161890000Y-100990000D01*
X161890000Y-98028178D01*
X162076632Y-97903475D01*
X162283475Y-97696632D01*
X162400000Y-97522240D01*
X162516525Y-97696632D01*
X162723368Y-97903475D01*
X162966589Y-98065990D01*
X163236842Y-98177932D01*
X163523740Y-98235000D01*
X163816260Y-98235000D01*
X164103158Y-98177932D01*
X164373411Y-98065990D01*
X164616632Y-97903475D01*
X164823475Y-97696632D01*
X164940000Y-97522240D01*
X165056525Y-97696632D01*
X165263368Y-97903475D01*
X165506589Y-98065990D01*
X165776842Y-98177932D01*
X166063740Y-98235000D01*
X166356260Y-98235000D01*
X166643158Y-98177932D01*
X166913411Y-98065990D01*
X167156632Y-97903475D01*
X167288487Y-97771620D01*
X167310498Y-97844180D01*
X167369463Y-97954494D01*
X167448815Y-98051185D01*
X167545506Y-98130537D01*
X167655820Y-98189502D01*
X167775518Y-98225812D01*
X167900000Y-98238072D01*
X169027897Y-98238072D01*
X169052005Y-98245385D01*
X169250000Y-98264886D01*
X169299608Y-98260000D01*
X174272377Y-98260000D01*
X174398061Y-98285000D01*
X174601939Y-98285000D01*
X174801898Y-98245226D01*
X174990256Y-98167205D01*
X175159774Y-98053937D01*
X175303937Y-97909774D01*
X175375132Y-97803223D01*
X175418355Y-97760000D01*
X179776646Y-97760000D01*
X183045744Y-101029099D01*
X183077368Y-101067633D01*
X183231161Y-101193847D01*
X183354446Y-101259744D01*
X183406621Y-101287632D01*
X183597006Y-101345385D01*
X183795001Y-101364886D01*
X183844609Y-101360000D01*
X187981645Y-101360000D01*
X192100739Y-105479094D01*
X192132367Y-105517633D01*
X192170906Y-105549261D01*
X193784322Y-107162678D01*
X193686842Y-107182068D01*
X193416589Y-107294010D01*
X193173368Y-107456525D01*
X192966525Y-107663368D01*
X192850000Y-107837760D01*
X192733475Y-107663368D01*
X192526632Y-107456525D01*
X192283411Y-107294010D01*
X192013158Y-107182068D01*
X191726260Y-107125000D01*
X191433740Y-107125000D01*
X191146842Y-107182068D01*
X190876589Y-107294010D01*
X190633368Y-107456525D01*
X190426525Y-107663368D01*
X190310000Y-107837760D01*
X190193475Y-107663368D01*
X189986632Y-107456525D01*
X189743411Y-107294010D01*
X189473158Y-107182068D01*
X189186260Y-107125000D01*
X188893740Y-107125000D01*
X188606842Y-107182068D01*
X188336589Y-107294010D01*
X188093368Y-107456525D01*
X187886525Y-107663368D01*
X187770000Y-107837760D01*
X187653475Y-107663368D01*
X187446632Y-107456525D01*
X187203411Y-107294010D01*
X186933158Y-107182068D01*
X186835677Y-107162678D01*
X188448355Y-105550000D01*
X188492458Y-105550000D01*
X188688933Y-105631383D01*
X188908212Y-105675000D01*
X189131788Y-105675000D01*
X189351067Y-105631383D01*
X189557624Y-105545824D01*
X189743520Y-105421612D01*
X189901612Y-105263520D01*
X190025824Y-105077624D01*
X190111383Y-104871067D01*
X190155000Y-104651788D01*
X190155000Y-104428212D01*
X190111383Y-104208933D01*
X190025824Y-104002376D01*
X189901612Y-103816480D01*
X189743520Y-103658388D01*
X189557624Y-103534176D01*
X189351067Y-103448617D01*
X189131788Y-103405000D01*
X188908212Y-103405000D01*
X188688933Y-103448617D01*
X188492458Y-103530000D01*
X188079604Y-103530000D01*
X188029999Y-103525114D01*
X187980394Y-103530000D01*
X187980392Y-103530000D01*
X187832006Y-103544615D01*
X187641620Y-103602368D01*
X187466160Y-103696153D01*
X187312367Y-103822367D01*
X187280739Y-103860906D01*
X184016645Y-107125000D01*
X183813740Y-107125000D01*
X183526842Y-107182068D01*
X183256589Y-107294010D01*
X183013368Y-107456525D01*
X182806525Y-107663368D01*
X182644010Y-107906589D01*
X182532068Y-108176842D01*
X182475000Y-108463740D01*
X182475000Y-108756260D01*
X182532068Y-109043158D01*
X182644010Y-109313411D01*
X182806525Y-109556632D01*
X183013368Y-109763475D01*
X183256589Y-109925990D01*
X183526842Y-110037932D01*
X183813740Y-110095000D01*
X184106260Y-110095000D01*
X184393158Y-110037932D01*
X184663411Y-109925990D01*
X184906632Y-109763475D01*
X185113475Y-109556632D01*
X185230000Y-109382240D01*
X185346525Y-109556632D01*
X185553368Y-109763475D01*
X185796589Y-109925990D01*
X186066842Y-110037932D01*
X186353740Y-110095000D01*
X186646260Y-110095000D01*
X186933158Y-110037932D01*
X187203411Y-109925990D01*
X187446632Y-109763475D01*
X187653475Y-109556632D01*
X187770000Y-109382240D01*
X187886525Y-109556632D01*
X188093368Y-109763475D01*
X188336589Y-109925990D01*
X188606842Y-110037932D01*
X188893740Y-110095000D01*
X189186260Y-110095000D01*
X189473158Y-110037932D01*
X189743411Y-109925990D01*
X189986632Y-109763475D01*
X190193475Y-109556632D01*
X190310000Y-109382240D01*
X190426525Y-109556632D01*
X190633368Y-109763475D01*
X190876589Y-109925990D01*
X191146842Y-110037932D01*
X191433740Y-110095000D01*
X191726260Y-110095000D01*
X192013158Y-110037932D01*
X192283411Y-109925990D01*
X192526632Y-109763475D01*
X192733475Y-109556632D01*
X192850000Y-109382240D01*
X192966525Y-109556632D01*
X193173368Y-109763475D01*
X193416589Y-109925990D01*
X193686842Y-110037932D01*
X193973740Y-110095000D01*
X194266260Y-110095000D01*
X194553158Y-110037932D01*
X194823411Y-109925990D01*
X195066632Y-109763475D01*
X195273475Y-109556632D01*
X195390000Y-109382240D01*
X195506525Y-109556632D01*
X195713368Y-109763475D01*
X195956589Y-109925990D01*
X196226842Y-110037932D01*
X196513740Y-110095000D01*
X196806260Y-110095000D01*
X197093158Y-110037932D01*
X197363411Y-109925990D01*
X197606632Y-109763475D01*
X197813475Y-109556632D01*
X197975990Y-109313411D01*
X198087932Y-109043158D01*
X198145000Y-108756260D01*
X198145000Y-108463740D01*
X198087932Y-108176842D01*
X197975990Y-107906589D01*
X197813475Y-107663368D01*
X197606632Y-107456525D01*
X197363411Y-107294010D01*
X197093158Y-107182068D01*
X196806260Y-107125000D01*
X196603356Y-107125000D01*
X195288355Y-105810000D01*
X199631645Y-105810000D01*
X200769990Y-106948345D01*
X200769991Y-120945654D01*
X200565926Y-121149719D01*
X200545990Y-121101588D01*
X200383475Y-120858367D01*
X200176632Y-120651524D01*
X199933411Y-120489009D01*
X199663158Y-120377067D01*
X199376260Y-120319999D01*
X199083740Y-120319999D01*
X198863592Y-120363789D01*
X193818805Y-115319003D01*
X193795002Y-115289999D01*
X193679277Y-115195026D01*
X193547248Y-115124454D01*
X193403987Y-115080997D01*
X193292334Y-115070000D01*
X193292323Y-115070000D01*
X193255001Y-115066324D01*
X193217679Y-115070000D01*
X185513711Y-115070000D01*
X185469774Y-115026063D01*
X185300256Y-114912795D01*
X185111898Y-114834774D01*
X184911939Y-114795000D01*
X184708061Y-114795000D01*
X184508102Y-114834774D01*
X184319744Y-114912795D01*
X184150226Y-115026063D01*
X184006063Y-115170226D01*
X183892795Y-115339744D01*
X183814774Y-115528102D01*
X183775000Y-115728061D01*
X183775000Y-115931939D01*
X183814774Y-116131898D01*
X183892795Y-116320256D01*
X184006063Y-116489774D01*
X184150226Y-116633937D01*
X184319744Y-116747205D01*
X184508102Y-116825226D01*
X184708061Y-116865000D01*
X184911939Y-116865000D01*
X185111898Y-116825226D01*
X185300256Y-116747205D01*
X185469774Y-116633937D01*
X185513711Y-116590000D01*
X192940200Y-116590000D01*
X196670198Y-120319999D01*
X196543740Y-120319999D01*
X196256842Y-120377067D01*
X195986589Y-120489009D01*
X195743368Y-120651524D01*
X195536525Y-120858367D01*
X195420000Y-121032759D01*
X195303475Y-120858367D01*
X195096632Y-120651524D01*
X194853411Y-120489009D01*
X194583158Y-120377067D01*
X194296260Y-120319999D01*
X194003740Y-120319999D01*
X193716842Y-120377067D01*
X193446589Y-120489009D01*
X193203368Y-120651524D01*
X192996525Y-120858367D01*
X192880000Y-121032759D01*
X192763475Y-120858367D01*
X192556632Y-120651524D01*
X192313411Y-120489009D01*
X192043158Y-120377067D01*
X191756260Y-120319999D01*
X191463740Y-120319999D01*
X191176842Y-120377067D01*
X190906589Y-120489009D01*
X190663368Y-120651524D01*
X190456525Y-120858367D01*
X190340000Y-121032759D01*
X190223475Y-120858367D01*
X190016632Y-120651524D01*
X189773411Y-120489009D01*
X189503158Y-120377067D01*
X189216260Y-120319999D01*
X188923740Y-120319999D01*
X188636842Y-120377067D01*
X188366589Y-120489009D01*
X188123368Y-120651524D01*
X187916525Y-120858367D01*
X187800000Y-121032759D01*
X187683475Y-120858367D01*
X187476632Y-120651524D01*
X187233411Y-120489009D01*
X186963158Y-120377067D01*
X186676260Y-120319999D01*
X186383740Y-120319999D01*
X186096842Y-120377067D01*
X185826589Y-120489009D01*
X185583368Y-120651524D01*
X185376525Y-120858367D01*
X185260000Y-121032759D01*
X185143475Y-120858367D01*
X184936632Y-120651524D01*
X184693411Y-120489009D01*
X184423158Y-120377067D01*
X184136260Y-120319999D01*
X183843740Y-120319999D01*
X183556842Y-120377067D01*
X183286589Y-120489009D01*
X183043368Y-120651524D01*
X182836525Y-120858367D01*
X182674010Y-121101588D01*
X182562068Y-121371841D01*
X182505000Y-121658739D01*
X182505000Y-121951259D01*
X182562068Y-122238157D01*
X182674010Y-122508410D01*
X182836525Y-122751631D01*
X183043368Y-122958474D01*
X183286589Y-123120989D01*
X183556842Y-123232931D01*
X183843740Y-123289999D01*
X184136260Y-123289999D01*
X184423158Y-123232931D01*
X184693411Y-123120989D01*
X184936632Y-122958474D01*
X185143475Y-122751631D01*
X185260000Y-122577239D01*
X185376525Y-122751631D01*
X185583368Y-122958474D01*
X185826589Y-123120989D01*
X186096842Y-123232931D01*
X186383740Y-123289999D01*
X186676260Y-123289999D01*
X186963158Y-123232931D01*
X187233411Y-123120989D01*
X187476632Y-122958474D01*
X187683475Y-122751631D01*
X187800000Y-122577239D01*
X187916525Y-122751631D01*
X188123368Y-122958474D01*
X188366589Y-123120989D01*
X188636842Y-123232931D01*
X188923740Y-123289999D01*
X189216260Y-123289999D01*
X189503158Y-123232931D01*
X189773411Y-123120989D01*
X190016632Y-122958474D01*
X190223475Y-122751631D01*
X190340000Y-122577239D01*
X190456525Y-122751631D01*
X190663368Y-122958474D01*
X190906589Y-123120989D01*
X191079170Y-123192474D01*
X183688072Y-130583573D01*
X183688072Y-129950000D01*
X183675812Y-129825518D01*
X183639502Y-129705820D01*
X183580537Y-129595506D01*
X183501185Y-129498815D01*
X183404494Y-129419463D01*
X183294180Y-129360498D01*
X183174482Y-129324188D01*
X183050000Y-129311928D01*
X181350000Y-129311928D01*
X181225518Y-129324188D01*
X181105820Y-129360498D01*
X180995506Y-129419463D01*
X180898815Y-129498815D01*
X180819463Y-129595506D01*
X180760498Y-129705820D01*
X180738487Y-129778380D01*
X180606632Y-129646525D01*
X180363411Y-129484010D01*
X180093158Y-129372068D01*
X179806260Y-129315000D01*
X179513740Y-129315000D01*
X179226842Y-129372068D01*
X178956589Y-129484010D01*
X178713368Y-129646525D01*
X178506525Y-129853368D01*
X178344010Y-130096589D01*
X178232068Y-130366842D01*
X178175000Y-130653740D01*
X178175000Y-130946260D01*
X178232068Y-131233158D01*
X178344010Y-131503411D01*
X178506525Y-131746632D01*
X178713368Y-131953475D01*
X178956589Y-132115990D01*
X179226842Y-132227932D01*
X179513740Y-132285000D01*
X179806260Y-132285000D01*
X180093158Y-132227932D01*
X180363411Y-132115990D01*
X180606632Y-131953475D01*
X180738487Y-131821620D01*
X180760498Y-131894180D01*
X180819463Y-132004494D01*
X180898815Y-132101185D01*
X180995506Y-132180537D01*
X181105820Y-132239502D01*
X181225518Y-132275812D01*
X181350000Y-132288072D01*
X181983573Y-132288072D01*
X176690906Y-137580739D01*
X176652367Y-137612367D01*
X176526153Y-137766160D01*
X176432369Y-137941620D01*
X176432368Y-137941621D01*
X176374615Y-138132006D01*
X176355114Y-138330000D01*
X176360000Y-138379608D01*
X176360000Y-139270482D01*
X176301185Y-139198815D01*
X176204494Y-139119463D01*
X176094180Y-139060498D01*
X175974482Y-139024188D01*
X175850000Y-139011928D01*
X174150000Y-139011928D01*
X174025518Y-139024188D01*
X173905820Y-139060498D01*
X173795506Y-139119463D01*
X173698815Y-139198815D01*
X173619463Y-139295506D01*
X173560498Y-139405820D01*
X173538487Y-139478380D01*
X173406632Y-139346525D01*
X173163411Y-139184010D01*
X172893158Y-139072068D01*
X172606260Y-139015000D01*
X172313740Y-139015000D01*
X172026842Y-139072068D01*
X171756589Y-139184010D01*
X171513368Y-139346525D01*
X171306525Y-139553368D01*
X171190000Y-139727760D01*
X171073475Y-139553368D01*
X170866632Y-139346525D01*
X170623411Y-139184010D01*
X170353158Y-139072068D01*
X170066260Y-139015000D01*
X169773740Y-139015000D01*
X169486842Y-139072068D01*
X169216589Y-139184010D01*
X168973368Y-139346525D01*
X168766525Y-139553368D01*
X168650000Y-139727760D01*
X168533475Y-139553368D01*
X168326632Y-139346525D01*
X168083411Y-139184010D01*
X167813158Y-139072068D01*
X167526260Y-139015000D01*
X167233740Y-139015000D01*
X166946842Y-139072068D01*
X166676589Y-139184010D01*
X166433368Y-139346525D01*
X166226525Y-139553368D01*
X166064010Y-139796589D01*
X165952068Y-140066842D01*
X165895000Y-140353740D01*
X165895000Y-140646260D01*
X165952068Y-140933158D01*
X166064010Y-141203411D01*
X166226525Y-141446632D01*
X166433368Y-141653475D01*
X166607760Y-141770000D01*
X166433368Y-141886525D01*
X166226525Y-142093368D01*
X166110000Y-142267760D01*
X165993475Y-142093368D01*
X165786632Y-141886525D01*
X165543411Y-141724010D01*
X165273158Y-141612068D01*
X164986260Y-141555000D01*
X164693740Y-141555000D01*
X164406842Y-141612068D01*
X164136589Y-141724010D01*
X163893368Y-141886525D01*
X163749893Y-142030000D01*
X163390107Y-142030000D01*
X163246632Y-141886525D01*
X163003411Y-141724010D01*
X162733158Y-141612068D01*
X162446260Y-141555000D01*
X162153740Y-141555000D01*
X161866842Y-141612068D01*
X161596589Y-141724010D01*
X161353368Y-141886525D01*
X161146525Y-142093368D01*
X160984010Y-142336589D01*
X160872068Y-142606842D01*
X160815000Y-142893740D01*
X160815000Y-143186260D01*
X160872068Y-143473158D01*
X160984010Y-143743411D01*
X161146525Y-143986632D01*
X161353368Y-144193475D01*
X161596589Y-144355990D01*
X161866842Y-144467932D01*
X162153740Y-144525000D01*
X162446260Y-144525000D01*
X162733158Y-144467932D01*
X163003411Y-144355990D01*
X163246632Y-144193475D01*
X163390107Y-144050000D01*
X163749893Y-144050000D01*
X163893368Y-144193475D01*
X164136589Y-144355990D01*
X164406842Y-144467932D01*
X164693740Y-144525000D01*
X164896644Y-144525000D01*
X165515744Y-145144100D01*
X165547368Y-145182634D01*
X165701161Y-145308848D01*
X165876621Y-145402633D01*
X166067006Y-145460386D01*
X166265001Y-145479887D01*
X166314609Y-145475001D01*
X175634393Y-145475001D01*
X175684001Y-145479887D01*
X175881995Y-145460386D01*
X176072381Y-145402633D01*
X176247841Y-145308848D01*
X176401634Y-145182634D01*
X176433262Y-145144095D01*
X178049099Y-143528258D01*
X178087633Y-143496635D01*
X178213847Y-143342842D01*
X178307632Y-143167382D01*
X178346273Y-143040000D01*
X178365385Y-142976997D01*
X178384886Y-142779002D01*
X178380000Y-142729394D01*
X178380000Y-142526444D01*
X180480202Y-142526444D01*
X180480202Y-142973556D01*
X180567429Y-143412076D01*
X180738531Y-143825153D01*
X180986932Y-144196912D01*
X181303088Y-144513068D01*
X181674847Y-144761469D01*
X182087924Y-144932571D01*
X182526444Y-145019798D01*
X182973556Y-145019798D01*
X183412076Y-144932571D01*
X183825153Y-144761469D01*
X184196912Y-144513068D01*
X184513068Y-144196912D01*
X184761469Y-143825153D01*
X184932571Y-143412076D01*
X185019798Y-142973556D01*
X185019798Y-142526444D01*
X184932571Y-142087924D01*
X184761469Y-141674847D01*
X184513068Y-141303088D01*
X184196912Y-140986932D01*
X183825153Y-140738531D01*
X183412076Y-140567429D01*
X182973556Y-140480202D01*
X182526444Y-140480202D01*
X182087924Y-140567429D01*
X181674847Y-140738531D01*
X181303088Y-140986932D01*
X180986932Y-141303088D01*
X180738531Y-141674847D01*
X180567429Y-142087924D01*
X180480202Y-142526444D01*
X178380000Y-142526444D01*
X178380000Y-138748355D01*
X192888356Y-124240000D01*
X192985393Y-124240000D01*
X193035001Y-124244886D01*
X193084609Y-124240000D01*
X199864393Y-124240000D01*
X199914001Y-124244886D01*
X200111995Y-124225385D01*
X200302381Y-124167632D01*
X200477841Y-124073847D01*
X200631634Y-123947633D01*
X200663262Y-123909094D01*
X202459090Y-122113267D01*
X202497623Y-122081644D01*
X202623837Y-121927851D01*
X202717622Y-121752391D01*
X202746858Y-121656013D01*
X202775375Y-121562006D01*
X202794876Y-121364011D01*
X202789990Y-121314403D01*
X202789990Y-106579594D01*
X202794876Y-106529989D01*
X202787138Y-106451425D01*
X202775375Y-106331996D01*
X202717622Y-106141610D01*
X202623837Y-105966150D01*
X202497623Y-105812357D01*
X202459084Y-105780729D01*
X200799261Y-104120906D01*
X200767633Y-104082367D01*
X200613840Y-103956153D01*
X200438380Y-103862368D01*
X200247994Y-103804615D01*
X200099608Y-103790000D01*
X200050000Y-103785114D01*
X200000392Y-103790000D01*
X193268355Y-103790000D01*
X189149261Y-99670906D01*
X189117633Y-99632367D01*
X188963840Y-99506153D01*
X188788380Y-99412368D01*
X188597994Y-99354615D01*
X188449608Y-99340000D01*
X188400000Y-99335114D01*
X188350392Y-99340000D01*
X184213357Y-99340000D01*
X180944262Y-96070906D01*
X180912634Y-96032367D01*
X180758841Y-95906153D01*
X180583381Y-95812368D01*
X180392995Y-95754615D01*
X180244609Y-95740000D01*
X180195001Y-95735114D01*
X180145393Y-95740000D01*
X176010000Y-95740000D01*
X176010000Y-91736323D01*
X215570497Y-91736323D01*
X215570497Y-92163677D01*
X215653870Y-92582821D01*
X215817412Y-92977645D01*
X216054837Y-93332977D01*
X216357023Y-93635163D01*
X216712355Y-93872588D01*
X217107179Y-94036130D01*
X217526323Y-94119503D01*
X217953677Y-94119503D01*
X218372821Y-94036130D01*
X218767645Y-93872588D01*
X219122977Y-93635163D01*
X219425163Y-93332977D01*
X219662588Y-92977645D01*
X219826130Y-92582821D01*
X219909503Y-92163677D01*
X219909503Y-91736323D01*
X227670497Y-91736323D01*
X227670497Y-92163677D01*
X227753870Y-92582821D01*
X227917412Y-92977645D01*
X228154837Y-93332977D01*
X228457023Y-93635163D01*
X228812355Y-93872588D01*
X229207179Y-94036130D01*
X229626323Y-94119503D01*
X230053677Y-94119503D01*
X230472821Y-94036130D01*
X230867645Y-93872588D01*
X231222977Y-93635163D01*
X231525163Y-93332977D01*
X231762588Y-92977645D01*
X231926130Y-92582821D01*
X232009503Y-92163677D01*
X232009503Y-91736323D01*
X231926130Y-91317179D01*
X231762588Y-90922355D01*
X231525163Y-90567023D01*
X231222977Y-90264837D01*
X230867645Y-90027412D01*
X230472821Y-89863870D01*
X230053677Y-89780497D01*
X229626323Y-89780497D01*
X229207179Y-89863870D01*
X228812355Y-90027412D01*
X228457023Y-90264837D01*
X228154837Y-90567023D01*
X227917412Y-90922355D01*
X227753870Y-91317179D01*
X227670497Y-91736323D01*
X219909503Y-91736323D01*
X219826130Y-91317179D01*
X219662588Y-90922355D01*
X219425163Y-90567023D01*
X219122977Y-90264837D01*
X218767645Y-90027412D01*
X218372821Y-89863870D01*
X217953677Y-89780497D01*
X217526323Y-89780497D01*
X217107179Y-89863870D01*
X216712355Y-90027412D01*
X216357023Y-90264837D01*
X216054837Y-90567023D01*
X215817412Y-90922355D01*
X215653870Y-91317179D01*
X215570497Y-91736323D01*
X176010000Y-91736323D01*
X176010000Y-87777542D01*
X176091383Y-87581067D01*
X176135000Y-87361788D01*
X176135000Y-87138212D01*
X176091383Y-86918933D01*
X176005824Y-86712376D01*
X175881612Y-86526480D01*
X175723520Y-86368388D01*
X175537624Y-86244176D01*
X175331067Y-86158617D01*
X175111788Y-86115000D01*
X174888212Y-86115000D01*
X174668933Y-86158617D01*
X174462376Y-86244176D01*
X174276480Y-86368388D01*
X174118388Y-86526480D01*
X173994176Y-86712376D01*
X173908617Y-86918933D01*
X173865000Y-87138212D01*
X173865000Y-87361788D01*
X173908617Y-87581067D01*
X173990000Y-87777542D01*
X173990001Y-96240000D01*
X170238072Y-96240000D01*
X170238072Y-95900000D01*
X170225812Y-95775518D01*
X170189502Y-95655820D01*
X170130537Y-95545506D01*
X170051185Y-95448815D01*
X169954494Y-95369463D01*
X169844180Y-95310498D01*
X169724482Y-95274188D01*
X169600000Y-95261928D01*
X167900000Y-95261928D01*
X167775518Y-95274188D01*
X167655820Y-95310498D01*
X167545506Y-95369463D01*
X167448815Y-95448815D01*
X167369463Y-95545506D01*
X167310498Y-95655820D01*
X167288487Y-95728380D01*
X167156632Y-95596525D01*
X166913411Y-95434010D01*
X166643158Y-95322068D01*
X166356260Y-95265000D01*
X166063740Y-95265000D01*
X165776842Y-95322068D01*
X165506589Y-95434010D01*
X165263368Y-95596525D01*
X165056525Y-95803368D01*
X164940000Y-95977760D01*
X164823475Y-95803368D01*
X164616632Y-95596525D01*
X164373411Y-95434010D01*
X164103158Y-95322068D01*
X163816260Y-95265000D01*
X163523740Y-95265000D01*
X163236842Y-95322068D01*
X162966589Y-95434010D01*
X162723368Y-95596525D01*
X162516525Y-95803368D01*
X162400000Y-95977760D01*
X162283475Y-95803368D01*
X162076632Y-95596525D01*
X161833411Y-95434010D01*
X161563158Y-95322068D01*
X161276260Y-95265000D01*
X160983740Y-95265000D01*
X160696842Y-95322068D01*
X160426589Y-95434010D01*
X160183368Y-95596525D01*
X159976525Y-95803368D01*
X159814010Y-96046589D01*
X159702068Y-96316842D01*
X159645000Y-96603740D01*
X159645000Y-96896260D01*
X159702068Y-97183158D01*
X159814010Y-97453411D01*
X159976525Y-97696632D01*
X160183368Y-97903475D01*
X160370000Y-98028179D01*
X160370001Y-101418788D01*
X160298789Y-101490000D01*
X160214320Y-101490000D01*
X160176997Y-101486324D01*
X160139674Y-101490000D01*
X160139665Y-101490000D01*
X160028012Y-101500997D01*
X159884751Y-101544454D01*
X159752722Y-101615026D01*
X159636997Y-101709999D01*
X159613198Y-101738998D01*
X159312207Y-102039990D01*
X158149066Y-102039990D01*
X157100930Y-102039992D01*
X157063598Y-102036315D01*
X156914612Y-102050989D01*
X156771352Y-102094445D01*
X156639322Y-102165017D01*
X156552596Y-102236192D01*
X156552591Y-102236197D01*
X156523598Y-102259991D01*
X156499804Y-102288984D01*
X154795797Y-103992992D01*
X154795792Y-103992996D01*
X154239002Y-104549787D01*
X154209999Y-104573589D01*
X154154871Y-104640764D01*
X154115026Y-104689314D01*
X154080037Y-104754774D01*
X154044454Y-104821344D01*
X154000997Y-104964605D01*
X153990000Y-105076258D01*
X153990000Y-105076268D01*
X153986324Y-105113590D01*
X153990000Y-105150912D01*
X153990000Y-105548787D01*
X152545793Y-106992996D01*
X152498799Y-107039990D01*
X148664341Y-107039990D01*
X148627008Y-107036313D01*
X148589675Y-107039990D01*
X148478022Y-107050987D01*
X148334761Y-107094444D01*
X148202732Y-107165016D01*
X148087007Y-107259989D01*
X148063209Y-107288987D01*
X146348706Y-109003491D01*
X146275165Y-109033953D01*
X146105647Y-109147221D01*
X145961484Y-109291384D01*
X145848216Y-109460902D01*
X145770195Y-109649260D01*
X145730421Y-109849219D01*
X135030000Y-109849219D01*
X135030000Y-97848816D01*
X145755000Y-97848816D01*
X145755000Y-98151184D01*
X145813989Y-98447743D01*
X145929701Y-98727095D01*
X146097688Y-98978505D01*
X146311495Y-99192312D01*
X146562905Y-99360299D01*
X146842257Y-99476011D01*
X147138816Y-99535000D01*
X147441184Y-99535000D01*
X147737743Y-99476011D01*
X148017095Y-99360299D01*
X148268505Y-99192312D01*
X148482312Y-98978505D01*
X148650299Y-98727095D01*
X148766011Y-98447743D01*
X148825000Y-98151184D01*
X148825000Y-97848816D01*
X148766011Y-97552257D01*
X148650299Y-97272905D01*
X148482312Y-97021495D01*
X148268505Y-96807688D01*
X148017095Y-96639701D01*
X147737743Y-96523989D01*
X147441184Y-96465000D01*
X147138816Y-96465000D01*
X146842257Y-96523989D01*
X146562905Y-96639701D01*
X146311495Y-96807688D01*
X146097688Y-97021495D01*
X145929701Y-97272905D01*
X145813989Y-97552257D01*
X145755000Y-97848816D01*
X135030000Y-97848816D01*
X135030000Y-79248355D01*
X135408355Y-78870000D01*
X140231645Y-78870000D01*
X145351644Y-83990000D01*
X141109604Y-83990000D01*
X141059999Y-83985114D01*
X141010394Y-83990000D01*
X141010392Y-83990000D01*
X140862006Y-84004615D01*
X140671620Y-84062368D01*
X140496160Y-84156153D01*
X140342367Y-84282367D01*
X140310739Y-84320906D01*
X138797322Y-85834323D01*
X138777932Y-85736842D01*
X138665990Y-85466589D01*
X138503475Y-85223368D01*
X138296632Y-85016525D01*
X138122240Y-84900000D01*
X138296632Y-84783475D01*
X138503475Y-84576632D01*
X138665990Y-84333411D01*
X138777932Y-84063158D01*
X138835000Y-83776260D01*
X138835000Y-83483740D01*
X138777932Y-83196842D01*
X138665990Y-82926589D01*
X138503475Y-82683368D01*
X138296632Y-82476525D01*
X138053411Y-82314010D01*
X137783158Y-82202068D01*
X137496260Y-82145000D01*
X137203740Y-82145000D01*
X136916842Y-82202068D01*
X136646589Y-82314010D01*
X136403368Y-82476525D01*
X136196525Y-82683368D01*
X136034010Y-82926589D01*
X135922068Y-83196842D01*
X135865000Y-83483740D01*
X135865000Y-83776260D01*
X135922068Y-84063158D01*
X136034010Y-84333411D01*
X136196525Y-84576632D01*
X136403368Y-84783475D01*
X136577760Y-84900000D01*
X136403368Y-85016525D01*
X136196525Y-85223368D01*
X136034010Y-85466589D01*
X135922068Y-85736842D01*
X135865000Y-86023740D01*
X135865000Y-86316260D01*
X135922068Y-86603158D01*
X136034010Y-86873411D01*
X136196525Y-87116632D01*
X136403368Y-87323475D01*
X136577760Y-87440000D01*
X136403368Y-87556525D01*
X136196525Y-87763368D01*
X136034010Y-88006589D01*
X135922068Y-88276842D01*
X135865000Y-88563740D01*
X135865000Y-88856260D01*
X135922068Y-89143158D01*
X136034010Y-89413411D01*
X136196525Y-89656632D01*
X136403368Y-89863475D01*
X136577760Y-89980000D01*
X136403368Y-90096525D01*
X136196525Y-90303368D01*
X136034010Y-90546589D01*
X135922068Y-90816842D01*
X135865000Y-91103740D01*
X135865000Y-91396260D01*
X135922068Y-91683158D01*
X136034010Y-91953411D01*
X136196525Y-92196632D01*
X136328380Y-92328487D01*
X136255820Y-92350498D01*
X136145506Y-92409463D01*
X136048815Y-92488815D01*
X135969463Y-92585506D01*
X135910498Y-92695820D01*
X135874188Y-92815518D01*
X135861928Y-92940000D01*
X135861928Y-94640000D01*
X135874188Y-94764482D01*
X135910498Y-94884180D01*
X135969463Y-94994494D01*
X136048815Y-95091185D01*
X136145506Y-95170537D01*
X136255820Y-95229502D01*
X136375518Y-95265812D01*
X136500000Y-95278072D01*
X138200000Y-95278072D01*
X138324482Y-95265812D01*
X138444180Y-95229502D01*
X138554494Y-95170537D01*
X138651185Y-95091185D01*
X138730537Y-94994494D01*
X138789502Y-94884180D01*
X138825812Y-94764482D01*
X138838072Y-94640000D01*
X138838072Y-92940000D01*
X138825812Y-92815518D01*
X138789502Y-92695820D01*
X138730537Y-92585506D01*
X138651185Y-92488815D01*
X138554494Y-92409463D01*
X138444180Y-92350498D01*
X138371620Y-92328487D01*
X138503475Y-92196632D01*
X138665990Y-91953411D01*
X138777932Y-91683158D01*
X138835000Y-91396260D01*
X138835000Y-91103740D01*
X138777932Y-90816842D01*
X138665990Y-90546589D01*
X138503475Y-90303368D01*
X138296632Y-90096525D01*
X138122240Y-89980000D01*
X138296632Y-89863475D01*
X138503475Y-89656632D01*
X138665990Y-89413411D01*
X138777932Y-89143158D01*
X138835000Y-88856260D01*
X138835000Y-88653355D01*
X141478355Y-86010000D01*
X147720392Y-86010000D01*
X147770000Y-86014886D01*
X147819607Y-86010000D01*
X154950392Y-86010000D01*
X155000000Y-86014886D01*
X155197994Y-85995385D01*
X155263925Y-85975385D01*
X155388380Y-85937632D01*
X155563840Y-85843847D01*
X155717633Y-85717633D01*
X155749261Y-85679094D01*
X157668356Y-83760000D01*
X171860392Y-83760000D01*
X171910000Y-83764886D01*
X172107994Y-83745385D01*
X172249805Y-83702367D01*
X172298380Y-83687632D01*
X172473840Y-83593847D01*
X172627633Y-83467633D01*
X172659261Y-83429094D01*
X176801149Y-79287207D01*
X176987542Y-79210000D01*
X178250392Y-79210000D01*
X178300000Y-79214886D01*
X178497994Y-79195385D01*
X178688380Y-79137632D01*
X178863840Y-79043847D01*
X179017633Y-78917633D01*
X179049260Y-78879095D01*
X179418356Y-78510000D01*
X189081645Y-78510000D01*
X195670744Y-85099100D01*
X195702367Y-85137633D01*
X195856160Y-85263847D01*
X195917497Y-85296632D01*
X196031620Y-85357632D01*
X196222005Y-85415385D01*
X196420000Y-85434886D01*
X196469608Y-85430000D01*
X200519893Y-85430000D01*
X200593368Y-85503475D01*
X200767760Y-85620000D01*
X200593368Y-85736525D01*
X200386525Y-85943368D01*
X200224010Y-86186589D01*
X200112068Y-86456842D01*
X200055000Y-86743740D01*
X200055000Y-87036260D01*
X200112068Y-87323158D01*
X200224010Y-87593411D01*
X200386525Y-87836632D01*
X200518380Y-87968487D01*
X200445820Y-87990498D01*
X200335506Y-88049463D01*
X200238815Y-88128815D01*
X200159463Y-88225506D01*
X200100498Y-88335820D01*
X200064188Y-88455518D01*
X200051928Y-88580000D01*
X200051928Y-90280000D01*
X200064188Y-90404482D01*
X200100498Y-90524180D01*
X200159463Y-90634494D01*
X200238815Y-90731185D01*
X200335506Y-90810537D01*
X200445820Y-90869502D01*
X200565518Y-90905812D01*
X200690000Y-90918072D01*
X202390000Y-90918072D01*
X202514482Y-90905812D01*
X202634180Y-90869502D01*
X202744494Y-90810537D01*
X202841185Y-90731185D01*
X202920537Y-90634494D01*
X202979502Y-90524180D01*
X203015812Y-90404482D01*
X203028072Y-90280000D01*
X203028072Y-88580000D01*
X203015812Y-88455518D01*
X202979502Y-88335820D01*
X202920537Y-88225506D01*
X202841185Y-88128815D01*
X202744494Y-88049463D01*
X202634180Y-87990498D01*
X202561620Y-87968487D01*
X202693475Y-87836632D01*
X202855990Y-87593411D01*
X202967932Y-87323158D01*
X203025000Y-87036260D01*
X203025000Y-86743740D01*
X202967932Y-86456842D01*
X202855990Y-86186589D01*
X202693475Y-85943368D01*
X202486632Y-85736525D01*
X202312240Y-85620000D01*
X202486632Y-85503475D01*
X202693475Y-85296632D01*
X202855990Y-85053411D01*
X202967932Y-84783158D01*
X203025000Y-84496260D01*
X203025000Y-84203740D01*
X202967932Y-83916842D01*
X202855990Y-83646589D01*
X202693475Y-83403368D01*
X202486632Y-83196525D01*
X202312240Y-83080000D01*
X202486632Y-82963475D01*
X202693475Y-82756632D01*
X202855990Y-82513411D01*
X202967932Y-82243158D01*
X203025000Y-81956260D01*
X203025000Y-81663740D01*
X202967932Y-81376842D01*
X202855990Y-81106589D01*
X202693475Y-80863368D01*
X202486632Y-80656525D01*
X202312240Y-80540000D01*
X202486632Y-80423475D01*
X202693475Y-80216632D01*
X202855990Y-79973411D01*
X202967932Y-79703158D01*
X203025000Y-79416260D01*
X203025000Y-79123740D01*
X202967932Y-78836842D01*
X202855990Y-78566589D01*
X202693475Y-78323368D01*
X202486632Y-78116525D01*
X202243411Y-77954010D01*
X201973158Y-77842068D01*
X201686260Y-77785000D01*
X201393740Y-77785000D01*
X201106842Y-77842068D01*
X200836589Y-77954010D01*
X200593368Y-78116525D01*
X200386525Y-78323368D01*
X200224010Y-78566589D01*
X200112068Y-78836842D01*
X200055000Y-79123740D01*
X200055000Y-79416260D01*
X200112068Y-79703158D01*
X200224010Y-79973411D01*
X200386525Y-80216632D01*
X200593368Y-80423475D01*
X200767760Y-80540000D01*
X200593368Y-80656525D01*
X200386525Y-80863368D01*
X200224010Y-81106589D01*
X200112068Y-81376842D01*
X200055000Y-81663740D01*
X200055000Y-81956260D01*
X200112068Y-82243158D01*
X200224010Y-82513411D01*
X200386525Y-82756632D01*
X200593368Y-82963475D01*
X200767760Y-83080000D01*
X200593368Y-83196525D01*
X200386525Y-83403368D01*
X200382094Y-83410000D01*
X196838356Y-83410000D01*
X190249261Y-76820906D01*
X190217633Y-76782367D01*
X190063840Y-76656153D01*
X189888380Y-76562368D01*
X189697994Y-76504615D01*
X189549608Y-76490000D01*
X189500000Y-76485114D01*
X189450392Y-76490000D01*
X179049597Y-76490000D01*
X178999999Y-76485115D01*
X178950401Y-76490000D01*
X178950392Y-76490000D01*
X178802006Y-76504615D01*
X178611620Y-76562368D01*
X178436160Y-76656153D01*
X178282367Y-76782367D01*
X178250743Y-76820901D01*
X177881645Y-77190000D01*
X176987542Y-77190000D01*
X176791067Y-77108617D01*
X176571788Y-77065000D01*
X176348212Y-77065000D01*
X176128933Y-77108617D01*
X175922376Y-77194176D01*
X175736480Y-77318388D01*
X175578388Y-77476480D01*
X175454176Y-77662376D01*
X175372793Y-77858851D01*
X171491645Y-81740000D01*
X157299608Y-81740000D01*
X157250000Y-81735114D01*
X157052005Y-81754615D01*
X156861620Y-81812368D01*
X156686160Y-81906153D01*
X156532367Y-82032367D01*
X156500744Y-82070900D01*
X154581645Y-83990000D01*
X148208356Y-83990000D01*
X141399261Y-77180906D01*
X141367633Y-77142367D01*
X141213840Y-77016153D01*
X141038380Y-76922368D01*
X140847994Y-76864615D01*
X140699608Y-76850000D01*
X140650000Y-76845114D01*
X140600392Y-76850000D01*
X135039604Y-76850000D01*
X134989999Y-76845114D01*
X134940394Y-76850000D01*
X134940392Y-76850000D01*
X134792006Y-76864615D01*
X134601620Y-76922368D01*
X134426160Y-77016153D01*
X134272367Y-77142367D01*
X134240739Y-77180906D01*
X133340906Y-78080739D01*
X133302367Y-78112367D01*
X133176153Y-78266160D01*
X133091872Y-78423840D01*
X133082368Y-78441621D01*
X133024615Y-78632006D01*
X133005114Y-78830000D01*
X98950000Y-78830000D01*
X98950000Y-72026323D01*
X104730497Y-72026323D01*
X104730497Y-72453677D01*
X104813870Y-72872821D01*
X104977412Y-73267645D01*
X105214837Y-73622977D01*
X105517023Y-73925163D01*
X105872355Y-74162588D01*
X106267179Y-74326130D01*
X106686323Y-74409503D01*
X107113677Y-74409503D01*
X107532821Y-74326130D01*
X107927645Y-74162588D01*
X108282977Y-73925163D01*
X108585163Y-73622977D01*
X108822588Y-73267645D01*
X108986130Y-72872821D01*
X109069503Y-72453677D01*
X109069503Y-72026323D01*
X116830497Y-72026323D01*
X116830497Y-72453677D01*
X116913870Y-72872821D01*
X117077412Y-73267645D01*
X117314837Y-73622977D01*
X117617023Y-73925163D01*
X117972355Y-74162588D01*
X118367179Y-74326130D01*
X118786323Y-74409503D01*
X119213677Y-74409503D01*
X119632821Y-74326130D01*
X120027645Y-74162588D01*
X120382977Y-73925163D01*
X120685163Y-73622977D01*
X120922588Y-73267645D01*
X121086130Y-72872821D01*
X121169503Y-72453677D01*
X121169503Y-72026323D01*
X121131710Y-71836323D01*
X215570497Y-71836323D01*
X215570497Y-72263677D01*
X215653870Y-72682821D01*
X215817412Y-73077645D01*
X216054837Y-73432977D01*
X216357023Y-73735163D01*
X216712355Y-73972588D01*
X217107179Y-74136130D01*
X217526323Y-74219503D01*
X217953677Y-74219503D01*
X218372821Y-74136130D01*
X218767645Y-73972588D01*
X219122977Y-73735163D01*
X219425163Y-73432977D01*
X219662588Y-73077645D01*
X219826130Y-72682821D01*
X219909503Y-72263677D01*
X219909503Y-71836323D01*
X227670497Y-71836323D01*
X227670497Y-72263677D01*
X227753870Y-72682821D01*
X227917412Y-73077645D01*
X228154837Y-73432977D01*
X228457023Y-73735163D01*
X228812355Y-73972588D01*
X229207179Y-74136130D01*
X229626323Y-74219503D01*
X230053677Y-74219503D01*
X230472821Y-74136130D01*
X230867645Y-73972588D01*
X231222977Y-73735163D01*
X231525163Y-73432977D01*
X231762588Y-73077645D01*
X231926130Y-72682821D01*
X232009503Y-72263677D01*
X232009503Y-71836323D01*
X231926130Y-71417179D01*
X231762588Y-71022355D01*
X231525163Y-70667023D01*
X231222977Y-70364837D01*
X230867645Y-70127412D01*
X230472821Y-69963870D01*
X230053677Y-69880497D01*
X229626323Y-69880497D01*
X229207179Y-69963870D01*
X228812355Y-70127412D01*
X228457023Y-70364837D01*
X228154837Y-70667023D01*
X227917412Y-71022355D01*
X227753870Y-71417179D01*
X227670497Y-71836323D01*
X219909503Y-71836323D01*
X219826130Y-71417179D01*
X219662588Y-71022355D01*
X219425163Y-70667023D01*
X219122977Y-70364837D01*
X218767645Y-70127412D01*
X218372821Y-69963870D01*
X217953677Y-69880497D01*
X217526323Y-69880497D01*
X217107179Y-69963870D01*
X216712355Y-70127412D01*
X216357023Y-70364837D01*
X216054837Y-70667023D01*
X215817412Y-71022355D01*
X215653870Y-71417179D01*
X215570497Y-71836323D01*
X121131710Y-71836323D01*
X121086130Y-71607179D01*
X120922588Y-71212355D01*
X120685163Y-70857023D01*
X120382977Y-70554837D01*
X120027645Y-70317412D01*
X119632821Y-70153870D01*
X119213677Y-70070497D01*
X118786323Y-70070497D01*
X118367179Y-70153870D01*
X117972355Y-70317412D01*
X117617023Y-70554837D01*
X117314837Y-70857023D01*
X117077412Y-71212355D01*
X116913870Y-71607179D01*
X116830497Y-72026323D01*
X109069503Y-72026323D01*
X108986130Y-71607179D01*
X108822588Y-71212355D01*
X108585163Y-70857023D01*
X108282977Y-70554837D01*
X107927645Y-70317412D01*
X107532821Y-70153870D01*
X107113677Y-70070497D01*
X106686323Y-70070497D01*
X106267179Y-70153870D01*
X105872355Y-70317412D01*
X105517023Y-70554837D01*
X105214837Y-70857023D01*
X104977412Y-71212355D01*
X104813870Y-71607179D01*
X104730497Y-72026323D01*
X98950000Y-72026323D01*
X98950000Y-69060000D01*
X128267591Y-69060000D01*
X128300000Y-69063192D01*
X128332409Y-69060000D01*
X128332419Y-69060000D01*
X128429383Y-69050450D01*
X128553793Y-69012710D01*
X128668450Y-68951425D01*
X128768948Y-68868948D01*
X128789616Y-68843764D01*
X130883380Y-66750000D01*
X136357815Y-66750000D01*
X136386487Y-67041111D01*
X136471401Y-67321034D01*
X136609294Y-67579014D01*
X136794866Y-67805134D01*
X137020986Y-67990706D01*
X137278966Y-68128599D01*
X137558889Y-68213513D01*
X137777050Y-68235000D01*
X138222950Y-68235000D01*
X138441111Y-68213513D01*
X138721034Y-68128599D01*
X138979014Y-67990706D01*
X139205134Y-67805134D01*
X139390706Y-67579014D01*
X139528599Y-67321034D01*
X139613513Y-67041111D01*
X139642185Y-66750000D01*
X139613513Y-66458889D01*
X139528599Y-66178966D01*
X139390706Y-65920986D01*
X139205134Y-65694866D01*
X138979014Y-65509294D01*
X138721034Y-65371401D01*
X138441111Y-65286487D01*
X138222950Y-65265000D01*
X137777050Y-65265000D01*
X137558889Y-65286487D01*
X137278966Y-65371401D01*
X137020986Y-65509294D01*
X136794866Y-65694866D01*
X136609294Y-65920986D01*
X136471401Y-66178966D01*
X136386487Y-66458889D01*
X136357815Y-66750000D01*
X130883380Y-66750000D01*
X132534564Y-65098816D01*
X191255000Y-65098816D01*
X191255000Y-65401184D01*
X191313989Y-65697743D01*
X191429701Y-65977095D01*
X191597688Y-66228505D01*
X191811495Y-66442312D01*
X192062905Y-66610299D01*
X192342257Y-66726011D01*
X192638816Y-66785000D01*
X192941184Y-66785000D01*
X193237743Y-66726011D01*
X193517095Y-66610299D01*
X193768505Y-66442312D01*
X193982312Y-66228505D01*
X194150299Y-65977095D01*
X194266011Y-65697743D01*
X194325000Y-65401184D01*
X194325000Y-65098816D01*
X194266011Y-64802257D01*
X194150299Y-64522905D01*
X193982312Y-64271495D01*
X193768505Y-64057688D01*
X193517095Y-63889701D01*
X193237743Y-63773989D01*
X192941184Y-63715000D01*
X192638816Y-63715000D01*
X192342257Y-63773989D01*
X192062905Y-63889701D01*
X191811495Y-64057688D01*
X191597688Y-64271495D01*
X191429701Y-64522905D01*
X191313989Y-64802257D01*
X191255000Y-65098816D01*
X132534564Y-65098816D01*
X135227644Y-62405736D01*
X152090000Y-62405736D01*
X152090000Y-63594263D01*
X152110402Y-63801407D01*
X152191027Y-64067193D01*
X152321956Y-64312143D01*
X152498156Y-64526843D01*
X152712856Y-64703044D01*
X152957806Y-64833973D01*
X153223592Y-64914598D01*
X153500000Y-64941822D01*
X153776407Y-64914598D01*
X154042193Y-64833973D01*
X154287143Y-64703044D01*
X154501843Y-64526844D01*
X154678044Y-64312144D01*
X154808973Y-64067194D01*
X154889598Y-63801408D01*
X154910000Y-63594264D01*
X154910000Y-62862408D01*
X155103000Y-62862408D01*
X155103000Y-63137592D01*
X155156686Y-63407490D01*
X155261995Y-63661727D01*
X155414880Y-63890535D01*
X155609465Y-64085120D01*
X155838273Y-64238005D01*
X156092510Y-64343314D01*
X156362408Y-64397000D01*
X156637592Y-64397000D01*
X156907490Y-64343314D01*
X157161727Y-64238005D01*
X157390535Y-64085120D01*
X157585120Y-63890535D01*
X157738005Y-63661727D01*
X157843314Y-63407490D01*
X157897000Y-63137592D01*
X157897000Y-62862408D01*
X158103000Y-62862408D01*
X158103000Y-63137592D01*
X158156686Y-63407490D01*
X158261995Y-63661727D01*
X158414880Y-63890535D01*
X158609465Y-64085120D01*
X158838273Y-64238005D01*
X159092510Y-64343314D01*
X159362408Y-64397000D01*
X159637592Y-64397000D01*
X159907490Y-64343314D01*
X160161727Y-64238005D01*
X160390535Y-64085120D01*
X160585120Y-63890535D01*
X160738005Y-63661727D01*
X160843314Y-63407490D01*
X160897000Y-63137592D01*
X160897000Y-62862408D01*
X160843314Y-62592510D01*
X160765950Y-62405736D01*
X164090000Y-62405736D01*
X164090000Y-63594263D01*
X164110402Y-63801407D01*
X164191027Y-64067193D01*
X164321956Y-64312143D01*
X164498156Y-64526843D01*
X164712856Y-64703044D01*
X164957806Y-64833973D01*
X165223592Y-64914598D01*
X165500000Y-64941822D01*
X165776407Y-64914598D01*
X166042193Y-64833973D01*
X166287143Y-64703044D01*
X166501843Y-64526844D01*
X166678044Y-64312144D01*
X166808973Y-64067194D01*
X166889598Y-63801408D01*
X166910000Y-63594264D01*
X166910000Y-62405736D01*
X166889598Y-62198592D01*
X166808973Y-61932806D01*
X166678044Y-61687856D01*
X166501844Y-61473156D01*
X166287144Y-61296956D01*
X166042194Y-61166027D01*
X165776408Y-61085402D01*
X165500000Y-61058178D01*
X165223593Y-61085402D01*
X164957807Y-61166027D01*
X164712857Y-61296956D01*
X164498157Y-61473156D01*
X164321956Y-61687856D01*
X164191027Y-61932806D01*
X164110402Y-62198592D01*
X164090000Y-62405736D01*
X160765950Y-62405736D01*
X160738005Y-62338273D01*
X160585120Y-62109465D01*
X160390535Y-61914880D01*
X160161727Y-61761995D01*
X159907490Y-61656686D01*
X159637592Y-61603000D01*
X159362408Y-61603000D01*
X159092510Y-61656686D01*
X158838273Y-61761995D01*
X158609465Y-61914880D01*
X158414880Y-62109465D01*
X158261995Y-62338273D01*
X158156686Y-62592510D01*
X158103000Y-62862408D01*
X157897000Y-62862408D01*
X157843314Y-62592510D01*
X157738005Y-62338273D01*
X157585120Y-62109465D01*
X157390535Y-61914880D01*
X157161727Y-61761995D01*
X156907490Y-61656686D01*
X156637592Y-61603000D01*
X156362408Y-61603000D01*
X156092510Y-61656686D01*
X155838273Y-61761995D01*
X155609465Y-61914880D01*
X155414880Y-62109465D01*
X155261995Y-62338273D01*
X155156686Y-62592510D01*
X155103000Y-62862408D01*
X154910000Y-62862408D01*
X154910000Y-62405736D01*
X154889598Y-62198592D01*
X154808973Y-61932806D01*
X154678044Y-61687856D01*
X154501844Y-61473156D01*
X154287144Y-61296956D01*
X154042194Y-61166027D01*
X153776408Y-61085402D01*
X153500000Y-61058178D01*
X153223593Y-61085402D01*
X152957807Y-61166027D01*
X152712857Y-61296956D01*
X152498157Y-61473156D01*
X152321956Y-61687856D01*
X152191027Y-61932806D01*
X152110402Y-62198592D01*
X152090000Y-62405736D01*
X135227644Y-62405736D01*
X138573381Y-59060000D01*
X198026620Y-59060000D01*
X207810388Y-68843769D01*
G37*
%TD.AperFunction*%
%TD*%
M02*
