%TF.GenerationSoftware,KiCad,Pcbnew,(5.1.9)-1*%
%TF.CreationDate,2021-05-13T01:47:40+02:00*%
%TF.ProjectId,PlytkaGlowna,506c7974-6b61-4476-9c6f-776e612e6b69,rev?*%
%TF.SameCoordinates,Original*%
%TF.FileFunction,Profile,NP*%
%FSLAX46Y46*%
G04 Gerber Fmt 4.6, Leading zero omitted, Abs format (unit mm)*
G04 Created by KiCad (PCBNEW (5.1.9)-1) date 2021-05-13 01:47:40*
%MOMM*%
%LPD*%
G01*
G04 APERTURE LIST*
%TA.AperFunction,Profile*%
%ADD10C,0.050000*%
%TD*%
G04 APERTURE END LIST*
D10*
X238310000Y-68400000D02*
X208300000Y-68400000D01*
X238310000Y-96400000D02*
X208300000Y-96400000D01*
X128300000Y-68400000D02*
X98290000Y-68400000D01*
X184350781Y-142750000D02*
G75*
G03*
X184350781Y-142750000I-1600781J0D01*
G01*
X155850781Y-142750000D02*
G75*
G03*
X155850781Y-142750000I-1600781J0D01*
G01*
X208300000Y-96400000D02*
X208300000Y-105900000D01*
X134700000Y-129700000D02*
X150038213Y-136578208D01*
X128300000Y-105900000D02*
X134700000Y-129700000D01*
X186038213Y-146600001D02*
X186561788Y-146600000D01*
X186561788Y-136578207D02*
X186561788Y-146600000D01*
X150038213Y-146600001D02*
X186038213Y-146600001D01*
X150038213Y-136578208D02*
X150038213Y-146600001D01*
X219240000Y-72050000D02*
G75*
G03*
X219240000Y-72050000I-1500000J0D01*
G01*
X219240000Y-91950000D02*
G75*
G03*
X219240000Y-91950000I-1500000J0D01*
G01*
X231340000Y-91950000D02*
G75*
G03*
X231340000Y-91950000I-1500000J0D01*
G01*
X231340000Y-72050000D02*
G75*
G03*
X231340000Y-72050000I-1500000J0D01*
G01*
X108400000Y-92140000D02*
G75*
G03*
X108400000Y-92140000I-1500000J0D01*
G01*
X120500000Y-92140000D02*
G75*
G03*
X120500000Y-92140000I-1500000J0D01*
G01*
X108400000Y-72240000D02*
G75*
G03*
X108400000Y-72240000I-1500000J0D01*
G01*
X120500000Y-72240000D02*
G75*
G03*
X120500000Y-72240000I-1500000J0D01*
G01*
X201900000Y-129700000D02*
X186561787Y-136578208D01*
X208300000Y-105900000D02*
X201900000Y-129700000D01*
X128300000Y-96400000D02*
X128300000Y-105900000D01*
X198300000Y-58400000D02*
X138300000Y-58400000D01*
X208300000Y-68400000D02*
X198300000Y-58400000D01*
X128300000Y-68400000D02*
X138300000Y-58400000D01*
X128300000Y-96400000D02*
X98290000Y-96400000D01*
X238310000Y-96400000D02*
X238310000Y-68400000D01*
X98290000Y-68400000D02*
X98290000Y-96400000D01*
M02*
