%TF.GenerationSoftware,KiCad,Pcbnew,(5.1.9)-1*%
%TF.CreationDate,2021-05-12T23:16:12+02:00*%
%TF.ProjectId,PlytkaGlowna,506c7974-6b61-4476-9c6f-776e612e6b69,rev?*%
%TF.SameCoordinates,Original*%
%TF.FileFunction,Soldermask,Bot*%
%TF.FilePolarity,Negative*%
%FSLAX46Y46*%
G04 Gerber Fmt 4.6, Leading zero omitted, Abs format (unit mm)*
G04 Created by KiCad (PCBNEW (5.1.9)-1) date 2021-05-12 23:16:12*
%MOMM*%
%LPD*%
G01*
G04 APERTURE LIST*
%ADD10O,1.700000X1.700000*%
%ADD11R,1.700000X1.700000*%
%ADD12R,1.800000X1.800000*%
%ADD13C,1.800000*%
%ADD14O,2.000000X1.700000*%
%ADD15C,1.524000*%
%ADD16O,1.550000X2.600000*%
G04 APERTURE END LIST*
D10*
%TO.C,J6*%
X201540000Y-76730000D03*
X201540000Y-79270000D03*
X201540000Y-81810000D03*
X201540000Y-84350000D03*
X201540000Y-86890000D03*
D11*
X201540000Y-89430000D03*
%TD*%
%TO.C,J7*%
X137350000Y-93790000D03*
D10*
X137350000Y-91250000D03*
X137350000Y-88710000D03*
X137350000Y-86170000D03*
X137350000Y-83630000D03*
X137350000Y-81090000D03*
%TD*%
%TO.C,J5*%
X199230000Y-121804999D03*
X196690000Y-121804999D03*
X194150000Y-121804999D03*
X191610000Y-121804999D03*
X189070000Y-121804999D03*
X186530000Y-121804999D03*
X183990000Y-121804999D03*
D11*
X181450000Y-121804999D03*
%TD*%
D12*
%TO.C,D1*%
X190250000Y-65250000D03*
D13*
X192790000Y-65250000D03*
%TD*%
%TO.C,D2*%
X147290000Y-98000000D03*
D12*
X144750000Y-98000000D03*
%TD*%
%TO.C,J1*%
G36*
G01*
X138750000Y-70100000D02*
X137250000Y-70100000D01*
G75*
G02*
X137000000Y-69850000I0J250000D01*
G01*
X137000000Y-68650000D01*
G75*
G02*
X137250000Y-68400000I250000J0D01*
G01*
X138750000Y-68400000D01*
G75*
G02*
X139000000Y-68650000I0J-250000D01*
G01*
X139000000Y-69850000D01*
G75*
G02*
X138750000Y-70100000I-250000J0D01*
G01*
G37*
D14*
X138000000Y-66750000D03*
%TD*%
D11*
%TO.C,J2*%
X168750000Y-96750000D03*
D10*
X166210000Y-96750000D03*
X163670000Y-96750000D03*
X161130000Y-96750000D03*
X158590000Y-96750000D03*
%TD*%
D11*
%TO.C,J3*%
X182200000Y-130800000D03*
D10*
X179660000Y-130800000D03*
X177120000Y-130800000D03*
X174580000Y-130800000D03*
X172040000Y-130800000D03*
X169500000Y-130800000D03*
%TD*%
D11*
%TO.C,J4*%
X199200000Y-108610000D03*
D10*
X196660000Y-108610000D03*
X194120000Y-108610000D03*
X191580000Y-108610000D03*
X189040000Y-108610000D03*
X186500000Y-108610000D03*
X183960000Y-108610000D03*
X181420000Y-108610000D03*
%TD*%
D11*
%TO.C,J8*%
X175000000Y-140500000D03*
D10*
X175000000Y-143040000D03*
X172460000Y-140500000D03*
X172460000Y-143040000D03*
X169920000Y-140500000D03*
X169920000Y-143040000D03*
X167380000Y-140500000D03*
X167380000Y-143040000D03*
X164840000Y-140500000D03*
X164840000Y-143040000D03*
X162300000Y-140500000D03*
X162300000Y-143040000D03*
%TD*%
D15*
%TO.C,SW2*%
X162500000Y-63000000D03*
X159500000Y-63000000D03*
X156500000Y-63000000D03*
D16*
X165500000Y-63000000D03*
X153500000Y-63000000D03*
%TD*%
M02*
