M48
; DRILL file {KiCad (5.1.9)-1} date 05/12/21 23:16:18
; FORMAT={-:-/ absolute / inch / decimal}
; #@! TF.CreationDate,2021-05-12T23:16:18+02:00
; #@! TF.GenerationSoftware,Kicad,Pcbnew,(5.1.9)-1
; #@! TF.FileFunction,Plated,1,2,PTH
FMAT,2
INCH
T1C0.0157
T2C0.0217
T3C0.0295
T4C0.0300
T5C0.0354
T6C0.0394
%
G90
G05
T1
X5.7782Y-4.3288
X5.8465Y-4.2913
X5.8563Y-4.5374
X6.0236Y-4.3307
X6.122Y-4.1634
X6.2008Y-4.8425
X6.2205Y-4.8031
X6.25Y-4.7638
X6.2697Y-4.6654
X6.3091Y-4.065
X6.4567Y-4.3406
X6.5945Y-4.2913
X6.6043Y-4.3406
X6.6339Y-4.4094
X6.7618Y-4.5965
X6.7913Y-4.0059
X6.7913Y-4.3701
X6.8602Y-4.3307
X6.8701Y-3.8287
X6.8898Y-3.435
X6.9488Y-2.9528
X7.276Y-4.5602
X7.4417Y-4.1157
T3
X5.9803Y-5.3114
T4
X6.1614Y-2.4803
X6.2795Y-2.4803
X6.3976Y-2.4803
T5
X5.6988Y-3.8583
X5.7988Y-3.8583
X7.4902Y-2.5689
X7.5902Y-2.5689
T6
X5.4075Y-3.1925
X5.4075Y-3.2925
X5.4075Y-3.3925
X5.4075Y-3.4925
X5.4075Y-3.5925
X5.4075Y-3.6925
X5.4331Y-2.628
X5.4331Y-2.7264
X6.2437Y-3.8091
X6.3437Y-3.8091
X6.3898Y-5.5315
X6.3898Y-5.6315
X6.4437Y-3.8091
X6.4898Y-5.5315
X6.4898Y-5.6315
X6.5437Y-3.8091
X6.5898Y-5.5315
X6.5898Y-5.6315
X6.6437Y-3.8091
X6.6732Y-5.1496
X6.6898Y-5.5315
X6.6898Y-5.6315
X6.7732Y-5.1496
X6.7898Y-5.5315
X6.7898Y-5.6315
X6.8732Y-5.1496
X6.8898Y-5.5315
X6.8898Y-5.6315
X6.9732Y-5.1496
X7.0732Y-5.1496
X7.1425Y-4.276
X7.1437Y-4.7955
X7.1732Y-5.1496
X7.2425Y-4.276
X7.2437Y-4.7955
X7.3425Y-4.276
X7.3437Y-4.7955
X7.4425Y-4.276
X7.4437Y-4.7955
X7.5425Y-4.276
X7.5437Y-4.7955
X7.6425Y-4.276
X7.6437Y-4.7955
X7.7425Y-4.276
X7.7437Y-4.7955
X7.8425Y-4.276
X7.8437Y-4.7955
X7.9346Y-3.0209
X7.9346Y-3.1209
X7.9346Y-3.2209
X7.9346Y-3.3209
X7.9346Y-3.4209
X7.9346Y-3.5209
T2
G00X6.0433Y-2.501
M15
G01X6.0433Y-2.4596
M16
G05
G00X6.5157Y-2.501
M15
G01X6.5157Y-2.4596
M16
G05
T0
M30
